<?xml version="1.0" encoding="utf-8"?>
<!-- Generator: Adobe Illustrator 18.0.0, SVG Export Plug-In . SVG Version: 6.00 Build 0)  -->
<!DOCTYPE svg PUBLIC "-//W3C//DTD SVG 1.1//EN" "http://www.w3.org/Graphics/SVG/1.1/DTD/svg11.dtd">
<svg version="1.1" id="Capa_1" xmlns="http://www.w3.org/2000/svg" xmlns:xlink="http://www.w3.org/1999/xlink" x="0px" y="0px"
	 viewBox="0 0 215.6 63.8" enable-background="new 0 0 215.6 63.8" xml:space="preserve">
<g>
	<path fill="#FFFFFF" d="M39.3,23.5c2.9,0,6.3-2.3,7.7-5.1c1.3-2.8,0-5.1-2.9-5.1c-2.9,0-6.3,2.3-7.7,5.1
		C35.1,21.2,36.4,23.5,39.3,23.5z"/>
	<path fill="#FFFFFF" d="M46.8,6c0,0-0.2,0-0.5,0c-0.3,0-0.8,0-1.4,0.1c-1.2,0.1-3.1,0.3-5.4,0.9c-2.3,0.6-5,1.6-7.9,3
		c-2.9,1.5-6,3.5-9.1,5.9c-3.1,2.5-6.2,5.4-9.1,8.9c-0.7,0.9-1.4,1.8-2.1,2.7c-0.3,0.5-0.7,1-1,1.4c-0.2,0.2-0.3,0.5-0.5,0.7
		c-0.1,0.3-0.3,0.5-0.5,0.8c-0.3,0.5-0.6,1-0.9,1.6c-0.3,0.5-0.6,1.1-0.8,1.6c-0.5,1.1-0.9,2.2-1.3,3.4c-0.4,1.2-0.6,2.4-0.8,3.6
		c-0.2,1.2-0.2,2.5-0.1,3.8c0.2,2.5,1.1,5,2.7,7.1c0.8,1,1.7,1.9,2.8,2.7c1.1,0.7,2.2,1.3,3.5,1.8c1.2,0.4,2.5,0.7,3.8,0.9
		c1.3,0.2,2.6,0.2,3.9,0.2c1.4-0.1,2.6-0.2,3.9-0.4c1.3-0.2,2.6-0.5,3.8-0.9c0.6-0.2,1.3-0.4,1.9-0.6c0.6-0.2,1.2-0.4,1.8-0.7
		c1.2-0.5,2.4-1,3.6-1.5c2.3-1.1,4.6-2.4,6.7-3.8c2.1-1.4,4.1-3,5.9-4.7c1.8-1.7,3.5-3.4,5-5.2c0.2-0.2,0.4-0.5,0.6-0.7
		c0.2-0.2,0.4-0.5,0.5-0.7c0.4-0.5,0.7-0.9,1-1.4c0.3-0.5,0.6-0.9,1-1.4c0.3-0.5,0.6-1,0.9-1.4c0.5-1,1.1-1.9,1.5-2.9
		c0.1-0.3,0.2-0.5,0.4-0.8c0.1-0.2,0.2-0.5,0.3-0.7c0.2-0.5,0.4-1,0.6-1.5c0.2-0.5,0.3-1,0.5-1.5c0.1-0.5,0.3-1,0.4-1.5
		c0.1-0.5,0.2-1,0.3-1.5c0-0.2,0.1-0.5,0.1-0.7c0-0.2,0-0.5,0.1-0.7c0.2-1.9,0-3.7-0.3-5.4c-0.4-1.7-1.1-3.2-2-4.5
		c-0.9-1.3-2-2.3-3.1-3.1c-0.1-0.1-0.3-0.2-0.4-0.3c-0.1-0.1-0.3-0.2-0.4-0.3c-0.1-0.1-0.3-0.2-0.4-0.3C56,8.1,55.8,8,55.7,8
		c-0.6-0.3-1.1-0.5-1.7-0.7c-2.2-0.8-4-1-5.3-1.1C48.1,6,47.6,6,47.3,6C47,6,46.8,6,46.8,6L46.8,6z M46.8,5.7L46.8,5.7
		c0,0,0.2,0,0.5,0c0.3,0,0.8,0,1.4,0.1c1.3,0.1,3.1,0.3,5.4,1c0.6,0.2,1.2,0.4,1.8,0.7c0.2,0.1,0.3,0.1,0.5,0.2
		c0.2,0.1,0.3,0.2,0.5,0.2C57,7.9,57.2,8,57.3,8.1c0.2,0.1,0.3,0.2,0.5,0.3c1.3,0.7,2.5,1.7,3.7,3c1.1,1.3,2.1,2.9,2.7,4.7
		c0.1,0.5,0.3,0.9,0.4,1.4c0.1,0.2,0.1,0.5,0.2,0.7c0,0.2,0.1,0.5,0.1,0.8c0,0.3,0.1,0.5,0.1,0.8c0,0.3,0.1,0.5,0.1,0.8
		c0,0.5,0.1,1.1,0,1.6c0,0.3,0,0.5,0,0.8c0,0.3,0,0.5-0.1,0.8c0,0.5-0.1,1.1-0.2,1.6c-0.1,0.5-0.2,1.1-0.3,1.6
		c-0.1,0.5-0.3,1.1-0.4,1.6c-0.2,0.5-0.3,1.1-0.6,1.6c-0.1,0.3-0.2,0.5-0.3,0.8c-0.1,0.3-0.2,0.5-0.3,0.8c-0.5,1.1-1,2.1-1.6,3.2
		c-1.2,2.1-2.6,4.1-4.2,6.1c-1.6,1.9-3.4,3.8-5.3,5.5c-3.9,3.4-8.4,6.4-13.4,8.6c-2.5,1.1-5.1,2-7.8,2.6c-1.3,0.3-2.7,0.5-4.1,0.7
		c-1.4,0.1-2.8,0.2-4.1,0.2c-1.4-0.1-2.8-0.2-4.1-0.5c-1.4-0.3-2.7-0.6-4-1.2c-2.6-1-4.9-2.7-6.5-4.9c-0.8-1.1-1.5-2.3-2-3.5
		c-0.5-1.3-0.8-2.6-1-3.9c-0.2-1.3-0.2-2.7-0.1-4c0.1-1.3,0.3-2.6,0.6-3.9c0.3-1.3,0.7-2.5,1.1-3.7c0.1-0.3,0.2-0.6,0.3-0.9l0.2-0.4
		l0.1-0.2c0,0,0-0.1,0.1-0.1l0-0.1c0.3-0.6,0.5-1.2,0.8-1.7c0.1-0.3,0.3-0.6,0.4-0.8c0.1-0.3,0.3-0.5,0.5-0.8
		c0.3-0.5,0.6-1.1,0.9-1.6c0.7-1,1.4-2,2.1-3c2.9-3.8,6.3-6.8,9.6-9.2c1.7-1.2,3.4-2.2,5-3.1c1.7-0.9,3.3-1.6,4.8-2.2
		c0.4-0.1,0.8-0.3,1.1-0.4c0.4-0.1,0.8-0.3,1.1-0.4c0.4-0.1,0.7-0.2,1.1-0.4c0.4-0.1,0.7-0.2,1-0.3c0.7-0.2,1.4-0.4,2-0.5
		c0.6-0.2,1.2-0.3,1.8-0.4c2.3-0.5,4.2-0.7,5.4-0.7c0.6-0.1,1.1,0,1.4-0.1C46.6,5.7,46.8,5.7,46.8,5.7L46.8,5.7z"/>
	<path fill="#FFFFFF" d="M35,37.1c0,0-2.6,2.1-4.4,3.5c-3.3,2.5-7.8,6.6-10.2,10.9c0,0,10.8,0.5,13.4-1.4
		C36.2,48.4,37.6,41.3,35,37.1z"/>
	<path fill="#FFFFFF" d="M34.1,36.5c3.3-2.6,7.9-6.6,10.3-10.7c0,0-10.6-0.4-13.3,1.4c-2.4,1.6-3.6,6.8-1.3,12.7
		C29.8,40,32.3,37.9,34.1,36.5z"/>
</g>
<g>
	<path fill="#FFFFFF" d="M199.4,46.8c-0.9-0.1-1-1.7-1-1.7c-0.1-10.2,14.5-28.8,14.5-28.8s-0.5-0.5-1.8-1.7
		c-1.4-1.3-4.3-1.5-8.2,7.8c-3.9,9.4-4.3,8.3-4.3,8.3c1.5-5.9-6.5-4.7-6.5-4.7s-4.9,4.5-7.9,11.4c-0.7,1.7-1.2,3.3-1.4,4.8
		c-7.9,9.2-11.3,4.4-11.5,3.2c-0.2-0.9-0.1-1.3-0.1-1.9c0.1-1.1,0.4-2,0.9-1.9c5.7,1,10.7-3.7,12.7-10.1c2-6.4-6.7-5.3-6.7-5.3
		c-6.7,4.3-12.9,14.3-10.9,20.1c-1.1,0.6-2.1,1.1-2.1,1.1c-0.9,0.4-1.5,0.4-1.7,0c-0.5-0.8,0-4.6,0.6-6.6c0.9-3,2.1-4.9,3.2-6.7
		c0.8-1.3,2.8-3.1,3.3-4.4c0.3-0.7,0.3-1.3,0.1-1.7c-0.2-0.3-0.4-0.5-0.8-0.6c-1.8-0.6-5.6,1.9-8.4,3.6c-1.4,0.9-2.6,1.2-3.5,0.9
		c-0.8-0.3-1.1-0.9-1.2-1.3c0.1,0.2,0.3,0.3,0.4,0.5c0.4,0.4,1.2,0.7,2.4,0.4c0,0,0.1,0,0.1,0c0,0,0,0,0,0c1-1.3,1.3-2.8,0.7-4
		c-0.3-0.6-0.8-1.1-1.4-1.3c-0.7-0.2-2.1-0.6-2.1-0.6s-1.3,2.2-1.7,2.9c-1,1.7-1.2,3.2-0.7,4.4c0.6,1.2,1.5,1.6,1.8,1.7
		c0,0.1-0.1,0.2-0.1,0.3c-0.6,1.4-3.6,7.7-7.4,11.4c-2.4,2.2-5.9,4.8-3.8-1.3c3.1-8.7,4.5-8.5,4.5-10.1c0-1.1-2.8-2.4-4.7-1.9
		c0,0-2.9,5.5-4.2,11c-0.2,0.8-0.3,1.7-0.2,2.5c-0.8,0.7-2,1.8-2.9,1.7c-0.9-0.1,0-4.6,0.5-6.1c2.5-7.2,5.7-13.6,8.3-18.3
		c4.7-1.8,7.9-3.9,11.9-3.9c5.2,0.1,6.5,3.3,6.8,3.2c0.1,0-0.9-2.7-3.2-3.8c-5-2.3-8.3-0.4-13.6,1.2c1.7-2.8,2.9-4.5,2.9-4.5
		s-0.4-0.9-2.1-1.5c-2.3-0.8-4.2,1.6-6.9,6.6c2.4,0.2,5.7-0.8,4.3-0.2c-0.1,0-0.2,0.1-0.3,0.1c-1.3,0.3-2.7,0.6-4.3,0.8
		c0,0-0.1,0-0.1,0c0,0,0,0,0,0c0,0,0,0,0,0c-9.8,1.2-13.8-0.9-13.8-0.9s-2.4,4.7,5.3,4.9c2.5,0.1,4.7-0.1,6.7-0.4
		c-0.3,0.6-0.6,1.2-0.9,1.8c-6.7,13.6-6.3,14.4-7,17.1c-0.2,0.7-0.3,1.3-0.3,1.9c-1.9,1.9-4.5,4.3-3.4-0.6
		c1.9-8.4,9.8-17.9,4.2-18.6c-2.3-0.2-3.4-0.8-3.4-0.8s-5.8,1.6-10,14.3c-0.5,1.6-1.4,3.6,1.1-4.4c2.1-6.6,5.4-7.8,2.1-9.1
		c-2.8-1.1-1.8-0.8-1.8-0.8l-6.8,14.6c-8.7,11.3-12.5,6-12.7,4.7c-0.2-0.9-0.1-1.3-0.1-1.9c0.1-1.1,0.4-2,0.9-1.9
		c5.7,1,10.7-3.7,12.7-10.1c2-6.4-6.7-5.3-6.7-5.3c-6.7,4.3-12.9,14.3-10.9,20.1c-0.8,0.4-1.7,0.7-2.3,0.7c-0.9-0.1-1-1.7-1-1.7
		c-0.1-10.2,14.5-28.8,14.5-28.8s-0.5-0.5-1.8-1.7c-1.4-1.3-4.3-1.5-8.2,7.8c-3.9,9.4-4.3,8.3-4.3,8.3C95,24.9,87,26,87,26
		s-4.9,4.5-7.9,11.4c-1.5,3.4-1.9,6.4-1.4,8.6c-2,1.7-7.5,5.8-5-1.4c3.1-8.7,4.5-8.5,4.5-10.1c0-1.1-2.8-2.4-4.7-1.9
		c0,0-2.9,5.5-4.2,11c-1.3,5.4,3.9,10,9.7,3.5c0.6,1.6,1.8,2.6,3.3,2.9c5,0.9,7.7-8.3,7.1-5.6c-1,3.2,0,5.3,1.7,5.6
		c2.8,0.4,5.4-1.4,7-2.9c0.3,0.6,0.8,1.2,1.4,1.6c5.1,4.1,11.2-1.5,13.7-4.4c-2,6.4,3.6,5.8,4.6,5.1c1-0.6,1.3-4.4,5-11.5
		c3.5-6.8,8-9.7,5.9-4.5c-2.1,5.2-4.8,12.5-2.9,15.2c1.4,2,4.3,2.4,6.9-1.3c0.3,1.6,1.3,2.6,2.4,2.7c3.3,0.4,5.6-1.4,6.6-2.8
		c1,2.8,4,4.3,8.1,0.9c2-1.6,5.9-5.5,9.2-13.9c0.7-0.1,1.9-0.8,3.2-1.5c0.3-0.2,0.6-0.3,0.9-0.5c0.7-0.3,1.3-0.6,1.9-0.9
		c0,0-0.1,0-0.1,0.1c0.5-0.2,2.4-0.7,2.7-0.7c0,0-1.9,0.7-3.6,1.6c-0.7,1.2-2.9,4.2-4.3,9c-1,3.3-1.4,6.6-0.3,7.9
		c0.6,0.7,1.5,0.9,2.7,0.9c3.1-0.1,4.8-1.5,6.6-2.8c0.3,0.5,0.7,1,1.2,1.4c5,4,10.9-1.3,13.5-4.2c0.1,3,1.5,5,3.8,5.5
		c5,0.9,7.7-8.3,7.1-5.6c-1,3.2,0,5.3,1.7,5.6c4,0.6,7.9-3.5,8.3-4.5C203.9,44.8,201,47,199.4,46.8z M91.1,33.8
		c-1.5,6.9-6.9,12-6.9,12c-5.2,5.1-0.6-8.1,2.3-12.1C87.8,32,92.6,26.9,91.1,33.8z M102.3,39.3c0-0.1,0-0.1,0.1-0.2
		c0.5-1.1,3.3-6,7.8-10.2c2.2-1.9,0.3,3.5-1.2,5.9c-1.6,2.4-3,3.7-4.2,4.3c-0.1,0-0.4,0.2-0.4,0.2s-2,1-3.9-0.2
		C99.3,38.4,100.8,39.3,102.3,39.3z M172.9,39.3c0-0.1,0-0.1,0.1-0.2c0.5-1.1,3.3-6,7.8-10.2c2.2-1.9,0.3,3.5-1.2,5.9
		c-1.6,2.4-3,3.7-4.2,4.3c-0.1,0-0.4,0.2-0.4,0.2s-2,1-3.9-0.2C169.8,38.4,171.4,39.3,172.9,39.3z M196.2,33.8
		c-1.5,6.9-6.9,12-6.9,12c-5.2,5.1-0.6-8.1,2.3-12.1C192.9,32,197.6,26.9,196.2,33.8z"/>
	<path fill="#FFFFFF" d="M76.5,32.1c1.1,0.4,1.9-0.3,2.7-1.3c2-2.5,3-4,0.5-5.1c-2.5-1.1-3.6-0.9-3.6-0.9s-2.4,4.1-2.2,5.3
		C74,31,74.8,31.5,76.5,32.1z"/>
	<path fill="#FFFFFF" d="M148.7,24.9c0,0-2.4,4.1-2.2,5.3c0.2,0.8,1,1.3,2.7,1.9c1.1,0.4,1.9-0.3,2.7-1.3c2-2.5,3-4,0.5-5.1
		C149.9,24.6,148.7,24.9,148.7,24.9z"/>
</g>
</svg>
