<?xml version="1.0" encoding="utf-8"?>
<!-- Generator: Adobe Illustrator 18.0.0, SVG Export Plug-In . SVG Version: 6.00 Build 0)  -->
<!DOCTYPE svg PUBLIC "-//W3C//DTD SVG 1.1//EN" "http://www.w3.org/Graphics/SVG/1.1/DTD/svg11.dtd">
<svg version="1.1" id="Capa_1" xmlns="http://www.w3.org/2000/svg" xmlns:xlink="http://www.w3.org/1999/xlink" x="0px" y="0px"
	 viewBox="0 0 100.1 68.5" enable-background="new 0 0 100.1 68.5" xml:space="preserve">
<path fill="#B2DAD2" d="M94.9,14.3L14,2.6c-1.4-0.2-2.9,0.7-3.1,2.2l-0.4,2.6l1,0.1L11.3,9l-1-0.1l-0.3,2l1,0.1l-0.2,1.5l-1-0.1
	l-0.3,2l1,0.1l-0.2,1.5l-1-0.1L9,18l1,0.1l-0.2,1.5l-1-0.1l-0.3,2l1,0.1l-0.2,1.5l-1-0.1l-0.3,2l1,0.1l-0.2,1.5l-1-0.1l-0.3,2l1,0.1
	l-0.2,1.5l-1-0.1l-0.3,2l1,0.1L7.7,34l-1-0.1l-0.3,2l1,0.1l-0.2,1.5l-1-0.1l-0.3,2l1,0.1l-0.2,1.5l-1-0.1l-0.3,2l1,0.1l-0.2,1.5
	l-1-0.1l-0.3,2l1,0.1l-0.2,1.5l-1-0.1l-0.3,2l1,0.1l-0.2,1.5l-1-0.1l-0.3,2c-0.2,1.4,1,2.8,2.4,3L87,68.5c1.4,0.2,2.9-0.7,3.1-2.2
	l7.1-49.1C97.5,15.8,96.3,14.5,94.9,14.3z M87.1,65.9L6.3,54.2l7.1-49.1l80.8,11.7L87.1,65.9z"/>
<path fill="#FFFFFF" d="M76.1,44.8c0,0,0.1,0,0.1,0c0.2,0.1,0.5-0.2,0.7-0.2c0.2-0.1,0.4-0.3,0.6-0.4c-0.4-0.5-0.8-0.9-1.1-1.4
	c-0.1-0.1,0-0.2,0-0.3c0,0-0.1,0-0.1,0c-0.1,0.5-0.1,1-0.2,1.5C76.1,44.2,76.1,44.5,76.1,44.8z"/>
<path fill="#FFFFFF" d="M77.7,44.7c-0.4,0.3-1.1,0.7-1.6,0.6c0,0.2,0,0.5-0.1,0.4c0.1,0,0.1,0.1,0.1,0.1c0,0,0,0,0,0
	c0.7,0.6,2,0.7,3,0.6c-0.3-0.7-0.8-1.3-1.3-1.9C77.8,44.6,77.7,44.7,77.7,44.7z"/>
<path fill="#FFFFFF" d="M77.5,38.6c1,0.4,2.1,0.1,3.2,0.2c-0.1-0.2-0.1-0.5-0.1-0.7c-0.3-0.5-0.8-1-1.1-1.3
	c-0.6,0.6-1.3,1.2-2.1,1.5c-0.3,0.1-0.5-0.4-0.2-0.5c0.7-0.3,1.3-0.8,1.9-1.4c-0.4-0.4-0.8-0.8-1.2-1.3c-0.1,0-0.2-0.1-0.3-0.1
	c0,0,0,0,0,0C77.2,36.2,76.3,38.2,77.5,38.6z"/>
<path fill="#FFFFFF" d="M79.2,43c0.2-0.2,0.6,0.1,0.4,0.4c-0.4,0.4-0.8,0.7-1.3,1c0.5,0.5,0.9,1.1,1.2,1.7c0-0.1,0-0.2,0.1-0.2
	c0-0.4,0.1-0.7,0.1-1.1c0-0.6,0-1.2,0-1.9c0,0,0,0,0-0.1c0,0-0.1,0-0.1,0c-0.9,0.1-1.8-0.1-2.7-0.3c0.3,0.5,0.7,0.9,1,1.4
	C78.3,43.6,78.8,43.3,79.2,43z"/>
<path fill="#FFFFFF" d="M74.6,53.8c0.4,1,2.8,0.8,3.7,0.9c0,0,0,0,0,0c-0.5-0.5-0.9-1.2-1.4-1.7c-0.6,0.4-1.3,0.7-1.9,1
	c-0.3,0.1-0.5-0.4-0.2-0.5c0.6-0.2,1.1-0.5,1.7-0.8c-0.5-0.5-1-1.1-1.3-1.8c-0.1-0.3,0.4-0.5,0.5-0.2c0.2,0.7,0.7,1.2,1.2,1.7
	c0.6-0.4,1.2-0.9,1.7-1.5c-1.3,0.1-2.5-0.3-3.7-0.5C75,51.5,74.3,52.8,74.6,53.8z"/>
<path fill="#FFFFFF" d="M65.8,30.1c-2.3-0.8-4.9-1-7.3-1.4c-2.2-0.4-4.5-0.6-6.7-0.8c-2.3-0.2-4.6-0.8-6.9-0.9
	c-2-0.1-3.9,0.1-5.9-0.1c0.1,1.6-0.5,3.3-0.7,4.8c-0.2,1.1-0.4,2.1-0.5,3.2c0,0.3-0.2,1.7-0.2,1.7c0,0,0,0,0,0
	c1.2,0.4,2.5,0.2,3.7,0.3c1.2,0.1,2.5,0.3,3.7,0.5c2.5,0.5,5.1,0.7,7.7,1c2.6,0.2,5.3,0.5,7.9,0.8c1.2,0.1,3.2-0.1,4.3,0.7
	c0.7-0.8,0.4-3.5,0.4-4.3C65.3,33.8,65.6,31.9,65.8,30.1z M62.1,38.1c-0.9-0.3-1.8-1-2.7-1.4c-0.8-0.4-1.7-0.7-2.5-1.1
	c-1.8-0.8-3.7-1.5-5.5-2.3c-0.6,0.1-1.3,0.3-1.9,0.3c-1.9,0.2-3.9,0.4-5.8,0.8c-1.7,0.4-3.4,1-5.1,1.3c-0.3,0.1-0.4-0.5-0.1-0.5
	c1.9-0.3,3.6-1.1,5.5-1.4c1.8-0.3,3.5-0.5,5.3-0.7c0.4,0,0.7-0.1,1.1-0.2c-3.5-1.4-6.8-3.2-10.2-5.1c-0.3-0.2-0.1-0.6,0.2-0.5
	c3.6,2,7.1,3.9,10.9,5.4c1.1-0.2,2.3-0.5,3.4-0.8c1.9-0.4,3.9-0.8,5.8-1.4c0.2-0.1,0.4,0.1,0.3,0.3c-0.1,0.2-0.2,0.2-0.4,0.2
	c0,0,0,0,0,0c-1.7,0.5-3.4,0.9-5.2,1.3c-1,0.2-2,0.5-3,0.7c1.8,0.7,3.5,1.5,5.3,2.2c1.6,0.7,3.1,1.7,4.7,2.3
	C62.6,37.8,62.4,38.3,62.1,38.1z"/>
<path fill="#FFFFFF" d="M6.3,54.2l80.8,11.7l7.1-49.1L13.4,5.1L6.3,54.2z M64,55.8c-2.8-0.7-5.7-1.3-8.7-1.2c-1.2,0-2.5-0.1-3.7-0.2
	c-1-0.1-2.1,0-3.1-0.3c-0.3-0.1-0.1-0.6,0.2-0.5c1.2,0.3,2.6,0.3,3.9,0.4c1.4,0.1,2.8,0.1,4.2,0.1c2.3,0,4.7,0.6,7,1.1
	c0.1,0,0.1-0.1,0.2,0c0.1,0.1,0.2,0.1,0.3,0.2C64.4,55.6,64.3,55.9,64,55.8z M80.2,59.2c-1.8-0.8-3.6-1.1-5.6-1.2
	c-1.1-0.1-2.3-0.3-3.3-0.8c-0.3-0.2,0-0.6,0.2-0.5c1.5,0.8,3.3,0.8,4.9,0.9c1.4,0.1,2.7,0.6,4,1.2C80.8,58.9,80.5,59.3,80.2,59.2z
	 M78.3,31.1c0.7,0.4,1.5,0.4,2.2,0.4c0.1,0,0.3,0,0.5,0c0,0,0,0,0,0c-0.3-0.5-0.6-1.1-0.9-1.7c-0.4,0.3-0.9,0.6-1.4,0.8
	c-0.3,0.1-0.6-0.3-0.3-0.4c0.5-0.2,0.9-0.5,1.4-0.8c-0.2-0.4-0.5-0.8-0.9-1c-0.3-0.2,0-0.6,0.2-0.5c0.5,0.3,0.8,0.7,1.1,1.2
	c0.3-0.2,0.6-0.5,0.8-0.8c0.2-0.2,0.6,0.1,0.4,0.4c-0.3,0.3-0.6,0.6-1,0.9c0.3,0.6,0.6,1.2,0.9,1.7c0.1,0.1,0,0.2,0,0.3
	c0.2,0,0.3,0,0.4,0c0-0.1,0.1-0.2,0.2-0.2c0-0.1-0.1-0.1-0.1-0.2c0.2-0.8,0.4-2.7-0.7-3c-0.8-0.2-1.7-0.2-2.5-0.3
	c-0.3-0.1-0.2-0.6,0.1-0.5c0.9,0.2,2.6-0.1,3.3,0.8c0.6,0.8,0.5,2.2,0.3,3.1c0,0.1-0.1,0.2-0.2,0.2c0,0,0,0,0,0.1c0,0,0,0,0,0
	c0.1,0.1,0.1,0.2,0,0.3c0,0,0,0,0,0.1c0,0.1-0.1,0.1-0.2,0.1c-1.3,0-3.4,0.4-4.4-0.7c-0.8-0.9,0.2-2.6,0.4-3.6
	c0.1-0.3,0.6-0.2,0.5,0.1C78.5,28.6,77.4,30.6,78.3,31.1z M77.6,34.5c0.1-0.1,0.3-0.1,0.4,0.1c0,0.1,0.1,0.1,0.2,0.2
	c0.8,0.2,1.6,0.2,2.3,0.4c0.3,0.1,0.2,0.6-0.1,0.5c-0.6-0.1-1.1-0.2-1.7-0.3c0.2,0.3,0.5,0.5,0.7,0.7c0,0,0.1-0.1,0.1-0.1
	c0.2-0.2,0.6,0.1,0.4,0.4c0,0-0.1,0.1-0.1,0.1c0.2,0.2,0.3,0.4,0.5,0.6c0.1,0.1,0.2,0.3,0.4,0.4c0.1-0.6,0.2-1.3,0.1-1.9
	c0-0.3,0.5-0.3,0.5,0c0.1,0.5,0,1.1-0.1,1.6c0,0.3-0.1,0.6-0.1,0.9l0,0c0.2,0.3,0.2,0.6,0.2,1c0,0,0,0,0,0.1c0.1,0.1,0,0.2-0.4,0.1
	c-0.5-0.1-1.6,0.1-2.3,0c-0.7-0.1-1.3-0.1-1.8-0.6c-1.1-1,0.2-3.2,0.4-4.3C77.2,34.2,77.6,34.2,77.6,34.5z M79.6,42.3
	c0.2,0,0.3,0.2,0.2,0.3c0.2-0.1,0.4-0.1,0.4,0.2c0,0.6,0,1.2,0,1.9c0,0.3,0,0.6,0,0.9c0,0.1-0.1,0.4-0.1,0.3
	c0.2,0.3-0.3,0.6-0.4,0.3l0,0c0,0.1,0.1,0.1,0.1,0.2c0.3,0,0.3,0.5,0,0.5c-1.2,0.2-3,0.2-3.9-0.7c0,0-0.1-0.1-0.1-0.1
	c-0.3-0.4-0.1-1.3-0.1-1.7c0.1-0.8,0.1-1.6,0.3-2.3c0-0.1,0.2-0.2,0.3-0.2C77.3,42.1,78.4,42.4,79.6,42.3z M79,50.4
	c0.2,0,0.3,0.1,0.3,0.2c0.1,0,0.2,0.1,0.2,0.2c0,1.2-0.2,2.4-0.5,3.6c0,0.1-0.1,0.1-0.1,0.1c0.1,0.1,0.1,0.1,0.2,0.2
	c0.2,0.2-0.1,0.6-0.4,0.4c-0.1-0.1-0.1-0.1-0.2-0.2c0,0.2-0.1,0.3-0.3,0.3c-1.1-0.1-3.3,0.1-4-1c-0.6-1.2,0.4-2.8,0.3-4.1
	c0-0.2,0.2-0.3,0.3-0.3C76.2,50.1,77.6,50.6,79,50.4z M84,33.1c-0.4,2.7-0.7,5.5-1,8.2c-0.4,3-0.7,5.9-1,8.9
	c-0.2,1.6-0.4,3.3-0.4,4.9c0,1.2-0.1,2.3-0.4,3.5c-0.1,0.3-0.6,0.2-0.5-0.1c0.4-1.6,0.3-3.2,0.4-4.9c0.1-1.2,0.2-2.4,0.4-3.6
	c0.3-2.7,0.5-5.3,0.9-8c0.4-2.7,0.7-5.5,1-8.2c0.2-1.2,0.3-2.5,0.6-3.7c0.2-1.1,0.5-2.2,0.1-3.3c-0.1-0.3,0.4-0.5,0.5-0.2
	C85.2,28.7,84.3,31.1,84,33.1z M77,23.7c0.7,0.3,1.7,0.1,2.5,0.2c0.5,0,1,0.3,1.4,0.4c1.3,0.5,2.7,0.8,4.2,1.1L85,25.9
	c-1.5-0.4-3.1-0.8-4.6-1.3c-1.2-0.4-2.6,0-3.7-0.5C76.4,24,76.7,23.6,77,23.7z M70.7,56.6c1.3-5.3,1.7-10.9,2.7-16.3
	c1-5.3,2-10.5,2.5-15.8c0-0.3,0.5-0.2,0.5,0.1c-0.6,5.5-1.6,10.9-2.6,16.3c-0.9,5.2-1.3,10.6-2.6,15.8C71.1,57.1,70.6,57,70.7,56.6z
	 M20.6,14.5c0.3,0.2,0.1,0.6-0.2,0.5c-1-0.6-0.7,1.3-0.5,1.7c0.2,0.4,0.4,0.9,0.9,1.1c0.8,0.3,1.5-0.1,1.6-0.8
	c-0.3-0.2-0.4-0.6-0.4-1.2c0-0.3,0.3-0.3,0.5-0.1c0.3,0.3,0.5,0.7,0.5,1c0.5,0.3,1.4,0.1,1.8,0.2c0.5,0.1,1,0.4,1.5,0.6
	c2,0.7,4,0.6,6.1,0.6c1.5,0,3,0.1,4.3,0.9c0.9,0.5,1.8,1.1,2.9,1.3c1,0.1,1.9,0.1,2.9,0.1c4.1,0,8.3,0.6,12.4,1.3
	c2.1,0.4,4.3,0.5,6.5,0.6c1,0.1,1.9,0.1,2.9,0.1c0.9,0,1.9,0.3,2.8,0.1c0.2,0,0.3,0.1,0.3,0.3c0,0,0,0.1,0,0.1
	c-0.1,0.2-0.3,0.3-0.5,0.1c-0.9,0.1-1.8-0.1-2.7-0.2c-1.1,0-2.3-0.1-3.4-0.2c-2.3-0.1-4.6-0.4-6.9-0.8c-2.5-0.4-4.9-0.8-7.4-1
	c-2.1-0.2-4.3,0.1-6.4-0.2c-1.9-0.2-3.3-1.7-5.2-2c-2-0.3-4-0.1-6-0.3c-1.7-0.2-3.2-1.1-5-1.2c-0.3,0-0.6-0.1-0.8-0.1
	c-0.4,1.1-2.3,1.7-3.1,0.3C19.3,16.7,18.7,13.4,20.6,14.5z M65,40.4C65,40.4,65,40.5,65,40.4C65,40.5,65,40.5,65,40.4
	c-0.2,0.1-0.4,0.1-0.5,0c0,0,0,0-0.1-0.1c-0.8-0.5-2.2-0.4-3-0.5c-1.2-0.1-2.3-0.3-3.5-0.4c-2.5-0.2-4.9-0.4-7.4-0.7
	c-2.4-0.2-4.7-0.7-7.1-1c-1.2-0.2-2.5-0.3-3.7-0.4c-0.9,0-1.7,0-2.5-0.3c-0.1,0-0.2-0.1-0.1-0.2c-0.4-0.9,0.3-3.4,0.4-3.9
	c0.2-1.3,0.4-2.5,0.7-3.8c0.1-0.7,0.3-1.5,0.3-2.2c0-0.2,0.2-0.3,0.3-0.3c0-0.1,0.1-0.2,0.3-0.2c2.1,0.2,4.2-0.1,6.3,0.1
	c2.3,0.3,4.6,0.7,7,1c2.4,0.2,4.8,0.5,7.2,0.9c2.2,0.4,4.5,0.5,6.6,1.3c0.1,0,0.2,0.2,0.1,0.3c0,0,0.1,0.1,0.1,0.2
	c-0.3,2.2-0.6,4.4-0.6,6.6C65.7,37.7,65.9,39.8,65,40.4z M19.4,23.6c0.3,1.9,3.4,0.4,4.5,0.5c2,0.3,3.9,1,6,1.2
	c1.3,0.1,2.6-0.1,3.8,0.1c0.5,0.1,1.2,0.1,1.2,0.7c0,0.3-0.5,0.4-0.5,0.1c0-0.6-2.6-0.2-3.1-0.3c-2.2-0.1-4.3-0.5-6.4-1.1
	c-1.6-0.5-2.9,0.2-4.5,0.2c-0.9,0-1.4-0.6-1.5-1.4C18.8,23.4,19.3,23.3,19.4,23.6z M25.4,32.4c-2.1-0.2-4.4-0.4-6.2-1.6
	c-0.3-0.2,0-0.6,0.3-0.4c2,1.3,4.4,1.4,6.7,1.5c2.4,0.1,4.8,0.4,7.2,0.7c0.3,0,0.3,0.6-0.1,0.5C30.7,32.8,28.1,32.6,25.4,32.4z
	 M31.4,36c-4.1-0.3-8.4-0.4-12.3-1.9c-0.3-0.1-0.1-0.6,0.2-0.5c3.9,1.5,8.1,1.6,12.2,1.9C31.8,35.5,31.7,36,31.4,36z M18.5,27.8
	L27,29c2.1,0.3,4.3,0.1,6.2,1.1c0.3,0.1,0.1,0.7-0.2,0.5c-2-1-4.4-0.9-6.5-1.2l-8-1.2L18.5,27.8z M18.1,38.4
	c4.2,0.6,8.3,0.6,12.5,1.3c4,0.7,8,1.3,12.1,1.6c2.1,0.1,4.1,0.5,6.1,0.7c2.1,0.2,4.2,0.1,6.3,0.2c4.1,0.2,8,1.6,12,2.3
	c0.3,0.1,0.2,0.7-0.1,0.6l-0.5-0.1c0,0-0.1-0.1-0.1-0.2c-4-0.8-7.8-2.2-11.9-2.2c-2.1,0-4.2,0-6.2-0.2c-1.9-0.2-3.8-0.5-5.7-0.7
	c-4.2-0.3-8.4-1-12.5-1.7c-4-0.7-8-0.7-12-1.2C17.7,38.9,17.8,38.4,18.1,38.4z M18.1,41.4c2,0.8,4.4,0.7,6.5,0.9
	c2.1,0.1,4.3,0.1,6.4,0.4c2.2,0.2,4.3,0.6,6.5,0.8c2,0.2,4,0.4,6,0.9c2.1,0.5,4.2,0.9,6.4,1c1.9,0.1,3.9,0,5.8,0.2
	c2,0.2,4,0.7,6.1,0.8c1.6,0.1,3.2,0.5,4.8,0.4c0-0.1,0.1,0,0.2,0l0.3,0c0.3,0,0.3,0.4,0,0.4c-1.8,0.2-3.6-0.3-5.4-0.4
	c-2-0.2-4-0.6-6.1-0.8c-2.1-0.2-4.2-0.1-6.3-0.2c-2.2-0.1-4.3-0.6-6.4-1.1c-2.2-0.5-4.3-0.6-6.5-0.9c-2.2-0.3-4.3-0.7-6.5-0.8
	c-2.1-0.1-4.2-0.2-6.4-0.4c-1.9-0.2-3.9-0.1-5.7-0.8C17.6,41.7,17.8,41.2,18.1,41.4z M17.5,44c4.2,1.1,8.4,1.1,12.7,1.5
	c4,0.4,8.1,1.1,12.1,1.9c2.1,0.4,4.1,1.1,6.2,1.3c2.1,0.2,4.2,0.4,6.3,0.7c3.7,0.6,7.3,1,11,1.4c0.3,0,0.3,0.5-0.1,0.5
	c-3.9-0.4-7.7-0.9-11.5-1.4c-2.1-0.3-4.2-0.4-6.3-0.7c-1.9-0.3-3.8-0.9-5.7-1.2c-4.1-0.8-8.4-1.6-12.6-1.9
	c-4.1-0.3-8.2-0.4-12.2-1.5C17.1,44.5,17.1,44,17.5,44z"/>
<path fill="#FFFFFF" d="M77.6,52.9c0.4,0.4,0.7,0.8,1,1.3c0.2-0.9,0.3-1.8,0.4-2.7c-0.4,0.5-0.9,0.9-1.5,1.3
	C77.5,52.8,77.5,52.8,77.6,52.9z"/>
<line fill="#FFFFFF" x1="5.9" y1="6.6" x2="5.7" y2="8.2"/>
<polyline fill="#FFFFFF" points="10.3,8.8 11.3,9 11.5,7.4 10.5,7.3 "/>
<polyline fill="#FFFFFF" points="10.8,12.5 11,11 10,10.9 "/>
<polygon fill="#FFFFFF" points="10,18.2 9,18 4.4,17.4 4.1,18.9 8.7,19.6 9.8,19.7 "/>
<polygon fill="#FFFFFF" points="9.5,21.8 8.4,21.6 3.8,20.9 3.6,22.5 8.2,23.1 9.2,23.3 "/>
<polygon fill="#FFFFFF" points="9,25.3 7.9,25.2 3.3,24.5 3.1,26 7.7,26.7 8.7,26.9 "/>
<polygon fill="#FFFFFF" points="8.4,28.9 7.4,28.8 2.8,28.1 2.6,29.6 7.2,30.3 8.2,30.4 "/>
<polygon fill="#FFFFFF" points="7.9,32.5 6.9,32.3 2.3,31.7 2.1,33.2 6.7,33.9 7.7,34 "/>
<polygon fill="#FFFFFF" points="7.4,36.1 6.4,35.9 1.8,35.3 1.6,36.8 6.2,37.5 7.2,37.6 "/>
<polygon fill="#FFFFFF" points="6.9,39.6 5.9,39.5 1.3,38.8 1,40.4 5.6,41 6.7,41.2 "/>
<polygon fill="#FFFFFF" points="6.4,43.2 5.3,43.1 0.7,42.4 0.5,43.9 5.1,44.6 6.1,44.8 "/>
<polygon fill="#FFFFFF" points="5.8,46.8 4.8,46.7 0.2,46 0,47.5 4.6,48.2 5.6,48.3 "/>
<path fill="#7F7F7F" d="M22.9,17.3c0.2,0.1,0.5,0.1,0.8,0.1c1.7,0,3.2,1,5,1.2c2,0.2,4-0.1,6,0.3c1.9,0.3,3.3,1.7,5.2,2
	c2.1,0.3,4.3,0,6.4,0.2c2.5,0.2,5,0.6,7.4,1c2.3,0.4,4.6,0.6,6.9,0.8c1.1,0.1,2.3,0.1,3.4,0.2c0.9,0,1.8,0.2,2.7,0.2
	c0.1,0.1,0.4,0.1,0.5-0.1c0,0,0-0.1,0-0.1c0-0.2-0.1-0.3-0.3-0.3c-0.9,0.1-1.9-0.1-2.8-0.1c-1,0-1.9-0.1-2.9-0.1
	c-2.2-0.1-4.3-0.2-6.5-0.6c-4.1-0.7-8.2-1.3-12.4-1.3c-1,0-1.9,0-2.9-0.1c-1.1-0.1-2-0.7-2.9-1.3c-1.3-0.7-2.9-0.8-4.3-0.9
	c-2.1,0-4.1,0.1-6.1-0.6c-0.5-0.2-1-0.5-1.5-0.6c-0.5-0.1-1.3,0.1-1.8-0.2c0-0.3-0.2-0.7-0.5-1c-0.1-0.1-0.5-0.1-0.5,0.1
	c0,0.5,0.1,0.9,0.4,1.2c-0.1,0.6-0.8,1-1.6,0.8c-0.5-0.2-0.7-0.6-0.9-1.1c-0.2-0.5-0.5-2.3,0.5-1.7c0.3,0.2,0.5-0.3,0.2-0.5
	c-1.9-1.1-1.4,2.2-0.9,3.1C20.6,19,22.5,18.4,22.9,17.3z"/>
<path fill="#7F7F7F" d="M20.4,25.1c1.6-0.1,2.9-0.7,4.5-0.2c2.1,0.6,4.2,1,6.4,1.1c0.5,0,3.1-0.4,3.1,0.3c0,0.3,0.5,0.3,0.5-0.1
	c0-0.6-0.7-0.7-1.2-0.7c-1.3-0.2-2.6,0.1-3.8-0.1c-2-0.2-4-0.9-6-1.2c-1.2-0.2-4.3,1.4-4.5-0.5c0-0.3-0.6-0.3-0.5,0.1
	C19,24.6,19.4,25.2,20.4,25.1z"/>
<path fill="#7F7F7F" d="M32.9,30.6c0.3,0.2,0.5-0.4,0.2-0.5c-1.9-1-4.1-0.8-6.2-1.1l-8.5-1.2l-0.1,0.5l8,1.2
	C28.6,29.7,31,29.6,32.9,30.6z"/>
<path fill="#7F7F7F" d="M33.5,32.7c-2.4-0.3-4.8-0.6-7.2-0.7c-2.3-0.1-4.8-0.3-6.7-1.5c-0.3-0.2-0.6,0.2-0.3,0.4
	c1.8,1.2,4.1,1.4,6.2,1.6c2.7,0.2,5.3,0.4,8,0.8C33.7,33.2,33.8,32.7,33.5,32.7z"/>
<path fill="#7F7F7F" d="M19.3,33.6c-0.3-0.1-0.5,0.4-0.2,0.5c3.9,1.5,8.2,1.6,12.3,1.9c0.3,0,0.4-0.5,0.1-0.5
	C27.4,35.2,23.2,35.1,19.3,33.6z"/>
<path fill="#7F7F7F" d="M66.4,30.2c0-0.1,0-0.2-0.1-0.2c0-0.1,0-0.2-0.1-0.3c-2.1-0.8-4.4-0.9-6.6-1.3c-2.4-0.4-4.8-0.7-7.2-0.9
	c-2.3-0.2-4.6-0.7-7-1c-2.1-0.2-4.2,0.1-6.3-0.1c-0.2,0-0.3,0.1-0.3,0.2c-0.1,0-0.3,0.1-0.3,0.3c0.1,0.7-0.2,1.5-0.3,2.2
	c-0.2,1.3-0.4,2.5-0.7,3.8c-0.1,0.5-0.8,3-0.4,3.9c0,0.1,0,0.2,0.1,0.2c0.8,0.3,1.6,0.3,2.5,0.3c1.3,0,2.5,0.2,3.7,0.4
	c2.4,0.3,4.7,0.8,7.1,1c2.5,0.2,4.9,0.4,7.4,0.7c1.2,0.1,2.3,0.3,3.5,0.4c0.8,0.1,2.2,0,3,0.5c0,0,0,0.1,0.1,0.1
	c0.1,0.1,0.2,0.2,0.4,0.1c0,0,0,0,0,0c0,0,0,0,0,0c0.9-0.6,0.7-2.8,0.7-3.7C65.8,34.6,66.1,32.4,66.4,30.2z M64.9,39.9
	c-1.1-0.8-3.1-0.5-4.3-0.7c-2.6-0.3-5.3-0.6-7.9-0.8c-2.6-0.2-5.1-0.5-7.7-1c-1.2-0.2-2.5-0.4-3.7-0.5c-1.2-0.1-2.5,0-3.7-0.3
	c0,0,0,0,0,0c0,0,0.1-1.4,0.2-1.7c0.1-1.1,0.3-2.1,0.5-3.2c0.3-1.5,0.8-3.3,0.7-4.8c2,0.2,3.9,0,5.9,0.1c2.3,0.1,4.6,0.7,6.9,0.9
	c2.2,0.2,4.5,0.4,6.7,0.8c2.4,0.4,5,0.6,7.3,1.4c-0.2,1.8-0.5,3.6-0.6,5.4C65.2,36.4,65.5,39.1,64.9,39.9z"/>
<path fill="#7F7F7F" d="M62.3,37.7c-1.6-0.6-3.1-1.6-4.7-2.3c-1.8-0.7-3.5-1.5-5.3-2.2c1-0.2,2-0.5,3-0.7c1.7-0.4,3.5-0.8,5.2-1.3
	c0,0,0,0,0,0c0.2,0,0.3,0,0.4-0.2c0.1-0.2-0.1-0.4-0.3-0.3c-1.9,0.6-3.8,1-5.8,1.4c-1.1,0.2-2.3,0.5-3.4,0.8
	c-3.8-1.5-7.3-3.4-10.9-5.4c-0.3-0.2-0.5,0.3-0.2,0.5c3.3,1.9,6.6,3.7,10.2,5.1c-0.4,0.1-0.7,0.1-1.1,0.2c-1.8,0.2-3.6,0.4-5.3,0.7
	c-1.9,0.3-3.6,1.1-5.5,1.4c-0.3,0.1-0.3,0.6,0.1,0.5c1.7-0.3,3.4-0.9,5.1-1.3c1.9-0.4,3.8-0.6,5.8-0.8c0.6-0.1,1.3-0.2,1.9-0.3
	c1.9,0.7,3.7,1.5,5.5,2.3c0.8,0.4,1.7,0.7,2.5,1.1c0.9,0.4,1.7,1,2.7,1.4C62.4,38.3,62.6,37.8,62.3,37.7z"/>
<path fill="#7F7F7F" d="M18,38.9c4,0.5,8,0.6,12,1.2c4.2,0.7,8.3,1.4,12.5,1.7c1.9,0.1,3.8,0.4,5.7,0.7c2.1,0.3,4.2,0.2,6.2,0.2
	c4.1,0.1,7.9,1.5,11.9,2.2c0,0,0,0.2,0.1,0.2l0.5,0.1c0.3,0,0.4-0.6,0.1-0.6c-4-0.7-7.9-2.1-12-2.3c-2.1-0.1-4.2,0-6.3-0.2
	c-2-0.2-4.1-0.6-6.1-0.7c-4.1-0.3-8-0.9-12.1-1.6c-4.1-0.7-8.3-0.8-12.5-1.3C17.8,38.4,17.7,38.9,18,38.9z"/>
<path fill="#7F7F7F" d="M17.9,41.8c1.8,0.7,3.8,0.7,5.7,0.8c2.1,0.2,4.2,0.2,6.4,0.4c2.2,0.2,4.3,0.5,6.5,0.8
	c2.2,0.3,4.3,0.4,6.5,0.9c2.1,0.5,4.2,1,6.4,1.1c2.1,0.1,4.2,0,6.3,0.2c2,0.1,4,0.6,6.1,0.8c1.8,0.1,3.6,0.6,5.4,0.4
	c0.3,0,0.3-0.3,0-0.4l-0.3,0c-0.1,0-0.2-0.1-0.2,0c-1.6,0.1-3.2-0.3-4.8-0.4c-2-0.1-4-0.6-6.1-0.8c-1.9-0.2-3.9-0.1-5.8-0.2
	c-2.2-0.1-4.3-0.5-6.4-1c-2-0.5-3.9-0.7-6-0.9c-2.2-0.2-4.3-0.6-6.5-0.8c-2.1-0.2-4.3-0.2-6.4-0.4c-2.1-0.1-4.6-0.1-6.5-0.9
	C17.8,41.2,17.6,41.7,17.9,41.8z"/>
<path fill="#7F7F7F" d="M17.4,44.6c4,1,8.1,1.1,12.2,1.5c4.2,0.3,8.4,1.2,12.6,1.9c1.9,0.4,3.8,1,5.7,1.2c2.1,0.3,4.2,0.4,6.3,0.7
	c3.8,0.5,7.7,1.1,11.5,1.4c0.3,0,0.4-0.5,0.1-0.5c-3.7-0.4-7.4-0.8-11-1.4c-2.1-0.3-4.2-0.5-6.3-0.7c-2.1-0.2-4.1-0.9-6.2-1.3
	c-4-0.8-8-1.5-12.1-1.9c-4.3-0.4-8.5-0.4-12.7-1.5C17.1,44,17.1,44.5,17.4,44.6z"/>
<path fill="#7F7F7F" d="M64,55.2c-0.1,0-0.2,0-0.2,0c-2.3-0.5-4.7-1.1-7-1.1c-1.4,0-2.8,0-4.2-0.1c-1.2-0.1-2.7,0-3.9-0.4
	c-0.3-0.1-0.5,0.4-0.2,0.5c1,0.3,2.1,0.2,3.1,0.3c1.2,0.1,2.5,0.3,3.7,0.2c2.9-0.1,5.8,0.5,8.7,1.2c0.2,0.1,0.4-0.2,0.2-0.4
	C64.2,55.3,64.1,55.3,64,55.2z"/>
<path fill="#7F7F7F" d="M71.2,56.7c1.3-5.2,1.6-10.6,2.6-15.8c1-5.4,2-10.8,2.6-16.3c0-0.3-0.5-0.4-0.5-0.1
	c-0.6,5.3-1.6,10.6-2.5,15.8c-1,5.4-1.3,11-2.7,16.3C70.6,57,71.1,57.1,71.2,56.7z"/>
<path fill="#7F7F7F" d="M80.5,58.7c-1.3-0.6-2.6-1-4-1.2c-1.6-0.1-3.4-0.1-4.9-0.9c-0.3-0.2-0.5,0.3-0.2,0.5c1,0.6,2.2,0.7,3.3,0.8
	c2,0.2,3.8,0.4,5.6,1.2C80.5,59.3,80.8,58.9,80.5,58.7z"/>
<path fill="#7F7F7F" d="M84.1,26.9c0.4,1.1,0.1,2.2-0.1,3.3c-0.2,1.2-0.4,2.5-0.6,3.7c-0.4,2.7-0.7,5.5-1,8.2
	c-0.4,2.7-0.6,5.3-0.9,8c-0.1,1.2-0.3,2.4-0.4,3.6c-0.1,1.6,0,3.3-0.4,4.9c-0.1,0.3,0.4,0.4,0.5,0.1c0.3-1.2,0.4-2.3,0.4-3.5
	c0-1.7,0.3-3.3,0.4-4.9c0.3-3,0.6-6,1-8.9c0.4-2.7,0.7-5.5,1-8.2c0.3-1.9,1.2-4.4,0.5-6.3C84.4,26.4,84,26.6,84.1,26.9z"/>
<path fill="#7F7F7F" d="M76.7,24.2c1.1,0.5,2.5,0.1,3.7,0.5c1.5,0.5,3.1,0.9,4.6,1.3l0.1-0.5c-1.5-0.4-2.9-0.6-4.2-1.1
	c-0.4-0.2-1-0.4-1.4-0.4c-0.8-0.1-1.8,0.2-2.5-0.2C76.7,23.6,76.4,24,76.7,24.2z"/>
<path fill="#7F7F7F" d="M78.2,27.8c-0.2,1-1.2,2.7-0.4,3.6c1,1.1,3.1,0.7,4.4,0.7c0.1,0,0.2-0.1,0.2-0.1c0,0,0,0,0-0.1
	c0.1-0.1,0-0.2,0-0.3c0,0,0,0,0,0c0,0,0-0.1,0-0.1c0.1,0,0.2-0.1,0.2-0.2c0.2-0.9,0.3-2.3-0.3-3.1c-0.7-0.9-2.3-0.6-3.3-0.8
	c-0.3-0.1-0.4,0.4-0.1,0.5c0.8,0.2,1.7,0.1,2.5,0.3c1.1,0.3,0.9,2.2,0.7,3c0,0.1,0,0.2,0.1,0.2c-0.1,0-0.2,0.1-0.2,0.2
	c-0.1,0-0.2,0-0.4,0c0.1-0.1,0.1-0.2,0-0.3c-0.4-0.5-0.6-1.1-0.9-1.7c0.3-0.3,0.7-0.6,1-0.9c0.2-0.2-0.2-0.6-0.4-0.4
	c-0.3,0.3-0.5,0.5-0.8,0.8c-0.3-0.4-0.6-0.9-1.1-1.2c-0.3-0.2-0.5,0.3-0.2,0.5c0.4,0.3,0.7,0.6,0.9,1c-0.4,0.3-0.9,0.6-1.4,0.8
	c-0.3,0.1,0,0.6,0.3,0.4c0.5-0.2,0.9-0.5,1.4-0.8c0.3,0.6,0.5,1.1,0.9,1.6c0,0,0,0,0,0c-0.2,0-0.5,0-0.5,0c-0.8,0-1.6,0-2.2-0.4
	c-0.9-0.5,0.2-2.5,0.3-3.3C78.7,27.5,78.2,27.4,78.2,27.8z"/>
<path fill="#7F7F7F" d="M77.1,34.4c-0.2,1.1-1.4,3.3-0.4,4.3c0.5,0.5,1.1,0.5,1.8,0.6c0.8,0.1,1.8-0.1,2.3,0c0.3,0.1,0.5,0,0.4-0.1
	c0,0,0,0,0-0.1c0.1-0.3,0-0.6-0.2-1l0,0c0-0.3,0.1-0.6,0.1-0.9c0.1-0.5,0.2-1.1,0.1-1.6c0-0.3-0.6-0.3-0.5,0c0.1,0.6,0,1.3-0.1,1.9
	c-0.1-0.2-0.2-0.3-0.4-0.4c-0.2-0.2-0.3-0.4-0.5-0.6c0,0,0.1-0.1,0.1-0.1c0.2-0.2-0.1-0.6-0.4-0.4c0,0-0.1,0.1-0.1,0.1
	c-0.2-0.2-0.5-0.5-0.7-0.7c0.6,0.1,1.1,0.1,1.7,0.3c0.3,0.1,0.4-0.4,0.1-0.5c-0.8-0.2-1.6-0.2-2.3-0.4c-0.1-0.1-0.1-0.1-0.2-0.2
	c-0.1-0.1-0.3-0.1-0.4-0.1C77.6,34.2,77.2,34.2,77.1,34.4z M77.5,35c0.1,0,0.2,0.1,0.3,0.1c0.4,0.5,0.8,0.9,1.2,1.3
	c-0.6,0.5-1.2,1.1-1.9,1.4c-0.3,0.1-0.2,0.6,0.2,0.5c0.8-0.3,1.5-0.9,2.1-1.5c0.4,0.4,0.8,0.9,1.1,1.3c0,0.3,0,0.5,0.1,0.7
	c-1-0.1-2.1,0.2-3.2-0.2C76.3,38.2,77.2,36.2,77.5,35C77.5,35,77.5,35,77.5,35z"/>
<path fill="#7F7F7F" d="M75.9,42.1c-0.2,0.8-0.2,1.6-0.3,2.3c0,0.4-0.2,1.3,0.1,1.7c0,0,0,0.1,0.1,0.1c1,0.8,2.7,0.9,3.9,0.7
	c0.3-0.1,0.3-0.5,0-0.5c0-0.1-0.1-0.1-0.1-0.2l0,0c0.2,0.3,0.6,0,0.4-0.3c0,0,0.1-0.3,0.1-0.3c0-0.3,0-0.6,0-0.9c0-0.6,0-1.2,0-1.9
	c0-0.2-0.2-0.3-0.4-0.2c0-0.2,0-0.3-0.2-0.3c-1.1,0.1-2.2-0.3-3.4-0.4C76.1,41.9,75.9,41.9,75.9,42.1z M76.1,45.9
	C76.1,45.9,76.1,45.9,76.1,45.9c0-0.1-0.1-0.1-0.1-0.1c0.1,0.1,0.1-0.3,0.1-0.4c0.5,0.2,1.2-0.3,1.6-0.6c0.1,0,0.1-0.1,0.2-0.1
	c0.5,0.6,1,1.2,1.3,1.9C78.1,46.6,76.8,46.5,76.1,45.9z M79.6,42.9c0.1,0,0.1,0,0.1,0c0,0,0,0,0,0.1c0,0.6,0,1.2,0,1.9
	c0,0.4,0,0.7-0.1,1.1c-0.1,0.1-0.1,0.1-0.1,0.2c-0.3-0.6-0.8-1.2-1.2-1.7c0.4-0.3,0.9-0.6,1.3-1c0.3-0.2-0.1-0.6-0.4-0.4
	c-0.4,0.3-0.8,0.6-1.2,0.9c-0.4-0.4-0.7-0.9-1-1.4C77.8,42.7,78.7,42.9,79.6,42.9z M76.4,42.5c-0.1,0.1-0.1,0.2,0,0.3
	c0.3,0.5,0.7,1,1.1,1.4c-0.2,0.1-0.4,0.3-0.6,0.4c-0.1,0.1-0.5,0.3-0.7,0.2c0,0-0.1,0-0.1,0c0-0.3,0-0.6,0.1-0.9
	c0.1-0.5,0.1-1,0.2-1.5C76.4,42.5,76.4,42.5,76.4,42.5z"/>
<path fill="#7F7F7F" d="M74.5,50.1c0.1,1.2-1,2.9-0.3,4.1c0.7,1.2,2.8,0.9,4,1c0.2,0,0.3-0.2,0.3-0.3c0.1,0.1,0.1,0.1,0.2,0.2
	c0.2,0.2,0.6-0.1,0.4-0.4c-0.1-0.1-0.1-0.1-0.2-0.2c0,0,0.1-0.1,0.1-0.1c0.3-1.2,0.5-2.4,0.5-3.6c0-0.2-0.1-0.2-0.2-0.2
	c0-0.1-0.1-0.3-0.3-0.2c-1.4,0.2-2.8-0.3-4.1-0.5C74.7,49.8,74.5,50,74.5,50.1z M78.5,54.2c-0.3-0.4-0.6-0.9-1-1.3
	c0,0-0.1-0.1-0.1-0.1c0.5-0.4,1.1-0.8,1.5-1.3C78.9,52.4,78.7,53.3,78.5,54.2z M78.7,50.9c-0.5,0.6-1,1.1-1.7,1.5
	c-0.5-0.5-1-1-1.2-1.7c-0.1-0.3-0.6-0.2-0.5,0.2c0.2,0.7,0.7,1.3,1.3,1.8c-0.5,0.3-1.1,0.6-1.7,0.8c-0.3,0.1-0.2,0.6,0.2,0.5
	c0.6-0.3,1.3-0.6,1.9-1c0.5,0.5,0.9,1.1,1.4,1.7c0,0,0,0,0,0c-0.9-0.1-3.3,0.1-3.7-0.9c-0.4-1,0.3-2.3,0.4-3.4
	C76.3,50.7,77.5,51.1,78.7,50.9z"/>
</svg>
