<?xml version="1.0" encoding="utf-8"?>
<!-- Generator: Adobe Illustrator 18.0.0, SVG Export Plug-In . SVG Version: 6.00 Build 0)  -->
<!DOCTYPE svg PUBLIC "-//W3C//DTD SVG 1.1//EN" "http://www.w3.org/Graphics/SVG/1.1/DTD/svg11.dtd">
<svg version="1.1" xmlns="http://www.w3.org/2000/svg" xmlns:xlink="http://www.w3.org/1999/xlink" x="0px" y="0px"
	 viewBox="0 0 400 400" enable-background="new 0 0 400 400" xml:space="preserve">
<g id="Layer_1" display="none">
	<g display="inline">
		<path fill="#FEFEFE" d="M294.2,302.2l-0.6-43.1c0.4-9.1,5.5-13.6,15.6-14h6.3c6.9,0,10.5-3.9,10.5-7.7c0-3.6-3-7.2-10-7.4
			l-56.9,0.2l0-1.4l56.9-0.2c7.9,0.1,11.4,4.6,11.4,8.8c0,4.5-4.2,9.1-11.9,9.1h-6.3c-9.4,0.3-13.9,4.4-14.3,12.6l0.6,43
			L294.2,302.2z"/>
	</g>
	<g display="inline">
		<path fill="#FEFEFE" d="M396.7,136.7c-5.4,0-9.8-4.4-9.8-9.8c0-5.4,4.4-9.8,9.8-9.8c5.4,0,9.8,4.4,9.8,9.8
			C406.6,132.3,402.2,136.7,396.7,136.7z M396.7,118.4c-4.7,0-8.4,3.8-8.4,8.4c0,4.7,3.8,8.4,8.4,8.4c4.7,0,8.4-3.8,8.4-8.4
			C405.2,122.2,401.4,118.4,396.7,118.4z"/>
	</g>
	<g display="inline">
		<path fill="#FEFEFE" d="M362.2,197.8c-2.8,0-5.1-2.3-5.1-5.1s2.3-5.1,5.1-5.1s5.1,2.3,5.1,5.1S365.1,197.8,362.2,197.8z
			 M362.2,188.9c-2.1,0-3.7,1.7-3.7,3.7c0,2.1,1.7,3.7,3.7,3.7c2.1,0,3.7-1.7,3.7-3.7C366,190.6,364.3,188.9,362.2,188.9z"/>
	</g>
	<g display="inline">
		<path fill="#211C1C" d="M94,285.4l-1.4-0.2c2.2-14.7,5.2-14.5,14.2-17.4l0.2,0l28.7,0.1c0,0,0,0,0,0c5.7,0,6.8-4.2,7-6
			c0.5-3.9-1.6-8.7-5.5-9.6c-9.9-2.3-88.3-0.8-89-0.8c-11.7-1.8-15.4-10.9-15.1-18.1c0.3-7.2,4.7-15.2,12.2-15.7
			c10.5-0.8,38.5-0.8,47.6-0.8c2.6,0,4.4,0,4.9,0l0,1.4c-0.6,0-2.4,0-5,0c-9.1,0-37,0-47.5,0.8c-6.7,0.5-10.7,7.8-10.9,14.4
			c-0.3,7,3.2,15.1,13.8,16.7c2.7-0.1,79.1-1.5,89.2,0.8c4.6,1,7.1,6.6,6.6,11.1c-0.5,4.5-3.6,7.2-8.3,7.2c0,0,0,0,0,0l-28.5-0.1
			C99.6,271.6,95.3,276.9,94,285.4z"/>
	</g>
	<g display="inline">
		<path fill="#FEFEFE" d="M140.7,285.4c-2.7,0-4.9-2.2-4.9-4.9c0-2.7,2.2-4.8,4.9-4.8c2.7,0,4.9,2.2,4.9,4.8
			C145.6,283.3,143.4,285.4,140.7,285.4z M140.7,277.1c-1.9,0-3.5,1.6-3.5,3.5c0,1.9,1.6,3.5,3.5,3.5c1.9,0,3.5-1.6,3.5-3.5
			C144.2,278.7,142.6,277.1,140.7,277.1z"/>
	</g>
	<g display="inline">
		<rect x="76" y="285" fill-rule="evenodd" clip-rule="evenodd" fill="#BDBFC1" width="186.6" height="69.2"/>
	</g>
	<g display="inline">
		<rect x="79.2" y="287.9" fill-rule="evenodd" clip-rule="evenodd" fill="#FEFEFE" width="13.9" height="13.9"/>
	</g>
	<g display="inline">
		<rect x="95.9" y="287.9" fill-rule="evenodd" clip-rule="evenodd" fill="#FEFEFE" width="13.9" height="13.9"/>
	</g>
	<g display="inline">
		<rect x="112.5" y="287.9" fill-rule="evenodd" clip-rule="evenodd" fill="#FEFEFE" width="13.9" height="13.9"/>
	</g>
	<g display="inline">
		<rect x="129.1" y="287.9" fill-rule="evenodd" clip-rule="evenodd" fill="#FEFEFE" width="13.9" height="13.9"/>
	</g>
	<g display="inline">
		<rect x="145.7" y="287.9" fill-rule="evenodd" clip-rule="evenodd" fill="#FEFEFE" width="13.9" height="13.9"/>
	</g>
	<g display="inline">
		<rect x="162.4" y="287.9" fill-rule="evenodd" clip-rule="evenodd" fill="#FEFEFE" width="13.9" height="13.9"/>
	</g>
	<g display="inline">
		<rect x="179" y="287.9" fill-rule="evenodd" clip-rule="evenodd" fill="#FEFEFE" width="13.9" height="13.9"/>
	</g>
	<g display="inline">
		<rect x="195.6" y="287.9" fill-rule="evenodd" clip-rule="evenodd" fill="#FEFEFE" width="13.9" height="13.9"/>
	</g>
	<g display="inline">
		<rect x="212.3" y="287.9" fill-rule="evenodd" clip-rule="evenodd" fill="#FEFEFE" width="13.9" height="13.9"/>
	</g>
	<g display="inline">
		<rect x="228.9" y="287.9" fill-rule="evenodd" clip-rule="evenodd" fill="#FEFEFE" width="13.9" height="13.9"/>
	</g>
	<g display="inline">
		<rect x="245.5" y="287.9" fill-rule="evenodd" clip-rule="evenodd" fill="#FEFEFE" width="13.9" height="13.9"/>
	</g>
	<g display="inline">
		<rect x="79.2" y="304.4" fill-rule="evenodd" clip-rule="evenodd" fill="#FEFEFE" width="13.9" height="13.9"/>
	</g>
	<g display="inline">
		<rect x="95.9" y="304.4" fill-rule="evenodd" clip-rule="evenodd" fill="#FEFEFE" width="13.9" height="13.9"/>
	</g>
	<g display="inline">
		<rect x="112.5" y="304.4" fill-rule="evenodd" clip-rule="evenodd" fill="#FEFEFE" width="13.9" height="13.9"/>
	</g>
	<g display="inline">
		<rect x="129.1" y="304.4" fill-rule="evenodd" clip-rule="evenodd" fill="#FEFEFE" width="13.9" height="13.9"/>
	</g>
	<g display="inline">
		<rect x="145.7" y="304.4" fill-rule="evenodd" clip-rule="evenodd" fill="#FEFEFE" width="13.9" height="13.9"/>
	</g>
	<g display="inline">
		<rect x="162.4" y="304.4" fill-rule="evenodd" clip-rule="evenodd" fill="#FEFEFE" width="13.9" height="13.9"/>
	</g>
	<g display="inline">
		<rect x="179" y="304.4" fill-rule="evenodd" clip-rule="evenodd" fill="#FEFEFE" width="13.9" height="13.9"/>
	</g>
	<g display="inline">
		<rect x="195.6" y="304.4" fill-rule="evenodd" clip-rule="evenodd" fill="#FEFEFE" width="13.9" height="13.9"/>
	</g>
	<g display="inline">
		<rect x="212.3" y="304.4" fill-rule="evenodd" clip-rule="evenodd" fill="#FEFEFE" width="13.9" height="13.9"/>
	</g>
	<g display="inline">
		<rect x="228.9" y="304.4" fill-rule="evenodd" clip-rule="evenodd" fill="#FEFEFE" width="13.9" height="13.9"/>
	</g>
	<g display="inline">
		<rect x="245.5" y="304.4" fill-rule="evenodd" clip-rule="evenodd" fill="#FEFEFE" width="13.9" height="13.9"/>
	</g>
	<g display="inline">
		<rect x="79.2" y="320.9" fill-rule="evenodd" clip-rule="evenodd" fill="#FEFEFE" width="13.9" height="13.9"/>
	</g>
	<g display="inline">
		<rect x="95.9" y="320.9" fill-rule="evenodd" clip-rule="evenodd" fill="#FEFEFE" width="13.9" height="13.9"/>
	</g>
	<g display="inline">
		<rect x="112.5" y="320.9" fill-rule="evenodd" clip-rule="evenodd" fill="#FEFEFE" width="13.9" height="13.9"/>
	</g>
	<g display="inline">
		<rect x="129.1" y="320.9" fill-rule="evenodd" clip-rule="evenodd" fill="#FEFEFE" width="13.9" height="13.9"/>
	</g>
	<g display="inline">
		<rect x="145.7" y="320.9" fill-rule="evenodd" clip-rule="evenodd" fill="#FEFEFE" width="13.9" height="13.9"/>
	</g>
	<g display="inline">
		<rect x="162.4" y="320.9" fill-rule="evenodd" clip-rule="evenodd" fill="#FEFEFE" width="13.9" height="13.9"/>
	</g>
	<g display="inline">
		<rect x="179" y="320.9" fill-rule="evenodd" clip-rule="evenodd" fill="#FEFEFE" width="13.9" height="13.9"/>
	</g>
	<g display="inline">
		<rect x="195.6" y="320.9" fill-rule="evenodd" clip-rule="evenodd" fill="#FEFEFE" width="13.9" height="13.9"/>
	</g>
	<g display="inline">
		<rect x="212.3" y="320.9" fill-rule="evenodd" clip-rule="evenodd" fill="#FEFEFE" width="13.9" height="13.9"/>
	</g>
	<g display="inline">
		<rect x="228.9" y="320.9" fill-rule="evenodd" clip-rule="evenodd" fill="#FEFEFE" width="13.9" height="13.9"/>
	</g>
	<g display="inline">
		<rect x="245.5" y="320.9" fill-rule="evenodd" clip-rule="evenodd" fill="#FEFEFE" width="13.9" height="13.9"/>
	</g>
	<g display="inline">
		<rect x="79.2" y="337.3" fill-rule="evenodd" clip-rule="evenodd" fill="#FEFEFE" width="13.9" height="13.9"/>
	</g>
	<g display="inline">
		<rect x="95.9" y="337.3" fill-rule="evenodd" clip-rule="evenodd" fill="#FEFEFE" width="13.9" height="13.9"/>
	</g>
	<g display="inline">
		<rect x="112.5" y="337.3" fill-rule="evenodd" clip-rule="evenodd" fill="#FEFEFE" width="13.9" height="13.9"/>
	</g>
	<g display="inline">
		<rect x="130.2" y="337.3" fill-rule="evenodd" clip-rule="evenodd" fill="#FEFEFE" width="78.2" height="13.9"/>
	</g>
	<g display="inline">
		<rect x="212.3" y="337.3" fill-rule="evenodd" clip-rule="evenodd" fill="#FEFEFE" width="13.9" height="13.9"/>
	</g>
	<g display="inline">
		<rect x="228.9" y="337.3" fill-rule="evenodd" clip-rule="evenodd" fill="#FEFEFE" width="13.9" height="13.9"/>
	</g>
	<g display="inline">
		<rect x="245.5" y="337.3" fill-rule="evenodd" clip-rule="evenodd" fill="#FEFEFE" width="13.9" height="13.9"/>
	</g>
	<g display="inline">
		<rect x="100.7" y="229.2" fill-rule="evenodd" clip-rule="evenodd" fill="#4B4B4D" width="248.9" height="15.9"/>
	</g>
	<g display="inline">
		<rect x="108" y="96.7" fill-rule="evenodd" clip-rule="evenodd" fill="#FEFEFE" width="234.3" height="132.6"/>
	</g>
	<g display="inline">
		<rect x="96.2" y="98.9" fill-rule="evenodd" clip-rule="evenodd" fill="#A9ABAE" width="234.4" height="145"/>
	</g>
	<g display="inline">
		<rect x="187.1" y="155.4" fill-rule="evenodd" clip-rule="evenodd" fill="#5CC6D0" width="134" height="76.5"/>
	</g>
	<g display="inline">
		<rect x="320.4" y="154.3" fill="#FEFEFE" width="1.4" height="78.7"/>
	</g>
	<g display="inline">
		<rect x="275.7" y="154.3" fill="#FEFEFE" width="1.4" height="77.6"/>
	</g>
	<g display="inline">
		<rect x="231.1" y="154.3" fill="#FEFEFE" width="1.4" height="77.6"/>
	</g>
	<g display="inline">
		<polygon fill="#FEFEFE" points="322.2,232.6 186.4,232.6 186.4,154.3 187.8,154.3 187.8,231.2 322.2,231.2 		"/>
	</g>
	<g display="inline">
		<rect x="187.1" y="193" fill="#FEFEFE" width="134" height="1.4"/>
	</g>
	<g display="inline">
		<rect x="186" y="154.7" fill="#FEFEFE" width="136.3" height="1.4"/>
	</g>
	<g display="inline">
		<rect x="104.3" y="136.7" fill-rule="evenodd" clip-rule="evenodd" fill="#FEFEFE" width="72.9" height="133"/>
	</g>
	<g display="inline">
		<rect x="112.2" y="151.2" fill-rule="evenodd" clip-rule="evenodd" fill="#5CC6D0" width="57" height="110.1"/>
	</g>
	<g display="inline">
		<rect x="108" y="204.9" fill-rule="evenodd" clip-rule="evenodd" fill="#E6E7E8" width="65.3" height="11"/>
	</g>
	<g display="inline">
		<rect x="151.3" y="208.6" fill-rule="evenodd" clip-rule="evenodd" fill="#BDBFC1" width="18.6" height="2"/>
	</g>
	<g display="inline">
		<polygon fill-rule="evenodd" clip-rule="evenodd" fill="#DF3438" points="362,152.9 63.1,152.9 85.4,107.8 339.7,107.8 		"/>
	</g>
	<g display="inline">
		<path fill-rule="evenodd" clip-rule="evenodd" fill="#E6E7E8" d="M93.5,128.6c3.1-7.3,6.1-14.2,8.9-20.8c5.7,0,11.3,0,17,0
			c-2.4,6.6-4.9,13.5-7.5,20.8c-2.8,7.7-5.7,15.8-8.8,24.4c-6.6,0-13.3,0-19.9,0C86.7,144.3,90.2,136.2,93.5,128.6L93.5,128.6z
			 M136.3,107.8c5.7,0,11.3,0,17,0c-1.5,6.6-3.1,13.5-4.8,20.8c-1.8,7.7-3.6,15.8-5.6,24.4c-6.6,0-13.3,0-19.9,0
			c2.5-8.6,5-16.7,7.2-24.4C132.3,121.3,134.4,114.4,136.3,107.8L136.3,107.8z M170.3,107.8c5.6,0,11.3,0,16.9,0
			c-0.7,6.6-1.3,13.5-2.1,20.8c-0.8,7.7-1.6,15.8-2.4,24.4c-6.6,0-13.3,0-19.9,0c1.4-8.6,2.7-16.7,4-24.4
			C168,121.3,169.2,114.4,170.3,107.8L170.3,107.8z M204.1,107.8c5.7,0,11.3,0,17,0c0.2,6.6,0.4,13.5,0.7,20.8
			c0.3,7.7,0.5,15.8,0.8,24.4c-6.6,0-13.3,0-19.9,0c0.3-8.6,0.5-16.7,0.8-24.4C203.7,121.3,203.9,114.4,204.1,107.8L204.1,107.8z
			 M258.4,128.6c1.3,7.7,2.6,15.8,4,24.4c-6.6,0-13.3,0-19.9,0c-0.8-8.6-1.7-16.7-2.4-24.4c-0.7-7.3-1.4-14.2-2-20.8
			c5.7,0,11.3,0,17,0C256.1,114.4,257.2,121.3,258.4,128.6L258.4,128.6z M295.1,128.6c2.3,7.7,4.7,15.8,7.2,24.4
			c-6.6,0-13.3,0-19.9,0c-2-8.6-3.9-16.7-5.6-24.4c-1.7-7.3-3.3-14.2-4.8-20.8c5.6,0,11.3,0,16.9,0
			C290.8,114.4,292.9,121.3,295.1,128.6L295.1,128.6z M331.7,128.6c3.3,7.7,6.8,15.8,10.4,24.4c-6.6,0-13.3,0-19.9,0
			c-3.1-8.6-6.1-16.7-8.8-24.4c-2.6-7.3-5.1-14.2-7.5-20.8c5.7,0,11.3,0,17,0C325.7,114.4,328.6,121.3,331.7,128.6z"/>
	</g>
	<g display="inline">
		<path fill-rule="evenodd" clip-rule="evenodd" fill="#FEFEFE" d="M103,152.9v10.3c0,5.5-4.5,9.9-10,9.9c-5.5,0-10-4.5-10-9.9
			v-10.3H103L103,152.9z M142.8,163.2c0,5.5-4.5,9.9-10,9.9c-5.5,0-10-4.5-10-9.9v-10.3h19.9V163.2L142.8,163.2z M182.7,163.2
			c0,5.5-4.5,9.9-10,9.9c-5.5,0-10-4.5-10-9.9v-10.3h19.9V163.2L182.7,163.2z M222.5,163.2c0,5.5-4.5,9.9-10,9.9
			c-5.5,0-10-4.5-10-9.9v-10.3h19.9V163.2L222.5,163.2z M262.4,163.2c0,5.5-4.5,9.9-10,9.9c-5.5,0-10-4.5-10-9.9v-10.3h19.9V163.2
			L262.4,163.2z M302.3,163.2c0,5.5-4.5,9.9-10,9.9c-5.5,0-10-4.5-10-9.9v-10.3h19.9V163.2L302.3,163.2z M342.1,163.2
			c0,5.5-4.5,9.9-10,9.9c-5.5,0-10-4.5-10-9.9v-10.3h19.9V163.2z"/>
	</g>
	<g display="inline">
		<path fill-rule="evenodd" clip-rule="evenodd" fill="#ED3237" d="M83,152.9v10.3c0,5.5-4.5,9.9-10,9.9c-5.5,0-10-4.5-10-9.9v-10.3
			H83L83,152.9z M122.9,163.2c0,5.5-4.5,9.9-10,9.9c-5.5,0-10-4.5-10-9.9v-10.3h19.9V163.2L122.9,163.2z M162.7,163.2
			c0,5.5-4.5,9.9-10,9.9c-5.5,0-10-4.5-10-9.9v-10.3h19.9V163.2L162.7,163.2z M202.6,163.2c0,5.5-4.5,9.9-10,9.9
			c-5.5,0-10-4.5-10-9.9v-10.3h19.9V163.2L202.6,163.2z M242.5,163.2c0,5.5-4.5,9.9-10,9.9c-5.5,0-10-4.5-10-9.9v-10.3h19.9V163.2
			L242.5,163.2z M282.3,163.2c0,5.5-4.5,9.9-10,9.9c-5.5,0-10-4.5-10-9.9v-10.3h19.9V163.2L282.3,163.2z M322.2,163.2
			c0,5.5-4.5,9.9-10,9.9c-5.5,0-10-4.5-10-9.9v-10.3h19.9V163.2L322.2,163.2z M362,163.2c0,5.5-4.5,9.9-10,9.9c-5.5,0-10-4.5-10-9.9
			v-10.3H362V163.2z"/>
	</g>
	<g display="inline">
		<g>
			<path fill="#FEFEFE" d="M330.5,234.3c-3.5,0-6.4-2.9-6.4-6.4c0-3.5,2.9-6.4,6.4-6.4s6.4,2.9,6.4,6.4
				C336.8,231.5,334,234.3,330.5,234.3z M330.5,222.5c-3,0-5.5,2.5-5.5,5.5s2.5,5.5,5.5,5.5c3,0,5.5-2.5,5.5-5.5
				S333.5,222.5,330.5,222.5z"/>
		</g>
		<g>
			<path fill="#FEFEFE" d="M330.5,231.3c-1.8,0-3.3-1.5-3.3-3.3c0-1.8,1.5-3.3,3.3-3.3c1.8,0,3.3,1.5,3.3,3.3
				C333.8,229.8,332.3,231.3,330.5,231.3z M330.5,225.5c-1.3,0-2.4,1.1-2.4,2.4c0,1.3,1.1,2.4,2.4,2.4c1.3,0,2.4-1.1,2.4-2.4
				C332.9,226.6,331.8,225.5,330.5,225.5z"/>
		</g>
		<g>
			<path fill-rule="evenodd" clip-rule="evenodd" fill="#EF5036" d="M336.8,283c17.6,0,32-14.4,32-32c0-17.6-14.4-32-32-32
				c-17.6,0-32,14.4-32,32C304.9,268.6,319.2,283,336.8,283z"/>
		</g>
		<g>
			<path fill="#FEFEFE" d="M328.4,263.1l15.7-25.1l1.2,0.7l-15.6,25.1L328.4,263.1L328.4,263.1z M327.8,248.7c0.9,1.1,2,1.7,3.3,1.7
				c1.3,0,2.4-0.6,3.3-1.7c0.9-1.1,1.4-2.6,1.4-4.5c0-1.9-0.4-3.3-1.3-4.4c-0.9-1.1-2-1.6-3.4-1.6c-1.4,0-2.5,0.5-3.4,1.6
				c-0.9,1.1-1.3,2.5-1.3,4.4C326.4,246,326.8,247.5,327.8,248.7L327.8,248.7z M328.8,240.6c-0.6,0.9-1,2.1-1,3.6
				c0,1.5,0.3,2.7,1,3.6c0.6,0.9,1.4,1.3,2.4,1.3c0.9,0,1.7-0.4,2.3-1.3c0.6-0.9,0.9-2.1,0.9-3.6c0-1.5-0.3-2.7-0.9-3.6
				c-0.6-0.9-1.4-1.3-2.3-1.3C330.2,239.3,329.4,239.7,328.8,240.6L328.8,240.6z M339.2,261.8c0.9,1.1,2,1.7,3.3,1.7
				c1.3,0,2.4-0.6,3.3-1.7c0.9-1.1,1.4-2.6,1.4-4.5c0-1.9-0.4-3.3-1.3-4.4c-0.9-1.1-2-1.6-3.4-1.6c-1.4,0-2.5,0.5-3.4,1.6
				c-0.9,1.1-1.3,2.5-1.3,4.4C337.9,259.1,338.3,260.6,339.2,261.8L339.2,261.8z M340.2,253.7c-0.6,0.9-1,2.1-1,3.6
				c0,1.5,0.3,2.7,1,3.6c0.6,0.9,1.4,1.3,2.4,1.3c0.9,0,1.7-0.4,2.3-1.3c0.6-0.9,0.9-2.1,0.9-3.6c0-1.5-0.3-2.7-0.9-3.6
				c-0.6-0.9-1.4-1.3-2.3-1.3C341.7,252.4,340.9,252.8,340.2,253.7z"/>
		</g>
	</g>
	<g display="inline">
		<path fill-rule="evenodd" clip-rule="evenodd" fill="#BDBFC1" d="M295,300.6L295,300.6c7.1,0,13,5.8,13,13v16.3
			c0,7.1-5.8,13-13,13l0,0c-7.1,0-13-5.8-13-13v-16.3C282,306.4,287.8,300.6,295,300.6z"/>
	</g>
	<g display="inline">
		<path fill-rule="evenodd" clip-rule="evenodd" fill="#C1C3C5" d="M295,300.6L295,300.6c7.1,0,13,5.8,13,13v1.1H282v-1.1
			C282,306.4,287.8,300.6,295,300.6z"/>
	</g>
	<g display="inline">
		<path fill="#FEFEFE" d="M293.8,309.5c0-0.9,0.6-1.7,1.3-1.7c0.7,0,1.3,0.7,1.3,1.7v5c0,0.9-0.6,1.7-1.3,1.7
			c-0.7,0-1.3-0.7-1.3-1.7V309.5z"/>
	</g>
	<g display="inline">
		<rect x="68" y="78.9" fill-rule="evenodd" clip-rule="evenodd" fill="#E6E7E8" width="289.6" height="18.5"/>
	</g>
	<g display="inline">
		<rect x="154.6" y="51.7" fill-rule="evenodd" clip-rule="evenodd" fill="#ED3237" width="117.8" height="27.3"/>
	</g>
	<g display="inline">
		<rect x="159.4" y="56.9" fill-rule="evenodd" clip-rule="evenodd" fill="#FEFEFE" width="108.1" height="22"/>
	</g>
	<g display="inline">
		<path fill="#FEFEFE" d="M218.8,296.9c-2.7,0-4.8-2.2-4.8-4.9c0-2.7,2.2-4.9,4.8-4.9c2.7,0,4.9,2.2,4.9,4.9
			C223.7,294.7,221.5,296.9,218.8,296.9z M218.8,288.6c-1.9,0-3.5,1.6-3.5,3.5c0,1.9,1.6,3.5,3.5,3.5c1.9,0,3.5-1.6,3.5-3.5
			C222.3,290.1,220.7,288.6,218.8,288.6z"/>
	</g>
	<text transform="matrix(1 0 0 1 181.8418 72.7521)" display="inline" font-family="'MyriadPro-Regular'" font-size="14">T I E N D A</text>
</g>
<g id="Capa_2" display="none">
	<g display="inline">
		<polygon fill="#59803B" points="327.9,88 328.4,104.8 353.6,103.9 309.7,140.1 276.2,111.3 98.2,225.8 67.3,198.6 6.3,240.1 
			11.3,248.4 65.2,214.9 98.7,243.9 276,130.1 309,158.4 365.3,116.3 361.5,141 378.1,143 387.7,84.6 		"/>
		<g>
			<path fill="#F0F1F1" d="M351.5,316.8c0,11.8-64.7,25.1-142.9,25.1S68.2,328.6,68.2,316.8c0-11.8,63.4-21.3,141.6-21.3
				C288.1,295.5,351.5,305,351.5,316.8z"/>
			<g>
				<g>
					<path fill="#C08C63" d="M184.8,101.8c-22.4,15.7-72.3,69.9-68.3,123.1c3.6,48.4,19.4,86.9,103,81.7
						c83.6-5.2,93.6-45.2,89.9-93.6c-4-53.3-64.9-99.4-86-113.6l21.8-41.2l-87.9,5.4L184.8,101.8z"/>
				</g>
				<g>
					<path fill="#593C23" d="M216.7,158l1,13.3c1.6,0.6,3.1,1.3,4.6,2.3c1.4,0.9,2.6,2.1,3.7,3.5l0.6-7.2l20.2-1.2l2.2,29.9
						l-21.3,1.3c-0.3-4.5-2.1-7.9-5.1-10.2c-3.1-2.3-6.9-3.3-11.3-3c-0.8,0.1-1.7,0.2-2.7,0.6c-1,0.3-1.8,0.8-2.6,1.4
						c-0.8,0.6-1.4,1.3-1.9,2.2c-0.4,0.8-0.6,1.8-0.5,2.9c0.2,2.1,1.4,3.8,3.9,5c2.4,1.2,5.4,2.3,8.9,3.4c3.6,1,7.4,2.1,11.5,3.3
						c4.1,1.2,8,2.7,11.6,4.6c3.6,1.9,6.7,4.4,9.2,7.4c2.5,3,4,6.9,4.4,11.7c0.4,4.7-0.3,8.7-2,11.9c-1.7,3.3-3.9,6-6.7,8.1
						c-2.8,2.1-6,3.7-9.6,4.7c-3.6,1-7.2,1.7-10.8,2l1,13.2l-19.5,1.2l-1.3-16.7c-2.6-1.1-5.1-2.6-7.6-4.3l-1,7.8l-20.2,1.2
						l-2.3-30.8l21.7-1.3c0.2,2.6,1,4.6,2.3,6.1c1.4,1.5,3,2.6,4.8,3.4c1.8,0.8,3.7,1.3,5.7,1.4c2,0.2,3.6,0.3,4.9,0.3
						c1-0.1,2.1-0.2,3.2-0.5c1.1-0.2,2.2-0.6,3.2-1.1c1-0.5,1.8-1.2,2.4-2.1c0.6-0.9,0.9-2,0.8-3.3c-0.1-1.5-1.3-2.8-3.6-3.8
						c-2.3-1-5.2-1.9-8.6-2.8c-3.4-0.9-7.1-1.9-11.1-3c-4-1.1-7.8-2.7-11.3-4.7c-3.5-2-6.5-4.5-8.9-7.6c-2.5-3.1-3.9-7-4.2-11.7
						c-0.3-4.3,0.2-8,1.5-11.1c1.3-3.2,3.2-5.8,5.5-8c2.3-2.2,4.9-3.9,7.8-5.1c2.9-1.2,5.8-2,8.7-2.4l-0.8-10.7L216.7,158z"/>
				</g>
				<path fill="#593C23" d="M230.1,99.8c-0.1-1-0.7-1.8-1.6-2.3c0.8-0.6,1.3-1.5,1.2-2.4c-0.1-1.6-1.6-2.8-3.3-2.6l-46,2.8
					c-1.7,0.1-3,1.5-2.9,3c0.1,1,0.7,1.8,1.6,2.3c-0.8,0.6-1.3,1.5-1.2,2.4c0.1,1.6,1.6,2.7,3.3,2.6l46-2.8
					C228.9,102.7,230.2,101.3,230.1,99.8z"/>
			</g>
			<path fill="#F1F1F1" d="M301.2,265.6c-16.9-4.6-41.3,2.7-41.1,11.1h0l0,4.8c0,1.6,1,3.3,3.2,5c-1,1.2-1.5,2.4-1.5,3.7h0l0,2.9
				c-1,1.2-1.6,2.5-1.6,3.8h0l0,2.1C281.2,291.9,293.9,280.3,301.2,265.6z"/>
			<g>
				<g>
					<path fill="#C0802E" d="M321.2,303.6c-1.8-2.3-5.4-4.4-11.5-6.2c-14.8-4.3-35.8,0.9-40.6,7.9h-1l0,4.8c0,2.1,1.5,4.2,5,6.2
						c19.9,11.7,49.4,2.3,49.4-7.5l0-1.7l0-3L321.2,303.6z"/>
					<g>
						<path fill="#FFB02A" d="M309.8,294.3c-21-6-54.4,6.8-36.6,17.2C300.1,327.3,344.5,304.6,309.8,294.3z"/>
						<g>
							<path fill="#C0802E" d="M295.9,296.9c0,0.3,0.1,0.6,0.1,0.8c0,0.2,0.1,0.4,0.1,0.6c0,0.2,0.1,0.4,0.1,0.6c0,0.2,0,0.4,0,0.7
								c0.3,0,0.5-0.1,0.8-0.1c0.3,0,0.5,0,0.8,0c1,0,2,0.2,2.8,0.6v0c0.2,0.1,0.3,0.2,0.3,0.3c0,0.1-0.1,0.2-0.2,0.3
								c-0.2,0.1-0.4,0.1-0.6,0.1c-0.3,0-0.5,0-0.7-0.1h0c-0.5-0.2-1.1-0.3-1.7-0.3c-0.5,0-1,0.1-1.6,0.2c0,0.3,0,0.6,0,0.8
								c0,0.2,0,0.4-0.1,0.6c0,0.2,0,0.4-0.1,0.5c0,0.2-0.1,0.4-0.1,0.6c0.9,0.1,1.7,0.2,2.5,0.3c0.7,0.1,1.4,0.3,1.9,0.6
								c0.5,0.2,0.9,0.5,1.2,0.9c0.3,0.3,0.4,0.7,0.4,1.2c0,0.4-0.2,0.9-0.5,1.3c-0.3,0.4-0.7,0.8-1.3,1.1c-0.5,0.3-1.2,0.6-1.9,0.9
								c-0.7,0.3-1.6,0.5-2.4,0.6c0,0.2,0,0.4,0.1,0.5c0,0.1,0,0.3,0.1,0.5c0,0.2,0.1,0.4,0.1,0.6c0.1,0.2,0.2,0.6,0.3,1
								c0,0.1,0,0.2,0.1,0.2c0,0.1,0.1,0.2,0.1,0.2c0,0.1-0.1,0.2-0.3,0.2c-0.2,0-0.4,0.1-0.5,0.1c-0.2,0-0.3,0-0.5-0.1
								c-0.2-0.1-0.2-0.1-0.3-0.3c-0.1-0.4-0.2-0.8-0.3-1.1c-0.1-0.3-0.1-0.5-0.2-0.7c0-0.2-0.1-0.4-0.1-0.6c0-0.2-0.1-0.3-0.1-0.5
								c-0.1,0-0.2,0-0.3,0c-0.1,0-0.3,0-0.4,0c-0.7,0-1.3-0.1-1.8-0.2c-0.5-0.1-1-0.3-1.3-0.4c-0.4-0.2-0.7-0.4-1-0.6
								c-0.3-0.2-0.6-0.4-0.8-0.6v0c-0.1-0.1-0.2-0.2-0.3-0.3c-0.1-0.1-0.2-0.2-0.3-0.2v0c-0.1,0-0.2-0.1-0.3-0.2
								c-0.1-0.1-0.1-0.1-0.1-0.2c0-0.1,0.1-0.2,0.2-0.2c0.1-0.1,0.3-0.1,0.5-0.1c0.2,0,0.3,0,0.5,0.1c0.1,0.1,0.3,0.1,0.4,0.2
								c0.1,0.1,0.2,0.2,0.3,0.2c0.1,0.1,0.2,0.2,0.3,0.2c0.3,0.2,0.6,0.4,0.8,0.5c0.3,0.2,0.6,0.3,0.9,0.4c0.3,0.1,0.7,0.2,1.1,0.3
								c0.4,0.1,0.9,0.1,1.4,0.1c0-0.2-0.1-0.4-0.1-0.7c0-0.2,0-0.6,0-1c0-0.4,0-0.9,0-1.5c0-0.6,0-1.4,0-2.3h0c-0.2,0-0.6,0-1-0.1
								c-0.4,0-0.9-0.1-1.3-0.1c-0.4-0.1-0.8-0.1-1.1-0.2c-0.3-0.1-0.5-0.2-0.5-0.3c0-0.2,0.1-0.5,0.3-0.7c0.2-0.2,0.5-0.5,0.8-0.7
								c0.3-0.2,0.7-0.4,1.1-0.6c0.4-0.2,0.8-0.4,1.2-0.6h0l0.7-0.3c0-0.3,0-0.6,0-0.8c0-0.2,0-0.4,0-0.7c0-0.2,0-0.4,0-0.7
								c0-0.2,0-0.5,0-0.9V297c0-0.2,0.1-0.3,0.3-0.4c0.2-0.1,0.4-0.1,0.7-0.1c0.2,0,0.4,0,0.5,0.1
								C295.7,296.7,295.9,296.8,295.9,296.9z M293.9,301.5c-0.4,0.2-0.7,0.4-1,0.6c-0.3,0.2-0.5,0.4-0.6,0.6c0.3,0,0.5,0.1,0.8,0.1
								c0.3,0,0.5,0.1,0.8,0.1c0-0.3,0.1-0.5,0.1-0.7c0-0.2,0.1-0.5,0.1-0.7C294,301.5,294,301.5,293.9,301.5z M300,305.7
								c0-0.3-0.1-0.5-0.4-0.7c-0.2-0.2-0.6-0.4-0.9-0.6c-0.4-0.2-0.8-0.3-1.3-0.4c-0.5-0.1-1-0.1-1.5-0.2c0,0.4,0,0.7,0,1
								c0,0.2,0,0.5,0,0.6c0,0.2,0,0.3,0,0.5c0,0.2,0,0.4,0,0.6c0,0.2,0,0.5,0,0.9c0,0.4,0,0.9,0,1.4c0.6-0.1,1.2-0.3,1.7-0.5
								c0.5-0.2,1-0.5,1.3-0.7c0.4-0.3,0.7-0.6,0.9-0.9c0.2-0.3,0.3-0.6,0.3-1V305.7z"/>
						</g>
					</g>
				</g>
				<g>
					<path fill="#C0802E" d="M318,296.8c-1.8-2.3-5.4-4.4-11.5-6.2c-14.8-4.3-35.8,0.9-40.6,7.9h-1l0,4.8c0,2.1,1.5,4.2,5,6.2
						c19.9,11.7,49.4,2.3,49.4-7.5l0-1.7l0-3L318,296.8z"/>
					<g>
						<path fill="#FFB02A" d="M306.6,287.6c-21-6-54.4,6.8-36.6,17.2C296.9,320.6,341.3,297.8,306.6,287.6z"/>
						<g>
							<path fill="#C0802E" d="M292.7,290.2c0,0.3,0.1,0.6,0.1,0.8c0,0.2,0.1,0.4,0.1,0.6c0,0.2,0.1,0.4,0.1,0.6c0,0.2,0,0.4,0,0.7
								c0.3,0,0.5-0.1,0.8-0.1c0.3,0,0.5,0,0.8,0c1,0,2,0.2,2.8,0.6v0c0.2,0.1,0.3,0.2,0.3,0.3c0,0.1-0.1,0.2-0.2,0.3
								c-0.2,0.1-0.4,0.1-0.6,0.1c-0.3,0-0.5-0.1-0.7-0.2h0c-0.5-0.2-1.1-0.3-1.7-0.3c-0.5,0-1,0.1-1.6,0.2c0,0.3,0,0.6,0,0.8
								c0,0.2,0,0.4-0.1,0.6c0,0.2,0,0.4-0.1,0.5c0,0.2-0.1,0.4-0.1,0.6c0.9,0.1,1.7,0.2,2.5,0.3c0.7,0.1,1.4,0.3,1.9,0.6
								c0.5,0.2,0.9,0.5,1.2,0.9c0.3,0.3,0.4,0.7,0.4,1.2c0,0.4-0.2,0.9-0.5,1.3c-0.3,0.4-0.7,0.8-1.3,1.1c-0.5,0.3-1.2,0.6-1.9,0.9
								c-0.7,0.3-1.6,0.5-2.4,0.6c0,0.2,0,0.4,0.1,0.5c0,0.1,0,0.3,0.1,0.5c0,0.2,0.1,0.4,0.1,0.6c0.1,0.2,0.2,0.6,0.3,1
								c0,0.1,0,0.2,0.1,0.2c0,0.1,0.1,0.2,0.1,0.2c0,0.1-0.1,0.2-0.3,0.2c-0.2,0.1-0.4,0.1-0.5,0.1c-0.2,0-0.3,0-0.5-0.1
								c-0.2-0.1-0.2-0.1-0.3-0.3c-0.1-0.4-0.2-0.8-0.3-1.1c-0.1-0.3-0.1-0.5-0.2-0.7c0-0.2-0.1-0.4-0.1-0.6c0-0.2-0.1-0.3-0.1-0.5
								c-0.1,0-0.2,0-0.3,0c-0.1,0-0.3,0-0.4,0c-0.7,0-1.3-0.1-1.8-0.2c-0.5-0.1-1-0.3-1.3-0.4c-0.4-0.2-0.7-0.4-1-0.6
								c-0.3-0.2-0.6-0.4-0.8-0.6v0c-0.1-0.1-0.2-0.2-0.3-0.3c-0.1-0.1-0.2-0.2-0.3-0.2v0c-0.1,0-0.2-0.1-0.3-0.2
								c-0.1-0.1-0.1-0.1-0.1-0.2c0-0.1,0.1-0.2,0.2-0.2c0.1-0.1,0.3-0.1,0.5-0.1c0.2,0,0.3,0,0.5,0.1c0.1,0.1,0.3,0.1,0.4,0.2
								c0.1,0.1,0.2,0.2,0.3,0.2c0.1,0.1,0.2,0.2,0.3,0.2c0.3,0.2,0.6,0.4,0.8,0.5c0.3,0.2,0.6,0.3,0.9,0.4c0.3,0.1,0.7,0.2,1.1,0.3
								c0.4,0.1,0.9,0.1,1.4,0.1c0-0.2-0.1-0.4-0.1-0.7c0-0.2,0-0.6,0-1c0-0.4,0-0.9,0-1.5c0-0.6,0-1.4,0-2.3h0c-0.2,0-0.6,0-1-0.1
								c-0.4,0-0.9-0.1-1.3-0.1c-0.4-0.1-0.8-0.1-1.1-0.2c-0.3-0.1-0.5-0.2-0.5-0.3c0-0.2,0.1-0.5,0.3-0.7c0.2-0.2,0.5-0.5,0.8-0.7
								c0.3-0.2,0.7-0.4,1.1-0.6c0.4-0.2,0.8-0.4,1.2-0.6h0l0.7-0.3c0-0.3,0-0.6,0-0.8c0-0.2,0-0.4,0-0.7c0-0.2,0-0.4,0-0.7
								c0-0.2,0-0.5,0-0.9v-0.1c0-0.2,0.1-0.3,0.3-0.4c0.2-0.1,0.4-0.1,0.7-0.1c0.2,0,0.4,0,0.5,0.1
								C292.5,290,292.7,290.1,292.7,290.2z M290.7,294.8c-0.4,0.2-0.7,0.4-1,0.6c-0.3,0.2-0.5,0.4-0.6,0.6c0.3,0,0.5,0.1,0.8,0.1
								c0.3,0,0.5,0.1,0.8,0.1c0-0.3,0.1-0.5,0.1-0.7s0.1-0.5,0.1-0.7C290.8,294.7,290.8,294.8,290.7,294.8z M296.8,299
								c0-0.3-0.1-0.5-0.4-0.7c-0.2-0.2-0.6-0.4-0.9-0.6c-0.4-0.2-0.8-0.3-1.3-0.4c-0.5-0.1-1-0.1-1.5-0.2c0,0.4,0,0.7,0,1
								c0,0.2,0,0.5,0,0.6c0,0.2,0,0.3,0,0.5c0,0.2,0,0.4,0,0.6c0,0.2,0,0.5,0,0.9c0,0.4,0,0.9,0,1.4c0.6-0.1,1.2-0.3,1.7-0.5
								c0.5-0.2,1-0.5,1.3-0.7c0.4-0.3,0.7-0.6,0.9-0.9c0.2-0.3,0.3-0.6,0.3-1V299z"/>
						</g>
					</g>
				</g>
				<g>
					<path fill="#C0802E" d="M319.6,290.1c-1.8-2.3-5.4-4.4-11.5-6.2c-14.8-4.3-35.8,0.9-40.6,7.9h-1l0,4.8c0,2.1,1.5,4.2,5,6.2
						c19.9,11.7,49.4,2.3,49.4-7.5l0-1.7l0-3L319.6,290.1z"/>
					<g>
						<path fill="#FFB02A" d="M308.2,280.8c-21-6-54.4,6.8-36.6,17.2C298.5,313.9,342.9,291.1,308.2,280.8z"/>
						<g>
							<path fill="#C0802E" d="M294.3,283.5c0,0.3,0.1,0.6,0.1,0.8c0,0.2,0.1,0.4,0.1,0.6c0,0.2,0.1,0.4,0.1,0.6c0,0.2,0,0.4,0,0.7
								c0.3,0,0.5-0.1,0.8-0.1c0.3,0,0.5,0,0.8,0c1,0,2,0.2,2.8,0.6v0c0.2,0.1,0.3,0.2,0.3,0.3c0,0.1-0.1,0.2-0.2,0.3
								c-0.2,0.1-0.4,0.1-0.6,0.1c-0.3,0-0.5-0.1-0.7-0.2h0c-0.5-0.2-1.1-0.3-1.7-0.3c-0.5,0-1,0.1-1.6,0.2c0,0.3,0,0.6,0,0.8
								c0,0.2,0,0.4-0.1,0.6c0,0.2,0,0.4-0.1,0.5c0,0.2-0.1,0.4-0.1,0.6c0.9,0.1,1.7,0.2,2.5,0.3c0.7,0.1,1.4,0.3,1.9,0.6
								c0.5,0.2,0.9,0.5,1.2,0.9c0.3,0.3,0.4,0.7,0.4,1.2c0,0.4-0.2,0.9-0.5,1.3c-0.3,0.4-0.7,0.8-1.3,1.1c-0.5,0.3-1.2,0.6-1.9,0.9
								c-0.7,0.3-1.6,0.5-2.4,0.6c0,0.2,0,0.4,0.1,0.5c0,0.1,0,0.3,0.1,0.5c0,0.2,0.1,0.4,0.1,0.6c0.1,0.2,0.2,0.6,0.3,1
								c0,0.1,0,0.2,0.1,0.2c0,0.1,0.1,0.2,0.1,0.2c0,0.1-0.1,0.2-0.3,0.2c-0.2,0-0.4,0.1-0.5,0.1c-0.2,0-0.3,0-0.5-0.1
								c-0.2-0.1-0.2-0.1-0.3-0.3c-0.1-0.4-0.2-0.8-0.3-1.1c-0.1-0.3-0.1-0.5-0.2-0.7c0-0.2-0.1-0.4-0.1-0.6c0-0.2-0.1-0.3-0.1-0.5
								c-0.1,0-0.2,0-0.3,0c-0.1,0-0.3,0-0.4,0c-0.7,0-1.3-0.1-1.8-0.2c-0.5-0.1-1-0.3-1.3-0.4c-0.4-0.2-0.7-0.4-1-0.6
								c-0.3-0.2-0.6-0.4-0.8-0.6v0c-0.1-0.1-0.2-0.2-0.3-0.3c-0.1-0.1-0.2-0.2-0.3-0.2v0c-0.1,0-0.2-0.1-0.3-0.2
								c-0.1-0.1-0.1-0.1-0.1-0.2c0-0.1,0.1-0.2,0.2-0.2c0.1-0.1,0.3-0.1,0.5-0.1c0.2,0,0.3,0,0.5,0.1c0.1,0.1,0.3,0.1,0.4,0.2
								c0.1,0.1,0.2,0.2,0.3,0.2c0.1,0.1,0.2,0.2,0.3,0.2c0.3,0.2,0.6,0.4,0.8,0.5c0.3,0.2,0.6,0.3,0.9,0.4c0.3,0.1,0.7,0.2,1.1,0.3
								c0.4,0.1,0.9,0.1,1.4,0.1c0-0.2-0.1-0.4-0.1-0.7c0-0.2,0-0.6,0-1c0-0.4,0-0.9,0-1.5c0-0.6,0-1.4,0-2.3h0c-0.2,0-0.6,0-1-0.1
								c-0.4,0-0.9-0.1-1.3-0.1c-0.4-0.1-0.8-0.1-1.1-0.2c-0.3-0.1-0.5-0.2-0.5-0.3c0-0.2,0.1-0.5,0.3-0.7c0.2-0.2,0.5-0.5,0.8-0.7
								c0.3-0.2,0.7-0.4,1.1-0.6c0.4-0.2,0.8-0.4,1.2-0.6h0l0.7-0.3c0-0.3,0-0.6,0-0.8c0-0.2,0-0.4,0-0.7c0-0.2,0-0.4,0-0.7
								c0-0.2,0-0.5,0-0.9v-0.1c0-0.2,0.1-0.3,0.3-0.4c0.2-0.1,0.4-0.1,0.7-0.1c0.2,0,0.4,0,0.5,0.1
								C294.1,283.3,294.3,283.3,294.3,283.5z M292.3,288.1c-0.4,0.2-0.7,0.4-1,0.6c-0.3,0.2-0.5,0.4-0.6,0.6c0.3,0,0.5,0.1,0.8,0.1
								c0.3,0,0.5,0.1,0.8,0.1c0-0.3,0.1-0.5,0.1-0.7c0-0.2,0.1-0.5,0.1-0.7C292.4,288,292.4,288,292.3,288.1z M298.4,292.3
								c0-0.3-0.1-0.5-0.4-0.7c-0.2-0.2-0.6-0.4-0.9-0.6c-0.4-0.2-0.8-0.3-1.3-0.4c-0.5-0.1-1-0.1-1.5-0.2c0,0.4,0,0.7,0,1
								c0,0.2,0,0.5,0,0.6c0,0.2,0,0.3,0,0.5c0,0.2,0,0.4,0,0.6c0,0.2,0,0.5,0,0.9c0,0.4,0,0.9,0,1.4c0.6-0.1,1.2-0.3,1.7-0.5
								c0.5-0.2,1-0.5,1.3-0.7c0.4-0.3,0.7-0.6,0.9-0.9c0.2-0.3,0.3-0.6,0.3-1V292.3z"/>
						</g>
					</g>
				</g>
				<g>
					<path fill="#C0802E" d="M324.4,283.4c-1.8-2.3-5.4-4.4-11.5-6.2c-14.8-4.3-35.8,0.9-40.6,7.9h-1l0,4.8c0,2.1,1.5,4.2,5,6.2
						c19.9,11.7,49.4,2.3,49.4-7.5l0-1.7l0-3L324.4,283.4z"/>
					<g>
						<path fill="#FFB02A" d="M313,274.1c-21-6-54.4,6.8-36.6,17.2C303.3,307.2,347.7,284.4,313,274.1z"/>
						<g>
							<path fill="#C0802E" d="M299.1,276.7c0,0.3,0.1,0.6,0.1,0.8c0,0.2,0.1,0.4,0.1,0.6c0,0.2,0.1,0.4,0.1,0.6c0,0.2,0,0.4,0,0.7
								c0.3,0,0.5-0.1,0.8-0.1c0.3,0,0.5,0,0.8,0c1,0,2,0.2,2.8,0.6v0c0.2,0.1,0.3,0.2,0.3,0.3c0,0.1-0.1,0.2-0.2,0.3
								c-0.2,0.1-0.4,0.1-0.6,0.1c-0.3,0-0.5,0-0.7-0.1h0c-0.5-0.2-1.1-0.3-1.7-0.3c-0.5,0-1,0.1-1.6,0.2c0,0.3,0,0.6,0,0.8
								c0,0.2,0,0.4-0.1,0.6c0,0.2,0,0.4-0.1,0.5c0,0.2-0.1,0.4-0.1,0.6c0.9,0.1,1.7,0.2,2.5,0.3c0.7,0.1,1.4,0.3,1.9,0.6
								c0.5,0.2,0.9,0.5,1.2,0.9c0.3,0.3,0.4,0.7,0.4,1.2c0,0.4-0.2,0.9-0.5,1.3c-0.3,0.4-0.7,0.8-1.3,1.1c-0.5,0.3-1.2,0.6-1.9,0.9
								c-0.7,0.3-1.6,0.5-2.4,0.6c0,0.2,0,0.4,0.1,0.5c0,0.1,0,0.3,0.1,0.5c0,0.2,0.1,0.4,0.1,0.6c0.1,0.2,0.2,0.6,0.3,1
								c0,0.1,0,0.2,0.1,0.2c0,0.1,0.1,0.2,0.1,0.2c0,0.1-0.1,0.2-0.3,0.2c-0.2,0.1-0.4,0.1-0.5,0.1c-0.2,0-0.3,0-0.5-0.1
								c-0.2-0.1-0.2-0.1-0.3-0.3c-0.1-0.4-0.2-0.8-0.3-1.1c-0.1-0.3-0.1-0.5-0.2-0.7c0-0.2-0.1-0.4-0.1-0.6c0-0.2-0.1-0.3-0.1-0.5
								c-0.1,0-0.2,0-0.3,0c-0.1,0-0.3,0-0.4,0c-0.7,0-1.3-0.1-1.8-0.2c-0.5-0.1-1-0.3-1.3-0.4c-0.4-0.2-0.7-0.4-1-0.6
								c-0.3-0.2-0.6-0.4-0.8-0.6v0c-0.1-0.1-0.2-0.2-0.3-0.3c-0.1-0.1-0.2-0.2-0.3-0.2v0c-0.1,0-0.2-0.1-0.3-0.2
								c-0.1-0.1-0.1-0.1-0.1-0.2c0-0.1,0.1-0.2,0.2-0.2c0.1-0.1,0.3-0.1,0.5-0.1c0.2,0,0.3,0,0.5,0.1c0.1,0.1,0.3,0.1,0.4,0.2
								c0.1,0.1,0.2,0.2,0.3,0.2c0.1,0.1,0.2,0.2,0.3,0.2c0.3,0.2,0.6,0.4,0.8,0.5c0.3,0.2,0.6,0.3,0.9,0.4c0.3,0.1,0.7,0.2,1.1,0.3
								c0.4,0.1,0.9,0.1,1.4,0.1c0-0.2-0.1-0.4-0.1-0.7c0-0.2,0-0.6,0-1c0-0.4,0-0.9,0-1.5c0-0.6,0-1.4,0-2.3h0c-0.2,0-0.6,0-1-0.1
								c-0.4,0-0.9-0.1-1.3-0.1c-0.4-0.1-0.8-0.1-1.1-0.2c-0.3-0.1-0.5-0.2-0.5-0.3c0-0.2,0.1-0.5,0.3-0.7c0.2-0.2,0.5-0.5,0.8-0.7
								c0.3-0.2,0.7-0.4,1.1-0.6c0.4-0.2,0.8-0.4,1.2-0.6h0l0.7-0.3c0-0.3,0-0.6,0-0.8c0-0.2,0-0.4,0-0.7c0-0.2,0-0.4,0-0.7
								c0-0.2,0-0.5,0-0.9v-0.1c0-0.2,0.1-0.3,0.3-0.4c0.2-0.1,0.4-0.1,0.7-0.1c0.2,0,0.4,0,0.5,0.1
								C298.9,276.5,299.1,276.6,299.1,276.7z M297.1,281.4c-0.4,0.2-0.7,0.4-1,0.6c-0.3,0.2-0.5,0.4-0.6,0.6c0.3,0,0.5,0.1,0.8,0.1
								c0.3,0,0.5,0.1,0.8,0.1c0-0.3,0.1-0.5,0.1-0.7c0-0.2,0.1-0.5,0.1-0.7C297.2,281.3,297.2,281.3,297.1,281.4z M303.2,285.6
								c0-0.3-0.1-0.5-0.4-0.7c-0.2-0.2-0.6-0.4-0.9-0.6c-0.4-0.2-0.8-0.3-1.3-0.4c-0.5-0.1-1-0.1-1.5-0.2c0,0.4,0,0.7,0,1
								c0,0.2,0,0.5,0,0.6c0,0.2,0,0.3,0,0.5c0,0.2,0,0.4,0,0.6c0,0.2,0,0.5,0,0.9c0,0.4,0,0.9,0,1.4c0.6-0.1,1.2-0.3,1.7-0.5
								c0.5-0.2,1-0.5,1.3-0.7c0.4-0.3,0.7-0.6,0.9-0.9c0.2-0.3,0.3-0.6,0.3-1V285.6z"/>
						</g>
					</g>
				</g>
				<g>
					<path fill="#C0802E" d="M318,276.7c-1.8-2.3-5.4-4.4-11.5-6.2c-14.8-4.3-35.8,0.9-40.6,7.9h-1l0,4.8c0,2.1,1.5,4.2,5,6.2
						c19.9,11.7,49.4,2.3,49.4-7.5l0-1.7l0-3L318,276.7z"/>
					<g>
						<path fill="#FFB02A" d="M306.5,267.4c-21-6-54.4,6.8-36.6,17.2C296.9,300.4,341.3,277.7,306.5,267.4z"/>
						<g>
							<path fill="#C0802E" d="M292.7,270c0,0.3,0.1,0.6,0.1,0.8c0,0.2,0.1,0.4,0.1,0.6c0,0.2,0.1,0.4,0.1,0.6c0,0.2,0,0.4,0,0.7
								c0.3,0,0.5-0.1,0.8-0.1c0.3,0,0.5,0,0.8,0c1,0,2,0.2,2.8,0.6v0c0.2,0.1,0.3,0.2,0.3,0.3c0,0.1-0.1,0.2-0.2,0.3
								c-0.2,0.1-0.4,0.1-0.6,0.1c-0.3,0-0.5,0-0.7-0.2h0c-0.5-0.2-1.1-0.3-1.7-0.3c-0.5,0-1,0.1-1.6,0.2c0,0.3,0,0.6,0,0.8
								c0,0.2,0,0.4-0.1,0.6c0,0.2,0,0.4-0.1,0.5c0,0.2-0.1,0.4-0.1,0.6c0.9,0.1,1.7,0.2,2.5,0.3c0.7,0.1,1.4,0.3,1.9,0.6
								c0.5,0.2,0.9,0.5,1.2,0.9c0.3,0.3,0.4,0.7,0.4,1.2c0,0.4-0.2,0.9-0.5,1.3c-0.3,0.4-0.7,0.8-1.3,1.1c-0.5,0.3-1.2,0.6-1.9,0.9
								c-0.7,0.3-1.6,0.5-2.4,0.6c0,0.2,0,0.4,0.1,0.5c0,0.1,0,0.3,0.1,0.5c0,0.2,0.1,0.4,0.1,0.6c0.1,0.2,0.2,0.6,0.3,1
								c0,0.1,0,0.2,0.1,0.2c0,0.1,0.1,0.2,0.1,0.2c0,0.1-0.1,0.2-0.3,0.2c-0.2,0.1-0.4,0.1-0.5,0.1c-0.2,0-0.3,0-0.5-0.1
								c-0.2-0.1-0.2-0.1-0.3-0.3c-0.1-0.4-0.2-0.8-0.3-1.1c-0.1-0.3-0.1-0.5-0.2-0.7c-0.1-0.2-0.1-0.4-0.1-0.6
								c0-0.2-0.1-0.3-0.1-0.5c-0.1,0-0.2,0-0.3,0c-0.1,0-0.3,0-0.4,0c-0.7,0-1.3-0.1-1.8-0.2c-0.5-0.1-1-0.3-1.3-0.4
								c-0.4-0.2-0.7-0.4-1-0.6c-0.3-0.2-0.6-0.4-0.8-0.6v0c-0.1-0.1-0.2-0.2-0.3-0.3c-0.1-0.1-0.2-0.2-0.3-0.2v0
								c-0.1,0-0.2-0.1-0.3-0.2c-0.1-0.1-0.1-0.1-0.1-0.2c0-0.1,0.1-0.2,0.2-0.2c0.1-0.1,0.3-0.1,0.5-0.1c0.2,0,0.3,0,0.5,0.1
								c0.1,0.1,0.3,0.1,0.4,0.2c0.1,0.1,0.2,0.2,0.3,0.2c0.1,0.1,0.2,0.2,0.3,0.2c0.3,0.2,0.6,0.4,0.8,0.5c0.3,0.2,0.6,0.3,0.9,0.4
								c0.3,0.1,0.7,0.2,1.1,0.3c0.4,0.1,0.9,0.1,1.4,0.1c0-0.2-0.1-0.4-0.1-0.7c0-0.2,0-0.6,0-1c0-0.4,0-0.9,0-1.5
								c0-0.6,0-1.4,0-2.3h0c-0.2,0-0.6,0-1-0.1c-0.4,0-0.9-0.1-1.3-0.1c-0.4-0.1-0.8-0.1-1.1-0.2c-0.3-0.1-0.5-0.2-0.5-0.3
								c0-0.2,0.1-0.5,0.3-0.7c0.2-0.2,0.5-0.5,0.8-0.7c0.3-0.2,0.7-0.4,1.1-0.6c0.4-0.2,0.8-0.4,1.2-0.6h0l0.7-0.3
								c0-0.3,0-0.6,0-0.8s0-0.4,0-0.7c0-0.2,0-0.4,0-0.7c0-0.2,0-0.5,0-0.9v-0.1c0-0.2,0.1-0.3,0.3-0.4c0.2-0.1,0.4-0.1,0.7-0.1
								c0.2,0,0.4,0,0.5,0.1C292.5,269.8,292.6,269.9,292.7,270z M290.7,274.6c-0.4,0.2-0.7,0.4-1,0.6c-0.3,0.2-0.5,0.4-0.6,0.6
								c0.3,0,0.5,0.1,0.8,0.1c0.3,0,0.5,0.1,0.8,0.1c0-0.3,0.1-0.5,0.1-0.7c0-0.2,0.1-0.5,0.1-0.7
								C290.8,274.5,290.7,274.6,290.7,274.6z M296.7,278.8c0-0.3-0.1-0.5-0.4-0.7c-0.2-0.2-0.6-0.4-0.9-0.6
								c-0.4-0.2-0.8-0.3-1.3-0.4c-0.5-0.1-1-0.1-1.5-0.2c0,0.4,0,0.7,0,1c0,0.2,0,0.5,0,0.6c0,0.2,0,0.3,0,0.5c0,0.2,0,0.4,0,0.6
								c0,0.2,0,0.5,0,0.9c0,0.4,0,0.9,0,1.4c0.6-0.1,1.2-0.3,1.7-0.5c0.5-0.2,1-0.5,1.3-0.7c0.4-0.3,0.7-0.6,0.9-0.9
								c0.2-0.3,0.3-0.6,0.3-1V278.8z"/>
						</g>
						<g>
							<path fill="#C0802E" d="M305.4,268.1c-16.1-4.5-42.4,2.7-38.2,12.1c2,4.4,11.5,8.1,20.5,8.8c8,0.7,16-0.9,21.7-3.5
								c4.9-2.2,8-5.4,7.9-8.7C317.1,273,311.8,270.1,305.4,268.1c-0.7-0.2-1.3,0.3-0.6,0.5c8.4,2.5,13.3,6.7,10.3,11.5
								c-2.5,4-9.9,7.1-18.2,8.2c-10.4,1.3-20.9-1.6-26.3-5.8c-6.2-4.9,0.3-10.3,9.3-13.1c7.4-2.3,17.1-2.9,24.9-0.7
								C305.5,268.8,306.1,268.3,305.4,268.1L305.4,268.1z"/>
						</g>
					</g>
				</g>
			</g>
			<path fill="#F1F1F1" d="M188.3,291.1l0-0.3l0,0c0-1.1-0.4-2.3-1.2-3.4c1.8-1.7,2.8-3.5,2.8-5.3l0-1.7l0-3l0,0
				c0-3.5-3.7-7-12.8-9.7c-16.9-4.8-41.8,2.5-41.6,11h0l0,1.4c-0.2,0.1-0.3,0.3-0.4,0.4c11.1,14.3,28.6,23.8,56.2,26.1
				c1.2-1.4,1.8-2.8,1.8-4.3l0-1.7l0-3l0,0C193.1,295.3,191.6,293.1,188.3,291.1z"/>
			<g>
				<g>
					<path fill="#C0802E" d="M135.4,303.8c-1.8-2.3-5.4-4.4-11.5-6.2c-14.8-4.3-35.8,0.9-40.6,7.9h-1l0,4.8c0,2.1,1.5,4.2,5,6.2
						c19.9,11.7,49.4,2.3,49.4-7.5l0-1.7l0-3L135.4,303.8z"/>
					<g>
						<path fill="#FFB02A" d="M123.9,294.5c-21-6-54.4,6.8-36.6,17.2C114.3,327.6,158.7,304.8,123.9,294.5z"/>
						<g>
							<path fill="#C0802E" d="M110.1,297.2c0,0.3,0.1,0.6,0.1,0.8c0,0.2,0.1,0.4,0.1,0.6c0,0.2,0.1,0.4,0.1,0.6c0,0.2,0,0.4,0,0.7
								c0.3,0,0.5-0.1,0.8-0.1c0.3,0,0.5,0,0.8,0c1,0,2,0.2,2.8,0.6v0c0.2,0.1,0.3,0.2,0.3,0.3c0,0.1-0.1,0.2-0.2,0.3
								c-0.2,0.1-0.4,0.1-0.6,0.1c-0.3,0-0.5-0.1-0.7-0.2h0c-0.5-0.2-1.1-0.3-1.7-0.3c-0.5,0-1,0.1-1.6,0.2c0,0.3,0,0.6,0,0.8
								c0,0.2,0,0.4-0.1,0.6c0,0.2,0,0.4-0.1,0.5c0,0.2-0.1,0.4-0.1,0.6c0.9,0.1,1.7,0.2,2.5,0.3c0.7,0.1,1.4,0.3,1.9,0.6
								c0.5,0.2,0.9,0.5,1.2,0.9c0.3,0.3,0.4,0.7,0.4,1.2c0,0.4-0.2,0.9-0.5,1.3c-0.3,0.4-0.7,0.8-1.3,1.1c-0.5,0.3-1.2,0.6-1.9,0.9
								c-0.7,0.3-1.6,0.5-2.4,0.6c0,0.2,0,0.4,0.1,0.5c0,0.1,0,0.3,0.1,0.5c0,0.2,0.1,0.4,0.1,0.6c0.1,0.2,0.2,0.6,0.3,1
								c0,0.1,0,0.2,0.1,0.2c0,0.1,0.1,0.2,0.1,0.2c0,0.1-0.1,0.2-0.3,0.2c-0.2,0-0.4,0.1-0.5,0.1c-0.2,0-0.3,0-0.5-0.1
								c-0.2-0.1-0.2-0.1-0.3-0.3c-0.1-0.4-0.2-0.8-0.3-1.1c-0.1-0.3-0.1-0.5-0.2-0.7c-0.1-0.2-0.1-0.4-0.1-0.6
								c0-0.2-0.1-0.3-0.1-0.5c-0.1,0-0.2,0-0.3,0c-0.1,0-0.3,0-0.4,0c-0.7,0-1.3-0.1-1.8-0.2c-0.5-0.1-1-0.3-1.3-0.4
								c-0.4-0.2-0.7-0.4-1-0.6c-0.3-0.2-0.6-0.4-0.8-0.6v0c-0.1-0.1-0.2-0.2-0.3-0.3c-0.1-0.1-0.2-0.2-0.3-0.2v0
								c-0.1,0-0.2-0.1-0.3-0.2c-0.1-0.1-0.1-0.1-0.1-0.2c0-0.1,0.1-0.2,0.2-0.2c0.1-0.1,0.3-0.1,0.5-0.1c0.2,0,0.3,0,0.5,0.1
								c0.1,0,0.3,0.1,0.4,0.2c0.1,0.1,0.2,0.2,0.3,0.2c0.1,0.1,0.2,0.2,0.3,0.2c0.3,0.2,0.6,0.4,0.8,0.5c0.3,0.2,0.6,0.3,0.9,0.4
								c0.3,0.1,0.7,0.2,1.1,0.3c0.4,0.1,0.9,0.1,1.4,0.1c0-0.2-0.1-0.4-0.1-0.7c0-0.2,0-0.6,0-1c0-0.4,0-0.9,0-1.5
								c0-0.6,0-1.4,0-2.3h0c-0.2,0-0.6,0-1-0.1c-0.4,0-0.9-0.1-1.3-0.1c-0.4-0.1-0.8-0.1-1.1-0.2c-0.3-0.1-0.5-0.2-0.5-0.3
								c0-0.2,0.1-0.5,0.3-0.7c0.2-0.2,0.5-0.5,0.8-0.7c0.3-0.2,0.7-0.4,1.1-0.6c0.4-0.2,0.8-0.4,1.2-0.6h0l0.7-0.3
								c0-0.3,0-0.6,0-0.8c0-0.2,0-0.4,0-0.7c0-0.2,0-0.4,0-0.7c0-0.2,0-0.5,0-0.9v-0.1c0-0.2,0.1-0.3,0.3-0.4
								c0.2-0.1,0.4-0.1,0.7-0.1c0.2,0,0.4,0,0.5,0.1C109.9,297,110,297,110.1,297.2z M108.1,301.8c-0.4,0.2-0.7,0.4-1,0.6
								c-0.3,0.2-0.5,0.4-0.6,0.6c0.3,0,0.5,0.1,0.8,0.1c0.3,0,0.5,0.1,0.8,0.1c0-0.3,0.1-0.5,0.1-0.7c0-0.2,0.1-0.5,0.1-0.7
								C108.2,301.7,108.1,301.8,108.1,301.8z M114.2,306c0-0.3-0.1-0.5-0.4-0.7c-0.2-0.2-0.6-0.4-0.9-0.6c-0.4-0.2-0.8-0.3-1.3-0.4
								c-0.5-0.1-1-0.1-1.5-0.2c0,0.4,0,0.7,0,1c0,0.2,0,0.5,0,0.6c0,0.2,0,0.3,0,0.5c0,0.2,0,0.4,0,0.6c0,0.2,0,0.5,0,0.9
								c0,0.4,0,0.9,0,1.4c0.6-0.1,1.2-0.3,1.7-0.5c0.5-0.2,1-0.5,1.3-0.7c0.4-0.3,0.7-0.6,0.9-0.9c0.2-0.3,0.3-0.6,0.3-1V306z"/>
						</g>
					</g>
				</g>
				<g>
					<path fill="#C0802E" d="M137,297.1c-1.8-2.3-5.4-4.4-11.5-6.2c-14.8-4.3-35.8,0.9-40.6,7.9h-1l0,4.8c0,2.1,1.5,4.2,5,6.2
						c19.9,11.7,49.4,2.3,49.4-7.5l0-1.7l0-3L137,297.1z"/>
					<g>
						<path fill="#FFB02A" d="M125.5,287.8c-21-6-54.4,6.8-36.6,17.2C115.9,320.9,160.3,298.1,125.5,287.8z"/>
						<g>
							<path fill="#C0802E" d="M111.7,290.4c0,0.3,0.1,0.6,0.1,0.8c0,0.2,0.1,0.4,0.1,0.6c0,0.2,0.1,0.4,0.1,0.6c0,0.2,0,0.4,0,0.7
								c0.3,0,0.5-0.1,0.8-0.1c0.3,0,0.5,0,0.8,0c1,0,2,0.2,2.8,0.6v0c0.2,0.1,0.3,0.2,0.3,0.3c0,0.1-0.1,0.2-0.2,0.3
								c-0.2,0.1-0.4,0.1-0.6,0.1c-0.3,0-0.5,0-0.7-0.1h0c-0.5-0.2-1.1-0.3-1.7-0.3c-0.5,0-1,0.1-1.6,0.2c0,0.3,0,0.6,0,0.8
								c0,0.2,0,0.4-0.1,0.6c0,0.2,0,0.4-0.1,0.5c0,0.2-0.1,0.4-0.1,0.6c0.9,0.1,1.7,0.2,2.5,0.3c0.7,0.1,1.4,0.3,1.9,0.6
								c0.5,0.2,0.9,0.5,1.2,0.9c0.3,0.3,0.4,0.7,0.4,1.2c0,0.4-0.2,0.9-0.5,1.3c-0.3,0.4-0.7,0.8-1.3,1.1c-0.5,0.3-1.2,0.6-1.9,0.9
								c-0.7,0.3-1.6,0.5-2.4,0.6c0,0.2,0,0.4,0.1,0.5c0,0.1,0,0.3,0.1,0.5c0,0.2,0.1,0.4,0.1,0.6c0.1,0.2,0.2,0.6,0.3,1
								c0,0.1,0,0.2,0.1,0.2c0,0.1,0.1,0.2,0.1,0.2c0,0.1-0.1,0.2-0.3,0.2c-0.2,0-0.4,0.1-0.5,0.1c-0.2,0-0.3,0-0.5-0.1
								c-0.2-0.1-0.2-0.1-0.3-0.3c-0.1-0.4-0.2-0.8-0.3-1.1c-0.1-0.3-0.1-0.5-0.2-0.7c-0.1-0.2-0.1-0.4-0.1-0.6
								c0-0.2-0.1-0.3-0.1-0.5c-0.1,0-0.2,0-0.3,0c-0.1,0-0.3,0-0.4,0c-0.7,0-1.3-0.1-1.8-0.2c-0.5-0.1-1-0.3-1.3-0.4
								c-0.4-0.2-0.7-0.4-1-0.6c-0.3-0.2-0.6-0.4-0.8-0.6v0c-0.1-0.1-0.2-0.2-0.3-0.3c-0.1-0.1-0.2-0.2-0.3-0.2v0
								c-0.1,0-0.2-0.1-0.3-0.2c-0.1-0.1-0.1-0.1-0.1-0.2c0-0.1,0.1-0.2,0.2-0.2c0.1-0.1,0.3-0.1,0.5-0.1c0.2,0,0.3,0,0.5,0.1
								c0.1,0,0.3,0.1,0.4,0.2c0.1,0.1,0.2,0.2,0.3,0.2c0.1,0.1,0.2,0.2,0.3,0.2c0.3,0.2,0.6,0.4,0.8,0.5c0.3,0.2,0.6,0.3,0.9,0.4
								c0.3,0.1,0.7,0.2,1.1,0.3c0.4,0.1,0.9,0.1,1.4,0.1c0-0.2-0.1-0.4-0.1-0.7c0-0.2,0-0.6,0-1c0-0.4,0-0.9,0-1.5
								c0-0.6,0-1.4,0-2.3h0c-0.2,0-0.6,0-1-0.1c-0.4,0-0.9-0.1-1.3-0.1c-0.4-0.1-0.8-0.1-1.1-0.2c-0.3-0.1-0.5-0.2-0.5-0.3
								c0-0.2,0.1-0.5,0.3-0.7c0.2-0.2,0.5-0.5,0.8-0.7c0.3-0.2,0.7-0.4,1.1-0.6c0.4-0.2,0.8-0.4,1.2-0.6h0l0.7-0.3
								c0-0.3,0-0.6,0-0.8c0-0.2,0-0.4,0-0.7c0-0.2,0-0.4,0-0.7c0-0.2,0-0.5,0-0.9v-0.1c0-0.2,0.1-0.3,0.3-0.4
								c0.2-0.1,0.4-0.1,0.7-0.1c0.2,0,0.4,0,0.5,0.1C111.5,290.2,111.6,290.3,111.7,290.4z M109.7,295.1c-0.4,0.2-0.7,0.4-1,0.6
								c-0.3,0.2-0.5,0.4-0.6,0.6c0.3,0,0.5,0.1,0.8,0.1c0.3,0,0.5,0.1,0.8,0.1c0-0.3,0.1-0.5,0.1-0.7c0-0.2,0.1-0.5,0.1-0.7
								C109.8,295,109.7,295,109.7,295.1z M115.8,299.3c0-0.3-0.1-0.5-0.4-0.7c-0.2-0.2-0.6-0.4-0.9-0.6c-0.4-0.2-0.8-0.3-1.3-0.4
								c-0.5-0.1-1-0.1-1.5-0.2c0,0.4,0,0.7,0,1c0,0.2,0,0.5,0,0.6c0,0.2,0,0.3,0,0.5c0,0.2,0,0.4,0,0.6c0,0.2,0,0.5,0,0.9
								c0,0.4,0,0.9,0,1.4c0.6-0.1,1.2-0.3,1.7-0.5c0.5-0.2,1-0.5,1.3-0.7c0.4-0.3,0.7-0.6,0.9-0.9c0.2-0.3,0.3-0.6,0.3-1V299.3z"/>
						</g>
					</g>
				</g>
				<g>
					<path fill="#C0802E" d="M133.8,290.4c-1.8-2.3-5.4-4.4-11.5-6.2c-14.8-4.3-35.8,0.9-40.6,7.9h-1l0,4.8c0,2.1,1.5,4.2,5,6.2
						c19.9,11.7,49.4,2.3,49.4-7.5l0-1.7l0-3L133.8,290.4z"/>
					<g>
						<path fill="#FFB02A" d="M122.3,281.1c-21-6-54.4,6.8-36.6,17.2C112.7,314.2,157.1,291.4,122.3,281.1z"/>
						<g>
							<path fill="#C0802E" d="M108.5,283.7c0,0.3,0.1,0.6,0.1,0.8c0,0.2,0.1,0.4,0.1,0.6c0,0.2,0.1,0.4,0.1,0.6c0,0.2,0,0.4,0,0.7
								c0.3,0,0.5-0.1,0.8-0.1c0.3,0,0.5,0,0.8,0c1,0,2,0.2,2.8,0.6v0c0.2,0.1,0.3,0.2,0.3,0.3c0,0.1-0.1,0.2-0.2,0.3
								c-0.2,0.1-0.4,0.1-0.6,0.1c-0.3,0-0.5-0.1-0.7-0.2h0c-0.5-0.2-1.1-0.3-1.7-0.3c-0.5,0-1,0.1-1.6,0.2c0,0.3,0,0.6,0,0.8
								c0,0.2,0,0.4-0.1,0.6c0,0.2,0,0.4-0.1,0.5c0,0.2-0.1,0.4-0.1,0.6c0.9,0.1,1.7,0.2,2.5,0.3c0.7,0.1,1.4,0.3,1.9,0.6
								c0.5,0.2,0.9,0.5,1.2,0.9c0.3,0.3,0.4,0.7,0.4,1.2c0,0.4-0.2,0.9-0.5,1.3c-0.3,0.4-0.7,0.8-1.3,1.1c-0.5,0.3-1.2,0.6-1.9,0.9
								c-0.7,0.3-1.6,0.5-2.4,0.6c0,0.2,0,0.4,0.1,0.5c0,0.1,0,0.3,0.1,0.5c0,0.2,0.1,0.4,0.1,0.6c0.1,0.2,0.2,0.6,0.3,1
								c0,0.1,0,0.2,0.1,0.2c0,0.1,0.1,0.2,0.1,0.2c0,0.1-0.1,0.2-0.3,0.2c-0.2,0.1-0.4,0.1-0.5,0.1c-0.2,0-0.3,0-0.5-0.1
								c-0.2-0.1-0.2-0.1-0.3-0.3c-0.1-0.4-0.2-0.8-0.3-1.1c-0.1-0.3-0.1-0.5-0.2-0.7c-0.1-0.2-0.1-0.4-0.1-0.6
								c0-0.2-0.1-0.3-0.1-0.5c-0.1,0-0.2,0-0.3,0c-0.1,0-0.3,0-0.4,0c-0.7,0-1.3-0.1-1.8-0.2c-0.5-0.1-1-0.3-1.3-0.4
								c-0.4-0.2-0.7-0.4-1-0.6c-0.3-0.2-0.6-0.4-0.8-0.6v0c-0.1-0.1-0.2-0.2-0.3-0.3c-0.1-0.1-0.2-0.2-0.3-0.2v0
								c-0.1,0-0.2-0.1-0.3-0.2c-0.1-0.1-0.1-0.1-0.1-0.2c0-0.1,0.1-0.2,0.2-0.2c0.1-0.1,0.3-0.1,0.5-0.1c0.2,0,0.3,0,0.5,0.1
								c0.1,0,0.3,0.1,0.4,0.2c0.1,0.1,0.2,0.2,0.3,0.2c0.1,0.1,0.2,0.2,0.3,0.2c0.3,0.2,0.6,0.4,0.8,0.5c0.3,0.2,0.6,0.3,0.9,0.4
								c0.3,0.1,0.7,0.2,1.1,0.3c0.4,0.1,0.9,0.1,1.4,0.1c0-0.2-0.1-0.4-0.1-0.7c0-0.2,0-0.6,0-1c0-0.4,0-0.9,0-1.5
								c0-0.6,0-1.4,0-2.3h0c-0.2,0-0.6,0-1-0.1c-0.4,0-0.9-0.1-1.3-0.1c-0.4-0.1-0.8-0.1-1.1-0.2c-0.3-0.1-0.5-0.2-0.5-0.3
								c0-0.2,0.1-0.5,0.3-0.7c0.2-0.2,0.5-0.5,0.8-0.7c0.3-0.2,0.7-0.4,1.1-0.6c0.4-0.2,0.8-0.4,1.2-0.6h0l0.7-0.3
								c0-0.3,0-0.6,0-0.8c0-0.2,0-0.4,0-0.7c0-0.2,0-0.4,0-0.7c0-0.2,0-0.5,0-0.9v-0.1c0-0.2,0.1-0.3,0.3-0.4
								c0.2-0.1,0.4-0.1,0.7-0.1c0.2,0,0.4,0,0.5,0.1C108.3,283.5,108.4,283.6,108.5,283.7z M106.5,288.3c-0.4,0.2-0.7,0.4-1,0.6
								c-0.3,0.2-0.5,0.4-0.6,0.6c0.3,0,0.5,0.1,0.8,0.1c0.3,0,0.5,0.1,0.8,0.1c0-0.3,0.1-0.5,0.1-0.7c0-0.2,0.1-0.5,0.1-0.7
								C106.6,288.3,106.5,288.3,106.5,288.3z M112.6,292.5c0-0.3-0.1-0.5-0.4-0.7c-0.2-0.2-0.6-0.4-0.9-0.6
								c-0.4-0.2-0.8-0.3-1.3-0.4c-0.5-0.1-1-0.1-1.5-0.2c0,0.4,0,0.7,0,1c0,0.2,0,0.5,0,0.6c0,0.2,0,0.3,0,0.5c0,0.2,0,0.4,0,0.6
								c0,0.2,0,0.5,0,0.9c0,0.4,0,0.9,0,1.4c0.6-0.1,1.2-0.3,1.7-0.5c0.5-0.2,1-0.5,1.3-0.7c0.4-0.3,0.7-0.6,0.9-0.9
								c0.2-0.3,0.3-0.6,0.3-1V292.5z"/>
						</g>
						<g>
							<path fill="#C0802E" d="M121.3,281.8c-16.1-4.5-42.4,2.7-38.2,12.1c2,4.4,11.5,8.1,20.5,8.8c8,0.7,16-0.9,21.7-3.5
								c4.9-2.2,8-5.4,7.9-8.7C132.9,286.8,127.6,283.8,121.3,281.8c-0.7-0.2-1.3,0.3-0.6,0.5c8.4,2.5,13.3,6.7,10.3,11.5
								c-2.5,4-9.9,7.1-18.2,8.2c-10.4,1.3-20.9-1.6-26.3-5.8c-6.2-4.9,0.3-10.3,9.3-13.1c7.4-2.3,17.1-2.9,24.9-0.7
								C121.3,282.6,122,282,121.3,281.8L121.3,281.8z"/>
						</g>
					</g>
				</g>
				<g>
					<path fill="#C0802E" d="M183.8,318.8c-1.8-2.3-5.4-4.4-11.5-6.2c-14.8-4.3-35.8,0.9-40.6,7.9h-1l0,4.8c0,2.1,1.5,4.2,5,6.2
						c19.9,11.7,49.4,2.3,49.4-7.5l0-1.7l0-3L183.8,318.8z"/>
					<g>
						<path fill="#FFB02A" d="M172.3,309.5c-21-6-54.4,6.8-36.6,17.2C162.7,342.6,207.1,319.8,172.3,309.5z"/>
						<g>
							<path fill="#C0802E" d="M158.5,312.2c0,0.3,0.1,0.6,0.1,0.8c0,0.2,0.1,0.4,0.1,0.6c0,0.2,0.1,0.4,0.1,0.6c0,0.2,0,0.4,0,0.7
								c0.3,0,0.5-0.1,0.8-0.1c0.3,0,0.5,0,0.8,0c1,0,2,0.2,2.8,0.6v0c0.2,0.1,0.3,0.2,0.3,0.3c0,0.1-0.1,0.2-0.2,0.3
								c-0.2,0.1-0.4,0.1-0.6,0.1c-0.3,0-0.5,0-0.7-0.1h0c-0.5-0.2-1.1-0.3-1.7-0.3c-0.5,0-1,0.1-1.6,0.2c0,0.3,0,0.6,0,0.8
								c0,0.2,0,0.4-0.1,0.6c0,0.2,0,0.4-0.1,0.5c0,0.2-0.1,0.4-0.1,0.6c0.9,0.1,1.7,0.2,2.5,0.3c0.7,0.1,1.4,0.3,1.9,0.6
								c0.5,0.2,0.9,0.5,1.2,0.9c0.3,0.3,0.4,0.7,0.4,1.2c0,0.4-0.2,0.9-0.5,1.3c-0.3,0.4-0.7,0.8-1.3,1.1c-0.5,0.3-1.2,0.6-1.9,0.9
								c-0.7,0.3-1.6,0.5-2.4,0.6c0,0.2,0,0.4,0.1,0.5c0,0.1,0,0.3,0.1,0.5c0,0.2,0.1,0.4,0.1,0.6c0.1,0.2,0.2,0.6,0.3,1
								c0,0.1,0,0.2,0.1,0.2c0,0.1,0.1,0.2,0.1,0.2c0,0.1-0.1,0.2-0.3,0.2c-0.2,0.1-0.4,0.1-0.5,0.1c-0.2,0-0.3,0-0.5-0.1
								c-0.2-0.1-0.2-0.1-0.3-0.3c-0.1-0.4-0.2-0.8-0.3-1.1c-0.1-0.3-0.1-0.5-0.2-0.7c0-0.2-0.1-0.4-0.1-0.6c0-0.2-0.1-0.3-0.1-0.5
								c-0.1,0-0.2,0-0.3,0c-0.1,0-0.3,0-0.4,0c-0.7,0-1.3-0.1-1.8-0.2c-0.5-0.1-1-0.3-1.3-0.4c-0.4-0.2-0.7-0.4-1-0.6
								c-0.3-0.2-0.6-0.4-0.8-0.6v0c-0.1-0.1-0.2-0.2-0.3-0.3c-0.1-0.1-0.2-0.2-0.3-0.2v0c-0.1,0-0.2-0.1-0.3-0.2
								c-0.1-0.1-0.1-0.1-0.1-0.2c0-0.1,0.1-0.2,0.2-0.2c0.1-0.1,0.3-0.1,0.5-0.1c0.2,0,0.3,0,0.5,0.1c0.1,0.1,0.3,0.1,0.4,0.2
								c0.1,0.1,0.2,0.2,0.3,0.2c0.1,0.1,0.2,0.2,0.3,0.2c0.3,0.2,0.6,0.4,0.8,0.5c0.3,0.2,0.6,0.3,0.9,0.4c0.3,0.1,0.7,0.2,1.1,0.3
								c0.4,0.1,0.9,0.1,1.4,0.1c0-0.2-0.1-0.4-0.1-0.7c0-0.2,0-0.6,0-1c0-0.4,0-0.9,0-1.5c0-0.6,0-1.4,0-2.3h0c-0.2,0-0.6,0-1-0.1
								c-0.4,0-0.9-0.1-1.3-0.1c-0.4-0.1-0.8-0.1-1.1-0.2c-0.3-0.1-0.5-0.2-0.5-0.3c0-0.2,0.1-0.5,0.3-0.7c0.2-0.2,0.5-0.5,0.8-0.7
								c0.3-0.2,0.7-0.4,1.1-0.6c0.4-0.2,0.8-0.4,1.2-0.6h0l0.7-0.3c0-0.3,0-0.6,0-0.8c0-0.2,0-0.4,0-0.7c0-0.2,0-0.4,0-0.7
								c0-0.2,0-0.5,0-0.9v-0.1c0-0.2,0.1-0.3,0.3-0.4c0.2-0.1,0.4-0.1,0.7-0.1c0.2,0,0.4,0,0.5,0.1
								C158.3,312,158.4,312,158.5,312.2z M156.5,316.8c-0.4,0.2-0.7,0.4-1,0.6c-0.3,0.2-0.5,0.4-0.6,0.6c0.3,0,0.5,0.1,0.8,0.1
								c0.3,0,0.5,0.1,0.8,0.1c0-0.3,0.1-0.5,0.1-0.7c0-0.2,0.1-0.5,0.1-0.7C156.6,316.7,156.5,316.8,156.5,316.8z M162.5,321
								c0-0.3-0.1-0.5-0.4-0.7c-0.2-0.2-0.6-0.4-0.9-0.6c-0.4-0.2-0.8-0.3-1.3-0.4c-0.5-0.1-1-0.1-1.5-0.2c0,0.4,0,0.7,0,1
								c0,0.2,0,0.5,0,0.6c0,0.2,0,0.3,0,0.5c0,0.2,0,0.4,0,0.6c0,0.2,0,0.5,0,0.9c0,0.4,0,0.9,0,1.4c0.6-0.1,1.2-0.3,1.7-0.5
								c0.5-0.2,1-0.5,1.3-0.7c0.4-0.3,0.7-0.6,0.9-0.9c0.2-0.3,0.3-0.6,0.3-1V321z"/>
						</g>
					</g>
				</g>
				<g>
					<path fill="#C0802E" d="M180.6,312.1c-1.8-2.3-5.4-4.4-11.5-6.2c-14.8-4.2-35.8,0.9-40.6,7.9h-1l0,4.8c0,2.1,1.5,4.2,5,6.2
						c19.9,11.7,49.4,2.3,49.4-7.5l0-1.7l0-3L180.6,312.1z"/>
					<g>
						<path fill="#FFB02A" d="M169.1,302.8c-21-6-54.4,6.8-36.6,17.2C159.5,335.9,203.9,313.1,169.1,302.8z"/>
						<g>
							<path fill="#C0802E" d="M155.3,305.4c0,0.3,0.1,0.6,0.1,0.8c0,0.2,0.1,0.4,0.1,0.6c0,0.2,0.1,0.4,0.1,0.6c0,0.2,0,0.4,0,0.7
								c0.3,0,0.5-0.1,0.8-0.1c0.3,0,0.5,0,0.8,0c1,0,2,0.2,2.8,0.6v0c0.2,0.1,0.3,0.2,0.3,0.3c0,0.1-0.1,0.2-0.2,0.3
								c-0.2,0.1-0.4,0.1-0.6,0.1c-0.3,0-0.5-0.1-0.7-0.1h0c-0.5-0.2-1.1-0.3-1.7-0.3c-0.5,0-1,0.1-1.6,0.2c0,0.3,0,0.6,0,0.8
								c0,0.2,0,0.4-0.1,0.6c0,0.2,0,0.4-0.1,0.5c0,0.2-0.1,0.4-0.1,0.6c0.9,0.1,1.7,0.2,2.5,0.3c0.7,0.1,1.4,0.3,1.9,0.6
								c0.5,0.2,0.9,0.5,1.2,0.9c0.3,0.3,0.4,0.7,0.4,1.2c0,0.4-0.2,0.9-0.5,1.3c-0.3,0.4-0.7,0.8-1.3,1.1c-0.5,0.3-1.2,0.6-1.9,0.9
								c-0.7,0.3-1.6,0.5-2.4,0.6c0,0.2,0,0.4,0.1,0.5c0,0.1,0,0.3,0.1,0.5c0,0.2,0.1,0.4,0.1,0.6c0.1,0.2,0.2,0.6,0.3,1
								c0,0.1,0,0.2,0.1,0.2c0,0.1,0.1,0.2,0.1,0.2c0,0.1-0.1,0.2-0.3,0.2c-0.2,0.1-0.4,0.1-0.5,0.1c-0.2,0-0.3,0-0.5-0.1
								c-0.2-0.1-0.2-0.1-0.3-0.3c-0.1-0.4-0.2-0.8-0.3-1.1c-0.1-0.3-0.1-0.5-0.2-0.7c-0.1-0.2-0.1-0.4-0.1-0.6
								c0-0.2-0.1-0.3-0.1-0.5c-0.1,0-0.2,0-0.3,0c-0.1,0-0.3,0-0.4,0c-0.7,0-1.3-0.1-1.8-0.2c-0.5-0.1-1-0.3-1.3-0.4
								c-0.4-0.2-0.7-0.4-1-0.6c-0.3-0.2-0.6-0.4-0.8-0.6v0c-0.1-0.1-0.2-0.2-0.3-0.3c-0.1-0.1-0.2-0.2-0.3-0.2v0
								c-0.1,0-0.2-0.1-0.3-0.2c-0.1-0.1-0.1-0.1-0.1-0.2c0-0.1,0.1-0.2,0.2-0.2c0.1-0.1,0.3-0.1,0.5-0.1c0.2,0,0.3,0,0.5,0.1
								c0.1,0.1,0.3,0.1,0.4,0.2c0.1,0.1,0.2,0.2,0.3,0.2c0.1,0.1,0.2,0.2,0.3,0.2c0.3,0.2,0.6,0.4,0.8,0.5c0.3,0.2,0.6,0.3,0.9,0.4
								c0.3,0.1,0.7,0.2,1.1,0.3c0.4,0.1,0.9,0.1,1.4,0.1c0-0.2-0.1-0.4-0.1-0.7c0-0.2,0-0.6,0-1c0-0.4,0-0.9,0-1.5
								c0-0.6,0-1.4,0-2.3h0c-0.2,0-0.6,0-1-0.1c-0.4,0-0.9-0.1-1.3-0.1c-0.4-0.1-0.8-0.1-1.1-0.2c-0.3-0.1-0.5-0.2-0.5-0.3
								c0-0.2,0.1-0.5,0.3-0.7c0.2-0.2,0.5-0.5,0.8-0.7c0.3-0.2,0.7-0.4,1.1-0.6c0.4-0.2,0.8-0.4,1.2-0.6h0l0.7-0.3
								c0-0.3,0-0.6,0-0.8c0-0.2,0-0.4,0-0.7c0-0.2,0-0.4,0-0.7c0-0.2,0-0.5,0-0.9v-0.1c0-0.2,0.1-0.3,0.3-0.4
								c0.2-0.1,0.4-0.1,0.7-0.1c0.2,0,0.4,0,0.5,0.1C155.1,305.2,155.2,305.3,155.3,305.4z M153.3,310.1c-0.4,0.2-0.7,0.4-1,0.6
								c-0.3,0.2-0.5,0.4-0.6,0.6c0.3,0,0.5,0.1,0.8,0.1c0.3,0,0.5,0.1,0.8,0.1c0-0.3,0.1-0.5,0.1-0.7c0-0.2,0.1-0.5,0.1-0.7
								C153.4,310,153.3,310,153.3,310.1z M159.3,314.3c0-0.3-0.1-0.5-0.4-0.7c-0.2-0.2-0.6-0.4-0.9-0.6c-0.4-0.2-0.8-0.3-1.3-0.4
								c-0.5-0.1-1-0.1-1.5-0.2c0,0.4,0,0.7,0,1c0,0.2,0,0.5,0,0.6c0,0.2,0,0.3,0,0.5c0,0.2,0,0.4,0,0.6c0,0.2,0,0.5,0,0.9
								c0,0.4,0,0.9,0,1.4c0.6-0.1,1.2-0.3,1.7-0.5c0.5-0.2,1-0.5,1.3-0.7c0.4-0.3,0.7-0.6,0.9-0.9c0.2-0.3,0.3-0.6,0.3-1V314.3z"/>
						</g>
					</g>
				</g>
				<g>
					<path fill="#C0802E" d="M183.8,305.4c-1.8-2.3-5.4-4.4-11.5-6.2c-14.8-4.3-35.8,0.9-40.6,7.9h-1l0,4.8c0,2.1,1.5,4.2,5,6.2
						c19.9,11.7,49.4,2.3,49.4-7.5l0-1.7l0-3L183.8,305.4z"/>
					<g>
						<path fill="#FFB02A" d="M172.3,296.1c-21-6-54.4,6.8-36.6,17.2C162.7,329.2,207.1,306.4,172.3,296.1z"/>
						<g>
							<path fill="#C0802E" d="M158.5,298.7c0,0.3,0.1,0.6,0.1,0.8c0,0.2,0.1,0.4,0.1,0.6c0,0.2,0.1,0.4,0.1,0.6c0,0.2,0,0.4,0,0.7
								c0.3,0,0.5-0.1,0.8-0.1c0.3,0,0.5,0,0.8,0c1,0,2,0.2,2.8,0.6v0c0.2,0.1,0.3,0.2,0.3,0.3c0,0.1-0.1,0.2-0.2,0.3
								c-0.2,0.1-0.4,0.1-0.6,0.1c-0.3,0-0.5,0-0.7-0.1h0c-0.5-0.2-1.1-0.3-1.7-0.3c-0.5,0-1,0.1-1.6,0.2c0,0.3,0,0.6,0,0.8
								c0,0.2,0,0.4-0.1,0.6c0,0.2,0,0.4-0.1,0.5c0,0.2-0.1,0.4-0.1,0.6c0.9,0.1,1.7,0.2,2.5,0.3c0.7,0.1,1.4,0.3,1.9,0.6
								c0.5,0.2,0.9,0.5,1.2,0.9c0.3,0.3,0.4,0.7,0.4,1.2c0,0.4-0.2,0.9-0.5,1.3c-0.3,0.4-0.7,0.8-1.3,1.1c-0.5,0.3-1.2,0.6-1.9,0.9
								c-0.7,0.3-1.6,0.5-2.4,0.6c0,0.2,0,0.4,0.1,0.5c0,0.1,0,0.3,0.1,0.5c0,0.2,0.1,0.4,0.1,0.6c0.1,0.2,0.2,0.6,0.3,1
								c0,0.1,0,0.2,0.1,0.2c0,0.1,0.1,0.2,0.1,0.2c0,0.1-0.1,0.2-0.3,0.2c-0.2,0.1-0.4,0.1-0.5,0.1c-0.2,0-0.3,0-0.5-0.1
								c-0.2-0.1-0.2-0.1-0.3-0.3c-0.1-0.4-0.2-0.8-0.3-1.1c-0.1-0.3-0.1-0.5-0.2-0.7c0-0.2-0.1-0.4-0.1-0.6c0-0.2-0.1-0.3-0.1-0.5
								c-0.1,0-0.2,0-0.3,0c-0.1,0-0.3,0-0.4,0c-0.7,0-1.3-0.1-1.8-0.2c-0.5-0.1-1-0.3-1.3-0.4c-0.4-0.2-0.7-0.4-1-0.6
								c-0.3-0.2-0.6-0.4-0.8-0.6v0c-0.1-0.1-0.2-0.2-0.3-0.3c-0.1-0.1-0.2-0.2-0.3-0.2v0c-0.1,0-0.2-0.1-0.3-0.2
								c-0.1-0.1-0.1-0.1-0.1-0.2c0-0.1,0.1-0.2,0.2-0.2c0.1-0.1,0.3-0.1,0.5-0.1c0.2,0,0.3,0,0.5,0.1c0.1,0.1,0.3,0.1,0.4,0.2
								c0.1,0.1,0.2,0.2,0.3,0.2c0.1,0.1,0.2,0.2,0.3,0.2c0.3,0.2,0.6,0.4,0.8,0.5c0.3,0.2,0.6,0.3,0.9,0.4c0.3,0.1,0.7,0.2,1.1,0.3
								c0.4,0.1,0.9,0.1,1.4,0.1c0-0.2-0.1-0.4-0.1-0.7c0-0.2,0-0.6,0-1c0-0.4,0-0.9,0-1.5c0-0.6,0-1.4,0-2.3h0c-0.2,0-0.6,0-1-0.1
								c-0.4,0-0.9-0.1-1.3-0.1c-0.4-0.1-0.8-0.1-1.1-0.2c-0.3-0.1-0.5-0.2-0.5-0.3c0-0.2,0.1-0.5,0.3-0.7c0.2-0.2,0.5-0.5,0.8-0.7
								c0.3-0.2,0.7-0.4,1.1-0.6c0.4-0.2,0.8-0.4,1.2-0.6h0l0.7-0.3c0-0.3,0-0.6,0-0.8c0-0.2,0-0.4,0-0.7c0-0.2,0-0.4,0-0.7
								c0-0.2,0-0.5,0-0.9v-0.1c0-0.2,0.1-0.3,0.3-0.4c0.2-0.1,0.4-0.1,0.7-0.1c0.2,0,0.4,0,0.5,0.1
								C158.3,298.5,158.4,298.6,158.5,298.7z M156.5,303.3c-0.4,0.2-0.7,0.4-1,0.6c-0.3,0.2-0.5,0.4-0.6,0.6c0.3,0,0.5,0.1,0.8,0.1
								c0.3,0,0.5,0.1,0.8,0.1c0-0.3,0.1-0.5,0.1-0.7c0-0.2,0.1-0.5,0.1-0.7C156.6,303.3,156.5,303.3,156.5,303.3z M162.5,307.6
								c0-0.3-0.1-0.5-0.4-0.7c-0.2-0.2-0.6-0.4-0.9-0.6c-0.4-0.2-0.8-0.3-1.3-0.4c-0.5-0.1-1-0.1-1.5-0.2c0,0.4,0,0.7,0,1
								c0,0.2,0,0.5,0,0.6c0,0.2,0,0.3,0,0.5c0,0.2,0,0.4,0,0.6c0,0.2,0,0.5,0,0.9c0,0.4,0,0.9,0,1.4c0.6-0.1,1.2-0.3,1.7-0.5
								c0.5-0.2,1-0.5,1.3-0.7c0.4-0.3,0.7-0.6,0.9-0.9c0.2-0.3,0.3-0.6,0.3-1V307.6z"/>
						</g>
					</g>
				</g>
				<g>
					<path fill="#C0802E" d="M187,298.7c-1.8-2.3-5.4-4.4-11.5-6.2c-14.8-4.3-35.8,0.9-40.6,7.9h-1l0,4.8c0,2.1,1.5,4.2,5,6.2
						c19.9,11.7,49.4,2.3,49.4-7.5l0-1.7l0-3L187,298.7z"/>
					<g>
						<path fill="#FFB02A" d="M175.5,289.4c-21-6-54.4,6.8-36.6,17.2C165.9,322.4,210.3,299.7,175.5,289.4z"/>
						<g>
							<path fill="#C0802E" d="M161.7,292c0,0.3,0.1,0.6,0.1,0.8c0,0.2,0.1,0.4,0.1,0.6c0,0.2,0.1,0.4,0.1,0.6c0,0.2,0,0.4,0,0.7
								c0.3,0,0.5-0.1,0.8-0.1c0.3,0,0.5,0,0.8,0c1,0,2,0.2,2.8,0.6v0c0.2,0.1,0.3,0.2,0.3,0.3c0,0.1-0.1,0.2-0.2,0.3
								c-0.2,0.1-0.4,0.1-0.6,0.1c-0.3,0-0.5-0.1-0.7-0.2h0c-0.5-0.2-1.1-0.3-1.7-0.3c-0.5,0-1,0.1-1.6,0.2c0,0.3,0,0.6,0,0.8
								c0,0.2,0,0.4-0.1,0.6c0,0.2,0,0.4-0.1,0.5c0,0.2-0.1,0.4-0.1,0.6c0.9,0.1,1.7,0.2,2.5,0.3c0.7,0.1,1.4,0.3,1.9,0.6
								c0.5,0.2,0.9,0.5,1.2,0.9c0.3,0.3,0.4,0.7,0.4,1.2c0,0.4-0.2,0.9-0.5,1.3c-0.3,0.4-0.7,0.8-1.3,1.1c-0.5,0.3-1.2,0.6-1.9,0.9
								c-0.7,0.3-1.6,0.5-2.4,0.6c0,0.2,0,0.4,0.1,0.5c0,0.1,0,0.3,0.1,0.5c0,0.2,0.1,0.4,0.1,0.6c0.1,0.2,0.2,0.6,0.3,1
								c0,0.1,0,0.2,0.1,0.2c0,0.1,0.1,0.2,0.1,0.2c0,0.1-0.1,0.2-0.3,0.2c-0.2,0.1-0.4,0.1-0.5,0.1c-0.2,0-0.3,0-0.5-0.1
								c-0.2-0.1-0.2-0.1-0.3-0.3c-0.1-0.4-0.2-0.8-0.3-1.1c-0.1-0.3-0.1-0.5-0.2-0.7c-0.1-0.2-0.1-0.4-0.1-0.6
								c0-0.2-0.1-0.3-0.1-0.5c-0.1,0-0.2,0-0.3,0c-0.1,0-0.3,0-0.4,0c-0.7,0-1.3-0.1-1.8-0.2c-0.5-0.1-1-0.3-1.3-0.4
								c-0.4-0.2-0.7-0.4-1-0.6c-0.3-0.2-0.6-0.4-0.8-0.6v0c-0.1-0.1-0.2-0.2-0.3-0.3c-0.1-0.1-0.2-0.2-0.3-0.2v0
								c-0.1,0-0.2-0.1-0.3-0.2c-0.1-0.1-0.1-0.1-0.1-0.2c0-0.1,0.1-0.2,0.2-0.2c0.1-0.1,0.3-0.1,0.5-0.1c0.2,0,0.3,0,0.5,0.1
								c0.1,0.1,0.3,0.1,0.4,0.2c0.1,0.1,0.2,0.2,0.3,0.2c0.1,0.1,0.2,0.2,0.3,0.2c0.3,0.2,0.6,0.4,0.8,0.5c0.3,0.2,0.6,0.3,0.9,0.4
								c0.3,0.1,0.7,0.2,1.1,0.3c0.4,0.1,0.9,0.1,1.4,0.1c0-0.2-0.1-0.4-0.1-0.7c0-0.2,0-0.6,0-1c0-0.4,0-0.9,0-1.5
								c0-0.6,0-1.4,0-2.3h0c-0.2,0-0.6,0-1-0.1c-0.4,0-0.9-0.1-1.3-0.1c-0.4-0.1-0.8-0.1-1.1-0.2c-0.3-0.1-0.5-0.2-0.5-0.3
								c0-0.2,0.1-0.5,0.3-0.7c0.2-0.2,0.5-0.5,0.8-0.7c0.3-0.2,0.7-0.4,1.1-0.6c0.4-0.2,0.8-0.4,1.2-0.6h0l0.7-0.3
								c0-0.3,0-0.6,0-0.8c0-0.2,0-0.4,0-0.7c0-0.2,0-0.4,0-0.7c0-0.2,0-0.5,0-0.9v-0.1c0-0.2,0.1-0.3,0.3-0.4
								c0.2-0.1,0.4-0.1,0.7-0.1c0.2,0,0.4,0,0.5,0.1C161.5,291.8,161.6,291.9,161.7,292z M159.7,296.6c-0.4,0.2-0.7,0.4-1,0.6
								c-0.3,0.2-0.5,0.4-0.6,0.6c0.3,0,0.5,0.1,0.8,0.1c0.3,0,0.5,0.1,0.8,0.1c0-0.3,0.1-0.5,0.1-0.7c0-0.2,0.1-0.5,0.1-0.7
								C159.8,296.5,159.7,296.6,159.7,296.6z M165.7,300.8c0-0.3-0.1-0.5-0.4-0.7c-0.2-0.2-0.6-0.4-0.9-0.6
								c-0.4-0.2-0.8-0.3-1.3-0.4c-0.5-0.1-1-0.1-1.5-0.2c0,0.4,0,0.7,0,1c0,0.2,0,0.5,0,0.6c0,0.2,0,0.3,0,0.5c0,0.2,0,0.4,0,0.6
								c0,0.2,0,0.5,0,0.9c0,0.4,0,0.9,0,1.4c0.6-0.1,1.2-0.3,1.7-0.5c0.5-0.2,1-0.5,1.3-0.7c0.4-0.3,0.7-0.6,0.9-0.9
								c0.2-0.3,0.3-0.6,0.3-1V300.8z"/>
						</g>
					</g>
				</g>
				<g>
					<path fill="#C0802E" d="M182.2,291.9c-1.8-2.3-5.4-4.4-11.5-6.2c-14.8-4.3-35.8,0.9-40.6,7.9h-1l0,4.8c0,2.1,1.5,4.2,5,6.2
						c19.9,11.7,49.4,2.3,49.4-7.5l0-1.7l0-3L182.2,291.9z"/>
					<g>
						<path fill="#FFB02A" d="M170.7,282.6c-21-6-54.4,6.8-36.6,17.2C161.1,315.7,205.5,292.9,170.7,282.6z"/>
						<g>
							<path fill="#C0802E" d="M156.9,285.3c0,0.3,0.1,0.6,0.1,0.8c0,0.2,0.1,0.4,0.1,0.6c0,0.2,0.1,0.4,0.1,0.6c0,0.2,0,0.4,0,0.7
								c0.3,0,0.5-0.1,0.8-0.1c0.3,0,0.5,0,0.8,0c1,0,2,0.2,2.8,0.6v0c0.2,0.1,0.3,0.2,0.3,0.3c0,0.1-0.1,0.2-0.2,0.3
								c-0.2,0.1-0.4,0.1-0.6,0.1c-0.3,0-0.5-0.1-0.7-0.2h0c-0.5-0.2-1.1-0.3-1.7-0.3c-0.5,0-1,0.1-1.6,0.2c0,0.3,0,0.6,0,0.8
								c0,0.2,0,0.4-0.1,0.6c0,0.2,0,0.4-0.1,0.5c0,0.2-0.1,0.4-0.1,0.6c0.9,0.1,1.7,0.2,2.5,0.3c0.7,0.1,1.4,0.3,1.9,0.6
								c0.5,0.2,0.9,0.5,1.2,0.9c0.3,0.3,0.4,0.7,0.4,1.2c0,0.4-0.2,0.9-0.5,1.3c-0.3,0.4-0.7,0.8-1.3,1.1c-0.5,0.3-1.2,0.6-1.9,0.9
								c-0.7,0.3-1.6,0.5-2.4,0.6c0,0.2,0,0.4,0.1,0.5c0,0.1,0,0.3,0.1,0.5c0,0.2,0.1,0.4,0.1,0.6c0.1,0.2,0.2,0.6,0.3,1
								c0,0.1,0,0.2,0.1,0.2c0,0.1,0.1,0.2,0.1,0.2c0,0.1-0.1,0.2-0.3,0.2c-0.2,0.1-0.4,0.1-0.5,0.1c-0.2,0-0.3,0-0.5-0.1
								c-0.2-0.1-0.2-0.1-0.3-0.3c-0.1-0.4-0.2-0.8-0.3-1.1c-0.1-0.3-0.1-0.5-0.2-0.7c-0.1-0.2-0.1-0.4-0.1-0.6
								c0-0.2-0.1-0.3-0.1-0.5c-0.1,0-0.2,0-0.3,0c-0.1,0-0.3,0-0.4,0c-0.7,0-1.3-0.1-1.8-0.2c-0.5-0.1-1-0.3-1.3-0.4
								c-0.4-0.2-0.7-0.4-1-0.6c-0.3-0.2-0.6-0.4-0.8-0.6v0c-0.1-0.1-0.2-0.2-0.3-0.3c-0.1-0.1-0.2-0.2-0.3-0.2v0
								c-0.1,0-0.2-0.1-0.3-0.2c-0.1-0.1-0.1-0.1-0.1-0.2c0-0.1,0.1-0.2,0.2-0.2c0.1-0.1,0.3-0.1,0.5-0.1c0.2,0,0.3,0,0.5,0.1
								c0.1,0.1,0.3,0.1,0.4,0.2c0.1,0.1,0.2,0.2,0.3,0.2c0.1,0.1,0.2,0.2,0.3,0.2c0.3,0.2,0.6,0.4,0.8,0.5c0.3,0.2,0.6,0.3,0.9,0.4
								c0.3,0.1,0.7,0.2,1.1,0.3c0.4,0.1,0.9,0.1,1.4,0.1c0-0.2-0.1-0.4-0.1-0.7c0-0.2,0-0.6,0-1c0-0.4,0-0.9,0-1.5
								c0-0.6,0-1.4,0-2.3h0c-0.2,0-0.6,0-1-0.1c-0.4,0-0.9-0.1-1.3-0.1c-0.4-0.1-0.8-0.1-1.1-0.2c-0.3-0.1-0.5-0.2-0.5-0.3
								c0-0.2,0.1-0.5,0.3-0.7c0.2-0.2,0.5-0.5,0.8-0.7c0.3-0.2,0.7-0.4,1.1-0.6c0.4-0.2,0.8-0.4,1.2-0.6h0l0.7-0.3
								c0-0.3,0-0.6,0-0.8c0-0.2,0-0.4,0-0.7c0-0.2,0-0.4,0-0.7c0-0.2,0-0.5,0-0.9v-0.1c0-0.2,0.1-0.3,0.3-0.4
								c0.2-0.1,0.4-0.1,0.7-0.1c0.2,0,0.4,0,0.5,0.1C156.7,285.1,156.8,285.2,156.9,285.3z M154.9,289.9c-0.4,0.2-0.7,0.4-1,0.6
								c-0.3,0.2-0.5,0.4-0.6,0.6c0.3,0,0.5,0.1,0.8,0.1c0.3,0,0.5,0.1,0.8,0.1c0-0.3,0.1-0.5,0.1-0.7c0-0.2,0.1-0.5,0.1-0.7
								C155,289.8,154.9,289.9,154.9,289.9z M160.9,294.1c0-0.3-0.1-0.5-0.4-0.7c-0.2-0.2-0.6-0.4-0.9-0.6c-0.4-0.2-0.8-0.3-1.3-0.4
								c-0.5-0.1-1-0.1-1.5-0.2c0,0.4,0,0.7,0,1c0,0.2,0,0.5,0,0.6c0,0.2,0,0.3,0,0.5c0,0.2,0,0.4,0,0.6c0,0.2,0,0.5,0,0.9
								c0,0.4,0,0.9,0,1.4c0.6-0.1,1.2-0.3,1.7-0.5c0.5-0.2,1-0.5,1.3-0.7c0.4-0.3,0.7-0.6,0.9-0.9c0.2-0.3,0.3-0.6,0.3-1V294.1z"/>
						</g>
					</g>
				</g>
				<g>
					<path fill="#C0802E" d="M180.6,285.2c-1.8-2.3-5.4-4.4-11.5-6.2c-14.8-4.3-35.8,0.9-40.6,7.9h-1l0,4.8c0,2.1,1.5,4.2,5,6.2
						c19.9,11.7,49.4,2.3,49.4-7.5l0-1.7l0-3L180.6,285.2z"/>
					<g>
						<path fill="#FFB02A" d="M169.1,275.9c-21-6-54.4,6.8-36.6,17.2C159.5,309,203.9,286.2,169.1,275.9z"/>
						<g>
							<path fill="#C0802E" d="M155.3,278.5c0,0.3,0.1,0.6,0.1,0.8c0,0.2,0.1,0.4,0.1,0.6c0,0.2,0.1,0.4,0.1,0.6c0,0.2,0,0.4,0,0.7
								c0.3,0,0.5-0.1,0.8-0.1c0.3,0,0.5,0,0.8,0c1,0,2,0.2,2.8,0.6v0c0.2,0.1,0.3,0.2,0.3,0.3c0,0.1-0.1,0.2-0.2,0.3
								c-0.2,0.1-0.4,0.1-0.6,0.1c-0.3,0-0.5-0.1-0.7-0.2h0c-0.5-0.2-1.1-0.3-1.7-0.3c-0.5,0-1,0.1-1.6,0.2c0,0.3,0,0.6,0,0.8
								c0,0.2,0,0.4-0.1,0.6c0,0.2,0,0.4-0.1,0.5c0,0.2-0.1,0.4-0.1,0.6c0.9,0.1,1.7,0.2,2.5,0.3c0.7,0.1,1.4,0.3,1.9,0.6
								c0.5,0.2,0.9,0.5,1.2,0.9c0.3,0.3,0.4,0.7,0.4,1.2c0,0.4-0.2,0.9-0.5,1.3c-0.3,0.4-0.7,0.8-1.3,1.1c-0.5,0.3-1.2,0.6-1.9,0.9
								c-0.7,0.3-1.6,0.5-2.4,0.6c0,0.2,0,0.4,0.1,0.5c0,0.1,0,0.3,0.1,0.5c0,0.2,0.1,0.4,0.1,0.6c0.1,0.2,0.2,0.6,0.3,1
								c0,0.1,0,0.2,0.1,0.2c0,0.1,0.1,0.2,0.1,0.2c0,0.1-0.1,0.2-0.3,0.2c-0.2,0-0.4,0.1-0.5,0.1c-0.2,0-0.3,0-0.5-0.1
								c-0.2-0.1-0.2-0.1-0.3-0.3c-0.1-0.4-0.2-0.8-0.3-1.1c-0.1-0.3-0.1-0.5-0.2-0.7c-0.1-0.2-0.1-0.4-0.1-0.6
								c0-0.2-0.1-0.3-0.1-0.5c-0.1,0-0.2,0-0.3,0c-0.1,0-0.3,0-0.4,0c-0.7,0-1.3-0.1-1.8-0.2c-0.5-0.1-1-0.3-1.3-0.4
								c-0.4-0.2-0.7-0.4-1-0.6c-0.3-0.2-0.6-0.4-0.8-0.6v0c-0.1-0.1-0.2-0.2-0.3-0.3c-0.1-0.1-0.2-0.2-0.3-0.2v0
								c-0.1,0-0.2-0.1-0.3-0.2c-0.1-0.1-0.1-0.1-0.1-0.2c0-0.1,0.1-0.2,0.2-0.2c0.1-0.1,0.3-0.1,0.5-0.1c0.2,0,0.3,0,0.5,0.1
								c0.1,0.1,0.3,0.1,0.4,0.2c0.1,0.1,0.2,0.2,0.3,0.2c0.1,0.1,0.2,0.2,0.3,0.2c0.3,0.2,0.6,0.4,0.8,0.5c0.3,0.2,0.6,0.3,0.9,0.4
								c0.3,0.1,0.7,0.2,1.1,0.3c0.4,0.1,0.9,0.1,1.4,0.1c0-0.2-0.1-0.4-0.1-0.7c0-0.2,0-0.6,0-1c0-0.4,0-0.9,0-1.5
								c0-0.6,0-1.4,0-2.3h0c-0.2,0-0.6,0-1-0.1c-0.4,0-0.9-0.1-1.3-0.1c-0.4-0.1-0.8-0.1-1.1-0.2c-0.3-0.1-0.5-0.2-0.5-0.3
								c0-0.2,0.1-0.5,0.3-0.7c0.2-0.2,0.5-0.5,0.8-0.7c0.3-0.2,0.7-0.4,1.1-0.6c0.4-0.2,0.8-0.4,1.2-0.6h0l0.7-0.3
								c0-0.3,0-0.6,0-0.8c0-0.2,0-0.4,0-0.7c0-0.2,0-0.4,0-0.7c0-0.2,0-0.5,0-0.9v-0.1c0-0.2,0.1-0.3,0.3-0.4
								c0.2-0.1,0.4-0.1,0.7-0.1c0.2,0,0.4,0,0.5,0.1C155.1,278.3,155.2,278.4,155.3,278.5z M153.3,283.2c-0.4,0.2-0.7,0.4-1,0.6
								c-0.3,0.2-0.5,0.4-0.6,0.6c0.3,0,0.5,0.1,0.8,0.1c0.3,0,0.5,0.1,0.8,0.1c0-0.3,0.1-0.5,0.1-0.7c0-0.2,0.1-0.5,0.1-0.7
								C153.4,283.1,153.3,283.1,153.3,283.2z M159.3,287.4c0-0.3-0.1-0.5-0.4-0.7c-0.2-0.2-0.6-0.4-0.9-0.6
								c-0.4-0.2-0.8-0.3-1.3-0.4c-0.5-0.1-1-0.1-1.5-0.2c0,0.4,0,0.7,0,1c0,0.2,0,0.5,0,0.6c0,0.2,0,0.3,0,0.5c0,0.2,0,0.4,0,0.6
								c0,0.2,0,0.5,0,0.9c0,0.4,0,0.9,0,1.4c0.6-0.1,1.2-0.3,1.7-0.5c0.5-0.2,1-0.5,1.3-0.7c0.4-0.3,0.7-0.6,0.9-0.9
								c0.2-0.3,0.3-0.6,0.3-1V287.4z"/>
						</g>
					</g>
				</g>
				<g>
					<path fill="#C0802E" d="M183.8,278.5c-1.8-2.3-5.4-4.4-11.5-6.2c-14.8-4.3-35.8,0.9-40.6,7.9h-1l0,4.8c0,2.1,1.5,4.2,5,6.2
						c19.9,11.7,49.4,2.3,49.4-7.5l0-1.7l0-3L183.8,278.5z"/>
					<g>
						<path fill="#FFB02A" d="M172.3,269.2c-21-6-54.4,6.8-36.6,17.2C162.7,302.3,207.1,279.5,172.3,269.2z"/>
						<g>
							<path fill="#C0802E" d="M158.5,271.8c0,0.3,0.1,0.6,0.1,0.8c0,0.2,0.1,0.4,0.1,0.6c0,0.2,0.1,0.4,0.1,0.6c0,0.2,0,0.4,0,0.7
								c0.3,0,0.5-0.1,0.8-0.1c0.3,0,0.5,0,0.8,0c1,0,2,0.2,2.8,0.6v0c0.2,0.1,0.3,0.2,0.3,0.3c0,0.1-0.1,0.2-0.2,0.3
								c-0.2,0.1-0.4,0.1-0.6,0.1c-0.3,0-0.5,0-0.7-0.1h0c-0.5-0.2-1.1-0.3-1.7-0.3c-0.5,0-1,0.1-1.6,0.2c0,0.3,0,0.6,0,0.8
								c0,0.2,0,0.4-0.1,0.6c0,0.2,0,0.4-0.1,0.5c0,0.2-0.1,0.4-0.1,0.6c0.9,0.1,1.7,0.2,2.5,0.3c0.7,0.1,1.4,0.3,1.9,0.6
								c0.5,0.2,0.9,0.5,1.2,0.9c0.3,0.3,0.4,0.7,0.4,1.2c0,0.4-0.2,0.9-0.5,1.3c-0.3,0.4-0.7,0.8-1.3,1.1c-0.5,0.3-1.2,0.6-1.9,0.9
								c-0.7,0.3-1.6,0.5-2.4,0.6c0,0.2,0,0.4,0.1,0.5c0,0.1,0,0.3,0.1,0.5c0,0.2,0.1,0.4,0.1,0.6c0.1,0.2,0.2,0.6,0.3,1
								c0,0.1,0,0.2,0.1,0.2c0,0.1,0.1,0.2,0.1,0.2c0,0.1-0.1,0.2-0.3,0.2c-0.2,0-0.4,0.1-0.5,0.1c-0.2,0-0.3,0-0.5-0.1
								c-0.2-0.1-0.2-0.1-0.3-0.3c-0.1-0.4-0.2-0.8-0.3-1.1c-0.1-0.3-0.1-0.5-0.2-0.7c0-0.2-0.1-0.4-0.1-0.6c0-0.2-0.1-0.3-0.1-0.5
								c-0.1,0-0.2,0-0.3,0c-0.1,0-0.3,0-0.4,0c-0.7,0-1.3-0.1-1.8-0.2c-0.5-0.1-1-0.3-1.3-0.4c-0.4-0.2-0.7-0.4-1-0.6
								c-0.3-0.2-0.6-0.4-0.8-0.6v0c-0.1-0.1-0.2-0.2-0.3-0.3c-0.1-0.1-0.2-0.2-0.3-0.2v0c-0.1,0-0.2-0.1-0.3-0.2
								c-0.1-0.1-0.1-0.1-0.1-0.2c0-0.1,0.1-0.2,0.2-0.2c0.1-0.1,0.3-0.1,0.5-0.1c0.2,0,0.3,0,0.5,0.1c0.1,0.1,0.3,0.1,0.4,0.2
								c0.1,0.1,0.2,0.2,0.3,0.2c0.1,0.1,0.2,0.2,0.3,0.2c0.3,0.2,0.6,0.4,0.8,0.5c0.3,0.2,0.6,0.3,0.9,0.4c0.3,0.1,0.7,0.2,1.1,0.3
								c0.4,0.1,0.9,0.1,1.4,0.1c0-0.2-0.1-0.4-0.1-0.7c0-0.2,0-0.6,0-1c0-0.4,0-0.9,0-1.5c0-0.6,0-1.4,0-2.3h0c-0.2,0-0.6,0-1-0.1
								c-0.4,0-0.9-0.1-1.3-0.1c-0.4-0.1-0.8-0.1-1.1-0.2c-0.3-0.1-0.5-0.2-0.5-0.3c0-0.2,0.1-0.5,0.3-0.7c0.2-0.2,0.5-0.5,0.8-0.7
								c0.3-0.2,0.7-0.4,1.1-0.6c0.4-0.2,0.8-0.4,1.2-0.6h0l0.7-0.3c0-0.3,0-0.6,0-0.8c0-0.2,0-0.4,0-0.7c0-0.2,0-0.4,0-0.7
								c0-0.2,0-0.5,0-0.9V272c0-0.2,0.1-0.3,0.3-0.4c0.2-0.1,0.4-0.1,0.7-0.1c0.2,0,0.4,0,0.5,0.1
								C158.3,271.6,158.4,271.7,158.5,271.8z M156.5,276.4c-0.4,0.2-0.7,0.4-1,0.6c-0.3,0.2-0.5,0.4-0.6,0.6c0.3,0,0.5,0.1,0.8,0.1
								c0.3,0,0.5,0.1,0.8,0.1c0-0.3,0.1-0.5,0.1-0.7c0-0.2,0.1-0.5,0.1-0.7C156.6,276.4,156.5,276.4,156.5,276.4z M162.5,280.7
								c0-0.3-0.1-0.5-0.4-0.7c-0.2-0.2-0.6-0.4-0.9-0.6c-0.4-0.2-0.8-0.3-1.3-0.4c-0.5-0.1-1-0.1-1.5-0.2c0,0.4,0,0.7,0,1
								c0,0.2,0,0.5,0,0.6c0,0.2,0,0.3,0,0.5c0,0.2,0,0.4,0,0.6c0,0.2,0,0.5,0,0.9c0,0.4,0,0.9,0,1.4c0.6-0.1,1.2-0.3,1.7-0.5
								c0.5-0.2,1-0.5,1.3-0.7c0.4-0.3,0.7-0.6,0.9-0.9c0.2-0.3,0.3-0.6,0.3-1V280.7z"/>
						</g>
						<g>
							<path fill="#C0802E" d="M171.2,269.9c-16.1-4.5-42.4,2.7-38.2,12.1c2,4.4,11.5,8.1,20.5,8.8c8,0.7,16-0.9,21.7-3.5
								c4.9-2.2,8-5.4,7.9-8.7C182.9,274.9,177.6,271.9,171.2,269.9c-0.7-0.2-1.3,0.3-0.6,0.5c8.4,2.5,13.3,6.7,10.3,11.5
								c-2.5,4-9.9,7.1-18.2,8.2c-10.4,1.3-20.9-1.6-26.3-5.8c-6.2-4.9,0.3-10.3,9.3-13.1c7.4-2.3,17.1-2.9,24.9-0.7
								C171.3,270.7,171.9,270.1,171.2,269.9L171.2,269.9z"/>
						</g>
					</g>
				</g>
			</g>
		</g>
	</g>
</g>
<g id="Capa_3">
	<g>
		<rect x="65.2" y="162.3" fill="#8D6E63" width="178.5" height="104.2"/>
		<polygon fill="#6D4C41" points="243,165 65.8,165 56,150.9 252.8,150.9 		"/>
		<rect x="48.5" y="125.9" fill="#8D6E63" width="211.8" height="27.7"/>
		<rect x="131" y="225.7" fill="#FFA726" width="46.9" height="37.2"/>
		<text transform="matrix(1 0 0 1 95.6812 146.9746)" fill="#6D4C41" font-family="'OpenSans-Bold'" font-size="18.293">COMPAA S.A</text>
		<g>
			<rect x="76.9" y="173.1" fill="#FFFFFF" width="69.9" height="7"/>
			<rect x="76.9" y="186.3" fill="#FFFFFF" width="69.9" height="7"/>
			<rect x="76.9" y="199.5" fill="#FFFFFF" width="69.9" height="7"/>
			<rect x="162" y="173.1" fill="#FFFFFF" width="69.9" height="7"/>
			<rect x="162" y="186.3" fill="#FFFFFF" width="69.9" height="7"/>
			<rect x="162" y="199.5" fill="#FFFFFF" width="69.9" height="7"/>
		</g>
		<g>
			<rect x="76.9" y="212.3" fill="#FFFFFF" width="10.9" height="32"/>
			<rect x="94.2" y="212.3" fill="#FFFFFF" width="10.9" height="32"/>
		</g>
		<g>
			<rect x="203.7" y="212.3" fill="#FFFFFF" width="10.9" height="32"/>
			<rect x="221" y="212.3" fill="#FFFFFF" width="10.9" height="32"/>
		</g>
		<g>
			<g>
				<rect x="300.4" y="195.9" fill="#8D6E63" width="7" height="55.5"/>
				<rect x="300.4" y="195.9" opacity="0.39" fill="#FFFFFF" width="3.5" height="55.5"/>
			</g>
			<path fill="#91B426" d="M330.2,151.8c0.2-1.4,0.4-2.9,0.4-4.4c0-14.4-11.7-26.1-26.1-26.1c-14.4,0-26.1,11.7-26.1,26.1
				c0,1.5,0.1,3,0.4,4.4c-12,1.8-21.2,12.1-21.2,24.5c0,13.7,11.1,24.8,24.8,24.8c2.9,0,5.6-0.5,8.1-1.4c2.6,5,7.9,8.5,14,8.5
				c6.1,0,11.4-3.5,14-8.5c2.6,0.9,5.4,1.4,8.3,1.4c13.7,0,24.8-11.1,24.8-24.8C351.5,163.8,342.2,153.4,330.2,151.8z"/>
			<path opacity="0.19" fill="#FFFFFF" d="M304.5,121.2C304.5,121.2,304.5,121.2,304.5,121.2c-14.5,0-26.2,11.7-26.2,26.1
				c0,1.5,0.1,3,0.4,4.4c-12,1.8-21.2,12.1-21.2,24.5c0,13.7,11.1,24.8,24.8,24.8c2.9,0,5.6-0.5,8.1-1.4c2.6,5,7.9,8.5,14,8.5
				c0,0,0.1,0,0.1,0V121.2z"/>
		</g>
		<line fill="none" stroke="#546E7A" stroke-width="33" stroke-miterlimit="10" x1="-1.7" y1="278.8" x2="403" y2="278.8"/>
		
			<line fill="none" stroke="#FFFFFF" stroke-width="5" stroke-linecap="round" stroke-linejoin="round" stroke-miterlimit="10" stroke-dasharray="16,22" x1="-57" y1="278.8" x2="394.5" y2="278.8"/>
		<g>
			<path fill="#00897B" d="M363.6,240c0,8.9-6.6,16.2-30.2,16.2c-23.5,0-42.6-16.2-42.6-16.2s19.1-16.2,42.6-16.2
				C357,223.8,363.6,231,363.6,240z"/>
			<path fill="#26A69A" d="M369.6,260.4h-99.7c-3.2,0-5.8-2.6-5.8-5.8l0,0c0-8.1,6.6-14.8,14.8-14.8h90.8c3.2,0,5.8,2.6,5.8,5.8v8.9
				C375.4,257.8,372.8,260.4,369.6,260.4z"/>
			<circle fill="#FFFFFF" cx="290.2" cy="258.6" r="11.7"/>
			<circle fill="#546E7A" cx="290.2" cy="258.6" r="6.1"/>
			<circle fill="#FFFFFF" cx="357.5" cy="258.6" r="11.7"/>
			<circle fill="#546E7A" cx="357.5" cy="258.6" r="6.1"/>
			<path fill="#FFFFFF" d="M304.5,239c0,4,11.6,2.7,26,2.7c14.3,0,26,1.3,26-2.7c0-4-6.7-11.9-21.1-11.9
				C321,227,304.5,234.9,304.5,239z"/>
		</g>
	</g>
</g>
</svg>
