<?xml version="1.0" encoding="utf-8"?>
<!-- Generator: Adobe Illustrator 16.0.0, SVG Export Plug-In . SVG Version: 6.00 Build 0)  -->
<!DOCTYPE svg PUBLIC "-//W3C//DTD SVG 1.1//EN" "http://www.w3.org/Graphics/SVG/1.1/DTD/svg11.dtd">
<svg version="1.1" id="Layer_1" xmlns="http://www.w3.org/2000/svg" xmlns:xlink="http://www.w3.org/1999/xlink" x="0px" y="0px"
	 width="863px" height="408px" viewBox="-122.5 260.5 863 408" enable-background="new -122.5 260.5 863 408" xml:space="preserve">
<g display="none">
	<g display="inline">
		<path fill="#949494" d="M250.315,640.675v-0.126c-0.188,0.251-0.376,0.377-0.564,0.564c-0.188,0.125-0.376,0.251-0.626,0.313
			c-0.251,0.063-0.439,0.125-0.752,0.125c-0.376,0-0.689-0.063-0.94-0.25c-0.313-0.126-0.564-0.376-0.752-0.627
			s-0.376-0.627-0.501-0.94c-0.125-0.376-0.188-0.752-0.188-1.19c0-0.878,0.251-1.63,0.689-2.131
			c0.439-0.502,1.003-0.752,1.755-0.752c0.438,0,0.752,0.063,1.065,0.188c0.313,0.126,0.564,0.376,0.815,0.689v-2.131
			c0-0.313,0.063-0.501,0.188-0.689c0.125-0.125,0.313-0.251,0.501-0.251c0.251,0,0.376,0.063,0.501,0.188
			c0.125,0.125,0.188,0.376,0.188,0.627v6.393c0,0.25-0.063,0.501-0.188,0.627c-0.125,0.125-0.313,0.188-0.501,0.188
			s-0.376-0.063-0.501-0.188C250.378,641.176,250.315,640.988,250.315,640.675z M247.495,638.544c0,0.376,0.063,0.752,0.188,1.003
			c0.125,0.25,0.313,0.501,0.501,0.626c0.188,0.126,0.439,0.188,0.689,0.188c0.251,0,0.501-0.063,0.689-0.188
			c0.188-0.125,0.376-0.313,0.501-0.626c0.125-0.251,0.188-0.627,0.188-1.003s-0.063-0.689-0.188-1.003
			c-0.125-0.251-0.313-0.501-0.501-0.627c-0.188-0.125-0.438-0.25-0.689-0.25c-0.25,0-0.501,0.063-0.689,0.25
			c-0.188,0.126-0.376,0.376-0.501,0.627C247.495,637.854,247.495,638.168,247.495,638.544z"/>
		<path fill="#949494" d="M257.209,638.92h-2.82c0,0.313,0.063,0.627,0.188,0.877c0.125,0.251,0.313,0.439,0.501,0.564
			s0.439,0.188,0.689,0.188c0.188,0,0.313,0,0.501-0.063c0.125-0.063,0.313-0.125,0.439-0.188c0.125-0.063,0.25-0.188,0.376-0.251
			c0.125-0.125,0.25-0.251,0.438-0.376c0.063-0.063,0.188-0.125,0.313-0.125s0.25,0.063,0.376,0.125
			c0.063,0.063,0.125,0.188,0.125,0.376c0,0.125-0.063,0.313-0.125,0.438c-0.125,0.188-0.25,0.313-0.438,0.502
			c-0.188,0.188-0.439,0.313-0.815,0.376c-0.313,0.125-0.689,0.188-1.065,0.188c-0.94,0-1.692-0.25-2.193-0.814
			c-0.501-0.564-0.752-1.254-0.752-2.193c0-0.438,0.063-0.815,0.188-1.191c0.125-0.376,0.313-0.688,0.564-0.939
			c0.25-0.251,0.564-0.438,0.877-0.627c0.376-0.125,0.752-0.188,1.19-0.188c0.564,0,1.065,0.126,1.441,0.377
			c0.439,0.25,0.689,0.563,0.94,0.939c0.188,0.376,0.313,0.752,0.313,1.191c0,0.376-0.125,0.626-0.313,0.689
			C257.898,638.857,257.585,638.92,257.209,638.92z M254.389,638.105h2.632c-0.063-0.502-0.188-0.878-0.376-1.129
			c-0.25-0.25-0.564-0.376-0.94-0.376s-0.689,0.126-0.877,0.376C254.577,637.228,254.452,637.604,254.389,638.105z"/>
		<path fill="#949494" d="M264.354,639.609c0,0.376-0.125,0.752-0.313,1.003c-0.188,0.313-0.501,0.501-0.877,0.626
			c-0.376,0.126-0.877,0.251-1.379,0.251c-0.501,0-1.002-0.063-1.316-0.251c-0.376-0.188-0.627-0.376-0.815-0.626
			c-0.188-0.251-0.25-0.502-0.25-0.753c0-0.188,0.063-0.313,0.188-0.438c0.125-0.125,0.25-0.188,0.438-0.188
			c0.125,0,0.251,0.063,0.376,0.125c0.063,0.063,0.188,0.188,0.251,0.313c0.125,0.251,0.313,0.438,0.564,0.564
			c0.188,0.125,0.501,0.188,0.877,0.188c0.313,0,0.501-0.063,0.689-0.188c0.188-0.126,0.25-0.251,0.25-0.439
			c0-0.25-0.125-0.438-0.313-0.563c-0.188-0.126-0.501-0.251-0.94-0.313c-0.501-0.125-0.94-0.251-1.253-0.376
			c-0.313-0.126-0.564-0.313-0.752-0.564s-0.25-0.501-0.25-0.814s0.063-0.564,0.25-0.814c0.188-0.251,0.438-0.439,0.752-0.627
			c0.313-0.188,0.752-0.251,1.253-0.251c0.376,0,0.689,0.063,1.003,0.125c0.313,0.063,0.564,0.188,0.752,0.313
			c0.188,0.126,0.376,0.251,0.439,0.439c0.125,0.188,0.188,0.313,0.188,0.438c0,0.188-0.063,0.313-0.188,0.438
			c-0.125,0.125-0.251,0.188-0.501,0.188c-0.125,0-0.251-0.063-0.376-0.126c-0.125-0.063-0.251-0.188-0.376-0.376
			c-0.125-0.125-0.251-0.25-0.376-0.313c-0.125-0.063-0.376-0.125-0.627-0.125s-0.501,0.063-0.627,0.188
			c-0.188,0.125-0.25,0.25-0.25,0.438c0,0.125,0.063,0.25,0.188,0.376c0.125,0.125,0.313,0.188,0.501,0.25
			c0.188,0.063,0.501,0.126,0.877,0.251c0.438,0.126,0.814,0.251,1.128,0.376c0.313,0.126,0.501,0.313,0.627,0.564
			C264.291,639.107,264.354,639.358,264.354,639.609z"/>
		<path fill="#949494" d="M266.297,634.909c-0.188,0-0.376-0.063-0.501-0.188s-0.188-0.313-0.188-0.501
			c0-0.188,0.063-0.376,0.25-0.502c0.125-0.125,0.313-0.188,0.501-0.188s0.376,0.063,0.501,0.188
			c0.125,0.126,0.188,0.313,0.188,0.502c0,0.25-0.063,0.376-0.188,0.501C266.673,634.846,266.485,634.909,266.297,634.909z
			 M267.049,636.413v4.199c0,0.313-0.063,0.501-0.188,0.689c-0.125,0.125-0.313,0.25-0.501,0.25s-0.376-0.063-0.501-0.25
			c-0.125-0.126-0.188-0.376-0.188-0.627v-4.137c0-0.313,0.063-0.501,0.188-0.627c0.125-0.125,0.313-0.188,0.501-0.188
			s0.376,0.063,0.501,0.188C266.986,635.975,267.049,636.162,267.049,636.413z"/>
		<path fill="#949494" d="M273.88,636.664v4.198c0,0.502-0.063,0.878-0.125,1.254c-0.125,0.376-0.251,0.627-0.501,0.877
			c-0.25,0.251-0.501,0.376-0.877,0.502c-0.376,0.125-0.814,0.188-1.379,0.188c-0.501,0-0.94-0.063-1.316-0.188
			c-0.376-0.126-0.689-0.313-0.94-0.564c-0.188-0.251-0.313-0.438-0.313-0.689c0-0.188,0.063-0.313,0.188-0.438
			s0.25-0.188,0.438-0.188s0.376,0.063,0.564,0.313c0.063,0.126,0.188,0.188,0.25,0.313c0.063,0.126,0.188,0.188,0.25,0.251
			c0.125,0.063,0.251,0.125,0.376,0.125c0.125,0.063,0.313,0.063,0.501,0.063c0.376,0,0.689-0.063,0.877-0.188
			s0.376-0.251,0.439-0.438c0.063-0.188,0.125-0.376,0.125-0.627c0-0.188,0-0.564,0.063-1.065c-0.251,0.313-0.501,0.564-0.752,0.689
			c-0.313,0.188-0.627,0.251-1.066,0.251c-0.501,0-0.94-0.126-1.253-0.376c-0.376-0.251-0.626-0.627-0.814-1.065
			c-0.188-0.439-0.313-0.94-0.313-1.567c0-0.438,0.063-0.814,0.188-1.19s0.313-0.627,0.501-0.878c0.25-0.25,0.501-0.438,0.752-0.563
			c0.313-0.126,0.627-0.188,0.94-0.188c0.439,0,0.752,0.063,1.066,0.251c0.313,0.188,0.564,0.376,0.814,0.752v-0.188
			c0-0.25,0.063-0.438,0.188-0.563c0.125-0.126,0.313-0.188,0.501-0.188c0.25,0,0.439,0.063,0.564,0.251
			C273.817,636.037,273.88,636.351,273.88,636.664z M269.681,638.544c0,0.563,0.125,1.065,0.376,1.315
			c0.25,0.313,0.564,0.439,1.003,0.439c0.25,0,0.501-0.063,0.689-0.188c0.188-0.125,0.376-0.313,0.501-0.563
			c0.125-0.251,0.188-0.564,0.188-0.94c0-0.564-0.125-1.065-0.376-1.379c-0.25-0.313-0.626-0.501-1.002-0.501
			c-0.439,0-0.752,0.188-1.003,0.501C269.807,637.479,269.681,637.917,269.681,638.544z"/>
		<path fill="#949494" d="M276.701,636.413v0.188c0.25-0.313,0.564-0.563,0.814-0.752c0.313-0.188,0.627-0.251,1.065-0.251
			c0.376,0,0.752,0.063,1.003,0.251c0.313,0.188,0.501,0.376,0.689,0.689c0.125,0.188,0.188,0.376,0.188,0.564
			c0,0.188,0.063,0.438,0.063,0.814v2.695c0,0.313-0.063,0.501-0.188,0.689c-0.125,0.125-0.313,0.25-0.501,0.25
			s-0.376-0.063-0.501-0.25c-0.125-0.126-0.188-0.377-0.188-0.627v-2.444c0-0.502-0.063-0.878-0.188-1.128
			c-0.125-0.251-0.376-0.376-0.814-0.376c-0.251,0-0.501,0.063-0.689,0.25c-0.188,0.126-0.376,0.376-0.439,0.627
			c-0.063,0.188-0.125,0.627-0.125,1.191v1.817c0,0.313-0.063,0.501-0.188,0.689c-0.125,0.125-0.313,0.25-0.501,0.25
			s-0.376-0.063-0.501-0.25c-0.125-0.126-0.188-0.376-0.188-0.627v-4.199c0-0.251,0.063-0.501,0.188-0.627
			c0.125-0.125,0.313-0.188,0.501-0.188c0.125,0,0.25,0,0.376,0.063s0.188,0.125,0.25,0.251
			C276.638,636.1,276.701,636.225,276.701,636.413z"/>
		<path fill="#949494" d="M286.039,638.92h-2.82c0,0.313,0.063,0.627,0.188,0.877c0.125,0.251,0.313,0.439,0.501,0.564
			s0.439,0.188,0.689,0.188c0.188,0,0.313,0,0.501-0.063c0.125-0.063,0.313-0.125,0.438-0.188c0.125-0.063,0.251-0.188,0.376-0.251
			c0.125-0.125,0.25-0.251,0.438-0.376c0.063-0.063,0.188-0.125,0.313-0.125s0.25,0.063,0.376,0.125
			c0.063,0.063,0.125,0.188,0.125,0.376c0,0.125-0.063,0.313-0.125,0.438c-0.125,0.188-0.25,0.313-0.439,0.502
			c-0.188,0.188-0.438,0.313-0.752,0.376c-0.313,0.125-0.689,0.188-1.065,0.188c-0.94,0-1.692-0.25-2.193-0.814
			s-0.752-1.254-0.752-2.193c0-0.438,0.063-0.815,0.188-1.191c0.125-0.376,0.313-0.688,0.564-0.939
			c0.25-0.251,0.564-0.438,0.877-0.627c0.376-0.125,0.752-0.188,1.19-0.188c0.564,0,1.065,0.126,1.442,0.377
			c0.438,0.25,0.689,0.563,0.94,0.939c0.188,0.376,0.313,0.752,0.313,1.191c0,0.376-0.125,0.626-0.313,0.689
			C286.728,638.857,286.415,638.92,286.039,638.92z M283.156,638.105h2.632c-0.063-0.502-0.188-0.878-0.376-1.129
			c-0.251-0.25-0.564-0.376-0.94-0.376c-0.376,0-0.689,0.126-0.877,0.376C283.344,637.228,283.218,637.604,283.156,638.105z"/>
		<path fill="#949494" d="M292.431,640.675v-0.126c-0.188,0.251-0.376,0.377-0.564,0.564c-0.188,0.125-0.376,0.251-0.626,0.313
			c-0.251,0.063-0.439,0.125-0.752,0.125c-0.376,0-0.689-0.063-0.94-0.25c-0.313-0.126-0.564-0.376-0.752-0.627
			s-0.376-0.627-0.501-0.94c-0.125-0.376-0.188-0.752-0.188-1.19c0-0.878,0.25-1.63,0.689-2.131
			c0.438-0.502,1.003-0.752,1.755-0.752c0.438,0,0.752,0.063,1.065,0.188c0.313,0.126,0.564,0.376,0.814,0.689v-2.131
			c0-0.313,0.063-0.501,0.188-0.689c0.125-0.125,0.313-0.251,0.501-0.251c0.251,0,0.376,0.063,0.501,0.188s0.188,0.376,0.188,0.627
			v6.393c0,0.25-0.063,0.501-0.188,0.627c-0.125,0.125-0.313,0.188-0.501,0.188s-0.376-0.063-0.501-0.188
			C292.494,641.176,292.431,640.988,292.431,640.675z M289.548,638.544c0,0.376,0.063,0.752,0.188,1.003
			c0.125,0.25,0.313,0.501,0.501,0.626c0.188,0.126,0.438,0.188,0.689,0.188c0.25,0,0.501-0.063,0.689-0.188
			c0.188-0.125,0.376-0.313,0.501-0.626c0.125-0.251,0.188-0.627,0.188-1.003s-0.063-0.689-0.188-1.003
			c-0.125-0.251-0.313-0.501-0.501-0.627c-0.188-0.125-0.439-0.25-0.689-0.25c-0.251,0-0.501,0.063-0.689,0.25
			c-0.188,0.126-0.376,0.376-0.501,0.627C289.611,637.854,289.548,638.168,289.548,638.544z"/>
		<path fill="#949494" d="M299.325,634.282v2.193c0.251-0.313,0.564-0.501,0.815-0.627c0.313-0.125,0.626-0.251,1.065-0.251
			c0.501,0,0.877,0.126,1.253,0.377c0.376,0.25,0.627,0.563,0.877,1.002c0.188,0.439,0.313,0.94,0.313,1.567
			c0,0.438-0.063,0.877-0.188,1.19c-0.125,0.376-0.251,0.689-0.501,0.94c-0.188,0.251-0.501,0.501-0.752,0.627
			c-0.313,0.125-0.627,0.25-1.003,0.25c-0.25,0-0.439,0-0.627-0.063s-0.376-0.125-0.501-0.188c-0.125-0.063-0.251-0.188-0.376-0.251
			c-0.125-0.063-0.25-0.251-0.376-0.438v0.125c0,0.251-0.063,0.501-0.188,0.627c-0.125,0.125-0.313,0.188-0.501,0.188
			c-0.188,0-0.376-0.063-0.501-0.188c-0.125-0.126-0.188-0.376-0.188-0.627v-6.33c0-0.313,0.063-0.501,0.188-0.689
			c0.125-0.125,0.313-0.251,0.501-0.251c0.251,0,0.376,0.063,0.501,0.188C299.263,633.78,299.325,634.031,299.325,634.282z
			 M299.388,638.606c0,0.564,0.125,1.003,0.376,1.316c0.25,0.313,0.626,0.438,1.065,0.438c0.376,0,0.689-0.188,0.94-0.502
			c0.251-0.313,0.376-0.752,0.376-1.378c0-0.376-0.063-0.689-0.188-1.003c-0.125-0.251-0.25-0.502-0.501-0.627
			c-0.188-0.125-0.438-0.251-0.689-0.251c-0.25,0-0.501,0.063-0.752,0.251c-0.188,0.125-0.376,0.376-0.501,0.627
			C299.451,637.854,299.388,638.23,299.388,638.606z"/>
		<path fill="#949494" d="M306.031,641.74l0.125-0.313l-1.817-4.513c-0.125-0.251-0.188-0.438-0.188-0.563
			c0-0.126,0.063-0.251,0.125-0.376c0.063-0.126,0.125-0.188,0.251-0.251c0.125-0.063,0.25-0.126,0.376-0.126
			c0.188,0,0.376,0.063,0.501,0.188c0.125,0.125,0.188,0.313,0.313,0.564l1.254,3.572l1.19-3.322
			c0.063-0.25,0.188-0.501,0.251-0.626c0.063-0.126,0.125-0.251,0.251-0.313c0.063-0.063,0.188-0.063,0.376-0.063
			c0.125,0,0.188,0,0.313,0.063c0.126,0.063,0.188,0.125,0.251,0.25c0.063,0.126,0.063,0.188,0.063,0.313
			c0,0.063-0.063,0.188-0.063,0.313c-0.063,0.126-0.063,0.251-0.125,0.376l-1.881,4.951c-0.188,0.438-0.313,0.752-0.501,1.003
			c-0.125,0.251-0.376,0.438-0.627,0.564c-0.25,0.125-0.626,0.188-1.065,0.188c-0.439,0-0.752-0.063-0.94-0.125
			s-0.313-0.251-0.313-0.502c0-0.188,0.063-0.313,0.125-0.376c0.125-0.063,0.251-0.125,0.439-0.125c0.063,0,0.125,0,0.25,0.063
			c0.063,0,0.188,0.063,0.251,0.063c0.188,0,0.313,0,0.376-0.063c0.125-0.063,0.188-0.125,0.25-0.251
			C305.843,642.116,305.906,641.928,306.031,641.74z"/>
	</g>
	<g display="inline">
		<path fill="#949494" d="M332.98,635.724h0.376v-0.438c0-0.439,0.063-0.815,0.188-1.065c0.125-0.251,0.313-0.439,0.563-0.564
			c0.251-0.125,0.627-0.188,1.129-0.188c0.877,0,1.253,0.188,1.253,0.627c0,0.126-0.063,0.251-0.125,0.376
			c-0.063,0.126-0.188,0.126-0.313,0.126c-0.063,0-0.126,0-0.313-0.063c-0.125,0-0.251,0-0.376,0c-0.251,0-0.438,0.063-0.501,0.251
			c-0.063,0.126-0.126,0.376-0.126,0.689v0.376h0.376c0.564,0,0.814,0.188,0.814,0.502c0,0.25-0.063,0.376-0.25,0.438
			c-0.126,0.063-0.376,0.125-0.627,0.125h-0.376v3.886c0,0.313-0.063,0.502-0.188,0.689c-0.125,0.125-0.313,0.251-0.501,0.251
			s-0.376-0.063-0.501-0.251c-0.126-0.125-0.188-0.376-0.188-0.689v-3.886h-0.376c-0.188,0-0.376-0.063-0.501-0.125
			c-0.126-0.126-0.188-0.251-0.188-0.376C332.229,635.911,332.479,635.724,332.98,635.724z"/>
		<path fill="#949494" d="M338.183,639.421v1.191c0,0.313-0.063,0.501-0.188,0.689c-0.125,0.125-0.313,0.25-0.501,0.25
			c-0.188,0-0.376-0.063-0.501-0.25c-0.126-0.126-0.188-0.376-0.188-0.689v-4.074c0-0.627,0.251-1.003,0.689-1.003
			c0.251,0,0.438,0.063,0.501,0.251c0.126,0.125,0.188,0.376,0.188,0.689c0.188-0.313,0.376-0.501,0.563-0.689
			c0.188-0.125,0.439-0.251,0.753-0.251c0.313,0,0.626,0.063,0.877,0.251c0.313,0.125,0.438,0.376,0.438,0.627
			c0,0.188-0.063,0.313-0.188,0.438c-0.126,0.125-0.251,0.188-0.376,0.188c-0.063,0-0.188-0.063-0.376-0.126
			c-0.188-0.063-0.376-0.125-0.564-0.125c-0.188,0-0.376,0.063-0.501,0.188c-0.126,0.126-0.251,0.251-0.313,0.502
			s-0.126,0.501-0.126,0.814C338.183,638.606,338.183,638.982,338.183,639.421z"/>
		<path fill="#949494" d="M345.327,638.92h-2.82c0,0.313,0.063,0.627,0.188,0.877c0.125,0.251,0.313,0.439,0.501,0.564
			s0.438,0.188,0.689,0.188c0.188,0,0.313,0,0.501-0.063c0.126-0.063,0.251-0.125,0.439-0.188c0.125-0.063,0.25-0.188,0.376-0.251
			c0.125-0.125,0.25-0.251,0.438-0.376c0.063-0.063,0.188-0.125,0.313-0.125c0.125,0,0.251,0.063,0.376,0.125
			c0.063,0.063,0.125,0.188,0.125,0.376c0,0.125-0.063,0.313-0.125,0.438c-0.126,0.188-0.251,0.313-0.438,0.502
			c-0.188,0.188-0.502,0.313-0.815,0.376c-0.313,0.125-0.689,0.188-1.065,0.188c-0.939,0-1.692-0.25-2.193-0.814
			s-0.752-1.254-0.752-2.193c0-0.438,0.063-0.815,0.188-1.191c0.126-0.376,0.313-0.688,0.564-0.939s0.564-0.438,0.878-0.627
			c0.376-0.125,0.752-0.188,1.19-0.188c0.564,0,1.065,0.126,1.441,0.377c0.438,0.25,0.689,0.563,0.94,0.939
			c0.188,0.376,0.313,0.752,0.313,1.191c0,0.376-0.126,0.626-0.313,0.689C345.954,638.857,345.703,638.92,345.327,638.92z
			 M342.444,638.105h2.632c-0.063-0.502-0.188-0.878-0.376-1.129c-0.25-0.25-0.563-0.376-0.939-0.376s-0.689,0.126-0.878,0.376
			C342.632,637.228,342.507,637.604,342.444,638.105z"/>
		<path fill="#949494" d="M351.782,638.92h-2.82c0,0.313,0.063,0.627,0.188,0.877c0.125,0.251,0.313,0.439,0.501,0.564
			c0.188,0.125,0.438,0.188,0.689,0.188c0.188,0,0.313,0,0.502-0.063c0.125-0.063,0.313-0.125,0.438-0.188
			c0.125-0.063,0.251-0.188,0.376-0.251c0.125-0.125,0.251-0.251,0.438-0.376c0.063-0.063,0.188-0.125,0.313-0.125
			s0.251,0.063,0.376,0.125s0.125,0.188,0.125,0.376c0,0.125-0.063,0.313-0.125,0.438c-0.125,0.188-0.251,0.313-0.438,0.502
			c-0.188,0.188-0.438,0.313-0.815,0.376c-0.313,0.125-0.688,0.188-1.064,0.188c-0.94,0-1.692-0.25-2.194-0.814
			c-0.501-0.564-0.752-1.254-0.752-2.193c0-0.438,0.063-0.815,0.188-1.191c0.125-0.376,0.313-0.688,0.563-0.939
			c0.251-0.251,0.564-0.438,0.878-0.627c0.376-0.125,0.752-0.188,1.19-0.188c0.564,0,1.065,0.126,1.441,0.377
			c0.376,0.25,0.689,0.563,0.94,0.939c0.188,0.376,0.313,0.752,0.313,1.191c0,0.376-0.126,0.626-0.313,0.689
			C352.472,638.857,352.158,638.92,351.782,638.92z M348.962,638.105h2.633c-0.063-0.502-0.188-0.878-0.376-1.129
			c-0.251-0.25-0.564-0.376-0.94-0.376s-0.689,0.126-0.877,0.376C349.15,637.228,348.962,637.604,348.962,638.105z"/>
		<path fill="#949494" d="M355.418,636.413v0.188c0.25-0.313,0.563-0.563,0.877-0.752c0.313-0.188,0.627-0.251,1.003-0.251
			c0.438,0,0.877,0.126,1.253,0.377c0.376,0.25,0.689,0.563,0.878,1.002c0.188,0.439,0.313,0.94,0.313,1.567
			c0,0.438-0.063,0.877-0.188,1.253c-0.125,0.376-0.313,0.689-0.501,0.94c-0.251,0.251-0.502,0.438-0.752,0.564
			c-0.313,0.125-0.627,0.188-0.94,0.188c-0.438,0-0.752-0.063-1.065-0.251c-0.313-0.188-0.564-0.438-0.814-0.752v2.193
			c0,0.627-0.251,0.94-0.689,0.94c-0.251,0-0.438-0.063-0.564-0.251c-0.063-0.188-0.125-0.376-0.125-0.752v-6.268
			c0-0.25,0.063-0.501,0.188-0.626c0.126-0.126,0.313-0.188,0.502-0.188c0.188,0,0.376,0.063,0.501,0.188
			C355.354,635.975,355.418,636.162,355.418,636.413z M358.237,638.544c0-0.376-0.063-0.689-0.188-1.003
			c-0.125-0.251-0.251-0.501-0.501-0.627c-0.188-0.125-0.439-0.25-0.689-0.25c-0.376,0-0.752,0.188-1.003,0.501
			s-0.438,0.752-0.438,1.379c0,0.563,0.125,1.003,0.438,1.379c0.251,0.313,0.627,0.501,1.003,0.501c0.25,0,0.438-0.063,0.689-0.188
			c0.188-0.126,0.376-0.376,0.501-0.627C358.175,639.296,358.237,638.92,358.237,638.544z"/>
		<path fill="#949494" d="M361.622,634.909c-0.188,0-0.376-0.063-0.501-0.188c-0.126-0.125-0.188-0.313-0.188-0.501
			c0-0.188,0.063-0.376,0.251-0.502c0.125-0.125,0.313-0.188,0.501-0.188c0.188,0,0.376,0.063,0.502,0.188
			c0.125,0.126,0.188,0.313,0.188,0.502c0,0.25-0.063,0.376-0.188,0.501C361.998,634.846,361.811,634.909,361.622,634.909z
			 M362.374,636.413v4.199c0,0.313-0.063,0.501-0.188,0.689c-0.126,0.125-0.313,0.25-0.502,0.25c-0.188,0-0.376-0.063-0.501-0.25
			c-0.125-0.126-0.188-0.376-0.188-0.627v-4.137c0-0.313,0.063-0.501,0.188-0.627c0.125-0.125,0.313-0.188,0.501-0.188
			c0.188,0,0.376,0.063,0.502,0.188C362.312,635.975,362.374,636.162,362.374,636.413z"/>
		<path fill="#949494" d="M367.514,640.862l-1.254-2.131l-0.814,0.752v1.129c0,0.25-0.063,0.501-0.251,0.626
			c-0.125,0.126-0.313,0.251-0.501,0.251c-0.251,0-0.376-0.063-0.502-0.251c-0.125-0.125-0.188-0.376-0.188-0.689v-6.204
			c0-0.313,0.063-0.564,0.188-0.752c0.126-0.188,0.313-0.251,0.564-0.251s0.376,0.063,0.501,0.251
			c0.126,0.125,0.188,0.376,0.188,0.689v3.51l1.629-1.692c0.188-0.188,0.377-0.376,0.439-0.438c0.125-0.063,0.25-0.126,0.376-0.126
			c0.188,0,0.313,0.063,0.438,0.188c0.125,0.125,0.188,0.251,0.188,0.438c0,0.188-0.188,0.501-0.564,0.877l-0.752,0.689l1.504,2.319
			c0.125,0.188,0.188,0.313,0.251,0.376s0.063,0.188,0.063,0.251c0,0.25-0.063,0.438-0.188,0.563
			c-0.125,0.126-0.313,0.188-0.501,0.188s-0.313-0.063-0.438-0.125C367.764,641.302,367.639,641.113,367.514,640.862z"/>
		<path fill="#949494" d="M371.086,641.552c-0.251,0-0.439-0.063-0.564-0.188c-0.188-0.126-0.251-0.313-0.251-0.627
			c0-0.188,0.063-0.376,0.251-0.564c0.125-0.188,0.313-0.25,0.564-0.25c0.25,0,0.438,0.063,0.563,0.25
			c0.188,0.126,0.251,0.313,0.251,0.564s-0.063,0.438-0.251,0.564C371.462,641.489,371.273,641.552,371.086,641.552z"/>
		<path fill="#949494" d="M378.731,639.734c0,0.188-0.063,0.376-0.188,0.564c-0.126,0.188-0.251,0.376-0.502,0.563
			c-0.25,0.188-0.501,0.313-0.814,0.439c-0.313,0.125-0.689,0.188-1.128,0.188c-0.878,0-1.63-0.251-2.131-0.814
			c-0.501-0.502-0.752-1.254-0.752-2.131c0-0.627,0.125-1.128,0.376-1.567c0.251-0.438,0.563-0.814,1.003-1.065
			c0.438-0.25,0.939-0.376,1.566-0.376c0.376,0,0.752,0.063,1.065,0.188s0.564,0.251,0.814,0.438
			c0.188,0.188,0.376,0.376,0.502,0.564c0.125,0.188,0.188,0.376,0.188,0.563c0,0.188-0.063,0.313-0.188,0.439
			c-0.126,0.125-0.313,0.188-0.502,0.188c-0.125,0-0.25,0-0.313-0.063c-0.063-0.063-0.188-0.188-0.25-0.313
			c-0.188-0.251-0.376-0.501-0.564-0.627c-0.188-0.125-0.438-0.188-0.752-0.188c-0.438,0-0.752,0.188-1.065,0.501
			c-0.251,0.313-0.376,0.814-0.376,1.379c0,0.251,0.063,0.501,0.125,0.752s0.188,0.438,0.313,0.564
			c0.126,0.188,0.313,0.313,0.438,0.376c0.188,0.063,0.377,0.125,0.627,0.125c0.313,0,0.564-0.063,0.752-0.188
			c0.188-0.126,0.376-0.313,0.564-0.627c0.063-0.188,0.188-0.313,0.313-0.376c0.125-0.063,0.251-0.125,0.376-0.125
			c0.188,0,0.313,0.063,0.438,0.188C378.669,639.421,378.731,639.547,378.731,639.734z"/>
		<path fill="#949494" d="M385.5,638.544c0,0.438-0.063,0.814-0.188,1.19s-0.313,0.689-0.564,0.94
			c-0.25,0.251-0.563,0.438-0.939,0.627c-0.376,0.125-0.752,0.188-1.191,0.188c-0.438,0-0.814-0.063-1.19-0.188
			c-0.376-0.126-0.627-0.313-0.94-0.627c-0.25-0.251-0.438-0.564-0.563-0.94c-0.126-0.376-0.188-0.752-0.188-1.19
			s0.063-0.815,0.188-1.191c0.125-0.376,0.313-0.688,0.563-0.939c0.251-0.251,0.564-0.438,0.94-0.627
			c0.376-0.125,0.752-0.188,1.19-0.188c0.439,0,0.815,0.063,1.191,0.188s0.689,0.376,0.939,0.627
			c0.251,0.251,0.439,0.563,0.564,0.939S385.5,638.105,385.5,638.544z M383.996,638.544c0-0.564-0.125-1.065-0.376-1.379
			s-0.627-0.501-1.065-0.501c-0.313,0-0.563,0.063-0.752,0.25c-0.188,0.126-0.376,0.376-0.501,0.627
			c-0.126,0.313-0.188,0.627-0.188,1.003s0.063,0.689,0.188,1.003c0.125,0.313,0.25,0.501,0.501,0.626
			c0.188,0.126,0.438,0.251,0.752,0.251c0.438,0,0.814-0.188,1.065-0.501S383.996,639.171,383.996,638.544z"/>
		<path fill="#949494" d="M391.454,638.669v1.943c0,0.313-0.063,0.563-0.188,0.689c-0.126,0.125-0.313,0.25-0.564,0.25
			s-0.376-0.063-0.563-0.25c-0.126-0.126-0.188-0.376-0.188-0.689v-2.319c0-0.376,0-0.627-0.063-0.877
			c0-0.188-0.063-0.376-0.188-0.502c-0.125-0.125-0.313-0.188-0.501-0.188c-0.501,0-0.814,0.188-0.94,0.501
			c-0.125,0.313-0.25,0.814-0.25,1.379v1.942c0,0.313-0.063,0.502-0.188,0.689c-0.125,0.188-0.313,0.251-0.564,0.251
			c-0.188,0-0.376-0.063-0.563-0.251c-0.126-0.125-0.188-0.376-0.188-0.689v-4.136c0-0.251,0.063-0.502,0.188-0.627
			c0.125-0.125,0.313-0.188,0.501-0.188c0.188,0,0.376,0.063,0.502,0.188c0.125,0.125,0.188,0.313,0.188,0.564v0.125
			c0.251-0.313,0.502-0.501,0.814-0.689c0.313-0.125,0.627-0.188,0.94-0.188c0.376,0,0.689,0.063,0.94,0.25
			c0.25,0.126,0.501,0.376,0.626,0.689c0.251-0.313,0.502-0.501,0.815-0.689c0.251-0.125,0.563-0.188,0.939-0.188
			s0.753,0.063,1.003,0.25c0.313,0.188,0.502,0.376,0.627,0.689c0.125,0.251,0.188,0.689,0.188,1.254v2.82
			c0,0.313-0.063,0.563-0.188,0.689c-0.125,0.125-0.313,0.251-0.564,0.251c-0.188,0-0.376-0.063-0.563-0.251
			c-0.126-0.126-0.188-0.376-0.188-0.689v-2.444c0-0.313,0-0.564-0.063-0.752c0-0.188-0.125-0.376-0.188-0.502
			c-0.126-0.125-0.313-0.188-0.502-0.188c-0.188,0-0.376,0.063-0.563,0.188c-0.188,0.126-0.313,0.251-0.376,0.439
			C391.517,637.604,391.454,638.042,391.454,638.669z"/>
	</g>
	<g display="inline">
		<path fill="#949494" d="M321.512,631.838c0-0.125-0.063-0.188-0.063-0.251c0.501-0.063,0.814-0.627,0.563-1.065
			c-0.188-0.501-1.003-0.564-1.253-0.125c-0.313,0.376-0.063,1.003,0.438,1.128c0,0.125,0.063,0.188,0.063,0.313
			c-0.752,0.063-1.504,0.188-2.068,0.627c0.063,0.188,0.126,0.376,0.188,0.563c1.253-0.563,2.632-0.438,3.948-0.313
			c0.063-0.188,0.063-0.376,0.125-0.501C322.765,631.963,322.139,631.838,321.512,631.838z"/>
		<path fill="#949494" d="M328.907,633.844c-0.188,0.125-0.251,0.313-0.251,0.563c-0.188,0.188-0.125,0.502-0.125,0.814
			c-0.063,0.126-0.251,0.188-0.376,0.251c-0.188-0.251-0.376-0.501-0.564-0.752l0,0c-0.251-0.251-0.501-0.438-0.814-0.627
			c-0.251,0.251-0.502,0.502-0.689,0.752c0.438,0.502,0.814,1.003,1.19,1.567c0.251,0.438,0.438,0.877,0.627,1.315
			c0.376-0.188,0.752-0.376,1.128-0.563c-0.188-0.438-0.438-0.878-0.627-1.316c0.188-0.063,0.376-0.188,0.438-0.376
			c0-0.251-0.063-0.501,0.126-0.689c0.313,0.188,0.689,0,0.752-0.376C329.597,633.906,329.157,633.655,328.907,633.844z"/>
		<path fill="#949494" d="M326.901,636.538c-0.501-0.814-1.003-1.566-1.692-2.193c-0.814-0.689-1.88-1.19-3.008-1.19
			c-1.379,0-2.82,0.188-4.074,0.752c-1.19,0.501-2.256,1.504-2.758,2.694c-0.501,1.128-0.501,2.382-0.25,3.51
			c1.253,0.313,2.569,0.627,3.886,0.689c1.315,0.063,2.632,0.063,3.886-0.125c1.755-0.251,3.51-0.815,5.076-1.692
			C327.904,638.982,327.716,637.792,326.901,636.538z M320.571,638.105c-0.251,0.376-0.563,0.626-1.003,0.752
			c-0.752,0.25-1.629,0.063-2.193-0.502c-0.376-0.438-0.627-0.939-0.563-1.504c0-0.689,0.438-1.379,1.065-1.692
			c0.501-0.251,1.065-0.313,1.566-0.188c0.188,0.063,0.438,0.125,0.627,0.25c0.376,0.251,0.689,0.689,0.814,1.129
			C321.01,636.977,320.947,637.604,320.571,638.105z M325.961,636.852c-0.063,0.627-0.689,1.128-1.253,1.065
			c-0.376,0-0.689-0.125-0.94-0.376c-0.188-0.188-0.313-0.438-0.313-0.752c-0.063-0.627,0.376-1.254,0.94-1.379
			c0.251-0.063,0.564-0.063,0.814,0C325.711,635.598,326.087,636.287,325.961,636.852z"/>
		<path fill="#949494" d="M315.369,634.783c-0.501,0.313-0.939,0.752-1.315,1.254c-0.126-0.188-0.126-0.439-0.251-0.627
			c-0.063-0.125-0.188-0.063-0.313-0.063c-0.125,0-0.251,0-0.376-0.063c0.125-0.188,0.125-0.564-0.125-0.689
			c-0.251-0.188-0.627,0-0.689,0.25c-0.126,0.313,0.25,0.627,0.563,0.564c0.188,0.251,0.502,0.188,0.753,0.188
			c0.125,0.188,0.188,0.438,0.376,0.626c-0.251,0.564-0.439,1.191-0.439,1.755c0.376,0.126,0.689,0.313,1.065,0.439
			c0-0.377,0.063-0.753,0.126-1.129c0.125-0.814,0.626-1.566,1.19-2.131C315.62,635.034,315.495,634.909,315.369,634.783z"/>
		<path fill="#949494" d="M323.705,641.051c-1.316,0.313-2.695,0.376-4.011,0.313c-0.94-0.063-1.817-0.126-2.695-0.313
			c-0.627-0.125-1.253-0.313-1.88-0.502c0.125,0.815,0.438,1.567,0.877,2.194c0.564,0.752,1.254,1.441,2.193,1.755
			c0.689,0.188,1.567,0.438,3.009,0.376c1.19,0,2.382-0.188,3.384-0.627c0.689-0.313,1.316-0.689,1.881-1.19
			c0.501-0.439,0.814-1.003,1.065-1.567s0.438-1.566,0.438-2.068C326.65,640.173,325.209,640.8,323.705,641.051z"/>
	</g>
</g>
<g>
	<path opacity="0.7" fill="#BBBBBB" enable-background="new    " d="M508.653,326.159c-10.828,7.089-14.023,21.424-7.012,32.098
		c2.727,4.129,6.545,7.167,10.906,8.804l0,0l0.781,5.765l5.451-4.285c5.143,0.467,10.441-0.702,15.115-3.74
		c10.828-7.089,14.023-21.424,7.012-32.097C533.896,321.952,519.483,319.07,508.653,326.159z"/>
	
		<linearGradient id="SVGID_1_" gradientUnits="userSpaceOnUse" x1="808.5205" y1="576.2295" x2="782.4162" y2="468.0832" gradientTransform="matrix(0.6267 0 0 -0.6267 0.1866 722.0848)">
		<stop  offset="0.1559" style="stop-color:#949494"/>
		<stop  offset="0.5806" style="stop-color:#707070"/>
		<stop  offset="0.9892" style="stop-color:#4C4C4C"/>
	</linearGradient>
	<path fill="url(#SVGID_1_)" d="M500.317,406.871c10.285,0,18.621-8.336,18.621-18.62c0-10.284-8.336-18.62-18.621-18.62
		c-10.283,0-18.619,8.336-18.619,18.62C481.698,398.535,490.034,406.871,500.317,406.871z"/>
	
		<linearGradient id="SVGID_2_" gradientUnits="userSpaceOnUse" x1="824.5986" y1="557.8975" x2="773.6329" y2="271.9915" gradientTransform="matrix(0.6267 0 0 -0.6267 0.1866 722.0848)">
		<stop  offset="0.1559" style="stop-color:#949494"/>
		<stop  offset="0.5806" style="stop-color:#707070"/>
		<stop  offset="0.9892" style="stop-color:#4C4C4C"/>
	</linearGradient>
	<path fill="url(#SVGID_2_)" d="M541.218,465.068c0.078-0.313,0.158-0.703,0.078-1.09l-8.568-45.266
		c-0.703-4.207-4.285-7.322-8.57-7.322h-47.68c-4.285,0-7.869,3.037-8.568,7.244l-8.57,45.344c-0.078,0.387-0.078,0.699,0.076,1.09
		c-0.076,0.389-0.076,0.779-0.076,1.246c0,4.83,3.895,8.727,8.725,8.727c4.209,0,7.793-2.961,8.57-7.17l5.375-33.654l-0.156,107.355
		c0,4.83,3.896,8.727,8.727,8.727s8.725-3.896,8.725-8.727v-53.211h2.105v53.211c0,4.83,3.895,8.727,8.725,8.727
		s8.727-3.896,8.727-8.727l-0.08-107.434l5.377,33.732c0.779,4.131,4.361,7.09,8.57,7.09c4.83,0,8.727-3.895,8.727-8.725
		C541.296,465.848,541.218,465.457,541.218,465.068z"/>
</g>
<g>
	<path opacity="0.7" fill="#9F948B" enable-background="new    " d="M210.951,299.322c9.583,6.543,12.154,19.477,5.766,28.903
		c-2.494,3.662-6,6.311-9.895,7.713l0,0l-0.779,5.142l-4.83-3.973c-4.597,0.312-9.349-0.856-13.478-3.661
		c-9.583-6.544-12.153-19.477-5.765-28.904C188.359,295.114,201.369,292.777,210.951,299.322z"/>
	<g>
		
			<linearGradient id="SVGID_3_" gradientUnits="userSpaceOnUse" x1="344.8535" y1="605.6631" x2="306.318" y2="323.4832" gradientTransform="matrix(0.6267 0 0 -0.6267 0.1866 722.0848)">
			<stop  offset="0.0538" style="stop-color:#87796E"/>
			<stop  offset="0.6962" style="stop-color:#5F4C3D"/>
			<stop  offset="1" style="stop-color:#371F0D"/>
		</linearGradient>
		<path fill="url(#SVGID_3_)" d="M212.978,385.564c10.283,0,18.62-8.335,18.62-18.619s-8.336-18.62-18.62-18.62
			c-10.284,0-18.62,8.336-18.62,18.62S202.771,385.564,212.978,385.564z"/>
		
			<linearGradient id="SVGID_4_" gradientUnits="userSpaceOnUse" x1="361.5439" y1="603.3828" x2="323.0085" y2="321.2032" gradientTransform="matrix(0.6267 0 0 -0.6267 0.1866 722.0848)">
			<stop  offset="0.0538" style="stop-color:#87796E"/>
			<stop  offset="0.6962" style="stop-color:#5F4C3D"/>
			<stop  offset="1" style="stop-color:#371F0D"/>
		</linearGradient>
		<path fill="url(#SVGID_4_)" d="M253.878,443.762c0.079-0.313,0.156-0.701,0.079-1.091l-8.57-45.265
			c-0.701-4.207-4.285-7.323-8.57-7.323h-47.679c-4.285,0-7.868,3.039-8.57,7.245l-8.57,45.343c-0.077,0.39-0.077,0.701,0.079,1.091
			c-0.079,0.39-0.079,0.778-0.079,1.245c0,4.831,3.896,8.727,8.726,8.727c4.207,0,7.791-2.96,8.57-7.168l5.375-33.655
			l-0.078,107.434c0,4.83,3.896,8.726,8.726,8.726c4.831,0,8.725-3.896,8.725-8.726v-53.211h2.104v53.211
			c0,4.83,3.896,8.726,8.726,8.726c4.831,0,8.726-3.896,8.726-8.726l-0.078-107.434l5.375,33.733c0.779,4.13,4.363,7.09,8.57,7.09
			c4.83,0,8.726-3.896,8.726-8.727C254.034,444.54,253.957,444.151,253.878,443.762z"/>
	</g>
</g>
<g>
	<path opacity="0.8" fill="#F7A079" enable-background="new    " d="M44.522,295.009c13.711,9.349,17.451,27.891,8.258,41.368
		c-3.583,5.297-8.569,9.037-14.179,11.063l0,0l-1.091,7.402l-6.856-5.688c-6.622,0.467-13.399-1.168-19.321-5.22
		c-13.711-9.349-17.451-27.89-8.258-41.369C12.191,289.011,30.811,285.661,44.522,295.009z"/>
	<defs>
		<filter id="Adobe_OpacityMaskFilter" filterUnits="userSpaceOnUse" x="12.581" y="524.832" width="94.267" height="10.131">
			<feColorMatrix  type="matrix" values="1 0 0 0 0  0 1 0 0 0  0 0 1 0 0  0 0 0 1 0"/>
		</filter>
	</defs>
	<mask maskUnits="userSpaceOnUse" x="12.581" y="524.832" width="94.267" height="10.131" id="SVGID_14_">
		<g filter="url(#Adobe_OpacityMaskFilter)">
			
				<radialGradient id="SVGID_5_" cx="-62.394" cy="-1045.2158" r="90.9551" gradientTransform="matrix(0.5178 0 0 -0.056 92.0219 471.3845)" gradientUnits="userSpaceOnUse">
				<stop  offset="0" style="stop-color:#FFFFFF"/>
				<stop  offset="1" style="stop-color:#14130A"/>
			</radialGradient>
			<path fill="url(#SVGID_5_)" d="M106.848,529.898c0,2.805-21.113,5.064-47.133,5.064c-26.021,0-47.134-2.26-47.134-5.064
				s21.112-5.064,47.134-5.064C85.735,524.757,106.848,527.094,106.848,529.898z"/>
		</g>
	</mask>
	
		<linearGradient id="SVGID_6_" gradientUnits="userSpaceOnUse" x1="134.9634" y1="599.4238" x2="96.4284" y2="317.2474" gradientTransform="matrix(0.6267 0 0 -0.6267 0.1866 722.0848)">
		<stop  offset="0.0538" style="stop-color:#87796E"/>
		<stop  offset="0.6962" style="stop-color:#5F4C3D"/>
		<stop  offset="1" style="stop-color:#371F0D"/>
	</linearGradient>
	<path opacity="0.33" mask="url(#SVGID_14_)" fill="url(#SVGID_6_)" enable-background="new    " d="M106.848,529.898
		c0,2.805-21.113,5.064-47.133,5.064c-26.021,0-47.134-2.26-47.134-5.064s21.112-5.064,47.134-5.064
		C85.735,524.757,106.848,527.094,106.848,529.898z"/>
	<g opacity="0.9">
		<g>
			
				<linearGradient id="SVGID_7_" gradientUnits="userSpaceOnUse" x1="102.3271" y1="591.4678" x2="41.4171" y2="300.5898" gradientTransform="matrix(0.6267 0 0 -0.6267 0.1866 722.0848)">
				<stop  offset="0.1452" style="stop-color:#F5804D"/>
				<stop  offset="0.5215" style="stop-color:#F26020"/>
				<stop  offset="0.8226" style="stop-color:#B64818"/>
			</linearGradient>
			<path fill="url(#SVGID_7_)" d="M59.714,391.38c9.894,0,17.996-8.103,17.996-17.997s-8.103-17.997-17.996-17.997
				c-9.895,0-17.997,8.103-17.997,17.997C41.717,383.356,49.82,391.38,59.714,391.38z"/>
			
				<linearGradient id="SVGID_8_" gradientUnits="userSpaceOnUse" x1="125.5864" y1="586.5967" x2="64.6762" y2="295.7184" gradientTransform="matrix(0.6267 0 0 -0.6267 0.1866 722.0848)">
				<stop  offset="0.1452" style="stop-color:#F5804D"/>
				<stop  offset="0.5215" style="stop-color:#F26020"/>
				<stop  offset="0.8226" style="stop-color:#B64818"/>
			</linearGradient>
			<path fill="url(#SVGID_8_)" d="M99.212,447.551c0.079-0.312,0.156-0.701,0.079-1.013l-8.259-43.706
				c-0.701-4.129-4.129-7.089-8.258-7.089H36.653c-4.129,0-7.635,2.96-8.258,7.011l-8.258,43.784
				c-0.078,0.39-0.078,0.701,0.078,1.013c-0.078,0.39-0.078,0.779-0.078,1.168c0,4.597,3.74,8.414,8.414,8.414
				c4.051,0,7.479-2.881,8.258-6.933l5.22-32.487l-0.156,103.771c0,4.598,3.74,8.415,8.414,8.415c4.597,0,8.414-3.739,8.414-8.415
				v-51.34h2.025v51.34c0,4.598,3.739,8.415,8.414,8.415c4.597,0,8.414-3.739,8.414-8.415l-0.078-103.771l5.219,32.565
				c0.701,3.974,4.207,6.854,8.258,6.854c4.597,0,8.414-3.738,8.414-8.414C99.291,448.33,99.291,448.019,99.212,447.551z"/>
		</g>
	</g>
</g>
<g>
	
		<linearGradient id="SVGID_9_" gradientUnits="userSpaceOnUse" x1="491.6895" y1="576.0215" x2="397.2141" y2="194.3903" gradientTransform="matrix(0.6267 0 0 -0.6267 0.1866 722.0848)">
		<stop  offset="0.2903" style="stop-color:#CB4989"/>
		<stop  offset="0.5599" style="stop-color:#C22A75"/>
		<stop  offset="0.7312" style="stop-color:#BE1C6B"/>
		<stop  offset="1" style="stop-color:#8F1550"/>
	</linearGradient>
	<path fill="url(#SVGID_9_)" d="M302.44,412.34c15.114,0,27.423-12.31,27.423-27.423c0-15.114-12.309-27.423-27.423-27.423
		s-27.423,12.309-27.423,27.423C275.018,400.03,287.326,412.34,302.44,412.34z"/>
	
		<linearGradient id="SVGID_10_" gradientUnits="userSpaceOnUse" x1="531.2852" y1="566.2168" x2="436.8124" y2="184.5957" gradientTransform="matrix(0.6267 0 0 -0.6267 0.1866 722.0848)">
		<stop  offset="0.2903" style="stop-color:#CB4989"/>
		<stop  offset="0.5599" style="stop-color:#C22A75"/>
		<stop  offset="0.7312" style="stop-color:#BE1C6B"/>
		<stop  offset="1" style="stop-color:#8F1550"/>
	</linearGradient>
	<path fill="url(#SVGID_10_)" d="M362.742,498.114c0.154-0.467,0.154-1.012,0.076-1.557l-12.543-66.767
		c-1.014-6.232-6.311-10.751-12.621-10.751h-70.271c-6.311,0-11.608,4.519-12.622,10.673l-12.621,66.845
		c-0.077,0.545-0.077,1.09,0.078,1.557c-0.078,0.625-0.155,1.169-0.155,1.793c0,7.089,5.765,12.776,12.854,12.776
		c6.155,0,11.452-4.44,12.621-10.595l7.946-49.627l-0.233,158.385c0,7.09,5.765,12.777,12.776,12.777
		c7.09,0,12.854-5.767,12.854-12.777v-78.374h3.039v78.374c0,7.09,5.765,12.777,12.854,12.777s12.777-5.767,12.777-12.777
		l-0.078-158.385l7.945,49.704c1.092,6.077,6.391,10.518,12.623,10.518c7.088,0,12.854-5.766,12.854-12.776
		C362.818,499.283,362.818,498.661,362.742,498.114z"/>
</g>
<g>
	<g>
		
			<linearGradient id="SVGID_11_" gradientUnits="userSpaceOnUse" x1="912.9277" y1="561.2578" x2="859.4741" y2="306.4205" gradientTransform="matrix(0.6267 0 0 -0.6267 0.1866 722.0848)">
			<stop  offset="0.1425" style="stop-color:#789FCA"/>
			<stop  offset="0.4839" style="stop-color:#4B7FB9"/>
			<stop  offset="0.7419" style="stop-color:#1E5FA7"/>
			<stop  offset="1" style="stop-color:#17477D"/>
		</linearGradient>
		<path fill="url(#SVGID_11_)" d="M568.875,404.86c9.895,0,17.998-8.103,17.998-17.996c0-9.895-8.104-17.996-17.998-17.996
			s-17.996,8.102-17.996,17.996C550.879,396.836,558.902,404.86,568.875,404.86z"/>
		
			<linearGradient id="SVGID_12_" gradientUnits="userSpaceOnUse" x1="936.3906" y1="556.335" x2="882.9382" y2="301.5036" gradientTransform="matrix(0.6267 0 0 -0.6267 0.1866 722.0848)">
			<stop  offset="0.1425" style="stop-color:#789FCA"/>
			<stop  offset="0.4839" style="stop-color:#4B7FB9"/>
			<stop  offset="0.7419" style="stop-color:#1E5FA7"/>
			<stop  offset="1" style="stop-color:#17477D"/>
		</linearGradient>
		<path fill="url(#SVGID_12_)" d="M608.375,461.031c0.078-0.311,0.154-0.701,0.078-1.012l-8.26-43.707
			c-0.701-4.129-4.127-7.089-8.258-7.089h-46.041c-4.131,0-7.637,2.96-8.26,7.012l-8.258,43.784
			c-0.078,0.39-0.078,0.701,0.076,1.012c-0.076,0.39-0.076,0.779-0.076,1.17c0,4.596,3.74,8.413,8.414,8.413
			c4.051,0,7.557-2.882,8.258-6.934l5.221-32.487l-0.078,103.771c0,4.598,3.738,8.414,8.414,8.414c4.596,0,8.414-3.738,8.414-8.414
			v-51.341h2.025v51.341c0,4.598,3.738,8.414,8.414,8.414c4.596,0,8.414-3.738,8.414-8.414l-0.078-103.771l5.221,32.565
			c0.699,3.974,4.205,6.855,8.256,6.855c4.598,0,8.414-3.739,8.414-8.413C608.453,461.811,608.453,461.421,608.375,461.031z"/>
	</g>
	<path opacity="0.7" fill="#789FCA" enable-background="new    " d="M595.908,307.088c-17.605,7.323-25.941,27.423-18.697,44.874
		c2.805,6.778,7.637,12.153,13.479,15.815l0,0l-0.389,8.57l9.035-4.752c7.324,2.104,15.35,1.792,22.906-1.402
		c17.607-7.323,25.943-27.423,18.697-44.875C633.617,307.866,613.438,299.686,595.908,307.088z"/>
</g>
<g>
	
		<linearGradient id="SVGID_13_" gradientUnits="userSpaceOnUse" x1="660.5752" y1="584.377" x2="603.3913" y2="281.0526" gradientTransform="matrix(0.6267 0 0 -0.6267 0.1866 722.0848)">
		<stop  offset="0" style="stop-color:#FFD166"/>
		<stop  offset="0.2097" style="stop-color:#FFC233"/>
		<stop  offset="0.7016" style="stop-color:#FFB300"/>
		<stop  offset="1" style="stop-color:#BF8600"/>
	</linearGradient>
	<path fill="url(#SVGID_13_)" d="M410.359,400.459c13.398,0,24.307-10.907,24.307-24.308s-10.908-24.307-24.307-24.307
		c-13.402,0-24.309,10.906-24.309,24.307C385.973,389.474,396.879,400.459,410.359,400.459z"/>
	
		<linearGradient id="SVGID_15_" gradientUnits="userSpaceOnUse" x1="689.9883" y1="578.834" x2="632.8065" y2="275.5204" gradientTransform="matrix(0.6267 0 0 -0.6267 0.1866 722.0848)">
		<stop  offset="0" style="stop-color:#FFD166"/>
		<stop  offset="0.2097" style="stop-color:#FFC233"/>
		<stop  offset="0.7016" style="stop-color:#FFB300"/>
		<stop  offset="1" style="stop-color:#BF8600"/>
	</linearGradient>
	<path fill="url(#SVGID_15_)" d="M463.801,476.496c0.156-0.467,0.156-0.936,0.08-1.402l-11.143-59.209
		c-0.934-5.531-5.607-9.584-11.219-9.584h-62.324c-5.609,0-10.285,4.053-11.141,9.506l-11.141,59.287
		c-0.078,0.467-0.078,0.936,0.076,1.402c-0.076,0.545-0.154,1.09-0.154,1.559c0,6.232,5.064,11.373,11.373,11.373
		c5.455,0,10.207-3.895,11.143-9.348l7.012-44.018l-0.078,140.388c0,6.232,5.063,11.375,11.375,11.375
		c6.309,0,11.373-5.064,11.373-11.375v-69.492h2.727v69.492c0,6.232,5.064,11.375,11.375,11.375c6.232,0,11.373-5.064,11.373-11.375
		l-0.076-140.388l7.012,44.096c1.012,5.375,5.688,9.27,11.139,9.27c6.234,0,11.375-5.063,11.375-11.373
		C463.881,477.51,463.881,476.963,463.801,476.496z"/>
</g>
<path fill="#FFB300" d="M438.531,299.427c-12.074,5.064-17.762,18.854-12.777,30.773c1.949,4.674,5.221,8.336,9.271,10.829l0,0
	l-0.311,5.92l6.232-3.272c4.986,1.402,10.518,1.247,15.736-0.935c12.076-5.064,17.764-18.854,12.777-30.773
	C464.396,300.051,450.607,294.441,438.531,299.427z"/>
<path fill="#D877A6" d="M300.493,289.013c-12.699,11.063-14.18,30.306-3.194,42.849c4.284,4.908,9.816,8.102,15.736,9.504l0,0
	l2.027,7.323l6.232-6.544c6.699-0.312,13.398-2.727,18.854-7.557c12.697-11.063,14.18-30.306,3.193-42.849
	C332.436,279.197,313.191,277.95,300.493,289.013z"/>
<g>
	<g>
		
			<linearGradient id="SVGID_16_" gradientUnits="userSpaceOnUse" x1="237.813" y1="587.7109" x2="168.2016" y2="258.2992" gradientTransform="matrix(0.6267 0 0 -0.6267 0.1866 722.0848)">
			<stop  offset="0.1317" style="stop-color:#7DBABE"/>
			<stop  offset="0.5054" style="stop-color:#5DA9AE"/>
			<stop  offset="0.7285" style="stop-color:#5DA9AE"/>
			<stop  offset="0.8522" style="stop-color:#467F83"/>
		</linearGradient>
		<path fill="url(#SVGID_16_)" d="M143.913,403.22c13.4,0,24.308-10.907,24.308-24.307c0-13.4-10.908-24.307-24.308-24.307
			s-24.307,10.906-24.307,24.307C119.606,392.313,130.513,403.22,143.913,403.22z"/>
		
			<linearGradient id="SVGID_17_" gradientUnits="userSpaceOnUse" x1="269.4668" y1="581.0254" x2="199.8543" y2="251.6082" gradientTransform="matrix(0.6267 0 0 -0.6267 0.1866 722.0848)">
			<stop  offset="0.1317" style="stop-color:#7DBABE"/>
			<stop  offset="0.5054" style="stop-color:#5DA9AE"/>
			<stop  offset="0.7285" style="stop-color:#5DA9AE"/>
			<stop  offset="0.8522" style="stop-color:#467F83"/>
		</linearGradient>
		<path fill="url(#SVGID_17_)" d="M197.357,479.257c0.156-0.467,0.156-0.935,0.079-1.402l-11.141-59.21
			c-0.935-5.531-5.609-9.582-11.218-9.582H112.75c-5.609,0-10.284,4.051-11.141,9.505l-11.14,59.287
			c-0.079,0.468-0.079,0.936,0.078,1.402c-0.078,0.545-0.156,1.091-0.156,1.559c0,6.232,5.064,11.374,11.375,11.374
			c5.453,0,10.206-3.896,11.141-9.349l7.011-44.018l-0.078,140.389c0,6.232,5.064,11.373,11.375,11.373
			c6.232,0,11.374-5.063,11.374-11.373v-69.493h2.727v69.493c0,6.232,5.064,11.373,11.375,11.373
			c6.232,0,11.374-5.063,11.374-11.373l-0.078-140.389l7.011,44.095c1.013,5.376,5.688,9.271,11.141,9.271
			c6.233,0,11.375-5.063,11.375-11.374C197.436,480.348,197.436,479.802,197.357,479.257z"/>
	</g>
	<path fill="#67BFC1" d="M126.774,300.772c13.477,9.115,17.061,27.268,8.102,40.434c-3.506,5.142-8.414,8.804-13.868,10.751l0,0
		l-1.091,7.168l-6.7-5.532c-6.466,0.467-13.088-1.168-18.931-5.063c-13.4-9.116-17.062-27.268-8.103-40.434
		C95.144,294.93,113.296,291.657,126.774,300.772z"/>
</g>
</svg>
