<?xml version="1.0" encoding="utf-8"?>
<!-- Generator: Adobe Illustrator 18.0.0, SVG Export Plug-In . SVG Version: 6.00 Build 0)  -->
<!DOCTYPE svg PUBLIC "-//W3C//DTD SVG 1.1//EN" "http://www.w3.org/Graphics/SVG/1.1/DTD/svg11.dtd">
<svg version="1.1" id="Capa_1" xmlns="http://www.w3.org/2000/svg" xmlns:xlink="http://www.w3.org/1999/xlink" x="0px" y="0px"
	 viewBox="0 0 141.4 364" enable-background="new 0 0 141.4 364" xml:space="preserve">
<g id="Capa_1_1_" display="none">
	<g display="inline">
		
			<linearGradient id="SVGID_1_" gradientUnits="userSpaceOnUse" x1="813.731" y1="-207.297" x2="719.2546" y2="174.3385" gradientTransform="matrix(0.6267 0 0 0.6267 -433.5547 221.2879)">
			<stop  offset="0.2903" style="stop-color:#BD4981"/>
			<stop  offset="0.5599" style="stop-color:#B4316F"/>
			<stop  offset="0.7312" style="stop-color:#B12966"/>
			<stop  offset="1" style="stop-color:#87154C"/>
		</linearGradient>
		<path fill="url(#SVGID_1_)" d="M70.5,142.6c15.1,0,27.4-12.3,27.4-27.4c0-15.1-12.3-27.4-27.4-27.4c-15.1,0-27.4,12.3-27.4,27.4
			C43.1,130.3,55.4,142.6,70.5,142.6z"/>
		
			<linearGradient id="SVGID_2_" gradientUnits="userSpaceOnUse" x1="853.3249" y1="-197.4908" x2="758.8518" y2="184.1314" gradientTransform="matrix(0.6267 0 0 0.6267 -433.5547 221.2879)">
			<stop  offset="0.2903" style="stop-color:#BD4981"/>
			<stop  offset="0.5599" style="stop-color:#B4316F"/>
			<stop  offset="0.7312" style="stop-color:#B12966"/>
			<stop  offset="1" style="stop-color:#87154C"/>
		</linearGradient>
		<path fill="url(#SVGID_2_)" d="M130.8,228.4c0.2-0.5,0.2-1,0.1-1.6l-12.5-66.8c-1-6.2-6.3-10.8-12.6-10.8H35.5
			c-6.3,0-11.6,4.5-12.6,10.7l-12.6,66.8c-0.1,0.5-0.1,1.1,0.1,1.6c-0.1,0.6-0.2,1.2-0.2,1.8c0,7.1,5.8,12.8,12.9,12.8
			c6.2,0,11.5-4.4,12.6-10.6l7.9-49.6l-0.2,158.4c0,7.1,5.8,12.8,12.8,12.8c7.1,0,12.9-5.8,12.9-12.8v-78.4h3v78.4
			c0,7.1,5.8,12.8,12.9,12.8s12.8-5.8,12.8-12.8l-0.1-158.4l7.9,49.7c1.1,6.1,6.4,10.5,12.6,10.5c7.1,0,12.9-5.8,12.9-12.8
			C130.9,229.6,130.9,228.9,130.8,228.4z"/>
	</g>
	<path display="inline" fill="#CB749E" d="M68.6,19.3c-12.7,11.1-14.2,30.3-3.2,42.8c4.3,4.9,9.8,8.1,15.7,9.5l0,0l2,7.3l6.2-6.5
		c6.7-0.3,13.4-2.7,18.9-7.6c12.7-11.1,14.2-30.3,3.2-42.8C100.5,9.5,81.3,8.2,68.6,19.3z"/>
</g>
<g id="Capa_2">
	<g>
		<path opacity="0.7" fill="#9E938A" enable-background="new    " d="M67.5,8.6c14.6,9.9,18.5,29.6,8.8,43.9
			c-3.8,5.6-9.1,9.6-15,11.7l0,0L60,72.1l-7.3-6c-7,0.5-14.2-1.3-20.5-5.6c-14.6-9.9-18.5-29.6-8.8-43.9C33.2,2.2,52.9-1.3,67.5,8.6
			z"/>
		<g>
			
				<linearGradient id="SVGID_3_" gradientUnits="userSpaceOnUse" x1="812.5156" y1="-234.5544" x2="753.9374" y2="194.3892" gradientTransform="matrix(0.6267 0 0 0.6267 -433.5547 221.2879)">
				<stop  offset="5.380000e-002" style="stop-color:#86786D"/>
				<stop  offset="0.6962" style="stop-color:#5E4B3D"/>
				<stop  offset="1" style="stop-color:#361F12"/>
			</linearGradient>
			<path fill="url(#SVGID_3_)" d="M70.6,139.7c15.6,0,28.3-12.7,28.3-28.3c0-15.6-12.7-28.3-28.3-28.3c-15.6,0-28.3,12.7-28.3,28.3
				C42.3,127.1,55.1,139.7,70.6,139.7z"/>
			
				<linearGradient id="SVGID_4_" gradientUnits="userSpaceOnUse" x1="837.8895" y1="-231.0862" x2="779.3105" y2="197.8633" gradientTransform="matrix(0.6267 0 0 0.6267 -433.5547 221.2879)">
				<stop  offset="5.380000e-002" style="stop-color:#86786D"/>
				<stop  offset="0.6962" style="stop-color:#5E4B3D"/>
				<stop  offset="1" style="stop-color:#361F12"/>
			</linearGradient>
			<path fill="url(#SVGID_4_)" d="M132.8,228.2c0.1-0.5,0.2-1.1,0.1-1.7l-13-68.8c-1.1-6.4-6.5-11.1-13-11.1H34.3
				c-6.5,0-12,4.6-13,11l-13,68.9c-0.1,0.6-0.1,1.1,0.1,1.7c-0.1,0.6-0.1,1.2-0.1,1.9c0,7.3,5.9,13.3,13.3,13.3
				c6.4,0,11.8-4.5,13-10.9l8.2-51.2l-0.1,163.3c0,7.3,5.9,13.3,13.3,13.3s13.3-5.9,13.3-13.3v-80.9h3.2v80.9
				c0,7.3,5.9,13.3,13.3,13.3c7.3,0,13.3-5.9,13.3-13.3l-0.1-163.3l8.2,51.3c1.2,6.3,6.6,10.8,13,10.8c7.3,0,13.3-5.9,13.3-13.3
				C133,229.4,132.9,228.8,132.8,228.2z"/>
		</g>
	</g>
</g>
</svg>
