<?xml version="1.0" encoding="utf-8"?>
<!-- Generator: Adobe Illustrator 16.0.0, SVG Export Plug-In . SVG Version: 6.00 Build 0)  -->
<!DOCTYPE svg PUBLIC "-//W3C//DTD SVG 1.1//EN" "http://www.w3.org/Graphics/SVG/1.1/DTD/svg11.dtd">
<svg version="1.1" xmlns="http://www.w3.org/2000/svg" xmlns:xlink="http://www.w3.org/1999/xlink" x="0px" y="0px"
	 width="141.429px" height="368.572px" viewBox="0 0 141.429 368.572" enable-background="new 0 0 141.429 368.572"
	 xml:space="preserve">
<g id="Capa_1" display="none">
	<g display="inline">
		
			<linearGradient id="SVGID_2_" gradientUnits="userSpaceOnUse" x1="260.9521" y1="447.7681" x2="166.4757" y2="66.1326" gradientTransform="matrix(0.6267 0 0 -0.6267 -87.1323 371.9901)">
			<stop  offset="0.2903" style="stop-color:#BD4981"/>
			<stop  offset="0.5599" style="stop-color:#B4316F"/>
			<stop  offset="0.7312" style="stop-color:#B12966"/>
			<stop  offset="1" style="stop-color:#87154C"/>
		</linearGradient>
		<path fill="url(#SVGID_2_)" d="M70.512,142.625c15.113,0,27.423-12.31,27.423-27.423c0-15.114-12.31-27.423-27.423-27.423
			c-15.114,0-27.423,12.309-27.423,27.423C43.089,130.316,55.397,142.625,70.512,142.625z"/>
		
			<linearGradient id="SVGID_3_" gradientUnits="userSpaceOnUse" x1="300.5479" y1="437.9614" x2="206.0748" y2="56.3392" gradientTransform="matrix(0.6267 0 0 -0.6267 -87.1323 371.9901)">
			<stop  offset="0.2903" style="stop-color:#BD4981"/>
			<stop  offset="0.5599" style="stop-color:#B4316F"/>
			<stop  offset="0.7312" style="stop-color:#B12966"/>
			<stop  offset="1" style="stop-color:#87154C"/>
		</linearGradient>
		<path fill="url(#SVGID_3_)" d="M130.813,228.4c0.155-0.467,0.155-1.012,0.077-1.557l-12.543-66.767
			c-1.014-6.232-6.311-10.751-12.621-10.751H35.454c-6.311,0-11.608,4.519-12.622,10.673l-12.621,66.845
			c-0.077,0.545-0.077,1.09,0.078,1.557c-0.078,0.625-0.155,1.169-0.155,1.793c0,7.089,5.765,12.776,12.854,12.776
			c6.155,0,11.452-4.44,12.621-10.595l7.946-49.627l-0.233,158.385c0,7.09,5.765,12.777,12.776,12.777
			c7.09,0,12.854-5.767,12.854-12.777v-78.374h3.039v78.374c0,7.09,5.765,12.777,12.854,12.777s12.777-5.767,12.777-12.777
			l-0.079-158.385l7.946,49.704c1.092,6.077,6.39,10.518,12.622,10.518c7.089,0,12.854-5.766,12.854-12.776
			C130.89,229.569,130.89,228.947,130.813,228.4z"/>
	</g>
	<path display="inline" fill="#CB749E" d="M68.564,19.299c-12.699,11.063-14.18,30.306-3.194,42.849
		c4.284,4.908,9.816,8.102,15.736,9.504l0,0l2.026,7.323l6.232-6.544c6.7-0.312,13.399-2.727,18.854-7.557
		c12.697-11.063,14.179-30.306,3.193-42.849C100.506,9.482,81.263,8.236,68.564,19.299z"/>
</g>
<g id="Capa_2" display="none">
	<g display="inline">
		<path opacity="0.7" fill="#9E938A" enable-background="new    " d="M67.495,8.643c14.569,9.947,18.477,29.607,8.766,43.936
			c-3.791,5.566-9.12,9.593-15.041,11.725l0,0l-1.186,7.816l-7.342-6.04c-6.988,0.475-14.211-1.302-20.488-5.565
			c-14.567-9.948-18.474-29.608-8.764-43.938C33.152,2.246,52.929-1.306,67.495,8.643z"/>
		<g>
			
				<linearGradient id="SVGID_4_" gradientUnits="userSpaceOnUse" x1="259.7354" y1="475.0249" x2="201.1572" y2="46.0813" gradientTransform="matrix(0.6267 0 0 -0.6267 -87.1323 371.9901)">
				<stop  offset="0.0538" style="stop-color:#86786D"/>
				<stop  offset="0.6962" style="stop-color:#5E4B3D"/>
				<stop  offset="1" style="stop-color:#361F12"/>
			</linearGradient>
			<path fill="url(#SVGID_4_)" d="M70.575,139.742c15.632,0,28.306-12.671,28.306-28.303c0-15.633-12.674-28.305-28.306-28.305
				c-15.633,0-28.304,12.672-28.304,28.305C42.271,127.071,55.061,139.742,70.575,139.742z"/>
			
				<linearGradient id="SVGID_5_" gradientUnits="userSpaceOnUse" x1="285.1064" y1="471.5571" x2="226.5275" y2="42.6076" gradientTransform="matrix(0.6267 0 0 -0.6267 -87.1323 371.9901)">
				<stop  offset="0.0538" style="stop-color:#86786D"/>
				<stop  offset="0.6962" style="stop-color:#5E4B3D"/>
				<stop  offset="1" style="stop-color:#361F12"/>
			</linearGradient>
			<path fill="url(#SVGID_5_)" d="M132.75,228.209c0.12-0.475,0.237-1.066,0.12-1.656l-13.028-68.81
				c-1.065-6.395-6.514-11.132-13.028-11.132H34.336c-6.514,0-11.961,4.619-13.028,11.014L8.281,226.553
				c-0.117,0.59-0.117,1.065,0.119,1.656c-0.119,0.595-0.119,1.186-0.119,1.896c0,7.34,5.922,13.265,13.265,13.265
				c6.396,0,11.842-4.501,13.028-10.897l8.17-51.161l-0.118,163.314c0,7.34,5.921,13.265,13.264,13.265
				c7.343,0,13.263-5.925,13.263-13.265v-80.889h3.2v80.889c0,7.34,5.921,13.265,13.262,13.265c7.345,0,13.267-5.925,13.267-13.265
				l-0.119-163.314l8.171,51.28c1.185,6.277,6.633,10.778,13.027,10.778c7.343,0,13.265-5.925,13.265-13.265
				C132.987,229.395,132.87,228.804,132.75,228.209z"/>
		</g>
	</g>
</g>
<g id="Capa_3" display="none">
	<g display="inline">
		<g>
			
				<linearGradient id="SVGID_6_" gradientUnits="userSpaceOnUse" x1="270.5156" y1="475.2886" x2="187.7648" y2="83.6993" gradientTransform="matrix(0.6267 0 0 -0.6267 -87.1323 371.9901)">
				<stop  offset="0.1317" style="stop-color:#78B1B4"/>
				<stop  offset="0.5054" style="stop-color:#5BA0A4"/>
				<stop  offset="0.7285" style="stop-color:#5BA0A4"/>
				<stop  offset="0.8522" style="stop-color:#457A7E"/>
			</linearGradient>
			<path fill="url(#SVGID_6_)" d="M76.085,132.92c15.93,0,28.896-12.966,28.896-28.895c0-15.93-12.967-28.895-28.896-28.895
				c-15.929,0-28.894,12.965-28.894,28.895C47.191,119.955,60.156,132.92,76.085,132.92z"/>
			
				<linearGradient id="SVGID_7_" gradientUnits="userSpaceOnUse" x1="308.1416" y1="467.3394" x2="225.3899" y2="75.7457" gradientTransform="matrix(0.6267 0 0 -0.6267 -87.1323 371.9901)">
				<stop  offset="0.1317" style="stop-color:#78B1B4"/>
				<stop  offset="0.5054" style="stop-color:#5BA0A4"/>
				<stop  offset="0.7285" style="stop-color:#5BA0A4"/>
				<stop  offset="0.8522" style="stop-color:#457A7E"/>
			</linearGradient>
			<path fill="url(#SVGID_7_)" d="M139.616,223.311c0.186-0.557,0.186-1.113,0.094-1.668l-13.244-70.386
				c-1.109-6.576-6.667-11.391-13.336-11.391H39.041c-6.668,0-12.225,4.815-13.244,11.299l-13.243,70.478
				c-0.094,0.555-0.094,1.111,0.092,1.668c-0.092,0.646-0.186,1.295-0.186,1.852c0,7.41,6.02,13.521,13.522,13.521
				c6.482,0,12.131-4.631,13.244-11.113l8.333-52.327l-0.092,166.887c0,7.408,6.02,13.52,13.522,13.52
				c7.409,0,13.521-6.02,13.521-13.52V259.52h3.241v82.611c0,7.408,6.021,13.52,13.522,13.52c7.408,0,13.521-6.02,13.521-13.52
				l-0.092-166.887l8.335,52.417c1.203,6.393,6.761,11.023,13.242,11.023c7.41,0,13.521-6.02,13.521-13.521
				C139.71,224.606,139.71,223.958,139.616,223.311z"/>
		</g>
		<path fill="#65ADB1" d="M55.712,11.136c16.02,10.835,20.28,32.414,9.63,48.065c-4.167,6.112-10.002,10.465-16.485,12.781l0,0
			l-1.296,8.521l-7.964-6.577c-7.686,0.556-15.558-1.389-22.504-6.02C1.162,57.071-3.19,35.493,7.46,19.842
			C18.111,4.191,39.689,0.301,55.712,11.136z"/>
	</g>
</g>
<g id="Capa_4" display="none">
	<g display="inline">
		<path opacity="0.8" fill="#DA977A" enable-background="new    " d="M62.108,13.609C79.351,25.366,84.053,48.682,72.492,65.63
			c-4.505,6.662-10.776,11.365-17.829,13.912l0,0l-1.372,9.308l-8.622-7.152c-8.327,0.588-16.85-1.47-24.296-6.564
			C3.13,63.376-1.572,40.061,9.989,23.111C21.451,6.065,44.866,1.853,62.108,13.609z"/>
		<defs>
			<filter id="Adobe_OpacityMaskFilter" filterUnits="userSpaceOnUse" x="21.941" y="302.616" width="118.543" height="12.739">
				<feColorMatrix  type="matrix" values="1 0 0 0 0  0 1 0 0 0  0 0 1 0 0  0 0 0 1 0"/>
			</filter>
		</defs>
		<mask maskUnits="userSpaceOnUse" x="21.941" y="302.616" width="118.543" height="12.739" id="SVGID_1_">
			<g filter="url(#Adobe_OpacityMaskFilter)">
				
					<radialGradient id="SVGID_8_" cx="196.9678" cy="-1158.5503" r="114.3783" gradientTransform="matrix(0.5178 0 0 -0.056 -20.7778 244.1253)" gradientUnits="userSpaceOnUse">
					<stop  offset="0" style="stop-color:#FFFFFF"/>
					<stop  offset="1" style="stop-color:#14140F"/>
				</radialGradient>
				<path fill="url(#SVGID_8_)" d="M140.484,308.987c0,3.526-26.551,6.368-59.271,6.368c-32.723,0-59.271-2.842-59.271-6.368
					c0-3.527,26.549-6.369,59.271-6.369C113.934,302.522,140.484,305.459,140.484,308.987z"/>
			</g>
		</mask>
		
			<linearGradient id="SVGID_9_" gradientUnits="userSpaceOnUse" x1="318.8877" y1="468.6909" x2="270.4296" y2="113.8514" gradientTransform="matrix(0.6267 0 0 -0.6267 -87.1323 371.9901)">
			<stop  offset="0.0538" style="stop-color:#86786D"/>
			<stop  offset="0.6962" style="stop-color:#5E4B3D"/>
			<stop  offset="1" style="stop-color:#361F12"/>
		</linearGradient>
		<path opacity="0.33" mask="url(#SVGID_1_)" fill="url(#SVGID_9_)" enable-background="new    " d="M140.484,308.987
			c0,3.526-26.551,6.368-59.271,6.368c-32.723,0-59.271-2.842-59.271-6.368c0-3.527,26.549-6.369,59.271-6.369
			C113.934,302.522,140.484,305.459,140.484,308.987z"/>
		<g opacity="0.9">
			<g>
				
					<linearGradient id="SVGID_10_" gradientUnits="userSpaceOnUse" x1="277.8477" y1="458.689" x2="201.252" y2="92.9042" gradientTransform="matrix(0.6267 0 0 -0.6267 -87.1323 371.9901)">
					<stop  offset="0.1452" style="stop-color:#D17953"/>
					<stop  offset="0.5215" style="stop-color:#CB5F36"/>
					<stop  offset="0.8226" style="stop-color:#AD481D"/>
				</linearGradient>
				<path fill="url(#SVGID_10_)" d="M81.213,134.796c12.44,0,22.631-10.189,22.631-22.63c0-12.442-10.19-22.631-22.631-22.631
					c-12.443,0-22.632,10.189-22.632,22.631C58.581,124.707,68.77,134.796,81.213,134.796z"/>
				
					<linearGradient id="SVGID_11_" gradientUnits="userSpaceOnUse" x1="307.0967" y1="452.5659" x2="230.5005" y2="86.7788" gradientTransform="matrix(0.6267 0 0 -0.6267 -87.1323 371.9901)">
					<stop  offset="0.1452" style="stop-color:#D17953"/>
					<stop  offset="0.5215" style="stop-color:#CB5F36"/>
					<stop  offset="0.8226" style="stop-color:#AD481D"/>
				</linearGradient>
				<path fill="url(#SVGID_11_)" d="M130.884,205.432c0.098-0.391,0.196-0.882,0.098-1.271l-10.386-54.962
					c-0.881-5.193-5.193-8.915-10.384-8.915H52.213c-5.192,0-9.601,3.722-10.385,8.816l-10.385,55.061
					c-0.098,0.488-0.098,0.881,0.098,1.271c-0.098,0.491-0.098,0.98-0.098,1.469c0,5.782,4.703,10.581,10.581,10.581
					c5.095,0,9.405-3.622,10.384-8.717l6.565-40.855l-0.196,130.495c0,5.782,4.703,10.582,10.581,10.582
					c5.78,0,10.58-4.701,10.58-10.582v-64.561h2.547v64.561c0,5.782,4.703,10.582,10.581,10.582c5.781,0,10.581-4.701,10.581-10.582
					L103.55,167.91l6.563,40.953c0.882,4.997,5.289,8.619,10.386,8.619c5.779,0,10.581-4.701,10.581-10.581
					C130.981,206.413,130.981,206.022,130.884,205.432z"/>
			</g>
		</g>
	</g>
</g>
<g id="Capa_5" display="none">
	<g display="inline">
		<path opacity="0.7" fill="#BBBBBB" enable-background="new    " d="M82.379,10.946C65.784,21.811,60.887,43.78,71.634,60.137
			c4.178,6.329,10.029,10.984,16.713,13.492l0,0l1.197,8.835l8.354-6.566c7.882,0.716,16.002-1.076,23.165-5.732
			c16.595-10.864,21.492-32.833,10.746-49.189C121.063,4.499,98.977,0.082,82.379,10.946z"/>
		
			<linearGradient id="SVGID_12_" gradientUnits="userSpaceOnUse" x1="266.2041" y1="491.0112" x2="226.1984" y2="325.2733" gradientTransform="matrix(0.6267 0 0 -0.6267 -87.1323 371.9901)">
			<stop  offset="0.1559" style="stop-color:#949594"/>
			<stop  offset="0.5806" style="stop-color:#717070"/>
			<stop  offset="0.9892" style="stop-color:#4C4C4C"/>
		</linearGradient>
		<path fill="url(#SVGID_12_)" d="M69.604,134.641c15.763,0,28.537-12.775,28.537-28.536S85.366,77.569,69.604,77.569
			c-15.759,0-28.534,12.775-28.534,28.536S53.845,134.641,69.604,134.641z"/>
		
			<linearGradient id="SVGID_13_" gradientUnits="userSpaceOnUse" x1="290.8467" y1="462.9194" x2="212.7399" y2="24.759" gradientTransform="matrix(0.6267 0 0 -0.6267 -87.1323 371.9901)">
			<stop  offset="0.1559" style="stop-color:#949594"/>
			<stop  offset="0.5806" style="stop-color:#717070"/>
			<stop  offset="0.9892" style="stop-color:#4C4C4C"/>
		</linearGradient>
		<path fill="url(#SVGID_13_)" d="M132.285,223.83c0.119-0.479,0.242-1.077,0.119-1.671l-13.13-69.371
			c-1.078-6.447-6.568-11.221-13.135-11.221H33.068c-6.567,0-12.06,4.656-13.131,11.102L6.803,222.159
			c-0.12,0.594-0.12,1.071,0.117,1.671c-0.117,0.597-0.117,1.194-0.117,1.909c0,7.404,5.969,13.374,13.371,13.374
			c6.451,0,11.943-4.538,13.134-10.986l8.238-51.579l-0.24,164.528c0,7.402,5.972,13.372,13.374,13.372
			c7.402,0,13.371-5.97,13.371-13.372v-81.548h3.226v81.548c0,7.402,5.969,13.372,13.371,13.372s13.374-5.97,13.374-13.372
			l-0.123-164.647l8.241,51.698c1.194,6.328,6.683,10.863,13.135,10.863c7.401,0,13.372-5.967,13.372-13.369
			C132.404,225.024,132.285,224.426,132.285,223.83z"/>
	</g>
</g>
<g id="Capa_6" display="none">
	<g display="inline">
		<g>
			
				<linearGradient id="SVGID_14_" gradientUnits="userSpaceOnUse" x1="260.8418" y1="476.2505" x2="191.8088" y2="110.0742" gradientTransform="matrix(0.6267 0 0 -0.6267 -87.1323 371.9901)">
				<stop  offset="0" style="stop-color:#ECC76B"/>
				<stop  offset="0.2097" style="stop-color:#E7B743"/>
				<stop  offset="0.7016" style="stop-color:#E1A731"/>
				<stop  offset="1" style="stop-color:#B88318"/>
			</linearGradient>
			<path fill="url(#SVGID_14_)" d="M71.724,127.377c16.175,0,29.344-13.167,29.344-29.345c0-16.177-13.169-29.344-29.344-29.344
				c-16.18,0-29.346,13.167-29.346,29.344C42.283,114.115,55.45,127.377,71.724,127.377z"/>
			
				<linearGradient id="SVGID_15_" gradientUnits="userSpaceOnUse" x1="296.3506" y1="469.5571" x2="227.319" y2="103.3881" gradientTransform="matrix(0.6267 0 0 -0.6267 -87.1323 371.9901)">
				<stop  offset="0" style="stop-color:#ECC76B"/>
				<stop  offset="0.2097" style="stop-color:#E7B743"/>
				<stop  offset="0.7016" style="stop-color:#E1A731"/>
				<stop  offset="1" style="stop-color:#B88318"/>
			</linearGradient>
			<path fill="url(#SVGID_15_)" d="M136.24,219.17c0.188-0.563,0.188-1.128,0.096-1.692l-13.451-71.479
				c-1.127-6.677-6.77-11.569-13.544-11.569H34.102c-6.772,0-12.417,4.892-13.45,11.475L7.203,217.478
				c-0.094,0.564-0.094,1.129,0.092,1.692c-0.092,0.658-0.187,1.317-0.187,1.882c0,7.523,6.114,13.731,13.73,13.731
				c6.585,0,12.322-4.702,13.452-11.286l8.465-53.139l-0.094,169.48c0,7.524,6.111,13.732,13.732,13.732
				c7.616,0,13.73-6.114,13.73-13.732v-83.893h3.291v83.893c0,7.524,6.114,13.732,13.732,13.732c7.523,0,13.729-6.114,13.729-13.732
				l-0.092-169.48l8.465,53.232c1.222,6.49,6.866,11.192,13.447,11.192c7.526,0,13.732-6.113,13.732-13.731
				C136.336,220.394,136.336,219.735,136.24,219.17z"/>
		</g>
		<path fill="#E1A731" d="M90.155,6.238c-14.576,6.114-21.442,22.761-15.426,37.151c2.354,5.643,6.303,10.063,11.193,13.073l0,0
			l-0.375,7.147l7.524-3.95c6.02,1.693,12.696,1.505,18.997-1.129c14.578-6.113,21.444-22.76,15.425-37.15
			C121.381,6.991,104.733,0.218,90.155,6.238z"/>
	</g>
</g>
<g id="Capa_7">
	<g>
		
			<linearGradient id="SVGID_16_" gradientUnits="userSpaceOnUse" x1="227.0332" y1="459.7974" x2="165.2741" y2="165.364" gradientTransform="matrix(0.6267 0 0 -0.6267 -87.1323 371.9901)">
			<stop  offset="0.1425" style="stop-color:#7497BF"/>
			<stop  offset="0.4839" style="stop-color:#4978AC"/>
			<stop  offset="0.7419" style="stop-color:#205A9B"/>
			<stop  offset="1" style="stop-color:#194577"/>
		</linearGradient>
		<path fill="url(#SVGID_16_)" d="M51.147,123.719c11.432,0,20.795-9.361,20.795-20.792c0-11.433-9.363-20.793-20.795-20.793
			c-11.432,0-20.792,9.36-20.792,20.793C30.354,114.448,39.625,123.719,51.147,123.719z"/>
		
			<linearGradient id="SVGID_17_" gradientUnits="userSpaceOnUse" x1="254.1426" y1="454.1089" x2="192.3837" y2="159.6771" gradientTransform="matrix(0.6267 0 0 -0.6267 -87.1323 371.9901)">
			<stop  offset="0.1425" style="stop-color:#7497BF"/>
			<stop  offset="0.4839" style="stop-color:#4978AC"/>
			<stop  offset="0.7419" style="stop-color:#205A9B"/>
			<stop  offset="1" style="stop-color:#194577"/>
		</linearGradient>
		<path fill="url(#SVGID_17_)" d="M96.785,188.62c0.09-0.359,0.179-0.811,0.09-1.17l-9.542-50.498
			c-0.811-4.771-4.77-8.192-9.541-8.192H24.596c-4.773,0-8.823,3.42-9.543,8.102L5.511,187.45c-0.09,0.449-0.09,0.811,0.088,1.17
			c-0.088,0.449-0.088,0.9-0.088,1.352c0,5.311,4.321,9.719,9.721,9.719c4.681,0,8.731-3.328,9.542-8.012l6.032-37.534
			l-0.09,119.897c0,5.313,4.319,9.723,9.722,9.723c5.31,0,9.722-4.32,9.722-9.723v-59.318h2.339v59.318
			c0,5.313,4.32,9.723,9.722,9.723c5.31,0,9.722-4.32,9.722-9.723l-0.09-119.897l6.03,37.625c0.809,4.592,4.859,7.92,9.54,7.92
			c5.312,0,9.722-4.318,9.722-9.719C96.875,189.52,96.875,189.069,96.785,188.62z"/>
	</g>
	<path opacity="0.7" fill="#7497BF" enable-background="new    " d="M82.381,10.753C62.04,19.214,52.408,42.438,60.779,62.6
		c3.24,7.832,8.823,14.042,15.573,18.273l0,0l-0.449,9.901l10.439-5.491c8.462,2.431,17.734,2.07,26.465-1.621
		c20.345-8.461,29.976-31.685,21.604-51.848C125.95,11.652,102.635,2.201,82.381,10.753z"/>
</g>
</svg>
