<?xml version="1.0" encoding="utf-8"?>
<!-- Generator: Adobe Illustrator 16.0.0, SVG Export Plug-In . SVG Version: 6.00 Build 0)  -->
<!DOCTYPE svg PUBLIC "-//W3C//DTD SVG 1.1//EN" "http://www.w3.org/Graphics/SVG/1.1/DTD/svg11.dtd">
<svg version="1.1" id="Capa_1" xmlns="http://www.w3.org/2000/svg" xmlns:xlink="http://www.w3.org/1999/xlink" x="0px" y="0px"
	 width="300px" height="300px" viewBox="0 0 300 300" enable-background="new 0 0 300 300" xml:space="preserve">
<path id="XMLID_240_" fill="#FFFFFF" stroke="#6D6968" stroke-miterlimit="10" d="M240.27,248.831l-0.043-0.213l-0.039-0.212
	l-1.479-7.689L197.504,26.368L20.947,60.309L63.63,282.344l0.042,0.217l0.042,0.213c1.458,7.581,8.852,12.592,16.431,11.135
	l145.867-28.043l3.122-0.601l27.568-5.3C249.121,261.423,241.727,256.412,240.27,248.831z"/>
<g id="XMLID_239_">
	
		<rect id="XMLID_238_" x="45.649" y="125.257" transform="matrix(0.982 -0.1888 0.1888 0.982 -21.7581 25.7991)" fill="#4D5464" width="157.804" height="3.719"/>
	
		<rect id="XMLID_241_" x="48.738" y="141.331" transform="matrix(0.982 -0.1888 0.1888 0.982 -24.7361 26.6704)" fill="#4D5464" width="157.803" height="3.717"/>
	
		<rect id="XMLID_244_" x="51.829" y="157.406" transform="matrix(0.982 -0.1888 0.1888 0.982 -27.7133 27.5406)" fill="#4D5464" width="157.802" height="3.716"/>
	
		<rect id="XMLID_243_" x="54.92" y="173.478" transform="matrix(0.982 -0.1888 0.1888 0.982 -30.6946 28.4158)" fill="#4D5464" width="157.8" height="3.719"/>
	
		<rect id="XMLID_246_" x="58.008" y="189.554" transform="matrix(0.982 -0.1888 0.1888 0.982 -33.673 29.2875)" fill="#4D5464" width="157.803" height="3.716"/>
	
		<rect id="XMLID_245_" x="61.1" y="205.627" transform="matrix(0.982 -0.1888 0.1888 0.982 -36.6528 30.1606)" fill="#4D5464" width="157.8" height="3.72"/>
	
		<rect id="XMLID_248_" x="64.189" y="221.705" transform="matrix(0.982 -0.1888 0.1888 0.982 -39.6313 31.0326)" fill="#4D5464" width="157.802" height="3.715"/>
	
		<rect id="XMLID_247_" x="67.28" y="237.778" transform="matrix(0.982 -0.1888 0.1888 0.982 -42.6107 31.9052)" fill="#4D5464" width="157.8" height="3.715"/>
</g>
<text id="XMLID_249_" transform="matrix(0.982 -0.1888 0.1888 0.982 42.3672 117.5518)" fill="#716F71" font-family="'Quicksand-Regular'" font-size="34.859">MI BLOG</text>
<g id="XMLID_194_">
	<g id="XMLID_68_">
		<g id="XMLID_69_">
			
				<rect id="XMLID_70_" x="209.898" y="113.339" transform="matrix(0.5604 -0.8282 0.8282 0.5604 -58.521 256.819)" fill="#B29228" width="5.516" height="140.391"/>
			
				<rect id="XMLID_71_" x="216.087" y="104.209" transform="matrix(0.5612 -0.8277 0.8277 0.5612 -48.32 257.6677)" fill="#B29228" width="5.515" height="140.39"/>
			
				<rect id="XMLID_72_" x="212.993" y="108.775" transform="matrix(0.5612 -0.8277 0.8277 0.5612 -53.4593 257.0978)" fill="#CAA22F" width="5.516" height="140.387"/>
		</g>
		<polygon id="XMLID_74_" fill="#ECE9DD" points="162.278,132.748 144.884,127.888 142.034,132.091 152.997,146.445 		"/>
		<polygon id="XMLID_88_" fill="#535148" points="137.176,125.734 142.034,132.091 144.884,127.888 		"/>
	</g>
	
		<rect id="XMLID_47_" x="269.959" y="216.028" transform="matrix(0.561 -0.8278 0.8278 0.561 -61.0504 327.4845)" fill="#999A9C" width="16.545" height="10.547"/>
	<path id="XMLID_196_" fill="#BB6498" d="M289.449,228.898c2.56-3.781,1.573-8.926-2.211-11.488l-9.281,13.696
		C281.741,233.673,286.884,232.684,289.449,228.898z"/>
	
		<rect id="XMLID_193_" x="272.379" y="220.589" transform="matrix(-0.5611 0.8278 -0.8278 -0.5611 616.469 124.8385)" fill="#828386" width="5.514" height="10.552"/>
	
		<rect id="XMLID_195_" x="278.567" y="211.462" transform="matrix(-0.5607 0.828 -0.828 -0.5607 618.5245 105.3136)" fill="#828386" width="5.516" height="10.549"/>
</g>
<path id="XMLID_101_" fill="#BB534D" d="M201.008,16.786l-20.091,29.652c-2.472,3.647-5.982,4.321-9.632,1.85
	c-1.641-1.112-2.795-2.496-3.436-4.108c-0.742-1.872-0.375-3.986,1.069-6.111l17.234-25.443c0.283-0.414,0.848-0.524,1.264-0.242
	c0.416,0.282,0.524,0.848,0.241,1.262l-17.233,25.443c-1.106,1.627-1.402,3.116-0.887,4.42c0.503,1.269,1.435,2.37,2.77,3.274
	c2.85,1.931,5.174,1.482,7.104-1.366l20.09-29.651c1.106-1.637,1.003-4.126-1.348-5.719c-1.872-1.269-3.504-1.716-7.472,4.138
	l-13.456,19.863c-2.485,3.67-0.983,4.691-0.416,5.074c1.554,1.055,3.236,0.49,4.616-1.544l14.604-21.555
	c0.28-0.414,0.847-0.524,1.263-0.242c0.415,0.281,0.525,0.848,0.242,1.262l-14.604,21.556c-2.354,3.477-5.319,3.265-7.144,2.029
	c-1.632-1.106-2.967-3.322-0.067-7.6l13.455-19.863c3.269-4.823,6.08-7.278,10-4.623C202.478,10.778,202.584,14.457,201.008,16.786z
	"/>
</svg>
