<?xml version="1.0" encoding="utf-8"?>
<!-- Generator: Adobe Illustrator 18.0.0, SVG Export Plug-In . SVG Version: 6.00 Build 0)  -->
<!DOCTYPE svg PUBLIC "-//W3C//DTD SVG 1.1//EN" "http://www.w3.org/Graphics/SVG/1.1/DTD/svg11.dtd">
<svg version="1.1" id="Capa_1" xmlns="http://www.w3.org/2000/svg" xmlns:xlink="http://www.w3.org/1999/xlink" x="0px" y="0px"
	 viewBox="0 0 92.8 98.6" enable-background="new 0 0 92.8 98.6" xml:space="preserve">
<g id="eyeglass_1_">
	<g opacity="0.3">
		<path fill="#29826B" d="M81.8,44.5c-1.4-0.1-12.3,0.9-20,3.3c7.8-5.5,14.1-9.9,14.1-9.9l-2.1-3.2c0,0-16.8,12.3-29.2,21.8
			c-13.6,7.7-31.5,18.3-31.5,18.3l2.1,3.2c0,0,6.6-4.1,14.7-9.1C24.6,75.1,19.5,84.7,19,86c-0.5,1.6-0.7,2.7,0.1,3.5
			c0.8,0.8,3.6,0.6,4.2-2.2c0.6-2.8,3.6-14.4,11.3-20.1c2.2-1.6,6.5-4.7,11.6-8.3c5.3-3.2,9.8-6,12.2-7.4c8.3-4.9,20.1-3.1,22.9-2.5
			c2.8,0.5,4.1-1.9,3.7-3C84.6,44.9,83.5,44.7,81.8,44.5z"/>
		<path opacity="0.7" fill-rule="evenodd" clip-rule="evenodd" fill="#29826B" d="M36.3,81.2c-6.5,4.1-12.9,5.3-16.8-0.1
			c-7.2-10-1.1-11.2,5.9-16.2c8.6-6.2,14.8-4,17.8,0.5C46.1,69.7,47.4,74.3,36.3,81.2z"/>
		<path opacity="0.7" fill-rule="evenodd" clip-rule="evenodd" fill="#29826B" d="M77.1,43.2c3.4,5.6-0.2,11.1-6.5,15.4
			c-10.7,7.4-14.5,4.5-17.2,0.2c-3-4.6-2.5-11.1,6.5-16.6C67.3,37.8,70.8,32.7,77.1,43.2z"/>
		<path fill-rule="evenodd" clip-rule="evenodd" fill="#29826B" d="M74.1,32.4c0,0-1.3,1-5.9,3c-4.6,2-10.6,6.7-13.2,8.4
			c-2.5,1.7-5.9,5.2-7,10c-2.2,1.5-3.6,2.4-3.6,2.4s-1.4,0.9-3.6,2.4c-4.8-0.8-9.4,0.9-11.9,2.6c-2.6,1.7-9.3,5.3-12.9,8.8
			c-3.6,3.5-5.1,4.2-5.1,4.2c-0.4,0.3-0.5,0.8-0.2,1.2l1,1.4c0.3,0.4,0.8,0.5,1.2,0.2c0.7-0.3,1.7,0,2.2,0.6l4.5,6
			c3.4,4.2,9.4,2.5,9.4,2.5C38.4,83.8,45,75.9,45,75.9c4.4-4.5,0.5-10.9,0.2-11.3c-1.7-2.9,0.1-3.9,0.1-3.9l1.4-0.9l1.4-0.9
			c0,0,1.6-1.3,3.6,1.4c0.3,0.4,4.6,6.5,10.5,4.2c0,0,9.9-3,15.8-10.8c0,0,4-4.9,1.5-9.6l-3.8-6.5c-0.5-0.7-0.2-1.7,0.3-2.2
			c0.4-0.3,0.5-0.8,0.2-1.2l-1-1.4C75,32.3,74.5,32.2,74.1,32.4z M36.3,81.2c-6.5,4.1-12.9,5.3-16.8-0.1c-7.2-10-1.1-11.2,5.9-16.2
			c8.6-6.2,14.8-4,17.8,0.5C46.1,69.7,47.4,74.3,36.3,81.2z M77.1,43.2c3.4,5.6-0.2,11.1-6.5,15.4c-10.7,7.4-14.5,4.5-17.2,0.2
			c-3-4.6-2.5-11.1,6.5-16.6C67.3,37.8,70.8,32.7,77.1,43.2z"/>
	</g>
	<g>
		<g>
			<g id="eyeglass_12_">
				<g>
					<path fill="#DD8C4A" d="M78.8,44.5c-1.4-0.1-12.3,0.9-20,3.3c7.8-5.5,14.1-9.9,14.1-9.9l-2.1-3.2c0,0-16.8,12.3-29.2,21.8
						c-13.6,7.7-31.5,18.3-31.5,18.3l2.1,3.2c0,0,6.6-4.1,14.7-9.1C21.6,75.1,16.5,84.7,16,86c-0.5,1.6-0.7,2.7,0.1,3.5
						c0.8,0.8,3.6,0.6,4.2-2.2c0.6-2.8,3.6-14.4,11.3-20.1c2.2-1.6,6.5-4.7,11.6-8.3c5.3-3.2,9.8-6,12.2-7.4
						c8.3-4.9,20.1-3.1,22.9-2.5c2.8,0.5,4.1-1.9,3.7-3C81.6,44.9,80.5,44.7,78.8,44.5z"/>
				</g>
				<path opacity="0.7" fill-rule="evenodd" clip-rule="evenodd" fill="#FFFFFF" d="M33.3,81.2c-6.5,4.1-12.9,5.3-16.8-0.1
					C9.4,71.2,15.5,70,22.5,65c8.6-6.2,14.8-4,17.8,0.5C43.1,69.7,44.4,74.3,33.3,81.2z"/>
				<path opacity="0.7" fill-rule="evenodd" clip-rule="evenodd" fill="#FFFFFF" d="M74.1,43.2c3.4,5.6-0.2,11.1-6.5,15.4
					c-10.7,7.4-14.5,4.5-17.2,0.2c-3-4.6-2.5-11.1,6.5-16.6C64.3,37.8,67.8,32.7,74.1,43.2z"/>
				<g>
					<g>
						<path fill-rule="evenodd" clip-rule="evenodd" fill="#FFBD82" d="M71.1,32.4c0,0-1.3,1-5.9,3c-4.6,2-10.6,6.7-13.2,8.4
							c-2.5,1.7-5.9,5.2-7,10c-2.2,1.5-3.6,2.4-3.6,2.4s-1.4,0.9-3.6,2.4c-4.8-0.8-9.4,0.9-11.9,2.6c-2.6,1.7-9.3,5.3-12.9,8.8
							c-3.6,3.5-5.1,4.2-5.1,4.2c-0.4,0.3-0.5,0.8-0.2,1.2l1,1.4c0.3,0.4,0.8,0.5,1.2,0.2c0.7-0.3,1.7,0,2.2,0.6l4.5,6
							c3.4,4.2,9.4,2.5,9.4,2.5C35.4,83.8,42,75.9,42,75.9c4.4-4.5,0.5-10.9,0.2-11.3c-1.7-2.9,0.1-3.9,0.1-3.9l1.4-0.9l1.4-0.9
							c0,0,1.6-1.3,3.6,1.4c0.3,0.4,4.6,6.5,10.5,4.2c0,0,9.9-3,15.8-10.8c0,0,4-4.9,1.5-9.6l-3.8-6.5c-0.5-0.7-0.2-1.7,0.3-2.2
							c0.4-0.3,0.5-0.8,0.2-1.2l-1-1.4C72,32.3,71.5,32.2,71.1,32.4z M33.3,81.2c-6.5,4.1-12.9,5.3-16.8-0.1
							C9.4,71.2,15.5,70,22.5,65c8.6-6.2,14.8-4,17.8,0.5C43.1,69.7,44.4,74.3,33.3,81.2z M74.1,43.2c3.4,5.6-0.2,11.1-6.5,15.4
							c-10.7,7.4-14.5,4.5-17.2,0.2c-3-4.6-2.5-11.1,6.5-16.6C64.3,37.8,67.8,32.7,74.1,43.2z"/>
					</g>
				</g>
			</g>
		</g>
	</g>
</g>
<g id="rubber">
	<g opacity="0.3">
		<path fill="#29826B" d="M15.7,13.8c-4.5,5.5,1.2,9.2,1.2,9.2l8.1-10C25,12.9,20.2,8.2,15.7,13.8z"/>
		
			<rect x="21.3" y="13.9" transform="matrix(-0.6284 0.7779 -0.7779 -0.6284 63.6018 16.6711)" fill="#29826B" width="13" height="19.3"/>
	</g>
	<g>
		<g>
			<path fill="#FFFFFF" d="M8.7,8.8C4.3,14.3,9.9,18,9.9,18l8.1-10C18,7.9,13.2,3.2,8.7,8.8z"/>
			<g>
				
					<rect x="14.3" y="8.9" transform="matrix(-0.6284 0.7779 -0.7779 -0.6284 48.3136 13.9743)" fill="#567882" width="13" height="19.3"/>
			</g>
		</g>
	</g>
</g>
</svg>
