<?xml version="1.0" encoding="utf-8"?>
<!-- Generator: Adobe Illustrator 18.0.0, SVG Export Plug-In . SVG Version: 6.00 Build 0)  -->
<!DOCTYPE svg PUBLIC "-//W3C//DTD SVG 1.1//EN" "http://www.w3.org/Graphics/SVG/1.1/DTD/svg11.dtd">
<svg version="1.1" id="Capa_1" xmlns="http://www.w3.org/2000/svg" xmlns:xlink="http://www.w3.org/1999/xlink" x="0px" y="0px"
	 viewBox="0 0 140.6 140.6" enable-background="new 0 0 140.6 140.6" xml:space="preserve">
<g>
	<g opacity="0">
		<polygon fill="#B2DAD2" points="53.4,22 54.4,19 57.5,20 56.5,23.1 		"/>
		<polygon fill="#B2DAD2" points="25.5,106 50.8,28.6 54.7,30 29.4,107.3 		"/>
		<polygon fill="#B2DAD2" points="25.5,106 29.4,107.3 24.2,116.7 		"/>
		<path fill="#B2DAD2" d="M26.3,113c-0.5-0.3-1-0.5-1.6-0.6l-0.5,4.4L26.3,113z"/>
		<path fill="#B2DAD2" d="M50.6,29.2l2.5-7.6c0.1-0.3,0.4-0.4,0.7-0.3l2.9,1c0.3,0.1,0.4,0.4,0.3,0.7l-2.5,7.6L50.6,29.2z"/>
		<path fill="#B2DAD2" d="M55.8,19.9c-0.9-0.3-1.5-0.7-1.4-1c0.1-0.3,0.9-0.2,1.7,0.1c0.9,0.3,1.5,0.7,1.4,1
			C57.4,20.2,56.7,20.2,55.8,19.9z"/>
		<path opacity="0.1" fill="#B2DAD2" d="M56.1,19C56.1,19,56.1,19,56.1,19c-0.9-0.3-1.7-0.3-1.8-0.1c0,0,0,0,0,0l0,0l-0.7,2.3
			c-0.2,0-0.5,0.1-0.5,0.4l-2.3,7l-0.2,0.6L25.5,106l-1.2,10.5L56.1,19z"/>
	</g>
	<g>
		<g>
			<polygon fill="#BC555A" points="50.4,18 51.4,15 54.5,16 53.5,19.1 			"/>
			<polygon fill="#ECB858" points="22.5,102 47.8,24.6 51.7,26 26.4,103.3 			"/>
			<polygon fill="#CDB49C" points="22.5,102 26.4,103.3 21.2,112.7 			"/>
			<path fill="#54514E" d="M23.3,109c-0.5-0.3-1-0.5-1.6-0.6l-0.5,4.4L23.3,109z"/>
			<path fill="#DBDBDB" d="M47.6,25.2l2.5-7.6c0.1-0.3,0.4-0.4,0.7-0.3l2.9,1c0.3,0.1,0.4,0.4,0.3,0.7l-2.5,7.6L47.6,25.2z"/>
			<path fill="#BC555A" d="M52.8,15.9c-0.9-0.3-1.5-0.7-1.4-1c0.1-0.3,0.9-0.2,1.7,0.1c0.9,0.3,1.5,0.7,1.4,1
				C54.4,16.2,53.7,16.2,52.8,15.9z"/>
			<path opacity="0.1" d="M53.1,15C53.1,15,53.1,15,53.1,15c-0.9-0.3-1.7-0.3-1.8-0.1c0,0,0,0,0,0l0,0l-0.7,2.3
				c-0.2,0-0.5,0.1-0.5,0.4l-2.3,7l-0.2,0.6L22.5,102l-1.2,10.5L53.1,15z"/>
		</g>
	</g>
</g>
<g>
	<g opacity="0">
		<path fill="#B2DAD2" d="M111.9,134.4c-0.8,2.5-3.5,3.9-6,3.1l-60.1-20.3c-2.5-0.8-3.8-3.6-3-6.1l24.9-76c0.8-2.5,3.5-3.9,6-3.1
			l60.1,20.3c2.5,0.8,3.8,3.6,3,6.1L111.9,134.4z"/>
		<polygon fill="#B2DAD2" points="102.2,130.3 48.5,112.2 74.7,32.3 128.4,50.4 		"/>
		<polygon fill="#B2DAD2" points="108.9,128.5 55.2,110.4 80.2,34.1 133.9,52.2 		"/>
		<path opacity="0.2" fill="#B2DAD2" d="M78.5,40.6c-0.6,1.8-2.5,2.7-4.2,2.1c-1.7-0.6-2.7-2.5-2.1-4.3c0.6-1.8,2.5-2.7,4.2-2.1
			C78.1,36.9,79,38.9,78.5,40.6z"/>
		<path opacity="0.2" fill="#B2DAD2" d="M86.2,43.2C85.6,45,83.7,46,82,45.4c-1.7-0.6-2.7-2.5-2.1-4.3c0.6-1.8,2.5-2.7,4.2-2.1
			C85.8,39.5,86.8,41.5,86.2,43.2z"/>
		<path opacity="0.2" fill="#B2DAD2" d="M93.9,45.8c-0.6,1.8-2.5,2.7-4.2,2.1c-1.7-0.6-2.7-2.5-2.1-4.3c0.6-1.8,2.5-2.7,4.2-2.1
			C93.5,42.1,94.5,44,93.9,45.8z"/>
		<path opacity="0.2" fill="#B2DAD2" d="M101.6,48.4c-0.6,1.8-2.5,2.7-4.2,2.1c-1.7-0.6-2.7-2.5-2.1-4.3c0.6-1.8,2.5-2.7,4.2-2.1
			C101.2,44.7,102.2,46.6,101.6,48.4z"/>
		<path opacity="0.2" fill="#B2DAD2" d="M109.3,51c-0.6,1.8-2.5,2.7-4.2,2.1c-1.7-0.6-2.7-2.5-2.1-4.3c0.6-1.8,2.5-2.7,4.2-2.1
			C108.9,47.3,109.9,49.2,109.3,51z"/>
		<path opacity="0.2" fill="#B2DAD2" d="M117,53.6c-0.6,1.8-2.5,2.7-4.2,2.1c-1.7-0.6-2.7-2.5-2.1-4.3c0.6-1.8,2.5-2.7,4.2-2.1
			C116.6,49.9,117.6,51.8,117,53.6z"/>
		<path opacity="0.2" fill="#B2DAD2" d="M124.7,56.2c-0.6,1.8-2.5,2.7-4.2,2.1c-1.7-0.6-2.7-2.5-2.1-4.3c0.6-1.8,2.5-2.7,4.2-2.1
			C124.4,52.5,125.3,54.4,124.7,56.2z"/>
		<path opacity="0.2" fill="#B2DAD2" d="M132.4,58.8c-0.6,1.8-2.5,2.7-4.2,2.1c-1.7-0.6-2.7-2.5-2.1-4.3c0.6-1.8,2.5-2.7,4.2-2.1
			C132.1,55.1,133,57,132.4,58.8z"/>
		
			<line fill="none" stroke="#B2DAD2" stroke-width="8.7644" stroke-linecap="round" stroke-miterlimit="10" x1="78.3" y1="30.4" x2="75.7" y2="38.4"/>
		
			<line fill="none" stroke="#B2DAD2" stroke-width="8.7644" stroke-linecap="round" stroke-miterlimit="10" x1="109.1" y1="40.8" x2="106.5" y2="48.8"/>
		
			<line fill="none" stroke="#B2DAD2" stroke-width="8.7644" stroke-linecap="round" stroke-miterlimit="10" x1="116.9" y1="43.4" x2="114.2" y2="51.4"/>
		
			<line fill="none" stroke="#B2DAD2" stroke-width="8.7644" stroke-linecap="round" stroke-miterlimit="10" x1="124.6" y1="46" x2="121.9" y2="54"/>
		
			<line fill="none" stroke="#B2DAD2" stroke-width="8.7644" stroke-linecap="round" stroke-miterlimit="10" x1="132.3" y1="48.6" x2="129.6" y2="56.6"/>
		
			<line fill="none" stroke="#B2DAD2" stroke-width="8.7644" stroke-linecap="round" stroke-miterlimit="10" x1="101.4" y1="38.2" x2="98.8" y2="46.2"/>
		
			<line fill="none" stroke="#B2DAD2" stroke-width="8.7644" stroke-linecap="round" stroke-miterlimit="10" x1="93.7" y1="35.6" x2="91.1" y2="43.6"/>
		
			<line fill="none" stroke="#B2DAD2" stroke-width="8.7644" stroke-linecap="round" stroke-miterlimit="10" x1="86" y1="33" x2="83.4" y2="41"/>
		<path opacity="0.1" fill="#B2DAD2" d="M133.9,52.3L133.9,52.3L133.9,52.3l-0.3-0.1l0.9-2.8c0.4-1.3-0.3-2.6-1.5-3
			c-1.2-0.4-2.6,0.3-3,1.5l-0.9,2.8l-0.7-0.2l-2.5-0.8l0.9-2.8c0.4-1.3-0.3-2.6-1.5-3c-1.2-0.4-2.6,0.3-3,1.5l-0.9,2.8l-3.2-1.1
			l0.9-2.8c0.4-1.3-0.3-2.6-1.5-3c-1.2-0.4-2.6,0.3-3,1.5l-0.9,2.8l-3.2-1.1l0.9-2.8c0.4-1.3-0.3-2.6-1.5-3c-1.2-0.4-2.6,0.3-3,1.5
			l-0.9,2.8l-2.2-0.8l-27.9,85.2l30.1,10.1c2.5,0.8,5.2-0.5,6-3.1l24.9-76C137.6,55.8,136.3,53.1,133.9,52.3z"/>
	</g>
	<g>
		<g>
			<path fill="#767676" d="M108.9,129.4c-0.8,2.5-3.5,3.9-6,3.1l-60.1-20.3c-2.5-0.8-3.8-3.6-3-6.1l24.9-76c0.8-2.5,3.5-3.9,6-3.1
				l60.1,20.3c2.5,0.8,3.8,3.6,3,6.1L108.9,129.4z"/>
			<polygon fill="#DBDBDB" points="99.2,125.3 45.5,107.2 71.7,27.3 125.4,45.4 			"/>
			<polygon fill="#EDEDEC" points="105.9,123.5 52.2,105.4 77.2,29.1 130.9,47.2 			"/>
			<path opacity="0.2" fill="#767676" d="M75.5,35.6c-0.6,1.8-2.5,2.7-4.2,2.1c-1.7-0.6-2.7-2.5-2.1-4.3c0.6-1.8,2.5-2.7,4.2-2.1
				C75.1,31.9,76,33.9,75.5,35.6z"/>
			<path opacity="0.2" fill="#767676" d="M83.2,38.2C82.6,40,80.7,41,79,40.4c-1.7-0.6-2.7-2.5-2.1-4.3c0.6-1.8,2.5-2.7,4.2-2.1
				C82.8,34.5,83.8,36.5,83.2,38.2z"/>
			<path opacity="0.2" fill="#767676" d="M90.9,40.8c-0.6,1.8-2.5,2.7-4.2,2.1c-1.7-0.6-2.7-2.5-2.1-4.3c0.6-1.8,2.5-2.7,4.2-2.1
				C90.5,37.1,91.5,39,90.9,40.8z"/>
			<path opacity="0.2" fill="#767676" d="M98.6,43.4c-0.6,1.8-2.5,2.7-4.2,2.1c-1.7-0.6-2.7-2.5-2.1-4.3c0.6-1.8,2.5-2.7,4.2-2.1
				C98.2,39.7,99.2,41.6,98.6,43.4z"/>
			<path opacity="0.2" fill="#767676" d="M106.3,46c-0.6,1.8-2.5,2.7-4.2,2.1c-1.7-0.6-2.7-2.5-2.1-4.3c0.6-1.8,2.5-2.7,4.2-2.1
				C105.9,42.3,106.9,44.2,106.3,46z"/>
			<path opacity="0.2" fill="#767676" d="M114,48.6c-0.6,1.8-2.5,2.7-4.2,2.1c-1.7-0.6-2.7-2.5-2.1-4.3c0.6-1.8,2.5-2.7,4.2-2.1
				C113.6,44.9,114.6,46.8,114,48.6z"/>
			<path opacity="0.2" fill="#767676" d="M121.7,51.2c-0.6,1.8-2.5,2.7-4.2,2.1c-1.7-0.6-2.7-2.5-2.1-4.3c0.6-1.8,2.5-2.7,4.2-2.1
				C121.4,47.5,122.3,49.4,121.7,51.2z"/>
			<path opacity="0.2" fill="#767676" d="M129.4,53.8c-0.6,1.8-2.5,2.7-4.2,2.1c-1.7-0.6-2.7-2.5-2.1-4.3c0.6-1.8,2.5-2.7,4.2-2.1
				C129.1,50.1,130,52,129.4,53.8z"/>
			
				<line fill="none" stroke="#C76852" stroke-width="8.7644" stroke-linecap="round" stroke-miterlimit="10" x1="75.3" y1="25.4" x2="72.7" y2="33.4"/>
			
				<line fill="none" stroke="#C76852" stroke-width="8.7644" stroke-linecap="round" stroke-miterlimit="10" x1="106.1" y1="35.8" x2="103.5" y2="43.8"/>
			
				<line fill="none" stroke="#C76852" stroke-width="8.7644" stroke-linecap="round" stroke-miterlimit="10" x1="113.9" y1="38.4" x2="111.2" y2="46.4"/>
			
				<line fill="none" stroke="#C76852" stroke-width="8.7644" stroke-linecap="round" stroke-miterlimit="10" x1="121.6" y1="41" x2="118.9" y2="49"/>
			
				<line fill="none" stroke="#C76852" stroke-width="8.7644" stroke-linecap="round" stroke-miterlimit="10" x1="129.3" y1="43.6" x2="126.6" y2="51.6"/>
			
				<line fill="none" stroke="#C76852" stroke-width="8.7644" stroke-linecap="round" stroke-miterlimit="10" x1="98.4" y1="33.2" x2="95.8" y2="41.2"/>
			
				<line fill="none" stroke="#C76852" stroke-width="8.7644" stroke-linecap="round" stroke-miterlimit="10" x1="90.7" y1="30.6" x2="88.1" y2="38.6"/>
			
				<line fill="none" stroke="#C76852" stroke-width="8.7644" stroke-linecap="round" stroke-miterlimit="10" x1="83" y1="28" x2="80.4" y2="36"/>
			<path opacity="0.1" d="M130.9,47.3L130.9,47.3L130.9,47.3l-0.3-0.1l0.9-2.8c0.4-1.3-0.3-2.6-1.5-3c-1.2-0.4-2.6,0.3-3,1.5
				l-0.9,2.8l-0.7-0.2l-2.5-0.8l0.9-2.8c0.4-1.3-0.3-2.6-1.5-3c-1.2-0.4-2.6,0.3-3,1.5l-0.9,2.8l-3.2-1.1l0.9-2.8
				c0.4-1.3-0.3-2.6-1.5-3c-1.2-0.4-2.6,0.3-3,1.5l-0.9,2.8l-3.2-1.1l0.9-2.8c0.4-1.3-0.3-2.6-1.5-3c-1.2-0.4-2.6,0.3-3,1.5
				l-0.9,2.8l-2.2-0.8l-27.9,85.2l30.1,10.1c2.5,0.8,5.2-0.5,6-3.1l24.9-76C134.6,50.8,133.3,48.1,130.9,47.3z"/>
		</g>
	</g>
</g>
<g id="sharpener_1_">
	<g opacity="0">
		<path fill="#29826B" d="M18.3,12.6l-7.6,12.8c-0.3,0.5-0.1,1.2,0.4,1.5l3.2,1.9c2.1-0.2,4.5,0.4,6.7,1.8c2.2,1.3,3.9,3.2,4.7,5.1
			l3.2,1.9c0.5,0.3,1.2,0.1,1.5-0.4l7.6-12.8c0.3-0.5,0.1-1.2-0.4-1.5L34.4,21c-2.1,0.2-4.5-0.4-6.7-1.8c-2.2-1.3-3.9-3.2-4.7-5.1
			l-3.2-1.9C19.2,11.9,18.6,12.1,18.3,12.6z"/>
		<path fill="#29826B" d="M25.9,29.8c1.6,1,3.7,0.4,4.7-1.2c1-1.6,0.4-3.7-1.2-4.7l-13.2-7.8l-3.5,5.8L25.9,29.8z"/>
		<circle fill="#29826B" cx="20.2" cy="23.5" r="1.1"/>
	</g>
	<g>
		<g>
			<g>
				<path fill="#FF8A9D" d="M17.3,7.6L9.6,20.4c-0.3,0.5-0.1,1.2,0.4,1.5l3.2,1.9c2.1-0.2,4.5,0.4,6.7,1.8c2.2,1.3,3.9,3.2,4.7,5.1
					l3.2,1.9c0.5,0.3,1.2,0.1,1.5-0.4l7.6-12.8c0.3-0.5,0.1-1.2-0.4-1.5L33.4,16c-2.1,0.2-4.5-0.4-6.7-1.8c-2.2-1.3-3.9-3.2-4.7-5.1
					l-3.2-1.9C18.2,6.9,17.6,7.1,17.3,7.6z"/>
			</g>
			<path fill="#FFFFFF" d="M24.9,24.8c1.6,1,3.7,0.4,4.7-1.2c1-1.6,0.4-3.7-1.2-4.7l-13.2-7.8l-3.5,5.8L24.9,24.8z"/>
			<circle fill="#404041" cx="19.2" cy="18.5" r="1.1"/>
		</g>
	</g>
</g>
<g>
	<g>
		<path fill="#EEE8CF" d="M-151.7-108.6c-1.4,1-1.6,3.2-1.6,3.2l7.3,4.6l-2.2-8.4C-148.1-109.2-150.2-109.7-151.7-108.6z"/>
	</g>
	<g>
		<path fill="#5582BD" d="M-153.3-105.4c0,0,0.2-2.1,1.6-3.2c1.4-1,3.6-0.6,3.6-0.6l-36-49.6l-5.2,3.8L-153.3-105.4z"/>
	</g>
	<g>
		<path fill="#666669" d="M-147.9-103.5c-0.5,0.3-0.6,0.8-0.6,1.1l2.6,1.7l-0.7-2.7C-146.9-103.6-147.4-103.7-147.9-103.5z"/>
	</g>
	<g>
		<path fill="#34658F" d="M-184.1-158.8l-5.2,3.8l-1-1.3c-0.2-0.3-0.2-0.7,0.2-1l4-2.9c0.3-0.2,0.7-0.2,1,0.2L-184.1-158.8z"/>
	</g>
	<path fill="#84B0D7" d="M-152.7-107.3L-152.7-107.3c0.2-0.5,0.6-1,1.1-1.3c0.5-0.4,1.1-0.5,1.6-0.6l-35.3-48.6l-2.7,1.9
		L-152.7-107.3z"/>
</g>
</svg>
