<?xml version="1.0" encoding="utf-8"?>
<!-- Generator: Adobe Illustrator 16.0.0, SVG Export Plug-In . SVG Version: 6.00 Build 0)  -->
<!DOCTYPE svg PUBLIC "-//W3C//DTD SVG 1.1//EN" "http://www.w3.org/Graphics/SVG/1.1/DTD/svg11.dtd">
<svg version="1.1" id="Capa_1" xmlns="http://www.w3.org/2000/svg" xmlns:xlink="http://www.w3.org/1999/xlink" x="0px" y="0px"
	 width="595.279px" height="660.445px" viewBox="0 0 595.279 660.445" enable-background="new 0 0 595.279 660.445"
	 xml:space="preserve">
<g id="post_it_1_">
	<g opacity="0.3">
		
			<rect x="21.168" y="334.731" transform="matrix(0.0485 -0.9988 0.9988 0.0485 -315.303 385.3545)" fill="#29826B" width="46.861" height="46.861"/>
		<path fill="#29826B" d="M62.242,346.852l-32.388-1.99c-0.724,0-1.447-0.724-1.447-1.628l0,0c0-0.724,0.724-1.447,1.628-1.447
			l32.388,1.99c0.724,0,1.447,0.724,1.447,1.628l0,0C63.69,346.309,62.966,346.852,62.242,346.852z"/>
		<path fill="#29826B" d="M61.699,359.336l-32.388-1.99c-0.724,0-1.447-0.724-1.447-1.628l0,0c0-0.724,0.724-1.448,1.628-1.448
			l32.388,1.99c0.724,0,1.447,0.724,1.447,1.628l0,0C63.147,358.793,62.423,359.517,61.699,359.336z"/>
		<path fill="#29826B" d="M55.366,352.823l-20.265-1.267c-0.724,0-1.447-0.724-1.447-1.628l0,0c0-0.724,0.724-1.448,1.628-1.448
			l20.265,1.267c0.724,0,1.448,0.724,1.448,1.628l0,0C56.814,352.28,56.09,352.823,55.366,352.823z"/>
	</g>
	<g>
		<g>
			<g id="post_it_16_">
				
					<rect x="17.549" y="329.303" transform="matrix(0.0484 -0.9988 0.9988 0.0484 -313.3246 376.5821)" fill="#ED859C" width="46.861" height="46.862"/>
			</g>
			<g id="text_11_">
				<path fill="#F1F1F2" d="M58.623,341.424l-32.388-1.991c-0.724,0-1.447-0.724-1.447-1.628l0,0c0-0.724,0.724-1.447,1.628-1.447
					l32.388,1.99c0.724,0,1.448,0.724,1.448,1.628l0,0C60.071,340.881,59.347,341.424,58.623,341.424z"/>
				<path fill="#F1F1F2" d="M58.08,353.908l-32.388-1.99c-0.724,0-1.447-0.724-1.447-1.628l0,0c0-0.724,0.724-1.448,1.629-1.448
					l32.387,1.991c0.725,0,1.448,0.724,1.448,1.628l0,0C59.528,353.365,58.804,354.089,58.08,353.908z"/>
				<path fill="#F1F1F2" d="M51.747,347.395l-20.265-1.267c-0.724,0-1.447-0.724-1.447-1.628l0,0c0-0.724,0.724-1.447,1.629-1.447
					l20.265,1.266c0.724,0,1.447,0.724,1.447,1.629l0,0C53.196,346.852,52.472,347.395,51.747,347.395z"/>
			</g>
		</g>
	</g>
</g>
<g id="post_it_2_">
	<g opacity="0.3">
		
			<rect x="59.316" y="323.346" transform="matrix(-0.4698 -0.8828 0.8828 -0.4698 -184.5041 582.741)" fill="#29826B" width="46.864" height="46.863"/>
		<path fill="#29826B" d="M92.097,328.034l-28.95,14.837c-0.724,0.362-1.628,0-1.99-0.543l0,0c-0.362-0.724,0-1.628,0.543-1.99
			l28.949-14.837c0.725-0.362,1.629,0,1.99,0.543l0,0C93.001,326.768,92.821,327.672,92.097,328.034z"/>
		<path fill="#29826B" d="M98.068,339.071l-28.95,14.837c-0.724,0.362-1.628,0-1.99-0.543l0,0c-0.361-0.724,0-1.628,0.543-1.99
			l28.95-14.837c0.724-0.362,1.628,0,1.99,0.543l0,0C98.972,337.805,98.791,338.709,98.068,339.071z"/>
		<path fill="#29826B" d="M89.201,336.538l-17.912,9.228c-0.725,0.362-1.629,0-1.99-0.543l0,0c-0.362-0.724,0-1.628,0.542-1.99
			l17.913-9.228c0.724-0.362,1.628,0,1.99,0.542l0,0C90.287,335.272,89.925,336.176,89.201,336.538z"/>
	</g>
	<g>
		<g>
			<g id="post_it_15_">
				
					<rect x="53.888" y="321.537" transform="matrix(-0.4698 -0.8828 0.8828 -0.4698 -190.8893 575.2844)" fill="#936278" width="46.864" height="46.863"/>
			</g>
			<g id="text_10_">
				<path fill="#F1F1F2" d="M86.668,326.225l-28.949,14.836c-0.724,0.362-1.629,0-1.99-0.542l0,0c-0.362-0.724,0-1.628,0.542-1.99
					l28.95-14.837c0.724-0.362,1.629,0,1.99,0.543l0,0C87.573,324.958,87.392,325.863,86.668,326.225z"/>
				<path fill="#F1F1F2" d="M92.639,337.262L63.69,352.099c-0.724,0.362-1.629,0-1.99-0.542l0,0c-0.362-0.724,0-1.628,0.543-1.99
					l28.949-14.837c0.724-0.362,1.629,0,1.99,0.543l0,0C93.544,335.996,93.364,336.9,92.639,337.262z"/>
				<path fill="#F1F1F2" d="M83.774,334.729l-17.913,9.228c-0.724,0.362-1.628,0-1.99-0.542l0,0c-0.361-0.724,0-1.628,0.543-1.99
					l17.913-9.228c0.724-0.362,1.628,0,1.99,0.543l0,0C84.859,333.462,84.497,334.367,83.774,334.729z"/>
			</g>
		</g>
	</g>
</g>
<g id="mouse">
	<g opacity="0.3">
		<path fill="#29826B" d="M519.106,391.724c0-4.523,5.247-14.475,24.246-14.475c19.541,0,24.245,10.313,24.245,14.475
			c0,4.343,0,49.215,0,53.376c0,4.162-5.609,19.542-24.064,19.542c-19.541,0-24.788-14.113-24.788-18.999
			C518.744,440.758,519.106,396.247,519.106,391.724z"/>
		<path fill="#29826B" d="M545.884,396.066c-0.542-0.724-1.447-1.267-2.532-1.267c-1.086,0-1.991,0.543-2.533,1.267
			c-0.543,0.724-0.905,1.628-0.905,2.714v6.694c0,1.086,0.362,1.99,0.905,2.715c0.542,0.724,1.447,1.267,2.533,1.267
			c1.085,0,1.99-0.543,2.532-1.267c0.543-0.725,0.905-1.629,0.905-2.715v-6.694C546.789,397.694,546.609,396.79,545.884,396.066z
			 M543.713,406.561c-0.181,0.181-0.361,0.181-0.361,0.181s-0.182,0-0.362-0.181s-0.362-0.543-0.362-0.904v-6.695
			c0-0.361,0.182-0.724,0.362-0.904s0.362-0.181,0.362-0.181s0.181,0,0.361,0.181s0.362,0.543,0.362,0.904v6.695
			C544.075,406.018,543.894,406.199,543.713,406.561z"/>
		<path fill="#29826B" d="M544.075,462.832c-22.798,0-24.064-16.827-24.064-17.551v-34.74c3.257,14.113,12.304,37.273,34.92,37.273
			c3.619,0,7.419-0.543,11.58-1.81C565.607,450.528,561.807,462.832,544.075,462.832z"/>
	</g>
	<g>
		<g>
			<g>
				<path fill="#FFFFFF" d="M513.678,388.105c0-4.523,5.247-14.475,24.245-14.475c19.541,0,24.245,10.313,24.245,14.475
					c0,4.343,0,49.215,0,53.376s-5.608,19.541-24.064,19.541c-19.541,0-24.788-14.113-24.788-18.998
					C513.316,437.139,513.678,392.628,513.678,388.105z"/>
			</g>
			<g>
				<path fill="#989897" d="M540.456,392.448c-0.543-0.724-1.447-1.267-2.533-1.267c-1.085,0-1.99,0.542-2.533,1.267
					c-0.542,0.724-0.904,1.628-0.904,2.714v6.695c0,1.086,0.362,1.99,0.904,2.714c0.543,0.724,1.448,1.267,2.533,1.267
					c1.086,0,1.99-0.543,2.533-1.267s0.904-1.628,0.904-2.714v-6.695C541.361,394.076,541.18,393.171,540.456,392.448z
					 M538.285,402.942c-0.182,0.181-0.362,0.181-0.362,0.181s-0.181,0-0.361-0.181c-0.182-0.182-0.362-0.543-0.362-0.905v-6.694
					c0-0.362,0.181-0.724,0.362-0.905c0.181-0.181,0.361-0.181,0.361-0.181s0.181,0,0.362,0.181
					c0.181,0.181,0.361,0.543,0.361,0.905v6.694C538.647,402.399,538.466,402.58,538.285,402.942z"/>
			</g>
			<g>
				<path fill="#F3F2F2" d="M538.647,459.213c-22.798,0-24.064-16.827-24.064-17.551v-34.739
					c3.257,14.112,12.304,37.272,34.921,37.272c3.619,0,7.418-0.543,11.58-1.81C560.178,446.909,556.379,459.213,538.647,459.213z"
					/>
			</g>
		</g>
	</g>
</g>
<g id="pen">
	<g opacity="0">
		
			<rect x="410.648" y="303.052" transform="matrix(-0.275 -0.9615 0.9615 -0.275 187.4497 852.762)" fill="#29826B" width="9.227" height="105.301"/>
		
			<rect x="465.749" y="337.097" transform="matrix(-0.9615 0.2749 -0.2749 -0.9615 1011.8997 538.9146)" fill="#29826B" width="4.885" height="6.513"/>
		<polygon fill="#29826B" points="363.5,365.669 365.853,374.535 346.492,375.439 		"/>
		<polygon fill="#29826B" points="453.064,341.062 453.788,343.776 455.597,350.108 442.751,353.908 440.942,347.575 
			440.218,344.861 439.675,342.871 439.132,340.7 451.797,337.081 452.34,339.071 		"/>
		<polyline fill="#29826B" points="463.74,333.644 451.797,337.081 427.191,344.138 426.285,341.604 		"/>
	</g>
	<g>
		<g>
			<g>
				
					<rect x="401.601" y="301.243" transform="matrix(-0.275 -0.9615 0.9615 -0.275 177.6547 841.7573)" fill="#98D3CD" width="9.227" height="105.301"/>
			</g>
			<g>
				
					<rect x="456.702" y="335.287" transform="matrix(-0.9615 0.2749 -0.2749 -0.9615 993.6763 537.8013)" fill="#666666" width="4.886" height="6.514"/>
				<polygon fill="#666666" points="354.453,363.86 356.806,372.726 337.446,373.63 				"/>
				<polygon fill="#666666" points="444.017,339.252 444.741,341.966 446.55,348.299 433.704,352.099 431.895,345.766 
					431.171,343.052 430.628,341.062 430.085,338.891 442.751,335.272 443.293,337.262 				"/>
				<polyline fill="#666666" points="454.693,331.834 442.751,335.272 418.144,342.328 417.239,339.795 				"/>
			</g>
		</g>
	</g>
</g>
<g>
	<path fill="#C4C4C8" d="M460.844,652.091L76.355,530.864c-5.79-1.81-9.047-7.962-7.237-13.752l48.129-152.71l405.479,127.741
		l-48.129,152.71C472.786,650.644,466.634,653.9,460.844,652.091z"/>
	<path opacity="0.2" fill="#211915" enable-background="new    " d="M462.111,647.93L77.621,526.702
		c-5.79-1.81-9.047-7.961-7.237-13.751l-1.267,3.98c-1.81,5.79,1.447,11.942,7.237,13.751L460.844,651.91
		c5.79,1.81,11.942-1.447,13.752-7.237l1.267-3.98C474.053,646.663,467.901,649.739,462.111,647.93z"/>
	<path fill="#ECEDEF" d="M518.382,469.165L133.893,348.118c-5.79-1.809-11.941,1.448-13.751,7.237l-2.896,9.228l405.479,127.741
		l2.895-9.228C527.429,477.307,524.172,470.974,518.382,469.165z"/>
	<path fill="#FFFFFF" d="M138.054,389.733l-17.188-5.428c-1.086-0.362-1.81-1.628-1.447-2.714l1.809-5.609
		c0.362-1.085,1.629-1.81,2.715-1.447l17.188,5.428c1.086,0.362,1.81,1.628,1.447,2.714l-1.809,5.609
		C140.406,389.372,139.14,389.915,138.054,389.733z"/>
	<path fill="#FFFFFF" d="M166.461,398.6l-17.188-5.428c-1.086-0.362-1.81-1.628-1.448-2.714l1.81-5.609
		c0.362-1.085,1.629-1.809,2.714-1.447l17.189,5.428c1.086,0.362,1.81,1.628,1.447,2.714l-1.81,5.609
		C168.814,398.419,167.547,398.961,166.461,398.6z"/>
	<path fill="#FFFFFF" d="M194.868,407.646l-17.189-5.429c-1.085-0.361-1.809-1.628-1.447-2.714l1.81-5.609
		c0.362-1.085,1.629-1.809,2.714-1.447l17.189,5.428c1.085,0.361,1.809,1.628,1.447,2.714l-1.81,5.609
		C197.221,407.284,195.954,408.008,194.868,407.646z"/>
	<path fill="#FFFFFF" d="M223.276,416.512l-17.189-5.428c-1.085-0.361-1.81-1.628-1.447-2.714l1.81-5.609
		c0.361-1.085,1.628-1.81,2.714-1.447l17.188,5.428c1.086,0.362,1.81,1.629,1.448,2.715l-1.81,5.608
		C225.627,416.331,224.361,416.874,223.276,416.512z"/>
	<path fill="#FFFFFF" d="M251.682,425.559l-17.188-5.428c-1.086-0.362-1.81-1.629-1.447-2.714l1.81-5.609
		c0.361-1.085,1.628-1.81,2.714-1.447l17.188,5.428c1.086,0.362,1.81,1.629,1.447,2.714l-1.809,5.609
		C254.034,425.197,252.948,425.921,251.682,425.559z"/>
	<path fill="#FFFFFF" d="M280.27,434.425l-17.188-5.428c-1.086-0.362-1.81-1.629-1.447-2.714l1.81-5.609
		c0.361-1.086,1.628-1.81,2.714-1.447l17.188,5.428c1.086,0.362,1.81,1.629,1.447,2.714l-1.809,5.609
		C282.442,434.244,281.356,434.787,280.27,434.425z"/>
	<path fill="#FFFFFF" d="M308.677,443.472l-17.188-5.428c-1.086-0.362-1.81-1.629-1.447-2.715l1.809-5.608
		c0.362-1.086,1.629-1.81,2.715-1.447l17.188,5.428c1.085,0.361,1.81,1.628,1.447,2.714l-1.81,5.609
		C310.848,443.109,309.763,443.834,308.677,443.472z"/>
	<path fill="#FFFFFF" d="M337.084,452.338l-17.189-5.429c-1.085-0.361-1.809-1.628-1.447-2.714l1.81-5.609
		c0.361-1.085,1.628-1.809,2.714-1.447l17.189,5.429c1.085,0.361,1.809,1.628,1.447,2.714l-1.81,5.608
		C339.436,452.156,338.169,452.699,337.084,452.338z"/>
	<path fill="#FFFFFF" d="M365.491,461.385l-17.189-5.429c-1.086-0.361-1.81-1.628-1.447-2.714l1.81-5.609
		c0.361-1.085,1.628-1.809,2.714-1.447l17.188,5.428c1.086,0.362,1.81,1.629,1.447,2.715l-1.809,5.608
		C367.843,461.022,366.576,461.746,365.491,461.385z"/>
	<path fill="#FFFFFF" d="M393.898,470.25l-17.188-5.428c-1.086-0.362-1.81-1.629-1.447-2.714l1.809-5.609
		c0.362-1.086,1.629-1.81,2.715-1.447l17.188,5.428c1.086,0.362,1.81,1.629,1.447,2.714l-1.81,5.609
		C396.25,470.069,394.984,470.612,393.898,470.25z"/>
	<path fill="#FFFFFF" d="M422.305,479.297l-17.188-5.428c-1.086-0.362-1.81-1.629-1.448-2.714l1.81-5.609
		c0.362-1.086,1.629-1.81,2.714-1.447l17.189,5.428c1.085,0.362,1.81,1.629,1.447,2.714l-1.81,5.609
		C424.657,478.936,423.391,479.659,422.305,479.297z"/>
	<path fill="#FFFFFF" d="M450.712,488.163l-17.189-5.429c-1.085-0.361-1.809-1.628-1.447-2.714l1.81-5.608
		c0.361-1.086,1.628-1.81,2.714-1.448l17.189,5.429c1.085,0.361,1.809,1.628,1.447,2.714l-1.81,5.609
		C453.064,487.982,451.979,488.524,450.712,488.163z"/>
	<path fill="#FFFFFF" d="M479.119,497.21l-17.189-5.429c-1.086-0.361-1.81-1.628-1.447-2.714l1.81-5.608
		c0.361-1.086,1.628-1.81,2.714-1.448l17.188,5.429c1.086,0.361,1.81,1.628,1.448,2.714l-1.81,5.608
		C481.471,496.848,480.385,497.571,479.119,497.21z"/>
	<path fill="#FFFFFF" d="M507.707,506.075l-17.189-5.428c-1.086-0.362-1.81-1.628-1.447-2.714l1.81-5.609
		c0.361-1.085,1.628-1.81,2.714-1.447l17.188,5.428c1.086,0.362,1.81,1.629,1.448,2.715l-1.81,5.608
		C509.878,505.895,508.792,506.438,507.707,506.075z"/>
	<path fill="#FFFFFF" d="M129.007,415.788l-15.741-4.885c-1.447-0.543-2.352-2.172-1.81-3.619l4.886-15.741
		c0.543-1.447,2.171-2.352,3.619-1.81l15.741,4.885c1.447,0.543,2.352,2.171,1.81,3.619l-4.886,15.742
		C132.083,415.427,130.455,416.331,129.007,415.788z"/>
	<path fill="#FFFFFF" d="M138.054,447.814l-32.568-10.313c-1.81-0.543-2.714-2.533-2.171-4.162l4.704-14.837
		c0.543-1.809,2.533-2.714,4.162-2.171l32.568,10.313c1.81,0.543,2.714,2.533,2.171,4.161l-4.704,14.837
		C141.673,447.271,139.864,448.357,138.054,447.814z"/>
	<path fill="#FFFFFF" d="M140.226,477.487l-43.244-13.57c-1.81-0.542-2.714-2.532-2.171-4.342l4.704-14.656
		c0.543-1.81,2.533-2.714,4.343-2.171l43.243,13.57c1.81,0.543,2.715,2.533,2.172,4.342l-4.705,14.656
		C144.026,477.126,142.035,478.03,140.226,477.487z"/>
	<path fill="#FFFFFF" d="M139.14,506.075l-50.3-15.922c-1.81-0.543-2.896-2.533-2.353-4.343l4.523-14.655
		c0.543-1.81,2.533-2.896,4.343-2.353l50.3,15.922c1.81,0.543,2.896,2.533,2.353,4.343l-4.523,14.656
		C142.94,505.714,140.949,506.8,139.14,506.075z"/>
	<path fill="#FFFFFF" d="M95.172,521.274l-14.655-4.704c-1.81-0.543-2.896-2.533-2.172-4.343l4.705-14.656
		c0.543-1.809,2.533-2.895,4.342-2.171l14.656,4.704c1.81,0.543,2.895,2.533,2.171,4.343l-4.704,14.656
		C98.972,520.912,96.982,521.998,95.172,521.274z"/>
	<path fill="#FFFFFF" d="M157.414,424.835l-15.741-4.885c-1.447-0.543-2.353-2.172-1.81-3.619l4.886-15.741
		c0.543-1.447,2.171-2.353,3.618-1.81l15.742,4.886c1.447,0.543,2.352,2.171,1.809,3.618l-4.885,15.561
		C160.49,424.474,158.862,425.197,157.414,424.835z"/>
	<path fill="#FFFFFF" d="M123.579,530.321l-14.655-4.704c-1.81-0.543-2.896-2.533-2.172-4.343l4.704-14.656
		c0.543-1.81,2.533-2.895,4.343-2.171l14.656,4.704c1.809,0.543,2.895,2.533,2.171,4.343l-4.704,14.655
		C127.379,529.959,125.389,530.864,123.579,530.321z"/>
	<path fill="#FFFFFF" d="M185.822,433.701l-15.741-4.886c-1.447-0.542-2.353-2.171-1.81-3.618l4.885-15.741
		c0.543-1.448,2.172-2.353,3.619-1.81l15.741,4.885c1.448,0.543,2.353,2.172,1.81,3.619l-4.885,15.741
		C188.898,433.339,187.449,434.244,185.822,433.701z"/>
	<path fill="#FFFFFF" d="M166.823,456.861l-15.561-4.886c-1.629-0.543-2.533-2.171-1.99-3.8l4.885-15.379
		c0.543-1.629,2.172-2.533,3.8-1.991l15.38,4.886c1.628,0.543,2.533,2.171,1.99,3.8l-4.886,15.38
		C170.08,456.499,168.271,457.223,166.823,456.861z"/>
	<path fill="#FFFFFF" d="M168.633,486.534l-14.656-4.704c-1.81-0.543-2.714-2.533-2.171-4.343l4.704-14.655
		c0.543-1.81,2.533-2.714,4.343-2.172l14.655,4.705c1.81,0.543,2.714,2.533,2.171,4.342l-4.704,14.656
		C172.432,485.992,170.442,487.077,168.633,486.534z"/>
	<path fill="#FFFFFF" d="M151.987,539.368l-14.656-4.705c-1.809-0.542-2.895-2.532-2.171-4.342l4.704-14.656
		c0.543-1.81,2.533-2.895,4.343-2.171l14.655,4.704c1.81,0.543,2.896,2.533,2.172,4.343l-4.704,14.655
		C155.786,538.825,153.796,539.911,151.987,539.368z"/>
	<path fill="#FFFFFF" d="M214.229,442.748l-15.741-4.886c-1.448-0.542-2.353-2.171-1.81-3.618l4.885-15.741
		c0.543-1.448,2.172-2.353,3.619-1.81l15.741,4.885c1.447,0.543,2.353,2.172,1.81,3.619l-4.886,15.741
		C217.486,442.386,215.857,443.291,214.229,442.748z"/>
	<path fill="#FFFFFF" d="M194.868,465.727l-14.837-4.704c-1.81-0.543-2.714-2.533-2.171-4.161l4.704-14.837
		c0.543-1.81,2.533-2.714,4.161-2.172l14.837,4.705c1.81,0.542,2.714,2.533,2.172,4.161l-4.705,14.837
		C198.487,465.184,196.678,466.27,194.868,465.727z"/>
	<path fill="#FFFFFF" d="M197.039,495.4l-14.655-4.704c-1.81-0.543-2.714-2.533-2.172-4.343l4.705-14.656
		c0.542-1.809,2.533-2.714,4.342-2.171l14.656,4.704c1.81,0.543,2.714,2.533,2.171,4.343l-4.704,14.656
		C200.839,495.038,198.849,495.943,197.039,495.4z"/>
	<path fill="#FFFFFF" d="M174.965,517.475l-14.655-4.523c-1.81-0.543-2.896-2.533-2.353-4.343l4.523-14.655
		c0.543-1.81,2.533-2.896,4.343-2.353l14.655,4.523c1.81,0.543,2.896,2.533,2.353,4.343l-4.523,14.655
		C178.765,516.932,176.775,518.018,174.965,517.475z"/>
	<path fill="#FFFFFF" d="M242.636,451.614l-15.742-4.886c-1.447-0.543-2.352-2.171-1.81-3.619l4.886-15.741
		c0.543-1.447,2.171-2.352,3.619-1.81l15.741,4.886c1.447,0.543,2.352,2.171,1.81,3.618l-4.886,15.742
		C245.893,451.252,244.264,452.156,242.636,451.614z"/>
	<path fill="#FFFFFF" d="M223.276,474.593l-14.837-4.704c-1.81-0.543-2.714-2.533-2.171-4.162l4.704-14.837
		c0.543-1.809,2.533-2.714,4.161-2.171l14.837,4.704c1.81,0.543,2.714,2.533,2.171,4.162l-4.704,14.837
		C226.894,474.23,225.084,475.136,223.276,474.593z"/>
	<path fill="#FFFFFF" d="M225.627,504.447l-14.655-4.704c-1.81-0.543-2.714-2.533-2.172-4.343l4.705-14.656
		c0.542-1.809,2.533-2.714,4.342-2.171l14.656,4.704c1.81,0.543,2.714,2.533,2.171,4.343l-4.704,14.656
		C229.246,503.904,227.437,504.99,225.627,504.447z"/>
	<path fill="#FFFFFF" d="M203.372,526.341l-14.656-4.523c-1.809-0.543-2.895-2.533-2.352-4.343l4.523-14.656
		c0.543-1.809,2.533-2.895,4.342-2.352l14.656,4.523c1.81,0.543,2.896,2.533,2.353,4.342l-4.523,14.656
		C207.172,525.979,205.182,527.064,203.372,526.341z"/>
	<path fill="#FFFFFF" d="M271.224,460.66l-15.742-4.885c-1.447-0.543-2.352-2.171-1.809-3.619l4.885-15.741
		c0.543-1.447,2.171-2.353,3.619-1.81l15.741,4.886c1.447,0.543,2.352,2.171,1.81,3.618l-4.886,15.742
		C274.299,460.299,272.671,461.203,271.224,460.66z"/>
	<path fill="#FFFFFF" d="M251.682,483.64l-14.836-4.704c-1.81-0.543-2.715-2.533-2.172-4.162l4.705-14.837
		c0.542-1.809,2.532-2.714,4.161-2.171l14.837,4.704c1.81,0.543,2.714,2.533,2.171,4.162l-4.704,14.837
		C255.482,483.097,253.491,484.183,251.682,483.64z"/>
	<path fill="#FFFFFF" d="M254.034,513.313l-14.656-4.705c-1.809-0.542-2.714-2.533-2.171-4.342l4.704-14.656
		c0.543-1.81,2.533-2.714,4.343-2.171l14.656,4.704c1.809,0.543,2.714,2.533,2.171,4.343l-4.704,14.655
		C257.654,512.951,255.844,513.855,254.034,513.313z"/>
	<path fill="#FFFFFF" d="M231.78,535.388l-14.656-4.523c-1.81-0.543-2.895-2.533-2.352-4.343l4.523-14.656
		c0.542-1.809,2.532-2.895,4.342-2.352l14.656,4.523c1.81,0.543,2.895,2.533,2.352,4.342l-4.522,14.656
		C235.579,535.025,233.589,535.93,231.78,535.388z"/>
	<path fill="#FFFFFF" d="M299.63,469.526l-15.741-4.885c-1.447-0.543-2.353-2.172-1.81-3.619l4.886-15.741
		c0.543-1.447,2.171-2.353,3.618-1.81l15.742,4.886c1.447,0.542,2.352,2.171,1.809,3.618l-4.885,15.741
		C302.706,469.165,301.078,470.069,299.63,469.526z"/>
	<path fill="#FFFFFF" d="M280.089,492.506l-14.837-4.705c-1.809-0.543-2.714-2.533-2.171-4.161l4.704-14.837
		c0.543-1.81,2.533-2.714,4.162-2.171l14.837,4.704c1.809,0.543,2.714,2.533,2.171,4.161l-4.704,14.837
		C283.889,492.144,281.899,493.048,280.089,492.506z"/>
	<path fill="#FFFFFF" d="M282.442,522.359l-14.656-4.704c-1.81-0.543-2.714-2.533-2.171-4.342l4.704-14.656
		c0.543-1.81,2.533-2.714,4.343-2.171l14.655,4.704c1.81,0.543,2.715,2.533,2.172,4.343l-4.704,14.655
		C286.06,521.817,284.251,522.902,282.442,522.359z"/>
	<path fill="#FFFFFF" d="M260.187,544.253l-14.656-4.523c-1.81-0.543-2.896-2.533-2.353-4.342l4.523-14.656
		c0.543-1.81,2.533-2.895,4.343-2.353l14.656,4.523c1.809,0.543,2.895,2.533,2.352,4.343l-4.523,14.656
		C263.986,543.892,261.995,544.977,260.187,544.253z"/>
	<path fill="#FFFFFF" d="M328.037,478.573l-15.741-4.885c-1.448-0.543-2.353-2.172-1.81-3.619l4.885-15.741
		c0.543-1.448,2.172-2.353,3.619-1.81l15.741,4.885c1.447,0.543,2.353,2.172,1.81,3.619l-4.886,15.741
		C331.114,478.211,329.485,479.116,328.037,478.573z"/>
	<path fill="#FFFFFF" d="M308.496,501.552l-14.837-4.704c-1.81-0.543-2.714-2.533-2.171-4.161l4.704-14.837
		c0.543-1.81,2.533-2.714,4.161-2.171l14.837,4.704c1.81,0.543,2.714,2.533,2.171,4.161l-4.704,14.837
		C312.296,501.01,310.305,502.095,308.496,501.552z"/>
	<path fill="#FFFFFF" d="M310.848,531.226l-14.655-4.704c-1.81-0.543-2.714-2.533-2.171-4.343l4.704-14.655
		c0.543-1.81,2.533-2.715,4.343-2.172l14.655,4.705c1.81,0.542,2.714,2.532,2.171,4.342l-4.704,14.656
		C314.467,530.864,312.657,531.769,310.848,531.226z"/>
	<path fill="#FFFFFF" d="M288.593,553.3l-14.655-4.523c-1.81-0.543-2.896-2.533-2.353-4.343l4.523-14.655
		c0.543-1.81,2.533-2.896,4.343-2.353l14.655,4.523c1.81,0.543,2.896,2.533,2.353,4.343l-4.523,14.656
		C292.393,552.938,290.403,553.843,288.593,553.3z"/>
	<path fill="#FFFFFF" d="M356.445,487.62l-15.742-4.886c-1.447-0.542-2.352-2.171-1.809-3.618l4.885-15.741
		c0.543-1.448,2.171-2.353,3.619-1.81l15.741,4.885c1.447,0.543,2.353,2.172,1.81,3.619l-4.886,15.741
		C359.52,487.258,357.892,487.982,356.445,487.62z"/>
	<path fill="#FFFFFF" d="M337.084,510.418l-14.837-4.704c-1.81-0.543-2.714-2.533-2.171-4.162l4.704-14.836
		c0.543-1.81,2.533-2.715,4.161-2.172l14.837,4.704c1.81,0.543,2.714,2.533,2.171,4.162l-4.704,14.837
		C340.702,510.057,338.712,510.961,337.084,510.418z"/>
	<path fill="#FFFFFF" d="M339.255,540.272l-14.655-4.704c-1.81-0.543-2.715-2.533-2.172-4.343l4.704-14.655
		c0.543-1.81,2.533-2.715,4.343-2.172l14.656,4.705c1.809,0.542,2.714,2.532,2.171,4.342l-4.704,14.656
		C343.055,539.729,341.065,540.815,339.255,540.272z"/>
	<path fill="#FFFFFF" d="M317,562.347l-14.656-4.523c-1.809-0.543-2.895-2.533-2.352-4.343l4.523-14.655
		c0.543-1.81,2.532-2.896,4.342-2.353l14.656,4.523c1.81,0.543,2.895,2.533,2.352,4.343l-4.523,14.655
		C320.8,561.804,318.81,562.89,317,562.347z"/>
	<path fill="#FFFFFF" d="M322.609,593.105l-14.655-4.704c-1.81-0.543-2.895-2.533-2.171-4.342l4.704-14.656
		c0.543-1.81,2.533-2.896,4.342-2.171l14.656,4.704c1.81,0.543,2.896,2.533,2.171,4.343l-4.704,14.655
		C326.408,592.563,324.418,593.648,322.609,593.105z"/>
	<path fill="#FFFFFF" d="M384.851,496.486l-15.741-4.886c-1.447-0.543-2.353-2.171-1.81-3.618l4.886-15.742
		c0.543-1.447,2.171-2.352,3.618-1.809l15.742,4.885c1.447,0.543,2.352,2.171,1.809,3.619l-4.885,15.741
		C387.927,496.124,386.299,497.029,384.851,496.486z"/>
	<path fill="#FFFFFF" d="M365.491,519.465l-14.837-4.704c-1.81-0.543-2.715-2.533-2.172-4.162l4.705-14.836
		c0.542-1.81,2.532-2.715,4.161-2.172l14.837,4.704c1.81,0.543,2.714,2.533,2.171,4.162l-4.704,14.837
		C369.11,518.922,367.3,520.008,365.491,519.465z"/>
	<path fill="#FFFFFF" d="M367.662,549.139l-14.656-4.705c-1.809-0.542-2.714-2.532-2.171-4.342l4.704-14.656
		c0.543-1.81,2.533-2.714,4.343-2.171l14.655,4.704c1.81,0.543,2.715,2.533,2.172,4.343l-4.704,14.655
		C371.462,548.776,369.472,549.682,367.662,549.139z"/>
	<path fill="#FFFFFF" d="M345.407,571.213l-14.656-4.523c-1.81-0.543-2.896-2.533-2.353-4.343l4.523-14.655
		c0.543-1.81,2.533-2.896,4.343-2.353l14.656,4.523c1.809,0.543,2.895,2.533,2.352,4.343l-4.523,14.655
		C349.206,570.851,347.398,571.756,345.407,571.213z"/>
	<path fill="#FFFFFF" d="M351.016,601.972l-14.655-4.704c-1.81-0.543-2.896-2.533-2.172-4.343l4.705-14.655
		c0.542-1.81,2.532-2.896,4.342-2.172l14.656,4.705c1.81,0.542,2.895,2.532,2.171,4.342l-4.704,14.656
		C354.816,601.61,352.825,602.515,351.016,601.972z"/>
	<path fill="#FFFFFF" d="M413.258,505.533l-15.741-4.886c-1.447-0.543-2.353-2.171-1.81-3.618l4.886-15.742
		c0.542-1.447,2.171-2.352,3.618-1.81l15.741,4.886c1.448,0.543,2.353,2.171,1.81,3.619l-4.885,15.741
		C416.515,505.171,414.887,505.895,413.258,505.533z"/>
	<path fill="#FFFFFF" d="M393.898,528.331l-14.837-4.705c-1.809-0.542-2.714-2.532-2.171-4.161l4.704-14.837
		c0.543-1.81,2.533-2.714,4.162-2.171l14.837,4.704c1.809,0.543,2.714,2.533,2.171,4.161l-4.704,14.837
		C397.517,527.969,395.707,528.874,393.898,528.331z"/>
	<path fill="#FFFFFF" d="M396.07,558.186l-14.656-4.705c-1.81-0.542-2.714-2.532-2.171-4.342l4.704-14.656
		c0.543-1.81,2.533-2.714,4.343-2.171l14.655,4.704c1.81,0.543,2.714,2.533,2.172,4.343l-4.705,14.655
		C399.868,557.643,397.878,558.729,396.07,558.186z"/>
	<path fill="#FFFFFF" d="M373.995,580.26l-14.656-4.523c-1.81-0.543-2.895-2.533-2.353-4.343l4.523-14.656
		c0.543-1.809,2.533-2.895,4.343-2.352l14.656,4.523c1.809,0.543,2.895,2.533,2.352,4.342l-4.523,14.656
		C377.614,579.717,375.804,580.803,373.995,580.26z"/>
	<path fill="#FFFFFF" d="M379.423,611.019l-14.656-4.704c-1.809-0.543-2.895-2.533-2.171-4.343l4.704-14.655
		c0.543-1.81,2.533-2.896,4.343-2.172l14.656,4.704c1.809,0.543,2.895,2.533,2.171,4.343l-4.704,14.656
		C383.223,610.476,381.233,611.562,379.423,611.019z"/>
	<path fill="#FFFFFF" d="M441.665,514.398l-15.741-4.885c-1.448-0.543-2.353-2.172-1.81-3.619l4.885-15.741
		c0.543-1.447,2.172-2.353,3.619-1.81l15.741,4.886c1.447,0.542,2.353,2.171,1.81,3.618l-4.886,15.741
		C444.922,514.037,443.293,514.941,441.665,514.398z"/>
	<path fill="#FFFFFF" d="M470.253,523.445l-15.741-4.885c-1.448-0.543-2.353-2.172-1.81-3.619l4.885-15.741
		c0.543-1.447,2.172-2.353,3.619-1.81l15.741,4.886c1.447,0.542,2.353,2.171,1.81,3.618l-4.886,15.741
		C473.329,523.084,471.7,523.808,470.253,523.445z"/>
	<path fill="#FFFFFF" d="M422.305,537.378l-14.837-4.705c-1.81-0.542-2.714-2.532-2.171-4.161l4.704-14.837
		c0.543-1.81,2.533-2.714,4.161-2.171l14.837,4.704c1.81,0.543,2.715,2.533,2.172,4.161l-4.705,14.837
		C425.924,536.835,424.115,537.92,422.305,537.378z"/>
	<path fill="#FFFFFF" d="M424.657,567.051l-14.656-4.704c-1.81-0.543-2.714-2.533-2.171-4.343l4.704-14.655
		c0.543-1.81,2.533-2.714,4.343-2.171l14.655,4.704c1.81,0.543,2.714,2.533,2.172,4.342l-4.705,14.656
		C428.276,566.689,426.285,567.594,424.657,567.051z"/>
	<path fill="#FFFFFF" d="M402.402,589.125l-14.655-4.523c-1.81-0.542-2.896-2.533-2.353-4.342l4.523-14.656
		c0.543-1.81,2.533-2.895,4.343-2.352l14.655,4.522c1.81,0.543,2.896,2.533,2.353,4.343l-4.523,14.656
		C406.201,588.764,404.211,589.668,402.402,589.125z"/>
	<path fill="#FFFFFF" d="M443.656,618.075l-17.913-5.609c-0.904-0.361-1.447-1.267-1.085-2.171l1.267-3.98
		c0.361-0.905,1.267-1.447,2.171-1.086l17.913,5.609c0.904,0.361,1.447,1.267,1.085,2.171l-1.267,3.98
		C445.465,617.895,444.56,618.256,443.656,618.075z"/>
	<path fill="#FFFFFF" d="M439.856,630.017l-17.912-5.608c-0.905-0.362-1.448-1.267-1.086-2.172l1.267-3.98
		c0.361-0.904,1.267-1.447,2.171-1.085l17.913,5.608c0.904,0.362,1.447,1.267,1.085,2.172l-1.267,3.98
		C441.665,629.836,440.76,630.379,439.856,630.017z"/>
	<path fill="#FFFFFF" d="M466.453,638.34l-17.913-5.609c-0.904-0.361-1.447-1.266-1.085-2.171l1.267-3.98
		c0.361-0.904,1.267-1.447,2.171-1.086l17.913,5.609c0.904,0.362,1.447,1.267,1.085,2.171l-1.267,3.98
		C468.263,638.159,467.358,638.702,466.453,638.34z"/>
	<path fill="#FFFFFF" d="M413.439,621.694l-17.912-5.609c-0.905-0.362-1.447-1.267-1.086-2.171l1.267-3.981
		c0.362-0.904,1.267-1.447,2.171-1.085l17.913,5.608c0.904,0.362,1.447,1.267,1.086,2.172l-1.267,3.98
		C415.248,621.513,414.344,621.875,413.439,621.694z"/>
	<path fill="#FFFFFF" d="M450.712,546.243l-14.837-4.704c-1.81-0.543-2.714-2.533-2.171-4.161l4.704-14.837
		c0.543-1.81,2.533-2.714,4.161-2.172l14.837,4.705c1.81,0.543,2.714,2.533,2.172,4.161l-4.705,14.837
		C454.33,545.882,452.522,546.786,450.712,546.243z"/>
	<path fill="#FFFFFF" d="M498.66,532.312l-15.742-4.886c-1.447-0.543-2.352-2.171-1.809-3.618l4.885-15.741
		c0.543-1.448,2.172-2.353,3.619-1.81l15.741,4.885c1.447,0.543,2.353,2.172,1.81,3.619l-4.886,15.741
		C501.736,531.949,500.108,532.854,498.66,532.312z"/>
	<path fill="#FFFFFF" d="M479.119,555.29l-14.837-4.704c-1.81-0.543-2.715-2.533-2.172-4.161l4.705-14.837
		c0.542-1.81,2.532-2.714,4.161-2.172l14.837,4.705c1.81,0.542,2.714,2.533,2.171,4.161l-4.704,14.837
		C482.918,554.747,480.928,555.833,479.119,555.29z"/>
	<path fill="#FFFFFF" d="M481.471,584.964l-43.243-13.57c-1.81-0.543-2.715-2.533-2.172-4.343l4.704-14.655
		c0.543-1.81,2.533-2.714,4.343-2.172l43.244,13.57c1.81,0.543,2.714,2.533,2.171,4.343l-4.704,14.656
		C485.09,584.602,483.281,585.507,481.471,584.964z"/>
	<path fill="#FFFFFF" d="M472.967,611.381l-50.3-15.923c-1.81-0.543-2.896-2.533-2.353-4.343l4.523-14.655
		c0.543-1.81,2.533-2.896,4.343-2.353l50.3,15.923c1.81,0.543,2.896,2.533,2.353,4.342l-4.523,14.656
		C476.767,611.019,474.957,611.923,472.967,611.381z"/>
	<path fill="#FFFFFF" d="M294.202,584.06l-128.465-40.53c-1.81-0.543-2.895-2.533-2.171-4.343l4.704-14.655
		c0.543-1.81,2.533-2.896,4.343-2.171l128.465,40.529c1.809,0.543,2.895,2.533,2.171,4.343l-4.704,14.655
		C297.822,583.697,296.012,584.602,294.202,584.06z"/>
	<path opacity="0.2" fill="#211915" enable-background="new    " d="M130.274,414.521l-17.369-5.428
		c-1.086-0.362-1.629-1.447-1.267-2.533l-0.543,1.447c-0.362,1.086,0.181,2.172,1.267,2.533l17.37,5.429
		c1.085,0.361,2.171-0.182,2.533-1.267l0.542-1.448C132.446,414.341,131.36,414.884,130.274,414.521z"/>
	<path opacity="0.2" fill="#211915" enable-background="new    " d="M139.683,446.548l-35.102-11.037
		c-1.086-0.362-1.629-1.448-1.267-2.533l-0.362,1.085c-0.361,1.267,0.362,2.533,1.629,3.076l34.559,10.856
		c1.267,0.362,2.533-0.362,3.076-1.629l0.361-1.085C142.035,446.366,140.769,446.909,139.683,446.548z"/>
	<path opacity="0.2" fill="#211915" enable-background="new    " d="M142.035,476.402l-45.777-14.476
		c-1.086-0.361-1.628-1.447-1.267-2.532l-0.361,1.085c-0.362,1.267,0.361,2.533,1.628,3.076l45.053,14.294
		c1.267,0.361,2.533-0.362,3.076-1.629l0.362-1.085C144.206,476.221,143.12,476.764,142.035,476.402z"/>
	<path opacity="0.2" fill="#211915" enable-background="new    " d="M140.949,504.99l-53.015-16.646
		c-1.085-0.361-1.628-1.447-1.267-2.533l-0.361,1.086c-0.362,1.267,0.361,2.533,1.628,3.076l52.291,16.465
		c1.267,0.361,2.533-0.362,3.075-1.629l0.362-1.085C143.12,504.809,142.035,505.352,140.949,504.99z"/>
	<path opacity="0.2" fill="#211915" enable-background="new    " d="M158.681,423.568l-17.37-5.428
		c-1.085-0.362-1.628-1.447-1.267-2.533l-0.542,1.447c-0.362,1.086,0.181,2.172,1.267,2.533l17.369,5.429
		c1.086,0.361,2.172-0.182,2.533-1.267l0.543-1.448C160.853,423.207,159.767,423.931,158.681,423.568z"/>
	<path opacity="0.2" fill="#211915" enable-background="new    " d="M168.271,455.595l-17.37-5.429
		c-1.085-0.361-1.628-1.447-1.267-2.533l-0.543,1.448c-0.361,1.085,0.182,2.352,1.448,2.714l17.188,5.428
		c1.086,0.362,2.353-0.181,2.714-1.447l0.543-1.447C170.442,455.413,169.357,455.956,168.271,455.595z"/>
	<path opacity="0.2" fill="#211915" enable-background="new    " d="M170.442,485.268l-17.369-5.428
		c-1.086-0.362-1.629-1.447-1.267-2.533l-0.362,1.267c-0.362,1.267,0.362,2.533,1.447,2.896l16.827,5.247
		c1.267,0.361,2.533-0.362,2.896-1.448l0.361-1.267C172.614,485.087,171.528,485.63,170.442,485.268z"/>
	<path opacity="0.2" fill="#211915" enable-background="new    " d="M198.849,494.314l-17.37-5.428
		c-1.085-0.362-1.628-1.447-1.267-2.533l-0.361,1.267c-0.362,1.267,0.361,2.533,1.447,2.895l16.827,5.247
		c1.267,0.362,2.533-0.361,2.895-1.447l0.362-1.267C201.201,494.134,199.935,494.677,198.849,494.314z"/>
	<path opacity="0.2" fill="#211915" enable-background="new    " d="M176.775,516.389l-17.37-5.428
		c-1.085-0.362-1.628-1.447-1.267-2.533l-0.361,1.086c-0.362,1.267,0.361,2.714,1.628,3.075l16.646,5.247
		c1.267,0.362,2.714-0.361,3.076-1.628l0.361-1.086C178.946,516.027,177.861,516.751,176.775,516.389z"/>
	<path opacity="0.2" fill="#211915" enable-background="new    " d="M153.796,538.282l-17.37-5.428
		c-1.086-0.362-1.629-1.448-1.267-2.533l-0.362,1.085c-0.361,1.267,0.362,2.715,1.629,3.076l16.646,5.247
		c1.266,0.362,2.714-0.361,3.075-1.628l0.362-1.086C155.967,537.92,154.881,538.463,153.796,538.282z"/>
	<path opacity="0.2" fill="#211915" enable-background="new    " d="M296.012,582.974L164.833,541.72
		c-1.086-0.361-1.629-1.447-1.267-2.533l-0.362,1.086c-0.361,1.267,0.362,2.714,1.629,3.076l130.273,41.072
		c1.267,0.362,2.715-0.361,3.076-1.628l0.362-1.086C298.183,582.793,297.097,583.335,296.012,582.974z"/>
	<path opacity="0.2" fill="#211915" enable-background="new    " d="M125.389,529.235l-17.37-5.428
		c-1.086-0.362-1.628-1.448-1.267-2.533l-0.361,1.085c-0.362,1.267,0.361,2.715,1.628,3.076l16.646,5.247
		c1.267,0.362,2.714-0.361,3.076-1.628l0.361-1.086C127.56,529.055,126.475,529.598,125.389,529.235z"/>
	<path opacity="0.2" fill="#211915" enable-background="new    " d="M96.982,520.188l-17.37-5.428
		c-1.085-0.362-1.628-1.447-1.267-2.533l-0.361,1.086c-0.362,1.267,0.361,2.714,1.628,3.075l16.646,5.247
		c1.267,0.362,2.714-0.361,3.076-1.628l0.181-1.086C99.153,520.008,98.068,520.551,96.982,520.188z"/>
	<path opacity="0.2" fill="#211915" enable-background="new    " d="M205.182,525.255l-17.37-5.428
		c-1.086-0.362-1.628-1.448-1.267-2.533l-0.361,1.085c-0.362,1.267,0.361,2.715,1.628,3.076l16.646,5.247
		c1.267,0.362,2.714-0.361,3.075-1.628l0.362-1.086C207.353,525.074,206.267,525.617,205.182,525.255z"/>
	<path opacity="0.2" fill="#211915" enable-background="new    " d="M233.589,534.302l-17.37-5.428
		c-1.086-0.362-1.629-1.448-1.267-2.533l-0.362,1.085c-0.361,1.267,0.362,2.715,1.629,3.076l16.646,5.247
		c1.267,0.362,2.715-0.361,3.076-1.628l0.362-1.086C235.76,534.121,234.674,534.663,233.589,534.302z"/>
	<path opacity="0.2" fill="#211915" enable-background="new    " d="M261.995,543.168l-17.369-5.429
		c-1.086-0.361-1.629-1.447-1.267-2.533l-0.362,1.086c-0.361,1.267,0.362,2.714,1.629,3.076l16.646,5.247
		c1.267,0.361,2.714-0.362,3.076-1.629l0.361-1.085C264.167,542.986,263.081,543.529,261.995,543.168z"/>
	<path opacity="0.2" fill="#211915" enable-background="new    " d="M290.403,552.215l-17.37-5.429
		c-1.085-0.361-1.628-1.447-1.267-2.533l-0.361,1.086c-0.362,1.267,0.361,2.714,1.628,3.076l16.646,5.247
		c1.267,0.361,2.714-0.362,3.076-1.629l0.361-1.085C292.755,552.033,291.489,552.576,290.403,552.215z"/>
	<path opacity="0.2" fill="#211915" enable-background="new    " d="M318.99,561.261l-17.37-5.428
		c-1.085-0.362-1.628-1.447-1.267-2.533l-0.361,1.086c-0.362,1.267,0.361,2.714,1.628,3.076l16.646,5.247
		c1.267,0.361,2.714-0.362,3.075-1.629l0.362-1.086C321.161,560.899,319.895,561.442,318.99,561.261z"/>
	<path opacity="0.2" fill="#211915" enable-background="new    " d="M347.398,570.127l-17.37-5.428
		c-1.086-0.362-1.629-1.447-1.267-2.533l-0.362,1.086c-0.361,1.266,0.362,2.714,1.629,3.075l16.646,5.247
		c1.266,0.362,2.714-0.361,3.075-1.628l0.362-1.086C349.569,569.946,348.483,570.489,347.398,570.127z"/>
	<path opacity="0.2" fill="#211915" enable-background="new    " d="M324.418,592.021l-17.369-5.429
		c-1.086-0.361-1.629-1.447-1.267-2.532l-0.362,1.085c-0.361,1.267,0.362,2.714,1.629,3.076l16.646,5.247
		c1.267,0.362,2.714-0.362,3.076-1.628l0.361-1.086C326.59,591.658,325.504,592.382,324.418,592.021z"/>
	<path opacity="0.2" fill="#211915" enable-background="new    " d="M352.825,600.886l-17.37-5.428
		c-1.085-0.361-1.628-1.447-1.267-2.533l-0.361,1.086c-0.362,1.267,0.361,2.714,1.628,3.076l16.646,5.247
		c1.267,0.361,2.714-0.362,3.076-1.629l0.361-1.085C354.996,600.705,353.911,601.248,352.825,600.886z"/>
	<path opacity="0.2" fill="#211915" enable-background="new    " d="M381.233,609.933l-17.37-5.428
		c-1.086-0.362-1.628-1.447-1.267-2.533l-0.361,1.086c-0.362,1.267,0.361,2.714,1.628,3.076l16.646,5.247
		c1.267,0.361,2.714-0.362,3.075-1.629l0.362-1.086C383.404,609.571,382.318,610.295,381.233,609.933z"/>
	<path opacity="0.2" fill="#211915" enable-background="new    " d="M375.804,579.174l-17.369-5.428
		c-1.086-0.362-1.629-1.448-1.267-2.533l-0.362,1.085c-0.361,1.267,0.362,2.715,1.629,3.076l16.646,5.247
		c1.267,0.362,2.714-0.361,3.076-1.628l0.362-1.086C377.976,578.812,376.89,579.354,375.804,579.174z"/>
	<path opacity="0.2" fill="#211915" enable-background="new    " d="M404.211,588.04l-17.37-5.429
		c-1.085-0.361-1.628-1.447-1.267-2.533l-0.361,1.086c-0.362,1.267,0.361,2.714,1.628,3.076l16.646,5.247
		c1.267,0.361,2.714-0.362,3.076-1.629l0.361-1.085C406.383,587.858,405.297,588.401,404.211,588.04z"/>
	<path opacity="0.2" fill="#211915" enable-background="new    " d="M474.957,610.295l-53.015-16.646
		c-1.085-0.361-1.628-1.447-1.266-2.533l-0.362,1.086c-0.362,1.267,0.362,2.714,1.628,3.076l52.291,16.465
		c1.267,0.362,2.714-0.361,3.076-1.628l0.361-1.086C477.129,610.114,476.043,610.656,474.957,610.295z"/>
	<path opacity="0.2" fill="#211915" enable-background="new    " d="M227.437,503.361l-17.37-5.428
		c-1.085-0.362-1.628-1.447-1.267-2.533l-0.361,1.267c-0.362,1.267,0.361,2.533,1.447,2.895l16.827,5.247
		c1.267,0.362,2.533-0.361,2.895-1.447l0.362-1.267C229.608,503,228.341,503.543,227.437,503.361z"/>
	<path opacity="0.2" fill="#211915" enable-background="new    " d="M255.844,512.228l-17.37-5.428
		c-1.086-0.362-1.628-1.448-1.267-2.533l-0.361,1.267c-0.362,1.266,0.361,2.533,1.447,2.895l16.827,5.247
		c1.267,0.362,2.533-0.361,2.895-1.447l0.362-1.267C258.015,512.047,256.93,512.589,255.844,512.228z"/>
	<path opacity="0.2" fill="#211915" enable-background="new    " d="M284.251,521.274l-17.37-5.429
		c-1.086-0.361-1.629-1.447-1.267-2.532l-0.362,1.267c-0.361,1.266,0.362,2.532,1.448,2.895l16.827,5.247
		c1.266,0.362,2.532-0.362,2.895-1.447l0.362-1.267C286.422,520.912,285.336,521.455,284.251,521.274z"/>
	<path opacity="0.2" fill="#211915" enable-background="new    " d="M312.657,530.141l-17.369-5.429
		c-1.086-0.361-1.629-1.447-1.267-2.533l-0.362,1.267c-0.361,1.267,0.362,2.533,1.447,2.896l16.827,5.247
		c1.267,0.361,2.533-0.362,2.895-1.448l0.362-1.267C314.828,529.959,313.743,530.502,312.657,530.141z"/>
	<path opacity="0.2" fill="#211915" enable-background="new    " d="M341.065,539.187l-17.37-5.428
		c-1.086-0.362-1.628-1.447-1.267-2.533l-0.361,1.267c-0.362,1.267,0.361,2.533,1.447,2.896l16.827,5.247
		c1.267,0.361,2.533-0.362,2.895-1.448l0.362-1.267C343.236,538.825,342.151,539.368,341.065,539.187z"/>
	<path opacity="0.2" fill="#211915" enable-background="new    " d="M369.472,548.053l-17.37-5.428
		c-1.086-0.362-1.629-1.447-1.267-2.533l-0.362,1.267c-0.361,1.267,0.362,2.533,1.448,2.895l16.827,5.247
		c1.266,0.362,2.532-0.361,2.895-1.447l0.362-1.267C371.643,547.872,370.557,548.415,369.472,548.053z"/>
	<path opacity="0.2" fill="#211915" enable-background="new    " d="M397.878,557.1l-17.369-5.428
		c-1.086-0.362-1.629-1.448-1.267-2.533l-0.362,1.267c-0.361,1.267,0.362,2.533,1.447,2.895l16.827,5.247
		c1.267,0.362,2.533-0.361,2.896-1.447l0.361-1.267C400.231,556.737,398.964,557.462,397.878,557.1z"/>
	<path opacity="0.2" fill="#211915" enable-background="new    " d="M426.285,565.966l-17.37-5.429
		c-1.085-0.361-1.628-1.447-1.267-2.533l-0.361,1.267c-0.362,1.267,0.361,2.533,1.447,2.896l16.827,5.247
		c1.267,0.361,2.533-0.362,2.896-1.447l0.361-1.267C428.638,565.784,427.371,566.327,426.285,565.966z"/>
	<path opacity="0.2" fill="#211915" enable-background="new    " d="M483.281,583.878l-45.777-14.475
		c-1.085-0.362-1.628-1.447-1.267-2.533l-0.361,1.267c-0.362,1.267,0.361,2.533,1.447,2.895l45.234,14.295
		c1.267,0.361,2.533-0.362,2.895-1.448l0.362-1.267C485.451,583.697,484.366,584.24,483.281,583.878z"/>
	<path opacity="0.2" fill="#211915" enable-background="new    " d="M196.678,464.46l-17.37-5.428
		c-1.086-0.362-1.629-1.447-1.267-2.533l-0.543,1.447c-0.361,1.086,0.181,2.353,1.447,2.714l17.189,5.429
		c1.086,0.361,2.353-0.181,2.714-1.447l0.543-1.448C198.849,464.279,197.763,464.822,196.678,464.46z"/>
	<path opacity="0.2" fill="#211915" enable-background="new    " d="M225.084,473.507l-17.369-5.428
		c-1.086-0.362-1.629-1.447-1.267-2.533l-0.543,1.447c-0.362,1.086,0.181,2.353,1.447,2.714l17.189,5.429
		c1.085,0.361,2.352-0.181,2.714-1.447l0.543-1.448C227.256,473.326,226.17,473.869,225.084,473.507z"/>
	<path opacity="0.2" fill="#211915" enable-background="new    " d="M253.491,482.554l-17.37-5.428
		c-1.085-0.362-1.628-1.447-1.266-2.533l-0.543,1.447c-0.362,1.086,0.181,2.353,1.447,2.714l17.188,5.429
		c1.086,0.361,2.353-0.182,2.715-1.448l0.542-1.447C255.663,482.192,254.577,482.734,253.491,482.554z"/>
	<path opacity="0.2" fill="#211915" enable-background="new    " d="M281.899,491.42l-17.37-5.428
		c-1.085-0.362-1.628-1.448-1.267-2.533l-0.543,1.447c-0.361,1.086,0.182,2.352,1.448,2.714l17.188,5.428
		c1.086,0.362,2.353-0.181,2.714-1.447l0.543-1.447C284.07,491.239,282.985,491.781,281.899,491.42z"/>
	<path opacity="0.2" fill="#211915" enable-background="new    " d="M310.305,500.467l-17.369-5.429
		c-1.086-0.361-1.629-1.447-1.267-2.532l-0.543,1.447c-0.361,1.085,0.181,2.352,1.447,2.714l17.189,5.428
		c1.085,0.362,2.352-0.181,2.714-1.447l0.543-1.447C312.477,500.104,311.391,500.647,310.305,500.467z"/>
	<path opacity="0.2" fill="#211915" enable-background="new    " d="M338.712,509.332l-17.37-5.428
		c-1.085-0.361-1.628-1.447-1.266-2.533l-0.543,1.447c-0.362,1.086,0.181,2.353,1.447,2.715l17.188,5.428
		c1.086,0.361,2.353-0.181,2.715-1.447l0.542-1.448C341.065,509.151,339.798,509.694,338.712,509.332z"/>
	<path opacity="0.2" fill="#211915" enable-background="new    " d="M367.3,518.379l-17.369-5.428
		c-1.086-0.362-1.629-1.447-1.267-2.533l-0.543,1.447c-0.362,1.086,0.181,2.353,1.447,2.715l17.188,5.428
		c1.086,0.361,2.353-0.181,2.715-1.447l0.542-1.448C369.472,518.018,368.205,518.561,367.3,518.379z"/>
	<path opacity="0.2" fill="#211915" enable-background="new    " d="M395.707,527.245l-17.37-5.428
		c-1.085-0.362-1.628-1.448-1.267-2.533l-0.543,1.447c-0.361,1.086,0.182,2.353,1.448,2.714l17.188,5.429
		c1.086,0.361,2.353-0.182,2.714-1.448l0.543-1.447C397.878,527.064,396.793,527.607,395.707,527.245z"/>
	<path opacity="0.2" fill="#211915" enable-background="new    " d="M424.115,536.292l-17.37-5.428
		c-1.086-0.362-1.628-1.448-1.267-2.533l-0.543,1.447c-0.361,1.086,0.182,2.353,1.448,2.714l17.188,5.428
		c1.086,0.362,2.353-0.181,2.714-1.447l0.543-1.447C426.285,535.93,425.199,536.654,424.115,536.292z"/>
	<path opacity="0.2" fill="#211915" enable-background="new    " d="M452.522,545.158l-17.37-5.429
		c-1.086-0.361-1.629-1.447-1.267-2.533l-0.362,1.086c-0.361,1.267,0.362,2.533,1.629,3.076l16.646,5.247
		c1.267,0.361,2.533-0.362,3.076-1.629l0.362-1.085C454.693,544.977,453.607,545.52,452.522,545.158z"/>
	<path opacity="0.2" fill="#211915" enable-background="new    " d="M480.928,554.205l-17.369-5.429
		c-1.086-0.361-1.629-1.447-1.267-2.533l-0.362,1.086c-0.361,1.267,0.362,2.533,1.629,3.076l16.646,5.247
		c1.267,0.361,2.533-0.362,3.076-1.629l0.362-1.085C483.1,553.843,482.014,554.566,480.928,554.205z"/>
	<path opacity="0.2" fill="#211915" enable-background="new    " d="M187.088,432.435l-17.37-5.428
		c-1.085-0.362-1.628-1.448-1.267-2.533l-0.543,1.447c-0.361,1.086,0.182,2.171,1.267,2.533l17.37,5.428
		c1.086,0.362,2.171-0.181,2.533-1.267l0.543-1.447C189.259,432.254,188.174,432.797,187.088,432.435z"/>
	<path opacity="0.2" fill="#211915" enable-background="new    " d="M215.495,441.481l-17.37-5.428
		c-1.086-0.362-1.629-1.448-1.267-2.533l-0.543,1.447c-0.361,1.086,0.181,2.171,1.267,2.533l17.37,5.428
		c1.086,0.362,2.171-0.181,2.533-1.267l0.543-1.447C217.847,441.301,216.58,441.843,215.495,441.481z"/>
	<path opacity="0.2" fill="#211915" enable-background="new    " d="M244.083,450.348l-17.37-5.429
		c-1.086-0.361-1.629-1.447-1.267-2.533l-0.543,1.448c-0.361,1.085,0.181,2.171,1.267,2.532l17.37,5.429
		c1.086,0.361,2.171-0.181,2.533-1.267l0.543-1.447C246.254,450.166,244.988,450.709,244.083,450.348z"/>
	<path opacity="0.2" fill="#211915" enable-background="new    " d="M272.49,459.395l-17.37-5.429
		c-1.086-0.361-1.629-1.447-1.267-2.533l-0.543,1.447c-0.362,1.086,0.181,2.172,1.267,2.533l17.37,5.429
		c1.085,0.361,2.171-0.182,2.533-1.267l0.542-1.447C274.661,459.213,273.575,459.756,272.49,459.395z"/>
	<path opacity="0.2" fill="#211915" enable-background="new    " d="M300.897,468.44l-17.37-5.428
		c-1.085-0.361-1.628-1.447-1.266-2.533l-0.543,1.447c-0.362,1.086,0.181,2.172,1.267,2.533l17.369,5.429
		c1.086,0.361,2.172-0.182,2.533-1.267l0.543-1.448C303.069,468.079,301.983,468.622,300.897,468.44z"/>
	<path opacity="0.2" fill="#211915" enable-background="new    " d="M329.304,477.307l-17.37-5.428
		c-1.086-0.362-1.629-1.447-1.267-2.533l-0.543,1.447c-0.361,1.086,0.181,2.171,1.267,2.533l17.37,5.428
		c1.086,0.362,2.171-0.181,2.533-1.267l0.543-1.447C331.475,477.126,330.389,477.669,329.304,477.307z"/>
	<path opacity="0.2" fill="#211915" enable-background="new    " d="M357.711,486.354l-17.37-5.428
		c-1.086-0.362-1.629-1.448-1.267-2.533l-0.543,1.447c-0.362,1.086,0.181,2.171,1.267,2.533l17.37,5.428
		c1.085,0.362,2.171-0.181,2.533-1.267l0.542-1.447C359.882,485.992,358.796,486.534,357.711,486.354z"/>
	<path opacity="0.2" fill="#211915" enable-background="new    " d="M386.117,495.22l-17.369-5.429
		c-1.086-0.361-1.629-1.447-1.267-2.533l-0.543,1.448c-0.362,1.085,0.181,2.171,1.267,2.533l17.369,5.428
		c1.086,0.362,2.172-0.181,2.533-1.267l0.543-1.447C388.289,495.038,387.203,495.581,386.117,495.22z"/>
	<path opacity="0.2" fill="#211915" enable-background="new    " d="M414.525,504.267l-17.37-5.429
		c-1.085-0.361-1.628-1.447-1.267-2.533l-0.542,1.448c-0.362,1.085,0.181,2.171,1.266,2.532l17.37,5.429
		c1.086,0.361,2.172-0.181,2.533-1.267l0.543-1.447C416.877,503.904,415.611,504.447,414.525,504.267z"/>
	<path opacity="0.2" fill="#211915" enable-background="new    " d="M443.113,513.132l-17.37-5.428
		c-1.085-0.362-1.628-1.447-1.267-2.533l-0.542,1.447c-0.362,1.086,0.181,2.172,1.266,2.533l17.37,5.429
		c1.086,0.361,2.172-0.182,2.533-1.267l0.543-1.448C445.283,512.951,444.017,513.494,443.113,513.132z"/>
	<path opacity="0.2" fill="#211915" enable-background="new    " d="M471.52,522.179l-17.37-5.428
		c-1.086-0.362-1.628-1.447-1.267-2.533l-0.543,1.447c-0.361,1.086,0.182,2.172,1.267,2.533l17.37,5.428
		c1.086,0.362,2.171-0.181,2.533-1.267l0.543-1.447C473.691,521.817,472.606,522.541,471.52,522.179z"/>
	<path opacity="0.2" fill="#211915" enable-background="new    " d="M499.927,531.045l-17.37-5.428
		c-1.086-0.362-1.629-1.448-1.267-2.533l-0.543,1.447c-0.362,1.086,0.181,2.171,1.267,2.533l17.37,5.428
		c1.085,0.362,2.171-0.181,2.533-1.267l0.542-1.447C502.098,530.864,501.012,531.406,499.927,531.045z"/>
	<path opacity="0.2" fill="#211915" enable-background="new    " d="M138.597,388.105l-17.37-5.428
		c-1.085-0.362-1.628-1.448-1.266-2.533l-0.725,1.99c-0.181,0.724,0.182,1.628,0.905,1.81l18.274,5.79
		c0.724,0.181,1.628-0.181,1.81-0.904l0.904-1.99C140.769,387.924,139.683,388.467,138.597,388.105z"/>
	<path opacity="0.2" fill="#211915" enable-background="new    " d="M167.004,397.152l-17.37-5.429
		c-1.085-0.362-1.628-1.447-1.267-2.533l-0.724,1.99c-0.181,0.724,0.181,1.628,0.905,1.809l18.274,5.79
		c0.724,0.181,1.628-0.181,1.81-0.904l0.724-1.991C169.175,396.79,168.09,397.514,167.004,397.152z"/>
	<path opacity="0.2" fill="#211915" enable-background="new    " d="M195.411,406.018l-17.37-5.428
		c-1.086-0.362-1.629-1.447-1.267-2.533l-0.724,1.99c-0.181,0.724,0.181,1.629,0.904,1.81l18.274,5.79
		c0.725,0.181,1.629-0.182,1.81-0.905l0.724-1.99C197.763,405.837,196.496,406.38,195.411,406.018z"/>
	<path opacity="0.2" fill="#211915" enable-background="new    " d="M223.819,415.064l-17.37-5.428
		c-1.086-0.362-1.629-1.447-1.267-2.533l-0.724,1.99c-0.182,0.724,0.181,1.629,0.904,1.81l18.274,5.79
		c0.724,0.181,1.629-0.182,1.81-0.905l0.724-1.99C226.17,414.703,224.904,415.427,223.819,415.064z"/>
	<path opacity="0.2" fill="#211915" enable-background="new    " d="M252.406,423.931l-17.37-5.429
		c-1.086-0.361-1.629-1.447-1.267-2.532l-0.724,1.99c-0.182,0.724,0.181,1.628,0.904,1.809l18.274,5.79
		c0.724,0.182,1.629-0.181,1.81-0.904l0.724-1.99C254.577,423.75,253.311,424.292,252.406,423.931z"/>
	<path opacity="0.2" fill="#211915" enable-background="new    " d="M280.813,432.978l-17.369-5.429
		c-1.086-0.361-1.629-1.447-1.267-2.532l-0.725,1.99c-0.181,0.724,0.182,1.628,0.905,1.809l18.274,5.79
		c0.724,0.182,1.629-0.181,1.81-0.904l0.724-1.99C282.985,432.797,281.899,433.339,280.813,432.978z"/>
	<path opacity="0.2" fill="#211915" enable-background="new    " d="M309.22,441.843l-17.37-5.428
		c-1.085-0.361-1.628-1.447-1.267-2.533l-0.724,1.99c-0.181,0.724,0.182,1.629,0.905,1.81l18.274,5.79
		c0.724,0.181,1.628-0.181,1.809-0.904l0.724-1.991C311.391,441.662,310.305,442.205,309.22,441.843z"/>
	<path opacity="0.2" fill="#211915" enable-background="new    " d="M337.627,450.89l-17.37-5.428
		c-1.086-0.362-1.629-1.447-1.267-2.533l-0.724,1.99c-0.181,0.724,0.181,1.629,0.904,1.81l18.274,5.79
		c0.724,0.181,1.629-0.181,1.81-0.905l0.724-1.99C339.798,450.709,338.712,451.252,337.627,450.89z"/>
	<path opacity="0.2" fill="#211915" enable-background="new    " d="M366.033,459.937l-17.369-5.428
		c-1.086-0.362-1.629-1.447-1.267-2.533l-0.724,1.99c-0.182,0.724,0.181,1.629,0.904,1.81l18.274,5.79
		c0.724,0.181,1.629-0.181,1.81-0.905l0.724-1.99C368.205,459.575,367.119,460.118,366.033,459.937z"/>
	<path opacity="0.2" fill="#211915" enable-background="new    " d="M394.441,468.803l-17.37-5.428
		c-1.085-0.362-1.628-1.448-1.267-2.533l-0.724,1.99c-0.181,0.724,0.182,1.628,0.905,1.81l18.274,5.79
		c0.724,0.181,1.628-0.182,1.81-0.905l0.724-1.99C396.612,468.622,395.527,469.165,394.441,468.803z"/>
	<path opacity="0.2" fill="#211915" enable-background="new    " d="M422.848,477.85l-17.37-5.428
		c-1.086-0.362-1.628-1.448-1.267-2.533l-0.724,1.99c-0.181,0.724,0.181,1.628,0.904,1.81l18.275,5.789
		c0.724,0.182,1.628-0.181,1.809-0.904l0.724-1.99C425.199,477.487,423.934,478.03,422.848,477.85z"/>
	<path opacity="0.2" fill="#211915" enable-background="new    " d="M451.436,486.716l-17.37-5.429
		c-1.086-0.361-1.628-1.447-1.267-2.533l-0.724,1.99c-0.181,0.725,0.181,1.629,0.905,1.81l18.274,5.79
		c0.724,0.181,1.628-0.181,1.809-0.904l0.725-1.99C453.607,486.534,452.34,487.077,451.436,486.716z"/>
	<path opacity="0.2" fill="#211915" enable-background="new    " d="M479.843,495.762l-17.37-5.428
		c-1.086-0.361-1.629-1.447-1.267-2.533l-0.724,1.99c-0.181,0.724,0.181,1.629,0.904,1.81l18.274,5.79
		c0.724,0.181,1.629-0.181,1.81-0.904l0.724-1.99C482.014,495.4,480.928,496.124,479.843,495.762z"/>
	<path opacity="0.2" fill="#211915" enable-background="new    " d="M443.836,616.446l-17.37-5.428
		c-1.085-0.362-1.628-1.447-1.267-2.533l-0.724,2.353c-0.181,0.543,0.182,1.267,0.724,1.447l18.999,5.971
		c0.543,0.182,1.267-0.181,1.447-0.724l0.724-2.353C446.008,616.085,444.922,616.809,443.836,616.446z"/>
	<path opacity="0.2" fill="#211915" enable-background="new    " d="M440.036,628.389l-17.369-5.429
		c-1.086-0.361-1.629-1.447-1.267-2.532l-0.724,2.352c-0.182,0.543,0.181,1.267,0.724,1.447l18.998,5.972
		c0.543,0.181,1.267-0.182,1.447-0.724l0.724-2.353C442.208,628.208,441.122,628.75,440.036,628.389z"/>
	<path opacity="0.2" fill="#211915" enable-background="new    " d="M466.634,636.712l-17.369-5.429
		c-1.086-0.361-1.629-1.447-1.267-2.533l-0.725,2.353c-0.181,0.543,0.182,1.267,0.725,1.447l18.998,5.971
		c0.543,0.182,1.267-0.181,1.447-0.724l0.724-2.352C468.806,636.53,467.72,637.073,466.634,636.712z"/>
	<path opacity="0.2" fill="#211915" enable-background="new    " d="M413.62,620.065l-17.37-5.428
		c-1.086-0.362-1.629-1.448-1.267-2.533l-0.724,2.352c-0.181,0.543,0.181,1.267,0.724,1.448l18.998,5.971
		c0.543,0.181,1.267-0.181,1.447-0.724l0.725-2.353C415.791,619.885,414.705,620.428,413.62,620.065z"/>
	<path opacity="0.2" fill="#211915" enable-background="new    " d="M508.249,504.628L490.88,499.2
		c-1.086-0.362-1.629-1.447-1.267-2.533l-0.724,1.99c-0.182,0.724,0.181,1.628,0.904,1.81l18.274,5.79
		c0.724,0.181,1.629-0.182,1.81-0.905l0.724-1.99C510.421,504.447,509.335,504.99,508.249,504.628z"/>
</g>
</svg>
