<?xml version="1.0" encoding="utf-8"?>
<!-- Generator: Adobe Illustrator 18.0.0, SVG Export Plug-In . SVG Version: 6.00 Build 0)  -->
<!DOCTYPE svg PUBLIC "-//W3C//DTD SVG 1.1//EN" "http://www.w3.org/Graphics/SVG/1.1/DTD/svg11.dtd">
<svg version="1.1" id="Capa_1" xmlns="http://www.w3.org/2000/svg" xmlns:xlink="http://www.w3.org/1999/xlink" x="0px" y="0px"
	 viewBox="0 0 100.9 86.8" enable-background="new 0 0 100.9 86.8" xml:space="preserve">
<g>
	<g opacity="0">
		<ellipse fill="#B2DAD2" cx="51.7" cy="45.6" rx="42.7" ry="37.7"/>
		<ellipse fill="#B2DAD2" cx="51.7" cy="45.6" rx="30.3" ry="26.8"/>
		
			<line fill="none" stroke="#B2DAD2" stroke-width="12.9558" stroke-linecap="round" stroke-miterlimit="10" x1="62.7" y1="50.8" x2="82" y2="64.7"/>
		<ellipse fill="#B2DAD2" cx="51.7" cy="45.6" rx="25.3" ry="22.3"/>
		<ellipse fill="#B2DAD2" cx="51.7" cy="45.6" rx="21.4" ry="18.8"/>
		<ellipse fill="#B2DAD2" cx="51.7" cy="45.6" rx="18.7" ry="16.5"/>
		<path fill="#B2DAD2" d="M33,45.6c0,1.4,0.2,2.9,0.6,4.2c2.3,0.9,4.8,1.3,7.4,1.3c10.3,0,18.7-7.4,18.7-16.5c0-1.4-0.2-2.9-0.6-4.2
			c-2.3-0.9-4.8-1.3-7.4-1.3C41.4,29.1,33,36.5,33,45.6z"/>
		<path opacity="0.1" fill="#B2DAD2" d="M51.7,7.9v75.4c23.6,0,42.7-16.9,42.7-37.7C94.4,24.8,75.3,7.9,51.7,7.9z"/>
	</g>
	<g>
		<g>
			<ellipse fill="#EFEFEE" cx="47.7" cy="41.6" rx="42.7" ry="37.7"/>
			<ellipse fill="#FFFFFF" cx="47.7" cy="41.6" rx="30.3" ry="26.8"/>
			
				<line fill="none" stroke="#FFFFFF" stroke-width="12.9558" stroke-linecap="round" stroke-miterlimit="10" x1="58.7" y1="46.8" x2="78" y2="60.7"/>
			<ellipse fill="#EFEFEE" cx="47.7" cy="41.6" rx="25.3" ry="22.3"/>
			<ellipse fill="#CEC7BA" cx="47.7" cy="41.6" rx="21.4" ry="18.8"/>
			<ellipse fill="#443D33" cx="47.7" cy="41.6" rx="18.7" ry="16.5"/>
			<path fill="#564E43" d="M29,41.6c0,1.4,0.2,2.9,0.6,4.2c2.3,0.9,4.8,1.3,7.4,1.3c10.3,0,18.7-7.4,18.7-16.5
				c0-1.4-0.2-2.9-0.6-4.2c-2.3-0.9-4.8-1.3-7.4-1.3C37.4,25.1,29,32.5,29,41.6z"/>
			<path opacity="0.1" d="M47.7,3.9v75.4c23.6,0,42.7-16.9,42.7-37.7C90.4,20.8,71.3,3.9,47.7,3.9z"/>
		</g>
	</g>
</g>
</svg>
