<?xml version="1.0" encoding="utf-8"?>
<!-- Generator: Adobe Illustrator 18.0.0, SVG Export Plug-In . SVG Version: 6.00 Build 0)  -->
<!DOCTYPE svg PUBLIC "-//W3C//DTD SVG 1.1//EN" "http://www.w3.org/Graphics/SVG/1.1/DTD/svg11.dtd">
<svg version="1.1" id="Layer_1" xmlns="http://www.w3.org/2000/svg" xmlns:xlink="http://www.w3.org/1999/xlink" x="0px" y="0px"
	 viewBox="0 0 976.5 546" enable-background="new 0 0 976.5 546" xml:space="preserve">
<g display="none">
	<g display="inline">
		<path fill="#949494" d="M399.4,663.4v-0.2c-0.3,0.4-0.6,0.6-0.9,0.9c-0.3,0.2-0.6,0.4-1,0.5c-0.4,0.1-0.7,0.2-1.2,0.2
			c-0.6,0-1.1-0.1-1.5-0.4c-0.5-0.2-0.9-0.6-1.2-1c-0.3-0.4-0.6-1-0.8-1.5c-0.2-0.6-0.3-1.2-0.3-1.9c0-1.4,0.4-2.6,1.1-3.4
			c0.7-0.8,1.6-1.2,2.8-1.2c0.7,0,1.2,0.1,1.7,0.3c0.5,0.2,0.9,0.6,1.3,1.1v-3.4c0-0.5,0.1-0.8,0.3-1.1c0.2-0.2,0.5-0.4,0.8-0.4
			c0.4,0,0.6,0.1,0.8,0.3c0.2,0.2,0.3,0.6,0.3,1v10.2c0,0.4-0.1,0.8-0.3,1c-0.2,0.2-0.5,0.3-0.8,0.3c-0.3,0-0.6-0.1-0.8-0.3
			C399.5,664.2,399.4,663.9,399.4,663.4z M394.9,660c0,0.6,0.1,1.2,0.3,1.6c0.2,0.4,0.5,0.8,0.8,1c0.3,0.2,0.7,0.3,1.1,0.3
			c0.4,0,0.8-0.1,1.1-0.3c0.3-0.2,0.6-0.5,0.8-1c0.2-0.4,0.3-1,0.3-1.6c0-0.6-0.1-1.1-0.3-1.6c-0.2-0.4-0.5-0.8-0.8-1
			c-0.3-0.2-0.7-0.4-1.1-0.4c-0.4,0-0.8,0.1-1.1,0.4c-0.3,0.2-0.6,0.6-0.8,1C394.9,658.9,394.9,659.4,394.9,660z"/>
		<path fill="#949494" d="M410.4,660.6h-4.5c0,0.5,0.1,1,0.3,1.4c0.2,0.4,0.5,0.7,0.8,0.9c0.3,0.2,0.7,0.3,1.1,0.3
			c0.3,0,0.5,0,0.8-0.1c0.2-0.1,0.5-0.2,0.7-0.3c0.2-0.1,0.4-0.3,0.6-0.4c0.2-0.2,0.4-0.4,0.7-0.6c0.1-0.1,0.3-0.2,0.5-0.2
			c0.2,0,0.4,0.1,0.6,0.2c0.1,0.1,0.2,0.3,0.2,0.6c0,0.2-0.1,0.5-0.2,0.7c-0.2,0.3-0.4,0.5-0.7,0.8c-0.3,0.3-0.7,0.5-1.3,0.6
			c-0.5,0.2-1.1,0.3-1.7,0.3c-1.5,0-2.7-0.4-3.5-1.3c-0.8-0.9-1.2-2-1.2-3.5c0-0.7,0.1-1.3,0.3-1.9c0.2-0.6,0.5-1.1,0.9-1.5
			c0.4-0.4,0.9-0.7,1.4-1c0.6-0.2,1.2-0.3,1.9-0.3c0.9,0,1.7,0.2,2.3,0.6c0.7,0.4,1.1,0.9,1.5,1.5c0.3,0.6,0.5,1.2,0.5,1.9
			c0,0.6-0.2,1-0.5,1.1C411.5,660.5,411,660.6,410.4,660.6z M405.9,659.3h4.2c-0.1-0.8-0.3-1.4-0.6-1.8c-0.4-0.4-0.9-0.6-1.5-0.6
			c-0.6,0-1.1,0.2-1.4,0.6C406.2,657.9,406,658.5,405.9,659.3z"/>
		<path fill="#949494" d="M421.8,661.7c0,0.6-0.2,1.2-0.5,1.6c-0.3,0.5-0.8,0.8-1.4,1c-0.6,0.2-1.4,0.4-2.2,0.4
			c-0.8,0-1.6-0.1-2.1-0.4c-0.6-0.3-1-0.6-1.3-1c-0.3-0.4-0.4-0.8-0.4-1.2c0-0.3,0.1-0.5,0.3-0.7c0.2-0.2,0.4-0.3,0.7-0.3
			c0.2,0,0.4,0.1,0.6,0.2c0.1,0.1,0.3,0.3,0.4,0.5c0.2,0.4,0.5,0.7,0.9,0.9c0.3,0.2,0.8,0.3,1.4,0.3c0.5,0,0.8-0.1,1.1-0.3
			c0.3-0.2,0.4-0.4,0.4-0.7c0-0.4-0.2-0.7-0.5-0.9c-0.3-0.2-0.8-0.4-1.5-0.5c-0.8-0.2-1.5-0.4-2-0.6c-0.5-0.2-0.9-0.5-1.2-0.9
			c-0.3-0.4-0.4-0.8-0.4-1.3c0-0.5,0.1-0.9,0.4-1.3c0.3-0.4,0.7-0.7,1.2-1c0.5-0.3,1.2-0.4,2-0.4c0.6,0,1.1,0.1,1.6,0.2
			c0.5,0.1,0.9,0.3,1.2,0.5c0.3,0.2,0.6,0.4,0.7,0.7c0.2,0.3,0.3,0.5,0.3,0.7c0,0.3-0.1,0.5-0.3,0.7c-0.2,0.2-0.4,0.3-0.8,0.3
			c-0.2,0-0.4-0.1-0.6-0.2c-0.2-0.1-0.4-0.3-0.6-0.6c-0.2-0.2-0.4-0.4-0.6-0.5c-0.2-0.1-0.6-0.2-1-0.2c-0.4,0-0.8,0.1-1,0.3
			c-0.3,0.2-0.4,0.4-0.4,0.7c0,0.2,0.1,0.4,0.3,0.6c0.2,0.2,0.5,0.3,0.8,0.4c0.3,0.1,0.8,0.2,1.4,0.4c0.7,0.2,1.3,0.4,1.8,0.6
			c0.5,0.2,0.8,0.5,1,0.9C421.7,660.9,421.8,661.3,421.8,661.7z"/>
		<path fill="#949494" d="M424.9,654.2c-0.3,0-0.6-0.1-0.8-0.3c-0.2-0.2-0.3-0.5-0.3-0.8c0-0.3,0.1-0.6,0.4-0.8
			c0.2-0.2,0.5-0.3,0.8-0.3c0.3,0,0.6,0.1,0.8,0.3c0.2,0.2,0.3,0.5,0.3,0.8c0,0.4-0.1,0.6-0.3,0.8
			C425.5,654.1,425.2,654.2,424.9,654.2z M426.1,656.6v6.7c0,0.5-0.1,0.8-0.3,1.1c-0.2,0.2-0.5,0.4-0.8,0.4c-0.3,0-0.6-0.1-0.8-0.4
			c-0.2-0.2-0.3-0.6-0.3-1v-6.6c0-0.5,0.1-0.8,0.3-1c0.2-0.2,0.5-0.3,0.8-0.3c0.3,0,0.6,0.1,0.8,0.3
			C426,655.9,426.1,656.2,426.1,656.6z"/>
		<path fill="#949494" d="M437,657v6.7c0,0.8-0.1,1.4-0.2,2c-0.2,0.6-0.4,1-0.8,1.4c-0.4,0.4-0.8,0.6-1.4,0.8
			c-0.6,0.2-1.3,0.3-2.2,0.3c-0.8,0-1.5-0.1-2.1-0.3c-0.6-0.2-1.1-0.5-1.5-0.9c-0.3-0.4-0.5-0.7-0.5-1.1c0-0.3,0.1-0.5,0.3-0.7
			c0.2-0.2,0.4-0.3,0.7-0.3c0.3,0,0.6,0.1,0.9,0.5c0.1,0.2,0.3,0.3,0.4,0.5c0.1,0.2,0.3,0.3,0.4,0.4c0.2,0.1,0.4,0.2,0.6,0.2
			c0.2,0.1,0.5,0.1,0.8,0.1c0.6,0,1.1-0.1,1.4-0.3c0.3-0.2,0.6-0.4,0.7-0.7c0.1-0.3,0.2-0.6,0.2-1c0-0.3,0-0.9,0.1-1.7
			c-0.4,0.5-0.8,0.9-1.2,1.1c-0.5,0.3-1,0.4-1.7,0.4c-0.8,0-1.5-0.2-2-0.6c-0.6-0.4-1-1-1.3-1.7c-0.3-0.7-0.5-1.5-0.5-2.5
			c0-0.7,0.1-1.3,0.3-1.9c0.2-0.6,0.5-1,0.8-1.4c0.4-0.4,0.8-0.7,1.2-0.9c0.5-0.2,1-0.3,1.5-0.3c0.7,0,1.2,0.1,1.7,0.4
			c0.5,0.3,0.9,0.6,1.3,1.2v-0.3c0-0.4,0.1-0.7,0.3-0.9c0.2-0.2,0.5-0.3,0.8-0.3c0.4,0,0.7,0.1,0.9,0.4C436.9,656,437,656.5,437,657
			z M430.3,660c0,0.9,0.2,1.7,0.6,2.1c0.4,0.5,0.9,0.7,1.6,0.7c0.4,0,0.8-0.1,1.1-0.3c0.3-0.2,0.6-0.5,0.8-0.9
			c0.2-0.4,0.3-0.9,0.3-1.5c0-0.9-0.2-1.7-0.6-2.2c-0.4-0.5-1-0.8-1.6-0.8c-0.7,0-1.2,0.3-1.6,0.8C430.5,658.3,430.3,659,430.3,660z
			"/>
		<path fill="#949494" d="M441.5,656.6v0.3c0.4-0.5,0.9-0.9,1.3-1.2c0.5-0.3,1-0.4,1.7-0.4c0.6,0,1.2,0.1,1.6,0.4
			c0.5,0.3,0.8,0.6,1.1,1.1c0.2,0.3,0.3,0.6,0.3,0.9c0,0.3,0.1,0.7,0.1,1.3v4.3c0,0.5-0.1,0.8-0.3,1.1c-0.2,0.2-0.5,0.4-0.8,0.4
			c-0.3,0-0.6-0.1-0.8-0.4c-0.2-0.2-0.3-0.6-0.3-1v-3.9c0-0.8-0.1-1.4-0.3-1.8c-0.2-0.4-0.6-0.6-1.3-0.6c-0.4,0-0.8,0.1-1.1,0.4
			c-0.3,0.2-0.6,0.6-0.7,1c-0.1,0.3-0.2,1-0.2,1.9v2.9c0,0.5-0.1,0.8-0.3,1.1c-0.2,0.2-0.5,0.4-0.8,0.4c-0.3,0-0.6-0.1-0.8-0.4
			c-0.2-0.2-0.3-0.6-0.3-1v-6.7c0-0.4,0.1-0.8,0.3-1c0.2-0.2,0.5-0.3,0.8-0.3c0.2,0,0.4,0,0.6,0.1c0.2,0.1,0.3,0.2,0.4,0.4
			C441.4,656.1,441.5,656.3,441.5,656.6z"/>
		<path fill="#949494" d="M456.4,660.6h-4.5c0,0.5,0.1,1,0.3,1.4c0.2,0.4,0.5,0.7,0.8,0.9c0.3,0.2,0.7,0.3,1.1,0.3
			c0.3,0,0.5,0,0.8-0.1c0.2-0.1,0.5-0.2,0.7-0.3c0.2-0.1,0.4-0.3,0.6-0.4c0.2-0.2,0.4-0.4,0.7-0.6c0.1-0.1,0.3-0.2,0.5-0.2
			c0.2,0,0.4,0.1,0.6,0.2c0.1,0.1,0.2,0.3,0.2,0.6c0,0.2-0.1,0.5-0.2,0.7c-0.2,0.3-0.4,0.5-0.7,0.8c-0.3,0.3-0.7,0.5-1.2,0.6
			c-0.5,0.2-1.1,0.3-1.7,0.3c-1.5,0-2.7-0.4-3.5-1.3c-0.8-0.9-1.2-2-1.2-3.5c0-0.7,0.1-1.3,0.3-1.9c0.2-0.6,0.5-1.1,0.9-1.5
			c0.4-0.4,0.9-0.7,1.4-1c0.6-0.2,1.2-0.3,1.9-0.3c0.9,0,1.7,0.2,2.3,0.6c0.7,0.4,1.1,0.9,1.5,1.5c0.3,0.6,0.5,1.2,0.5,1.9
			c0,0.6-0.2,1-0.5,1.1C457.5,660.5,457,660.6,456.4,660.6z M451.8,659.3h4.2c-0.1-0.8-0.3-1.4-0.6-1.8c-0.4-0.4-0.9-0.6-1.5-0.6
			c-0.6,0-1.1,0.2-1.4,0.6C452.1,657.9,451.9,658.5,451.8,659.3z"/>
		<path fill="#949494" d="M466.6,663.4v-0.2c-0.3,0.4-0.6,0.6-0.9,0.9c-0.3,0.2-0.6,0.4-1,0.5c-0.4,0.1-0.7,0.2-1.2,0.2
			c-0.6,0-1.1-0.1-1.5-0.4c-0.5-0.2-0.9-0.6-1.2-1c-0.3-0.4-0.6-1-0.8-1.5c-0.2-0.6-0.3-1.2-0.3-1.9c0-1.4,0.4-2.6,1.1-3.4
			c0.7-0.8,1.6-1.2,2.8-1.2c0.7,0,1.2,0.1,1.7,0.3c0.5,0.2,0.9,0.6,1.3,1.1v-3.4c0-0.5,0.1-0.8,0.3-1.1c0.2-0.2,0.5-0.4,0.8-0.4
			c0.4,0,0.6,0.1,0.8,0.3c0.2,0.2,0.3,0.6,0.3,1v10.2c0,0.4-0.1,0.8-0.3,1c-0.2,0.2-0.5,0.3-0.8,0.3c-0.3,0-0.6-0.1-0.8-0.3
			C466.7,664.2,466.6,663.9,466.6,663.4z M462,660c0,0.6,0.1,1.2,0.3,1.6c0.2,0.4,0.5,0.8,0.8,1c0.3,0.2,0.7,0.3,1.1,0.3
			c0.4,0,0.8-0.1,1.1-0.3c0.3-0.2,0.6-0.5,0.8-1c0.2-0.4,0.3-1,0.3-1.6c0-0.6-0.1-1.1-0.3-1.6c-0.2-0.4-0.5-0.8-0.8-1
			c-0.3-0.2-0.7-0.4-1.1-0.4c-0.4,0-0.8,0.1-1.1,0.4c-0.3,0.2-0.6,0.6-0.8,1C462.1,658.9,462,659.4,462,660z"/>
		<path fill="#949494" d="M477.6,653.2v3.5c0.4-0.5,0.9-0.8,1.3-1c0.5-0.2,1-0.4,1.7-0.4c0.8,0,1.4,0.2,2,0.6c0.6,0.4,1,0.9,1.4,1.6
			c0.3,0.7,0.5,1.5,0.5,2.5c0,0.7-0.1,1.4-0.3,1.9c-0.2,0.6-0.4,1.1-0.8,1.5c-0.3,0.4-0.8,0.8-1.2,1c-0.5,0.2-1,0.4-1.6,0.4
			c-0.4,0-0.7,0-1-0.1c-0.3-0.1-0.6-0.2-0.8-0.3c-0.2-0.1-0.4-0.3-0.6-0.4c-0.2-0.1-0.4-0.4-0.6-0.7v0.2c0,0.4-0.1,0.8-0.3,1
			c-0.2,0.2-0.5,0.3-0.8,0.3c-0.3,0-0.6-0.1-0.8-0.3c-0.2-0.2-0.3-0.6-0.3-1v-10.1c0-0.5,0.1-0.8,0.3-1.1c0.2-0.2,0.5-0.4,0.8-0.4
			c0.4,0,0.6,0.1,0.8,0.3C477.5,652.4,477.6,652.8,477.6,653.2z M477.7,660.1c0,0.9,0.2,1.6,0.6,2.1c0.4,0.5,1,0.7,1.7,0.7
			c0.6,0,1.1-0.3,1.5-0.8c0.4-0.5,0.6-1.2,0.6-2.2c0-0.6-0.1-1.1-0.3-1.6c-0.2-0.4-0.4-0.8-0.8-1c-0.3-0.2-0.7-0.4-1.1-0.4
			c-0.4,0-0.8,0.1-1.2,0.4c-0.3,0.2-0.6,0.6-0.8,1C477.8,658.9,477.7,659.5,477.7,660.1z"/>
		<path fill="#949494" d="M488.3,665.1l0.2-0.5l-2.9-7.2c-0.2-0.4-0.3-0.7-0.3-0.9c0-0.2,0.1-0.4,0.2-0.6c0.1-0.2,0.2-0.3,0.4-0.4
			c0.2-0.1,0.4-0.2,0.6-0.2c0.3,0,0.6,0.1,0.8,0.3c0.2,0.2,0.3,0.5,0.5,0.9l2,5.7l1.9-5.3c0.1-0.4,0.3-0.8,0.4-1
			c0.1-0.2,0.2-0.4,0.4-0.5c0.1-0.1,0.3-0.1,0.6-0.1c0.2,0,0.3,0,0.5,0.1c0.2,0.1,0.3,0.2,0.4,0.4c0.1,0.2,0.1,0.3,0.1,0.5
			c0,0.1-0.1,0.3-0.1,0.5c-0.1,0.2-0.1,0.4-0.2,0.6l-3,7.9c-0.3,0.7-0.5,1.2-0.8,1.6c-0.2,0.4-0.6,0.7-1,0.9c-0.4,0.2-1,0.3-1.7,0.3
			c-0.7,0-1.2-0.1-1.5-0.2c-0.3-0.1-0.5-0.4-0.5-0.8c0-0.3,0.1-0.5,0.2-0.6c0.2-0.1,0.4-0.2,0.7-0.2c0.1,0,0.2,0,0.4,0.1
			c0.1,0,0.3,0.1,0.4,0.1c0.3,0,0.5,0,0.6-0.1c0.2-0.1,0.3-0.2,0.4-0.4C488,665.7,488.1,665.4,488.3,665.1z"/>
	</g>
	<g display="inline">
		<path fill="#949494" d="M531.3,655.5h0.6v-0.7c0-0.7,0.1-1.3,0.3-1.7c0.2-0.4,0.5-0.7,0.9-0.9c0.4-0.2,1-0.3,1.8-0.3
			c1.4,0,2,0.3,2,1c0,0.2-0.1,0.4-0.2,0.6c-0.1,0.2-0.3,0.2-0.5,0.2c-0.1,0-0.2,0-0.5-0.1c-0.2,0-0.4,0-0.6,0
			c-0.4,0-0.7,0.1-0.8,0.4c-0.1,0.2-0.2,0.6-0.2,1.1v0.6h0.6c0.9,0,1.3,0.3,1.3,0.8c0,0.4-0.1,0.6-0.4,0.7c-0.2,0.1-0.6,0.2-1,0.2
			h-0.6v6.2c0,0.5-0.1,0.8-0.3,1.1c-0.2,0.2-0.5,0.4-0.8,0.4c-0.3,0-0.6-0.1-0.8-0.4c-0.2-0.2-0.3-0.6-0.3-1.1v-6.2h-0.6
			c-0.3,0-0.6-0.1-0.8-0.2c-0.2-0.2-0.3-0.4-0.3-0.6C530.1,655.8,530.5,655.5,531.3,655.5z"/>
		<path fill="#949494" d="M539.6,661.4v1.9c0,0.5-0.1,0.8-0.3,1.1c-0.2,0.2-0.5,0.4-0.8,0.4c-0.3,0-0.6-0.1-0.8-0.4
			c-0.2-0.2-0.3-0.6-0.3-1.1v-6.5c0-1,0.4-1.6,1.1-1.6c0.4,0,0.7,0.1,0.8,0.4c0.2,0.2,0.3,0.6,0.3,1.1c0.3-0.5,0.6-0.8,0.9-1.1
			c0.3-0.2,0.7-0.4,1.2-0.4c0.5,0,1,0.1,1.4,0.4c0.5,0.2,0.7,0.6,0.7,1c0,0.3-0.1,0.5-0.3,0.7c-0.2,0.2-0.4,0.3-0.6,0.3
			c-0.1,0-0.3-0.1-0.6-0.2c-0.3-0.1-0.6-0.2-0.9-0.2c-0.3,0-0.6,0.1-0.8,0.3c-0.2,0.2-0.4,0.4-0.5,0.8c-0.1,0.4-0.2,0.8-0.2,1.3
			C539.6,660.1,539.6,660.7,539.6,661.4z"/>
		<path fill="#949494" d="M551,660.6h-4.5c0,0.5,0.1,1,0.3,1.4c0.2,0.4,0.5,0.7,0.8,0.9c0.3,0.2,0.7,0.3,1.1,0.3
			c0.3,0,0.5,0,0.8-0.1c0.2-0.1,0.4-0.2,0.7-0.3c0.2-0.1,0.4-0.3,0.6-0.4c0.2-0.2,0.4-0.4,0.7-0.6c0.1-0.1,0.3-0.2,0.5-0.2
			c0.2,0,0.4,0.1,0.6,0.2c0.1,0.1,0.2,0.3,0.2,0.6c0,0.2-0.1,0.5-0.2,0.7c-0.2,0.3-0.4,0.5-0.7,0.8c-0.3,0.3-0.8,0.5-1.3,0.6
			c-0.5,0.2-1.1,0.3-1.7,0.3c-1.5,0-2.7-0.4-3.5-1.3c-0.8-0.9-1.2-2-1.2-3.5c0-0.7,0.1-1.3,0.3-1.9c0.2-0.6,0.5-1.1,0.9-1.5
			c0.4-0.4,0.9-0.7,1.4-1c0.6-0.2,1.2-0.3,1.9-0.3c0.9,0,1.7,0.2,2.3,0.6c0.7,0.4,1.1,0.9,1.5,1.5c0.3,0.6,0.5,1.2,0.5,1.9
			c0,0.6-0.2,1-0.5,1.1C552,660.5,551.6,660.6,551,660.6z M546.4,659.3h4.2c-0.1-0.8-0.3-1.4-0.6-1.8c-0.4-0.4-0.9-0.6-1.5-0.6
			c-0.6,0-1.1,0.2-1.4,0.6C546.7,657.9,546.5,658.5,546.4,659.3z"/>
		<path fill="#949494" d="M561.3,660.6h-4.5c0,0.5,0.1,1,0.3,1.4c0.2,0.4,0.5,0.7,0.8,0.9c0.3,0.2,0.7,0.3,1.1,0.3
			c0.3,0,0.5,0,0.8-0.1c0.2-0.1,0.5-0.2,0.7-0.3c0.2-0.1,0.4-0.3,0.6-0.4c0.2-0.2,0.4-0.4,0.7-0.6c0.1-0.1,0.3-0.2,0.5-0.2
			c0.2,0,0.4,0.1,0.6,0.2s0.2,0.3,0.2,0.6c0,0.2-0.1,0.5-0.2,0.7c-0.2,0.3-0.4,0.5-0.7,0.8c-0.3,0.3-0.7,0.5-1.3,0.6
			c-0.5,0.2-1.1,0.3-1.7,0.3c-1.5,0-2.7-0.4-3.5-1.3c-0.8-0.9-1.2-2-1.2-3.5c0-0.7,0.1-1.3,0.3-1.9c0.2-0.6,0.5-1.1,0.9-1.5
			c0.4-0.4,0.9-0.7,1.4-1c0.6-0.2,1.2-0.3,1.9-0.3c0.9,0,1.7,0.2,2.3,0.6c0.6,0.4,1.1,0.9,1.5,1.5c0.3,0.6,0.5,1.2,0.5,1.9
			c0,0.6-0.2,1-0.5,1.1C562.4,660.5,561.9,660.6,561.3,660.6z M556.8,659.3h4.2c-0.1-0.8-0.3-1.4-0.6-1.8c-0.4-0.4-0.9-0.6-1.5-0.6
			c-0.6,0-1.1,0.2-1.4,0.6C557.1,657.9,556.8,658.5,556.8,659.3z"/>
		<path fill="#949494" d="M567.1,656.6v0.3c0.4-0.5,0.9-0.9,1.4-1.2c0.5-0.3,1-0.4,1.6-0.4c0.7,0,1.4,0.2,2,0.6
			c0.6,0.4,1.1,0.9,1.4,1.6c0.3,0.7,0.5,1.5,0.5,2.5c0,0.7-0.1,1.4-0.3,2c-0.2,0.6-0.5,1.1-0.8,1.5c-0.4,0.4-0.8,0.7-1.2,0.9
			c-0.5,0.2-1,0.3-1.5,0.3c-0.7,0-1.2-0.1-1.7-0.4c-0.5-0.3-0.9-0.7-1.3-1.2v3.5c0,1-0.4,1.5-1.1,1.5c-0.4,0-0.7-0.1-0.9-0.4
			c-0.1-0.3-0.2-0.6-0.2-1.2v-10c0-0.4,0.1-0.8,0.3-1c0.2-0.2,0.5-0.3,0.8-0.3c0.3,0,0.6,0.1,0.8,0.3
			C567,655.9,567.1,656.2,567.1,656.6z M571.6,660c0-0.6-0.1-1.1-0.3-1.6c-0.2-0.4-0.4-0.8-0.8-1c-0.3-0.2-0.7-0.4-1.1-0.4
			c-0.6,0-1.2,0.3-1.6,0.8c-0.4,0.5-0.7,1.2-0.7,2.2c0,0.9,0.2,1.6,0.7,2.2c0.4,0.5,1,0.8,1.6,0.8c0.4,0,0.7-0.1,1.1-0.3
			c0.3-0.2,0.6-0.6,0.8-1C571.5,661.2,571.6,660.6,571.6,660z"/>
		<path fill="#949494" d="M577,654.2c-0.3,0-0.6-0.1-0.8-0.3c-0.2-0.2-0.3-0.5-0.3-0.8c0-0.3,0.1-0.6,0.4-0.8
			c0.2-0.2,0.5-0.3,0.8-0.3c0.3,0,0.6,0.1,0.8,0.3c0.2,0.2,0.3,0.5,0.3,0.8c0,0.4-0.1,0.6-0.3,0.8
			C577.6,654.1,577.3,654.2,577,654.2z M578.2,656.6v6.7c0,0.5-0.1,0.8-0.3,1.1c-0.2,0.2-0.5,0.4-0.8,0.4c-0.3,0-0.6-0.1-0.8-0.4
			c-0.2-0.2-0.3-0.6-0.3-1v-6.6c0-0.5,0.1-0.8,0.3-1c0.2-0.2,0.5-0.3,0.8-0.3c0.3,0,0.6,0.1,0.8,0.3
			C578.1,655.9,578.2,656.2,578.2,656.6z"/>
		<path fill="#949494" d="M586.4,663.7l-2-3.4l-1.3,1.2v1.8c0,0.4-0.1,0.8-0.4,1c-0.2,0.2-0.5,0.4-0.8,0.4c-0.4,0-0.6-0.1-0.8-0.4
			c-0.2-0.2-0.3-0.6-0.3-1.1v-9.9c0-0.5,0.1-0.9,0.3-1.2c0.2-0.3,0.5-0.4,0.9-0.4c0.4,0,0.6,0.1,0.8,0.4c0.2,0.2,0.3,0.6,0.3,1.1
			v5.6l2.6-2.7c0.3-0.3,0.6-0.6,0.7-0.7c0.2-0.1,0.4-0.2,0.6-0.2c0.3,0,0.5,0.1,0.7,0.3c0.2,0.2,0.3,0.4,0.3,0.7
			c0,0.3-0.3,0.8-0.9,1.4l-1.2,1.1l2.4,3.7c0.2,0.3,0.3,0.5,0.4,0.6c0.1,0.1,0.1,0.3,0.1,0.4c0,0.4-0.1,0.7-0.3,0.9
			c-0.2,0.2-0.5,0.3-0.8,0.3c-0.3,0-0.5-0.1-0.7-0.2C586.8,664.4,586.6,664.1,586.4,663.7z"/>
		<path fill="#949494" d="M592.1,664.8c-0.4,0-0.7-0.1-0.9-0.3c-0.3-0.2-0.4-0.5-0.4-1c0-0.3,0.1-0.6,0.4-0.9
			c0.2-0.3,0.5-0.4,0.9-0.4c0.4,0,0.7,0.1,0.9,0.4c0.3,0.2,0.4,0.5,0.4,0.9c0,0.4-0.1,0.7-0.4,0.9
			C592.7,664.7,592.4,664.8,592.1,664.8z"/>
		<path fill="#949494" d="M604.3,661.9c0,0.3-0.1,0.6-0.3,0.9c-0.2,0.3-0.4,0.6-0.8,0.9c-0.4,0.3-0.8,0.5-1.3,0.7
			c-0.5,0.2-1.1,0.3-1.8,0.3c-1.4,0-2.6-0.4-3.4-1.3c-0.8-0.8-1.2-2-1.2-3.4c0-1,0.2-1.8,0.6-2.5c0.4-0.7,0.9-1.3,1.6-1.7
			c0.7-0.4,1.5-0.6,2.5-0.6c0.6,0,1.2,0.1,1.7,0.3c0.5,0.2,0.9,0.4,1.3,0.7c0.3,0.3,0.6,0.6,0.8,0.9c0.2,0.3,0.3,0.6,0.3,0.9
			c0,0.3-0.1,0.5-0.3,0.7c-0.2,0.2-0.5,0.3-0.8,0.3c-0.2,0-0.4,0-0.5-0.1c-0.1-0.1-0.3-0.3-0.4-0.5c-0.3-0.4-0.6-0.8-0.9-1
			c-0.3-0.2-0.7-0.3-1.2-0.3c-0.7,0-1.2,0.3-1.7,0.8c-0.4,0.5-0.6,1.3-0.6,2.2c0,0.4,0.1,0.8,0.2,1.2c0.1,0.4,0.3,0.7,0.5,0.9
			c0.2,0.3,0.5,0.5,0.7,0.6c0.3,0.1,0.6,0.2,1,0.2c0.5,0,0.9-0.1,1.2-0.3c0.3-0.2,0.6-0.5,0.9-1c0.1-0.3,0.3-0.5,0.5-0.6
			c0.2-0.1,0.4-0.2,0.6-0.2c0.3,0,0.5,0.1,0.7,0.3C604.2,661.4,604.3,661.6,604.3,661.9z"/>
		<path fill="#949494" d="M615.1,660c0,0.7-0.1,1.3-0.3,1.9c-0.2,0.6-0.5,1.1-0.9,1.5c-0.4,0.4-0.9,0.7-1.5,1
			c-0.6,0.2-1.2,0.3-1.9,0.3c-0.7,0-1.3-0.1-1.9-0.3c-0.6-0.2-1-0.5-1.5-1c-0.4-0.4-0.7-0.9-0.9-1.5c-0.2-0.6-0.3-1.2-0.3-1.9
			c0-0.7,0.1-1.3,0.3-1.9c0.2-0.6,0.5-1.1,0.9-1.5c0.4-0.4,0.9-0.7,1.5-1c0.6-0.2,1.2-0.3,1.9-0.3c0.7,0,1.3,0.1,1.9,0.3
			c0.6,0.2,1.1,0.6,1.5,1c0.4,0.4,0.7,0.9,0.9,1.5C615,658.7,615.1,659.3,615.1,660z M612.7,660c0-0.9-0.2-1.7-0.6-2.2
			c-0.4-0.5-1-0.8-1.7-0.8c-0.5,0-0.9,0.1-1.2,0.4c-0.3,0.2-0.6,0.6-0.8,1c-0.2,0.5-0.3,1-0.3,1.6c0,0.6,0.1,1.1,0.3,1.6
			c0.2,0.5,0.4,0.8,0.8,1c0.3,0.2,0.7,0.4,1.2,0.4c0.7,0,1.3-0.3,1.7-0.8C612.5,661.7,612.7,661,612.7,660z"/>
		<path fill="#949494" d="M624.6,660.2v3.1c0,0.5-0.1,0.9-0.3,1.1c-0.2,0.2-0.5,0.4-0.9,0.4c-0.4,0-0.6-0.1-0.9-0.4
			c-0.2-0.2-0.3-0.6-0.3-1.1v-3.7c0-0.6,0-1-0.1-1.4c0-0.3-0.1-0.6-0.3-0.8c-0.2-0.2-0.5-0.3-0.8-0.3c-0.8,0-1.3,0.3-1.5,0.8
			c-0.2,0.5-0.4,1.3-0.4,2.2v3.1c0,0.5-0.1,0.8-0.3,1.1c-0.2,0.3-0.5,0.4-0.9,0.4c-0.3,0-0.6-0.1-0.9-0.4c-0.2-0.2-0.3-0.6-0.3-1.1
			v-6.6c0-0.4,0.1-0.8,0.3-1c0.2-0.2,0.5-0.3,0.8-0.3c0.3,0,0.6,0.1,0.8,0.3c0.2,0.2,0.3,0.5,0.3,0.9v0.2c0.4-0.5,0.8-0.8,1.3-1.1
			c0.5-0.2,1-0.3,1.5-0.3c0.6,0,1.1,0.1,1.5,0.4c0.4,0.2,0.8,0.6,1,1.1c0.4-0.5,0.8-0.8,1.3-1.1c0.4-0.2,0.9-0.3,1.5-0.3
			c0.6,0,1.2,0.1,1.6,0.4c0.5,0.3,0.8,0.6,1,1.1c0.2,0.4,0.3,1.1,0.3,2v4.5c0,0.5-0.1,0.9-0.3,1.1c-0.2,0.2-0.5,0.4-0.9,0.4
			c-0.3,0-0.6-0.1-0.9-0.4c-0.2-0.2-0.3-0.6-0.3-1.1v-3.9c0-0.5,0-0.9-0.1-1.2c0-0.3-0.2-0.6-0.3-0.8c-0.2-0.2-0.5-0.3-0.8-0.3
			c-0.3,0-0.6,0.1-0.9,0.3c-0.3,0.2-0.5,0.4-0.6,0.7C624.7,658.5,624.6,659.2,624.6,660.2z"/>
	</g>
	<g display="inline">
		<path fill="#949494" d="M513,649.3c0-0.2-0.1-0.3-0.1-0.4c0.8-0.1,1.3-1,0.9-1.7c-0.3-0.8-1.6-0.9-2-0.2c-0.5,0.6-0.1,1.6,0.7,1.8
			c0,0.2,0.1,0.3,0.1,0.5c-1.2,0.1-2.4,0.3-3.3,1c0.1,0.3,0.2,0.6,0.3,0.9c2-0.9,4.2-0.7,6.3-0.5c0.1-0.3,0.1-0.6,0.2-0.8
			C515,649.5,514,649.3,513,649.3z"/>
		<path fill="#949494" d="M524.8,652.5c-0.3,0.2-0.4,0.5-0.4,0.9c-0.3,0.3-0.2,0.8-0.2,1.3c-0.1,0.2-0.4,0.3-0.6,0.4
			c-0.3-0.4-0.6-0.8-0.9-1.2l0,0c-0.4-0.4-0.8-0.7-1.3-1c-0.4,0.4-0.8,0.8-1.1,1.2c0.7,0.8,1.3,1.6,1.9,2.5c0.4,0.7,0.7,1.4,1,2.1
			c0.6-0.3,1.2-0.6,1.8-0.9c-0.3-0.7-0.7-1.4-1-2.1c0.3-0.1,0.6-0.3,0.7-0.6c0-0.4-0.1-0.8,0.2-1.1c0.5,0.3,1.1,0,1.2-0.6
			C525.9,652.6,525.2,652.2,524.8,652.5z"/>
		<path fill="#949494" d="M521.6,656.8c-0.8-1.3-1.6-2.5-2.7-3.5c-1.3-1.1-3-1.9-4.8-1.9c-2.2,0-4.5,0.3-6.5,1.2
			c-1.9,0.8-3.6,2.4-4.4,4.3c-0.8,1.8-0.8,3.8-0.4,5.6c2,0.5,4.1,1,6.2,1.1c2.1,0.1,4.2,0.1,6.2-0.2c2.8-0.4,5.6-1.3,8.1-2.7
			C523.2,660.7,522.9,658.8,521.6,656.8z M511.5,659.3c-0.4,0.6-0.9,1-1.6,1.2c-1.2,0.4-2.6,0.1-3.5-0.8c-0.6-0.7-1-1.5-0.9-2.4
			c0-1.1,0.7-2.2,1.7-2.7c0.8-0.4,1.7-0.5,2.5-0.3c0.3,0.1,0.7,0.2,1,0.4c0.6,0.4,1.1,1.1,1.3,1.8
			C512.2,657.5,512.1,658.5,511.5,659.3z M520.1,657.3c-0.1,1-1.1,1.8-2,1.7c-0.6,0-1.1-0.2-1.5-0.6c-0.3-0.3-0.5-0.7-0.5-1.2
			c-0.1-1,0.6-2,1.5-2.2c0.4-0.1,0.9-0.1,1.3,0C519.7,655.3,520.3,656.4,520.1,657.3z"/>
		<path fill="#949494" d="M503.2,654c-0.8,0.5-1.5,1.2-2.1,2c-0.2-0.3-0.2-0.7-0.4-1c-0.1-0.2-0.3-0.1-0.5-0.1c-0.2,0-0.4,0-0.6-0.1
			c0.2-0.3,0.2-0.9-0.2-1.1c-0.4-0.3-1,0-1.1,0.4c-0.2,0.5,0.4,1,0.9,0.9c0.3,0.4,0.8,0.3,1.2,0.3c0.2,0.3,0.3,0.7,0.6,1
			c-0.4,0.9-0.7,1.9-0.7,2.8c0.6,0.2,1.1,0.5,1.7,0.7c0-0.6,0.1-1.2,0.2-1.8c0.2-1.3,1-2.5,1.9-3.4
			C503.6,654.4,503.4,654.2,503.2,654z"/>
		<path fill="#949494" d="M516.5,664c-2.1,0.5-4.3,0.6-6.4,0.5c-1.5-0.1-2.9-0.2-4.3-0.5c-1-0.2-2-0.5-3-0.8
			c0.2,1.3,0.7,2.5,1.4,3.5c0.9,1.2,2,2.3,3.5,2.8c1.1,0.3,2.5,0.7,4.8,0.6c1.9,0,3.8-0.3,5.4-1c1.1-0.5,2.1-1.1,3-1.9
			c0.8-0.7,1.3-1.6,1.7-2.5c0.4-0.9,0.7-2.5,0.7-3.3C521.2,662.6,518.9,663.6,516.5,664z"/>
	</g>
</g>
<path opacity="0.7" fill="#BBBBBB" d="M597.4,169.3c-13.9,9.1-18,27.5-9,41.2c3.5,5.3,8.4,9.2,14,11.3l0,0l1,7.4l7-5.5
	c6.6,0.6,13.4-0.9,19.4-4.8c13.9-9.1,18-27.5,9-41.2C629.8,163.9,611.3,160.2,597.4,169.3z"/>
<g>
	<linearGradient id="SVGID_1_" gradientUnits="userSpaceOnUse" x1="895.5358" y1="135.7726" x2="852.5352" y2="340.7759">
		<stop  offset="0.1425" style="stop-color:#789FCA"/>
		<stop  offset="0.4839" style="stop-color:#4B7FB9"/>
		<stop  offset="0.7419" style="stop-color:#1E5FA7"/>
		<stop  offset="1" style="stop-color:#17477D"/>
	</linearGradient>
	<path fill="url(#SVGID_1_)" d="M891.1,180.1c12.7,0,23.1-10.4,23.1-23.1c0-12.7-10.4-23.1-23.1-23.1c-12.7,0-23.1,10.4-23.1,23.1
		C868,169.8,878.3,180.1,891.1,180.1z"/>
	<linearGradient id="SVGID_2_" gradientUnits="userSpaceOnUse" x1="914.242" y1="139.6971" x2="871.242" y2="344.697">
		<stop  offset="0.1425" style="stop-color:#789FCA"/>
		<stop  offset="0.4839" style="stop-color:#4B7FB9"/>
		<stop  offset="0.7419" style="stop-color:#1E5FA7"/>
		<stop  offset="1" style="stop-color:#17477D"/>
	</linearGradient>
	<path fill="url(#SVGID_2_)" d="M941.8,252.2c0.1-0.4,0.2-0.9,0.1-1.3l-10.6-56.1c-0.9-5.3-5.3-9.1-10.6-9.1h-59.1
		c-5.3,0-9.8,3.8-10.6,9l-10.6,56.2c-0.1,0.5-0.1,0.9,0.1,1.3c-0.1,0.5-0.1,1-0.1,1.5c0,5.9,4.8,10.8,10.8,10.8
		c5.2,0,9.7-3.7,10.6-8.9l6.7-41.7l-0.1,133.2c0,5.9,4.8,10.8,10.8,10.8c5.9,0,10.8-4.8,10.8-10.8v-65.9h2.6v65.9
		c0,5.9,4.8,10.8,10.8,10.8c5.9,0,10.8-4.8,10.8-10.8l-0.1-133.2l6.7,41.8c0.9,5.1,5.4,8.8,10.6,8.8c5.9,0,10.8-4.8,10.8-10.8
		C941.9,253.2,941.9,252.7,941.8,252.2z"/>
</g>
<defs>
	<filter id="Adobe_OpacityMaskFilter" filterUnits="userSpaceOnUse" x="684.2" y="443.4" width="116.8" height="12.6">
		<feColorMatrix  type="matrix" values="1 0 0 0 0  0 1 0 0 0  0 0 1 0 0  0 0 0 1 0"/>
	</filter>
</defs>
<mask maskUnits="userSpaceOnUse" x="684.2" y="443.4" width="116.8" height="12.6" id="SVGID_3_">
	<g filter="url(#Adobe_OpacityMaskFilter)">
		
			<radialGradient id="SVGID_4_" cx="721.5453" cy="1432.9863" r="70.6746" gradientTransform="matrix(0.8262 0 0 8.930000e-002 146.4443 321.7146)" gradientUnits="userSpaceOnUse">
			<stop  offset="0" style="stop-color:#FFFFFF"/>
			<stop  offset="1" style="stop-color:#14130A"/>
		</radialGradient>
		<path fill="url(#SVGID_4_)" d="M801,449.7c0,3.5-26.1,6.3-58.4,6.3c-32.3,0-58.4-2.8-58.4-6.3c0-3.5,26.1-6.3,58.4-6.3
			C774.8,443.4,801,446.2,801,449.7z"/>
	</g>
</mask>
<path opacity="0.33" mask="url(#SVGID_3_)" fill="#1E5FA7" d="M801,449.7c0,3.5-26.1,6.3-58.4,6.3c-32.3,0-58.4-2.8-58.4-6.3
	c0-3.5,26.1-6.3,58.4-6.3C774.8,443.4,801,446.2,801,449.7z"/>
<linearGradient id="SVGID_5_" gradientUnits="userSpaceOnUse" x1="595.1294" y1="213.9447" x2="574.1293" y2="300.9451">
	<stop  offset="0.1559" style="stop-color:#949494"/>
	<stop  offset="0.5806" style="stop-color:#707070"/>
	<stop  offset="0.9892" style="stop-color:#4C4C4C"/>
</linearGradient>
<path fill="url(#SVGID_5_)" d="M586.7,272.9c13.2,0,23.9-10.7,23.9-23.9c0-13.2-10.7-23.9-23.9-23.9c-13.2,0-23.9,10.7-23.9,23.9
	C562.8,262.2,573.5,272.9,586.7,272.9z"/>
<linearGradient id="SVGID_6_" gradientUnits="userSpaceOnUse" x1="607.996" y1="228.6794" x2="566.9961" y2="458.6792">
	<stop  offset="0.1559" style="stop-color:#949494"/>
	<stop  offset="0.5806" style="stop-color:#707070"/>
	<stop  offset="0.9892" style="stop-color:#4C4C4C"/>
</linearGradient>
<path fill="url(#SVGID_6_)" d="M639.2,347.6c0.1-0.4,0.2-0.9,0.1-1.4l-11-58.1c-0.9-5.4-5.5-9.4-11-9.4h-61.2
	c-5.5,0-10.1,3.9-11,9.3l-11,58.2c-0.1,0.5-0.1,0.9,0.1,1.4c-0.1,0.5-0.1,1-0.1,1.6c0,6.2,5,11.2,11.2,11.2c5.4,0,10-3.8,11-9.2
	l6.9-43.2L563,445.8c0,6.2,5,11.2,11.2,11.2c6.2,0,11.2-5,11.2-11.2v-68.3h2.7v68.3c0,6.2,5,11.2,11.2,11.2c6.2,0,11.2-5,11.2-11.2
	l-0.1-137.9l6.9,43.3c1,5.3,5.6,9.1,11,9.1c6.2,0,11.2-5,11.2-11.2C639.3,348.6,639.2,348.1,639.2,347.6z"/>
<defs>
	<filter id="Adobe_OpacityMaskFilter_1_" filterUnits="userSpaceOnUse" x="526.2" y="450.4" width="120.9" height="13.1">
		<feColorMatrix  type="matrix" values="1 0 0 0 0  0 1 0 0 0  0 0 1 0 0  0 0 0 1 0"/>
	</filter>
</defs>
<mask maskUnits="userSpaceOnUse" x="526.2" y="450.4" width="120.9" height="13.1" id="SVGID_7_">
	<g filter="url(#Adobe_OpacityMaskFilter_1_)">
		
			<radialGradient id="SVGID_8_" cx="532.8326" cy="1514.3967" r="73.1749" gradientTransform="matrix(0.8262 0 0 8.930000e-002 146.4443 321.7146)" gradientUnits="userSpaceOnUse">
			<stop  offset="0" style="stop-color:#FFFFFF"/>
			<stop  offset="1" style="stop-color:#14130A"/>
		</radialGradient>
		<path fill="url(#SVGID_8_)" d="M647.1,457c0,3.6-27.1,6.5-60.5,6.5c-33.4,0-60.5-2.9-60.5-6.5c0-3.6,27.1-6.5,60.5-6.5
			C620.1,450.4,647.1,453.3,647.1,457z"/>
	</g>
</mask>
<path opacity="0.33" mask="url(#SVGID_7_)" fill="#4C4C4C" d="M647.1,457c0,3.6-27.1,6.5-60.5,6.5c-33.4,0-60.5-2.9-60.5-6.5
	c0-3.6,27.1-6.5,60.5-6.5C620.1,450.4,647.1,453.3,647.1,457z"/>
<g>
	<path opacity="0.7" fill="#9F948B" d="M278.7,76.8c12.3,8.4,15.6,25,7.4,37.1c-3.2,4.7-7.7,8.1-12.7,9.9l0,0l-1,6.6l-6.2-5.1
		c-5.9,0.4-12-1.1-17.3-4.7c-12.3-8.4-15.6-25-7.4-37.1C249.7,71.4,266.4,68.4,278.7,76.8z"/>
	<g>
		<linearGradient id="SVGID_9_" gradientUnits="userSpaceOnUse" x1="285.6215" y1="132.2288" x2="254.6216" y2="359.2285">
			<stop  offset="5.376340e-002" style="stop-color:#87796E"/>
			<stop  offset="0.6962" style="stop-color:#5F4C3D"/>
			<stop  offset="1" style="stop-color:#371F0D"/>
		</linearGradient>
		<path fill="url(#SVGID_9_)" d="M281.3,187.5c13.2,0,23.9-10.7,23.9-23.9c0-13.2-10.7-23.9-23.9-23.9c-13.2,0-23.9,10.7-23.9,23.9
			C257.4,176.8,268.2,187.5,281.3,187.5z"/>
		<linearGradient id="SVGID_10_" gradientUnits="userSpaceOnUse" x1="298.9239" y1="134.0455" x2="267.9239" y2="361.0459">
			<stop  offset="5.376340e-002" style="stop-color:#87796E"/>
			<stop  offset="0.6962" style="stop-color:#5F4C3D"/>
			<stop  offset="1" style="stop-color:#371F0D"/>
		</linearGradient>
		<path fill="url(#SVGID_10_)" d="M333.8,262.2c0.1-0.4,0.2-0.9,0.1-1.4l-11-58.1c-0.9-5.4-5.5-9.4-11-9.4h-61.2
			c-5.5,0-10.1,3.9-11,9.3l-11,58.2c-0.1,0.5-0.1,0.9,0.1,1.4c-0.1,0.5-0.1,1-0.1,1.6c0,6.2,5,11.2,11.2,11.2c5.4,0,10-3.8,11-9.2
			l6.9-43.2l-0.1,137.9c0,6.2,5,11.2,11.2,11.2c6.2,0,11.2-5,11.2-11.2v-68.3h2.7v68.3c0,6.2,5,11.2,11.2,11.2
			c6.2,0,11.2-5,11.2-11.2l-0.1-137.9l6.9,43.3c1,5.3,5.6,9.1,11,9.1c6.2,0,11.2-5,11.2-11.2C334,263.2,333.9,262.7,333.8,262.2z"/>
	</g>
</g>
<defs>
	<filter id="Adobe_OpacityMaskFilter_2_" filterUnits="userSpaceOnUse" x="341.6" y="450.4" width="120.9" height="13.1">
		<feColorMatrix  type="matrix" values="1 0 0 0 0  0 1 0 0 0  0 0 1 0 0  0 0 0 1 0"/>
	</filter>
</defs>
<mask maskUnits="userSpaceOnUse" x="341.6" y="450.4" width="120.9" height="13.1" id="SVGID_11_">
	<g filter="url(#Adobe_OpacityMaskFilter_2_)">
		
			<radialGradient id="SVGID_12_" cx="309.3759" cy="1514.3967" r="73.175" gradientTransform="matrix(0.8262 0 0 8.930000e-002 146.4443 321.7146)" gradientUnits="userSpaceOnUse">
			<stop  offset="0" style="stop-color:#FFFFFF"/>
			<stop  offset="1" style="stop-color:#14130A"/>
		</radialGradient>
		<path fill="url(#SVGID_12_)" d="M462.5,457c0,3.6-27.1,6.5-60.5,6.5c-33.4,0-60.5-2.9-60.5-6.5c0-3.6,27.1-6.5,60.5-6.5
			C435.4,450.4,462.5,453.3,462.5,457z"/>
	</g>
</mask>
<linearGradient id="SVGID_13_" gradientUnits="userSpaceOnUse" x1="434.2117" y1="221.4485" x2="403.2122" y2="448.4455">
	<stop  offset="5.376340e-002" style="stop-color:#87796E"/>
	<stop  offset="0.6962" style="stop-color:#5F4C3D"/>
	<stop  offset="1" style="stop-color:#371F0D"/>
</linearGradient>
<path opacity="0.33" mask="url(#SVGID_11_)" fill="url(#SVGID_13_)" d="M462.5,457c0,3.6-27.1,6.5-60.5,6.5
	c-33.4,0-60.5-2.9-60.5-6.5c0-3.6,27.1-6.5,60.5-6.5C435.4,450.4,462.5,453.3,462.5,457z"/>
<g>
	<path opacity="0.8" fill="#F7A079" d="M75.4,65.1c17.6,12,22.4,35.8,10.6,53.1c-4.6,6.8-11,11.6-18.2,14.2v0l-1.4,9.5l-8.8-7.3
		c-8.5,0.6-17.2-1.5-24.8-6.7c-17.6-12-22.4-35.8-10.6-53.1C33.9,57.4,57.8,53.1,75.4,65.1z"/>
	<defs>
		<filter id="Adobe_OpacityMaskFilter_3_" filterUnits="userSpaceOnUse" x="34.4" y="360" width="120.9" height="13.1">
			<feColorMatrix  type="matrix" values="1 0 0 0 0  0 1 0 0 0  0 0 1 0 0  0 0 0 1 0"/>
		</filter>
	</defs>
	<mask maskUnits="userSpaceOnUse" x="34.4" y="360" width="120.9" height="13.1" id="SVGID_14_">
		<g filter="url(#Adobe_OpacityMaskFilter_3_)">
			
				<radialGradient id="SVGID_15_" cx="-62.406" cy="502.3973" r="73.175" gradientTransform="matrix(0.8262 0 0 8.930000e-002 146.4443 321.7146)" gradientUnits="userSpaceOnUse">
				<stop  offset="0" style="stop-color:#FFFFFF"/>
				<stop  offset="1" style="stop-color:#14130A"/>
			</radialGradient>
			<path fill="url(#SVGID_15_)" d="M155.4,366.6c0,3.6-27.1,6.5-60.5,6.5c-33.4,0-60.5-2.9-60.5-6.5c0-3.6,27.1-6.5,60.5-6.5
				C128.3,360,155.4,363,155.4,366.6z"/>
		</g>
	</mask>
	<linearGradient id="SVGID_16_" gradientUnits="userSpaceOnUse" x1="127.0455" y1="131.0773" x2="96.0461" y2="358.0739">
		<stop  offset="5.376340e-002" style="stop-color:#87796E"/>
		<stop  offset="0.6962" style="stop-color:#5F4C3D"/>
		<stop  offset="1" style="stop-color:#371F0D"/>
	</linearGradient>
	<path opacity="0.33" mask="url(#SVGID_14_)" fill="url(#SVGID_16_)" d="M155.4,366.6c0,3.6-27.1,6.5-60.5,6.5
		c-33.4,0-60.5-2.9-60.5-6.5c0-3.6,27.1-6.5,60.5-6.5C128.3,360,155.4,363,155.4,366.6z"/>
	<g opacity="0.9">
		<g>
			<linearGradient id="SVGID_17_" gradientUnits="userSpaceOnUse" x1="100.8017" y1="137.4753" x2="51.8021" y2="371.4745">
				<stop  offset="0.1452" style="stop-color:#F5804D"/>
				<stop  offset="0.5215" style="stop-color:#F26020"/>
				<stop  offset="0.8226" style="stop-color:#B64818"/>
			</linearGradient>
			<path fill="url(#SVGID_17_)" d="M94.9,188.8c12.7,0,23.1-10.4,23.1-23.1c0-12.7-10.4-23.1-23.1-23.1c-12.7,0-23.1,10.4-23.1,23.1
				C71.8,178.5,82.2,188.8,94.9,188.8z"/>
			<linearGradient id="SVGID_18_" gradientUnits="userSpaceOnUse" x1="119.4864" y1="141.3875" x2="70.4864" y2="375.3882">
				<stop  offset="0.1452" style="stop-color:#F5804D"/>
				<stop  offset="0.5215" style="stop-color:#F26020"/>
				<stop  offset="0.8226" style="stop-color:#B64818"/>
			</linearGradient>
			<path fill="url(#SVGID_18_)" d="M145.6,260.9c0.1-0.4,0.2-0.9,0.1-1.3l-10.6-56.1c-0.9-5.3-5.3-9.1-10.6-9.1H65.3
				c-5.3,0-9.8,3.8-10.6,9l-10.6,56.2c-0.1,0.5-0.1,0.9,0.1,1.3c-0.1,0.5-0.1,1-0.1,1.5c0,5.9,4.8,10.8,10.8,10.8
				c5.2,0,9.6-3.7,10.6-8.9l6.7-41.7L72,355.8c0,5.9,4.8,10.8,10.8,10.8c5.9,0,10.8-4.8,10.8-10.8v-65.9h2.6v65.9
				c0,5.9,4.8,10.8,10.8,10.8c5.9,0,10.8-4.8,10.8-10.8l-0.1-133.2l6.7,41.8c0.9,5.1,5.4,8.8,10.6,8.8c5.9,0,10.8-4.8,10.8-10.8
				C145.7,261.9,145.7,261.5,145.6,260.9z"/>
		</g>
	</g>
</g>
<defs>
	<filter id="Adobe_OpacityMaskFilter_4_" filterUnits="userSpaceOnUse" x="413.8" y="519.4" width="165" height="17.8">
		<feColorMatrix  type="matrix" values="1 0 0 0 0  0 1 0 0 0  0 0 1 0 0  0 0 0 1 0"/>
	</filter>
</defs>
<mask maskUnits="userSpaceOnUse" x="413.8" y="519.4" width="165" height="17.8" id="SVGID_19_">
	<g filter="url(#Adobe_OpacityMaskFilter_4_)">
		
			<radialGradient id="SVGID_20_" cx="423.468" cy="2313.0188" r="99.8426" gradientTransform="matrix(0.8262 0 0 8.930000e-002 146.4443 321.7146)" gradientUnits="userSpaceOnUse">
			<stop  offset="0" style="stop-color:#FFFFFF"/>
			<stop  offset="1" style="stop-color:#14130A"/>
		</radialGradient>
		<path fill="url(#SVGID_20_)" d="M578.8,528.3c0,4.9-36.9,8.9-82.5,8.9c-45.6,0-82.5-4-82.5-8.9c0-4.9,36.9-8.9,82.5-8.9
			C541.9,519.4,578.8,523.3,578.8,528.3z"/>
	</g>
</mask>
<linearGradient id="SVGID_21_" gradientUnits="userSpaceOnUse" x1="496.3391" y1="537.1594" x2="496.2885" y2="519.5018">
	<stop  offset="0" style="stop-color:#4D4848"/>
	<stop  offset="0.3539" style="stop-color:#14130A"/>
	<stop  offset="1" style="stop-color:#14130A"/>
</linearGradient>
<path opacity="0.33" mask="url(#SVGID_19_)" fill="url(#SVGID_21_)" d="M578.8,528.3c0,4.9-36.9,8.9-82.5,8.9
	c-45.6,0-82.5-4-82.5-8.9c0-4.9,36.9-8.9,82.5-8.9C541.9,519.4,578.8,523.3,578.8,528.3z"/>
<g>
	<linearGradient id="SVGID_22_" gradientUnits="userSpaceOnUse" x1="739.2747" y1="129.2214" x2="693.2748" y2="373.2218">
		<stop  offset="0" style="stop-color:#FFD166"/>
		<stop  offset="0.2097" style="stop-color:#FFC233"/>
		<stop  offset="0.7016" style="stop-color:#FFB300"/>
		<stop  offset="1" style="stop-color:#BF8600"/>
	</linearGradient>
	<path fill="url(#SVGID_22_)" d="M734.4,186.5c17.2,0,31.2-14,31.2-31.2c0-17.2-14-31.2-31.2-31.2c-17.2,0-31.2,14-31.2,31.2
		C703.1,172.4,717.1,186.5,734.4,186.5z"/>
	<linearGradient id="SVGID_23_" gradientUnits="userSpaceOnUse" x1="762.9018" y1="133.676" x2="716.902" y2="377.6761">
		<stop  offset="0" style="stop-color:#FFD166"/>
		<stop  offset="0.2097" style="stop-color:#FFC233"/>
		<stop  offset="0.7016" style="stop-color:#FFB300"/>
		<stop  offset="1" style="stop-color:#BF8600"/>
	</linearGradient>
	<path fill="url(#SVGID_23_)" d="M803,284.1c0.2-0.6,0.2-1.2,0.1-1.8l-14.3-76c-1.2-7.1-7.2-12.3-14.4-12.3h-80
		c-7.2,0-13.2,5.2-14.3,12.2l-14.3,76.1c-0.1,0.6-0.1,1.2,0.1,1.8c-0.1,0.7-0.2,1.4-0.2,2c0,8,6.5,14.6,14.6,14.6
		c7,0,13.1-5,14.3-12l9-56.5l-0.1,180.2c0,8,6.5,14.6,14.6,14.6c8.1,0,14.6-6.5,14.6-14.6v-89.2h3.5v89.2c0,8,6.5,14.6,14.6,14.6
		c8,0,14.6-6.5,14.6-14.6l-0.1-180.2l9,56.6c1.3,6.9,7.3,11.9,14.3,11.9c8,0,14.6-6.5,14.6-14.6C803.1,285.4,803.1,284.7,803,284.1z
		"/>
</g>
<defs>
	<filter id="Adobe_OpacityMaskFilter_5_" filterUnits="userSpaceOnUse" x="561.4" y="454.5" width="79" height="8.5">
		<feColorMatrix  type="matrix" values="1 0 0 0 0  0 1 0 0 0  0 0 1 0 0  0 0 0 1 0"/>
	</filter>
</defs>
<mask maskUnits="userSpaceOnUse" x="561.4" y="454.5" width="79" height="8.5" id="SVGID_24_">
	<g filter="url(#Adobe_OpacityMaskFilter_5_)">
		
			<radialGradient id="SVGID_25_" cx="550.0607" cy="1534.9673" r="47.81" gradientTransform="matrix(0.8262 0 0 8.930000e-002 146.4443 321.7146)" gradientUnits="userSpaceOnUse">
			<stop  offset="0" style="stop-color:#FFFFFF"/>
			<stop  offset="1" style="stop-color:#14130A"/>
		</radialGradient>
		<path fill="url(#SVGID_25_)" d="M640.4,458.8c0,2.4-17.7,4.3-39.5,4.3c-21.8,0-39.5-1.9-39.5-4.3c0-2.4,17.7-4.3,39.5-4.3
			C622.7,454.5,640.4,456.4,640.4,458.8z"/>
	</g>
</mask>
<linearGradient id="SVGID_26_" gradientUnits="userSpaceOnUse" x1="677.7652" y1="419.9048" x2="610.72" y2="453.8221">
	<stop  offset="0" style="stop-color:#4D4848"/>
	<stop  offset="0.3539" style="stop-color:#14130A"/>
	<stop  offset="1" style="stop-color:#14130A"/>
</linearGradient>
<path opacity="0.33" mask="url(#SVGID_24_)" fill="url(#SVGID_26_)" d="M640.4,458.8c0,2.4-17.7,4.3-39.5,4.3
	c-21.8,0-39.5-1.9-39.5-4.3c0-2.4,17.7-4.3,39.5-4.3C622.7,454.5,640.4,456.4,640.4,458.8z"/>
<defs>
	<filter id="Adobe_OpacityMaskFilter_6_" filterUnits="userSpaceOnUse" x="262.6" y="502.3" width="158" height="17.1">
		<feColorMatrix  type="matrix" values="1 0 0 0 0  0 1 0 0 0  0 0 1 0 0  0 0 0 1 0"/>
	</filter>
</defs>
<mask maskUnits="userSpaceOnUse" x="262.6" y="502.3" width="158" height="17.1" id="SVGID_27_">
	<g filter="url(#Adobe_OpacityMaskFilter_6_)">
		
			<radialGradient id="SVGID_28_" cx="236.1801" cy="2117.5144" r="95.6256" gradientTransform="matrix(0.8262 0 0 8.930000e-002 146.4443 321.7146)" gradientUnits="userSpaceOnUse">
			<stop  offset="0" style="stop-color:#FFFFFF"/>
			<stop  offset="1" style="stop-color:#14130A"/>
		</radialGradient>
		<path fill="url(#SVGID_28_)" d="M420.6,510.8c0,4.7-35.4,8.5-79,8.5c-43.6,0-79-3.8-79-8.5c0-4.7,35.4-8.5,79-8.5
			C385.2,502.3,420.6,506.1,420.6,510.8z"/>
	</g>
</mask>
<linearGradient id="SVGID_29_" gradientUnits="userSpaceOnUse" x1="173.1658" y1="359.7368" x2="280.4381" y2="455.9665">
	<stop  offset="1.881720e-002" style="stop-color:#65818D"/>
	<stop  offset="0.5269" style="stop-color:#3E6271"/>
	<stop  offset="0.8817" style="stop-color:#0E3B4E"/>
</linearGradient>
<path opacity="0.33" mask="url(#SVGID_27_)" fill="url(#SVGID_29_)" d="M420.6,510.8c0,4.7-35.4,8.5-79,8.5c-43.6,0-79-3.8-79-8.5
	c0-4.7,35.4-8.5,79-8.5C385.2,502.3,420.6,506.1,420.6,510.8z"/>
<defs>
	<filter id="Adobe_OpacityMaskFilter_7_" filterUnits="userSpaceOnUse" x="596.9" y="507.8" width="139.6" height="17.1">
		<feColorMatrix  type="matrix" values="1 0 0 0 0  0 1 0 0 0  0 0 1 0 0  0 0 0 1 0"/>
	</filter>
</defs>
<mask maskUnits="userSpaceOnUse" x="596.9" y="507.8" width="139.6" height="17.1" id="SVGID_30_">
	<g filter="url(#Adobe_OpacityMaskFilter_7_)">
		
			<radialGradient id="SVGID_31_" cx="615.7775" cy="2179.4219" r="95.6225" gradientTransform="matrix(0.7297 0 0 8.930000e-002 217.305 321.7146)" gradientUnits="userSpaceOnUse">
			<stop  offset="0" style="stop-color:#FFFFFF"/>
			<stop  offset="1" style="stop-color:#14130A"/>
		</radialGradient>
		<path fill="url(#SVGID_31_)" d="M736.4,516.3c0,4.7-31.2,8.5-69.8,8.5c-38.5,0-69.8-3.8-69.8-8.5c0-4.7,31.2-8.5,69.8-8.5
			C705.2,507.8,736.4,511.6,736.4,516.3z"/>
	</g>
</mask>
<linearGradient id="SVGID_32_" gradientUnits="userSpaceOnUse" x1="517.7088" y1="382.7411" x2="612.572" y2="467.8391">
	<stop  offset="1.881720e-002" style="stop-color:#65818D"/>
	<stop  offset="0.5269" style="stop-color:#3E6271"/>
	<stop  offset="0.8817" style="stop-color:#0E3B4E"/>
</linearGradient>
<path opacity="0.33" mask="url(#SVGID_30_)" fill="url(#SVGID_32_)" d="M736.4,516.3c0,4.7-31.2,8.5-69.8,8.5
	c-38.5,0-69.8-3.8-69.8-8.5c0-4.7,31.2-8.5,69.8-8.5C705.2,507.8,736.4,511.6,736.4,516.3z"/>
<g>
	<linearGradient id="SVGID_33_" gradientUnits="userSpaceOnUse" x1="510.4684" y1="191.1982" x2="434.4686" y2="498.198">
		<stop  offset="0.2903" style="stop-color:#CB4989"/>
		<stop  offset="0.5599" style="stop-color:#C22A75"/>
		<stop  offset="0.7312" style="stop-color:#BE1C6B"/>
		<stop  offset="1" style="stop-color:#8F1550"/>
	</linearGradient>
	<path fill="url(#SVGID_33_)" d="M502.9,257c19.4,0,35.2-15.8,35.2-35.2c0-19.4-15.8-35.2-35.2-35.2c-19.4,0-35.2,15.8-35.2,35.2
		C467.7,241.2,483.5,257,502.9,257z"/>
	<linearGradient id="SVGID_34_" gradientUnits="userSpaceOnUse" x1="542.2469" y1="199.0654" x2="466.2473" y2="506.0644">
		<stop  offset="0.2903" style="stop-color:#CB4989"/>
		<stop  offset="0.5599" style="stop-color:#C22A75"/>
		<stop  offset="0.7312" style="stop-color:#BE1C6B"/>
		<stop  offset="1" style="stop-color:#8F1550"/>
	</linearGradient>
	<path fill="url(#SVGID_34_)" d="M580.3,367.1c0.2-0.6,0.2-1.3,0.1-2l-16.1-85.7c-1.3-8-8.1-13.8-16.2-13.8h-90.2
		c-8.1,0-14.9,5.8-16.2,13.7l-16.2,85.8c-0.1,0.7-0.1,1.4,0.1,2c-0.1,0.8-0.2,1.5-0.2,2.3c0,9.1,7.4,16.4,16.5,16.4
		c7.9,0,14.7-5.7,16.2-13.6l10.2-63.7L468,511.8c0,9.1,7.4,16.4,16.4,16.4c9.1,0,16.5-7.4,16.5-16.4V411.2h3.9v100.6
		c0,9.1,7.4,16.4,16.5,16.4c9.1,0,16.4-7.4,16.4-16.4l-0.1-203.3l10.2,63.8c1.4,7.8,8.2,13.5,16.2,13.5c9.1,0,16.5-7.4,16.5-16.4
		C580.4,368.6,580.4,367.8,580.3,367.1z"/>
</g>
<path opacity="0.7" fill="#789FCA" d="M925.8,54.6c-22.6,9.4-33.3,35.2-24,57.6c3.6,8.7,9.8,15.6,17.3,20.3l0,0l-0.5,11l11.6-6.1
	c9.4,2.7,19.7,2.3,29.4-1.8c22.6-9.4,33.3-35.2,24-57.6C974.2,55.6,948.3,45.1,925.8,54.6z"/>
<path fill="#FFB300" d="M754,57.7c-15.5,6.5-22.8,24.2-16.4,39.5c2.5,6,6.7,10.7,11.9,13.9v0l-0.4,7.6l8-4.2
	c6.4,1.8,13.5,1.6,20.2-1.2c15.5-6.5,22.8-24.2,16.4-39.5C787.2,58.5,769.5,51.3,754,57.7z"/>
<path fill="#D877A6" d="M500.4,98.7c-16.3,14.2-18.2,38.9-4.1,55c5.5,6.3,12.6,10.4,20.2,12.2l0,0l2.6,9.4l8-8.4
	c8.6-0.4,17.2-3.5,24.2-9.7c16.3-14.2,18.2-38.9,4.1-55C541.4,86.1,516.7,84.5,500.4,98.7z"/>
<g>
	<g>
		<linearGradient id="SVGID_35_" gradientUnits="userSpaceOnUse" x1="219.4041" y1="134.2962" x2="163.4044" y2="399.2952">
			<stop  offset="0.1317" style="stop-color:#7DBABE"/>
			<stop  offset="0.5054" style="stop-color:#5DA9AE"/>
			<stop  offset="0.7285" style="stop-color:#5DA9AE"/>
			<stop  offset="0.8522" style="stop-color:#467F83"/>
		</linearGradient>
		<path fill="url(#SVGID_35_)" d="M212.6,197.8c17.2,0,31.2-14,31.2-31.2c0-17.2-14-31.2-31.2-31.2c-17.2,0-31.2,14-31.2,31.2
			C181.4,183.8,195.4,197.8,212.6,197.8z"/>
		<linearGradient id="SVGID_36_" gradientUnits="userSpaceOnUse" x1="244.8349" y1="139.6702" x2="188.8348" y2="404.6713">
			<stop  offset="0.1317" style="stop-color:#7DBABE"/>
			<stop  offset="0.5054" style="stop-color:#5DA9AE"/>
			<stop  offset="0.7285" style="stop-color:#5DA9AE"/>
			<stop  offset="0.8522" style="stop-color:#467F83"/>
		</linearGradient>
		<path fill="url(#SVGID_36_)" d="M281.2,295.4c0.2-0.6,0.2-1.2,0.1-1.8l-14.3-76c-1.2-7.1-7.2-12.3-14.4-12.3h-80
			c-7.2,0-13.2,5.2-14.3,12.2l-14.3,76.1c-0.1,0.6-0.1,1.2,0.1,1.8c-0.1,0.7-0.2,1.4-0.2,2c0,8,6.5,14.6,14.6,14.6
			c7,0,13.1-5,14.3-12l9-56.5l-0.1,180.2c0,8,6.5,14.6,14.6,14.6c8,0,14.6-6.5,14.6-14.6v-89.2h3.5v89.2c0,8,6.5,14.6,14.6,14.6
			c8,0,14.6-6.5,14.6-14.6l-0.1-180.2l9,56.6c1.3,6.9,7.3,11.9,14.3,11.9c8,0,14.6-6.5,14.6-14.6
			C281.3,296.8,281.3,296.1,281.2,295.4z"/>
	</g>
	<path fill="#67BFC1" d="M190.6,66.3c17.3,11.7,21.9,35,10.4,51.9c-4.5,6.6-10.8,11.3-17.8,13.8v0l-1.4,9.2l-8.6-7.1
		c-8.3,0.6-16.8-1.5-24.3-6.5c-17.2-11.7-21.9-35-10.4-51.9C150,58.8,173.3,54.6,190.6,66.3z"/>
</g>
</svg>
