<?xml version="1.0" encoding="utf-8"?>
<!-- Generator: Adobe Illustrator 18.0.0, SVG Export Plug-In . SVG Version: 6.00 Build 0)  -->
<!DOCTYPE svg PUBLIC "-//W3C//DTD SVG 1.1//EN" "http://www.w3.org/Graphics/SVG/1.1/DTD/svg11.dtd">
<svg version="1.1" id="Capa_1" xmlns="http://www.w3.org/2000/svg" xmlns:xlink="http://www.w3.org/1999/xlink" x="0px" y="0px"
	 viewBox="0 0 141.4 360" enable-background="new 0 0 141.4 360" xml:space="preserve">
<g>
	
		<linearGradient id="SVGID_1_" gradientUnits="userSpaceOnUse" x1="813.731" y1="-207.297" x2="719.2546" y2="174.3385" gradientTransform="matrix(0.6267 0 0 0.6267 -433.5547 221.2879)">
		<stop  offset="0.2903" style="stop-color:#BD4981"/>
		<stop  offset="0.5599" style="stop-color:#B4316F"/>
		<stop  offset="0.7312" style="stop-color:#B12966"/>
		<stop  offset="1" style="stop-color:#87154C"/>
	</linearGradient>
	<path fill="url(#SVGID_1_)" d="M70.5,142.6c15.1,0,27.4-12.3,27.4-27.4c0-15.1-12.3-27.4-27.4-27.4c-15.1,0-27.4,12.3-27.4,27.4
		C43.1,130.3,55.4,142.6,70.5,142.6z"/>
	
		<linearGradient id="SVGID_2_" gradientUnits="userSpaceOnUse" x1="853.3249" y1="-197.4908" x2="758.8518" y2="184.1314" gradientTransform="matrix(0.6267 0 0 0.6267 -433.5547 221.2879)">
		<stop  offset="0.2903" style="stop-color:#BD4981"/>
		<stop  offset="0.5599" style="stop-color:#B4316F"/>
		<stop  offset="0.7312" style="stop-color:#B12966"/>
		<stop  offset="1" style="stop-color:#87154C"/>
	</linearGradient>
	<path fill="url(#SVGID_2_)" d="M130.8,228.4c0.2-0.5,0.2-1,0.1-1.6l-12.5-66.8c-1-6.2-6.3-10.8-12.6-10.8H35.5
		c-6.3,0-11.6,4.5-12.6,10.7l-12.6,66.8c-0.1,0.5-0.1,1.1,0.1,1.6c-0.1,0.6-0.2,1.2-0.2,1.8c0,7.1,5.8,12.8,12.9,12.8
		c6.2,0,11.5-4.4,12.6-10.6l7.9-49.6l-0.2,158.4c0,7.1,5.8,12.8,12.8,12.8c7.1,0,12.9-5.8,12.9-12.8v-78.4h3v78.4
		c0,7.1,5.8,12.8,12.9,12.8s12.8-5.8,12.8-12.8l-0.1-158.4l7.9,49.7c1.1,6.1,6.4,10.5,12.6,10.5c7.1,0,12.9-5.8,12.9-12.8
		C130.9,229.6,130.9,228.9,130.8,228.4z"/>
</g>
<path fill="#CB749E" d="M68.6,19.3c-12.7,11.1-14.2,30.3-3.2,42.8c4.3,4.9,9.8,8.1,15.7,9.5l0,0l2,7.3l6.2-6.5
	c6.7-0.3,13.4-2.7,18.9-7.6c12.7-11.1,14.2-30.3,3.2-42.8C100.5,9.5,81.3,8.2,68.6,19.3z"/>
</svg>
