<?xml version="1.0" encoding="utf-8"?>
<!-- Generator: Adobe Illustrator 16.0.0, SVG Export Plug-In . SVG Version: 6.00 Build 0)  -->
<!DOCTYPE svg PUBLIC "-//W3C//DTD SVG 1.1//EN" "http://www.w3.org/Graphics/SVG/1.1/DTD/svg11.dtd">
<svg version="1.1" xmlns="http://www.w3.org/2000/svg" xmlns:xlink="http://www.w3.org/1999/xlink" x="0px" y="0px"
	 width="141.429px" height="281.428px" viewBox="0 0 141.429 281.428" enable-background="new 0 0 141.429 281.428"
	 xml:space="preserve">
<g id="Capa_1" display="none">
	<g display="inline">
		
			<linearGradient id="SVGID_1_" gradientUnits="userSpaceOnUse" x1="260.9521" y1="447.7681" x2="166.4757" y2="66.1326" gradientTransform="matrix(0.6267 0 0 -0.6267 -87.1323 371.9901)">
			<stop  offset="0.2903" style="stop-color:#BD4981"/>
			<stop  offset="0.5599" style="stop-color:#B4316F"/>
			<stop  offset="0.7312" style="stop-color:#B12966"/>
			<stop  offset="1" style="stop-color:#87154C"/>
		</linearGradient>
		<path fill="url(#SVGID_1_)" d="M70.512,142.625c15.113,0,27.423-12.31,27.423-27.423c0-15.114-12.31-27.423-27.423-27.423
			c-15.114,0-27.423,12.309-27.423,27.423C43.089,130.316,55.397,142.625,70.512,142.625z"/>
		
			<linearGradient id="SVGID_2_" gradientUnits="userSpaceOnUse" x1="300.5479" y1="437.9614" x2="206.0748" y2="56.3392" gradientTransform="matrix(0.6267 0 0 -0.6267 -87.1323 371.9901)">
			<stop  offset="0.2903" style="stop-color:#BD4981"/>
			<stop  offset="0.5599" style="stop-color:#B4316F"/>
			<stop  offset="0.7312" style="stop-color:#B12966"/>
			<stop  offset="1" style="stop-color:#87154C"/>
		</linearGradient>
		<path fill="url(#SVGID_2_)" d="M130.813,228.4c0.155-0.467,0.155-1.012,0.077-1.557l-12.543-66.767
			c-1.014-6.232-6.311-10.751-12.621-10.751H35.454c-6.311,0-11.608,4.519-12.622,10.673l-12.621,66.845
			c-0.077,0.545-0.077,1.09,0.078,1.557c-0.078,0.625-0.155,1.169-0.155,1.793c0,7.089,5.765,12.776,12.854,12.776
			c6.155,0,11.452-4.44,12.621-10.595l7.946-49.627l-0.233,158.385c0,7.09,5.765,12.777,12.776,12.777
			c7.09,0,12.854-5.767,12.854-12.777v-78.374h3.039v78.374c0,7.09,5.765,12.777,12.854,12.777s12.777-5.767,12.777-12.777
			l-0.079-158.385l7.946,49.704c1.092,6.077,6.39,10.518,12.622,10.518c7.089,0,12.854-5.766,12.854-12.776
			C130.89,229.569,130.89,228.947,130.813,228.4z"/>
	</g>
	<path display="inline" fill="#CB749E" d="M68.564,19.299c-12.699,11.063-14.18,30.306-3.194,42.849
		c4.284,4.908,9.816,8.102,15.736,9.504l0,0l2.026,7.323l6.232-6.544c6.7-0.312,13.399-2.727,18.854-7.557
		c12.697-11.063,14.179-30.306,3.193-42.849C100.506,9.482,81.263,8.236,68.564,19.299z"/>
</g>
<g id="Capa_2">
	<g>
		<path opacity="0.7" fill="#9E938A" enable-background="new    " d="M67.495,8.643c14.569,9.947,18.477,29.607,8.766,43.936
			c-3.791,5.566-9.12,9.593-15.041,11.725l0,0l-1.186,7.816l-7.342-6.04c-6.988,0.475-14.211-1.302-20.488-5.565
			c-14.567-9.948-18.474-29.608-8.764-43.938C33.152,2.246,52.929-1.306,67.495,8.643z"/>
		<g>
			
				<linearGradient id="SVGID_3_" gradientUnits="userSpaceOnUse" x1="259.7354" y1="475.0249" x2="201.1572" y2="46.0813" gradientTransform="matrix(0.6267 0 0 -0.6267 -87.1323 371.9901)">
				<stop  offset="0.0538" style="stop-color:#86786D"/>
				<stop  offset="0.6962" style="stop-color:#5E4B3D"/>
				<stop  offset="1" style="stop-color:#361F12"/>
			</linearGradient>
			<path fill="url(#SVGID_3_)" d="M70.575,139.742c15.632,0,28.306-12.671,28.306-28.303c0-15.633-12.674-28.305-28.306-28.305
				c-15.633,0-28.304,12.672-28.304,28.305C42.271,127.071,55.061,139.742,70.575,139.742z"/>
			
				<linearGradient id="SVGID_4_" gradientUnits="userSpaceOnUse" x1="285.1064" y1="471.5571" x2="226.5275" y2="42.6076" gradientTransform="matrix(0.6267 0 0 -0.6267 -87.1323 371.9901)">
				<stop  offset="0.0538" style="stop-color:#86786D"/>
				<stop  offset="0.6962" style="stop-color:#5E4B3D"/>
				<stop  offset="1" style="stop-color:#361F12"/>
			</linearGradient>
			<path fill="url(#SVGID_4_)" d="M132.75,228.209c0.12-0.475,0.237-1.066,0.12-1.656l-13.028-68.81
				c-1.065-6.395-6.514-11.132-13.028-11.132H34.336c-6.514,0-11.961,4.619-13.028,11.014L8.281,226.553
				c-0.117,0.59-0.117,1.065,0.119,1.656c-0.119,0.595-0.119,1.186-0.119,1.896c0,7.34,5.922,13.265,13.265,13.265
				c6.396,0,11.842-4.501,13.028-10.897l8.17-51.161l-0.118,163.314c0,7.34,5.921,13.265,13.264,13.265
				c7.343,0,13.263-5.925,13.263-13.265v-80.889h3.2v80.889c0,7.34,5.921,13.265,13.262,13.265c7.345,0,13.267-5.925,13.267-13.265
				l-0.119-163.314l8.171,51.28c1.185,6.277,6.633,10.778,13.027,10.778c7.343,0,13.265-5.925,13.265-13.265
				C132.987,229.395,132.87,228.804,132.75,228.209z"/>
		</g>
	</g>
</g>
</svg>
