<?xml version="1.0" encoding="utf-8"?>
<!-- Generator: Adobe Illustrator 16.0.0, SVG Export Plug-In . SVG Version: 6.00 Build 0)  -->
<!DOCTYPE svg PUBLIC "-//W3C//DTD SVG 1.1//EN" "http://www.w3.org/Graphics/SVG/1.1/DTD/svg11.dtd">
<svg version="1.1" id="Capa_1" xmlns="http://www.w3.org/2000/svg" xmlns:xlink="http://www.w3.org/1999/xlink" x="0px" y="0px"
	 width="326px" height="400.425px" viewBox="0 0 326 400.425" enable-background="new 0 0 326 400.425" xml:space="preserve">
<g>
	<g id="XMLID_49_">
		
			<rect id="XMLID_11276_" x="178.924" y="30.395" transform="matrix(0.8199 0.5725 -0.5725 0.8199 102.5091 -114.22)" fill="#FFFFFF" stroke="#72706F" stroke-miterlimit="10" width="107.775" height="150.873"/>
		<polygon id="XMLID_11275_" fill="#8A1832" stroke="#72706F" stroke-miterlimit="10" points="285.257,62.174 276.055,55.749 
			231.144,24.392 222.173,37.239 267.084,68.597 276.287,75.022 300.87,92.186 309.841,79.337 		"/>
		<g id="XMLID_44_">
			<g id="XMLID_11264_">
				<g id="XMLID_11270_">
					
						<rect id="XMLID_11274_" x="186.972" y="93.616" transform="matrix(0.8199 0.5725 -0.5725 0.8199 91.2726 -101.88)" fill="#4D767C" stroke="#72706F" stroke-miterlimit="10" width="41.204" height="1.041"/>
					
						<rect id="XMLID_11273_" x="184.173" y="97.624" transform="matrix(0.8199 0.5725 -0.5725 0.8199 93.0587 -99.5542)" fill="#4D767C" stroke="#72706F" stroke-miterlimit="10" width="41.208" height="1.042"/>
					
						<rect id="XMLID_11272_" x="181.374" y="101.63" transform="matrix(0.8199 0.5725 -0.5725 0.8199 94.8514 -97.2322)" fill="#4D767C" stroke="#72706F" stroke-miterlimit="10" width="41.207" height="1.042"/>
					
						<rect id="XMLID_11271_" x="178.577" y="105.64" transform="matrix(0.8199 0.5725 -0.5725 0.8199 96.6475 -94.9112)" fill="#4D767C" stroke="#72706F" stroke-miterlimit="10" width="41.206" height="1.042"/>
				</g>
				<g id="XMLID_11265_">
					
						<rect id="XMLID_11269_" x="231.883" y="124.974" transform="matrix(0.8199 0.5725 -0.5725 0.8199 117.3107 -121.9436)" fill="#26383A" stroke="#72706F" stroke-miterlimit="10" width="41.207" height="1.043"/>
					
						<rect id="XMLID_11268_" x="229.086" y="128.981" transform="matrix(0.8199 0.5724 -0.5724 0.8199 119.09 -119.6151)" fill="#26383A" stroke="#72706F" stroke-miterlimit="10" width="41.207" height="1.042"/>
					
						<rect id="XMLID_11267_" x="226.287" y="132.989" transform="matrix(0.8199 0.5725 -0.5725 0.8199 120.8912 -117.2966)" fill="#26383A" stroke="#72706F" stroke-miterlimit="10" width="41.207" height="1.042"/>
					
						<rect id="XMLID_11266_" x="223.49" y="136.996" transform="matrix(0.8199 0.5725 -0.5725 0.8199 122.6792 -114.9724)" fill="#26383A" stroke="#72706F" stroke-miterlimit="10" width="41.206" height="1.043"/>
				</g>
			</g>
			<g id="XMLID_11251_">
				<g id="XMLID_11259_">
					
						<rect id="XMLID_11263_" x="163.494" y="127.241" transform="matrix(0.8199 0.5725 -0.5725 0.8199 106.2935 -82.3843)" fill="#4D767C" stroke="#72706F" stroke-miterlimit="10" width="41.207" height="1.043"/>
					
						<rect id="XMLID_11262_" x="160.695" y="131.25" transform="matrix(0.82 0.5724 -0.5724 0.82 108.0737 -80.0556)" fill="#4D767C" stroke="#72706F" stroke-miterlimit="10" width="41.206" height="1.045"/>
					
						<rect id="XMLID_11261_" x="157.895" y="135.26" transform="matrix(0.8199 0.5725 -0.5725 0.8199 109.8765 -77.7347)" fill="#4D767C" stroke="#72706F" stroke-miterlimit="10" width="41.207" height="1.045"/>
					
						<rect id="XMLID_11260_" x="155.094" y="139.271" transform="matrix(0.8199 0.5725 -0.5725 0.8199 111.6657 -75.4082)" fill="#4D767C" stroke="#72706F" stroke-miterlimit="10" width="41.206" height="1.043"/>
				</g>
				<g id="XMLID_11252_">
					<polygon id="XMLID_11258_" fill="#8A1832" stroke="#72706F" stroke-miterlimit="10" points="235.807,142.888 221.964,133.221 
						177.052,101.864 171.466,109.866 216.376,141.223 230.219,150.888 250.163,164.813 255.75,156.811 					"/>
					<g id="XMLID_11253_">
						
							<rect id="XMLID_11257_" x="208.407" y="158.598" transform="matrix(0.82 0.5724 -0.5724 0.82 132.3186 -102.4437)" fill="#26383A" stroke="#72706F" stroke-miterlimit="10" width="41.206" height="1.044"/>
						
							<rect id="XMLID_11256_" x="205.607" y="162.608" transform="matrix(0.82 0.5724 -0.5724 0.82 134.1102 -100.1192)" fill="#26383A" stroke="#72706F" stroke-miterlimit="10" width="41.206" height="1.044"/>
						
							<rect id="XMLID_11255_" x="202.806" y="166.618" transform="matrix(0.8199 0.5725 -0.5725 0.8199 135.9101 -97.7965)" fill="#26383A" stroke="#72706F" stroke-miterlimit="10" width="41.206" height="1.044"/>
						
							<rect id="XMLID_11254_" x="200.007" y="170.63" transform="matrix(0.8199 0.5725 -0.5725 0.8199 137.7073 -95.4734)" fill="#26383A" stroke="#72706F" stroke-miterlimit="10" width="41.207" height="1.043"/>
					</g>
				</g>
			</g>
		</g>
		
			<text id="XMLID_48_" transform="matrix(0.8199 0.5725 -0.5725 0.8199 206.7979 73.6328)" fill="#030104" stroke="#72706F" font-family="'Quicksand-Regular'" font-size="39.5442">ABC</text>
	</g>
	<g id="XMLID_41_">
		
			<rect id="XMLID_55_" x="152.004" y="83.744" transform="matrix(0.1746 0.9846 -0.9846 0.1746 214.6534 -79.3294)" fill="#62686C" width="5.275" height="9.238"/>
		<path id="XMLID_197_" fill="#ABC8DD" d="M219.86,96.287c0.922-1.845,1.664-3.786,2.214-5.763c0.554-2,0.915-4.064,1.071-6.138
			c0.164-2.112,0.115-4.259-0.141-6.385l0,0c-0.259-2.149-0.727-4.271-1.396-6.306c-0.671-2.043-1.548-4.022-2.609-5.884
			c-1.071-1.881-2.341-3.664-3.776-5.296c-1.457-1.662-3.104-3.188-4.888-4.537c-1.797-1.359-3.732-2.533-5.747-3.489
			c-2.017-0.957-4.135-1.706-6.294-2.229c-2.174-0.523-4.41-0.822-6.65-0.891c-2.264-0.069-4.554,0.101-6.808,0.501
			c-2.254,0.401-4.463,1.032-6.564,1.876c-2.081,0.836-4.079,1.888-5.937,3.128c-1.85,1.235-3.579,2.668-5.141,4.259
			c-1.565,1.594-2.976,3.363-4.195,5.258c-1.209,1.879-2.226,3.879-3.022,5.942c-0.784,2.026-1.363,4.138-1.722,6.273
			c-0.354,2.114-0.496,4.273-0.421,6.422c0.053,1.526,0.215,3.058,0.483,4.575c0.109,0.612,0.237,1.221,0.379,1.827
			c0.494,2.082,1.188,4.114,2.068,6.042c0.864,1.893,1.913,3.707,3.121,5.393c1.197,1.668,2.563,3.233,4.064,4.65
			c1.499,1.414,3.148,2.697,4.903,3.818c1.739,1.11,3.585,2.059,5.486,2.819c1.874,0.75,3.826,1.327,5.801,1.714
			c1.97,0.389,3.986,0.593,6,0.608c2.021,0.017,4.069-0.155,6.086-0.515c2.014-0.358,3.997-0.901,5.891-1.613
			c1.883-0.71,3.707-1.597,5.419-2.638c1.726-1.048,3.358-2.261,4.855-3.607c1.521-1.368,2.928-2.895,4.181-4.539
			C217.837,99.906,218.941,98.132,219.86,96.287z M213.938,99.155c-2.174,2.875-4.873,5.352-7.973,7.276
			c-3.086,1.915-6.581,3.289-10.372,3.963c-0.213,0.037-0.429,0.071-0.642,0.105c-0.066,0.01-0.13,0.02-0.193,0.028
			c-0.155,0.024-0.311,0.045-0.467,0.065c-0.067,0.008-0.134,0.019-0.2,0.028c-0.183,0.021-0.367,0.043-0.55,0.063
			c-0.03,0.002-0.063,0.006-0.093,0.01c-0.214,0.021-0.429,0.042-0.642,0.059c-0.054,0.006-0.109,0.008-0.163,0.013
			c-0.164,0.013-0.326,0.024-0.488,0.033c-0.065,0.005-0.128,0.009-0.191,0.012c-0.172,0.008-0.346,0.017-0.519,0.023
			c-0.041,0.001-0.082,0.002-0.123,0.004c-0.216,0.007-0.431,0.012-0.645,0.013c-0.038,0-0.076,0-0.114,0
			c-0.176,0.003-0.351,0.001-0.527,0c-0.061-0.003-0.118-0.003-0.178-0.003c-0.168-0.004-0.334-0.008-0.5-0.014
			c-0.047-0.003-0.095-0.004-0.142-0.006c-0.214-0.008-0.43-0.02-0.643-0.032c-0.016-0.002-0.03-0.002-0.045-0.004
			c-0.194-0.011-0.39-0.026-0.584-0.042c-0.055-0.006-0.11-0.01-0.167-0.016c-0.159-0.014-0.322-0.03-0.483-0.047
			c-0.054-0.006-0.106-0.011-0.158-0.017c-0.418-0.047-0.832-0.103-1.243-0.168c-0.061-0.008-0.117-0.018-0.176-0.028
			c-0.149-0.023-0.299-0.049-0.447-0.077c-0.065-0.008-0.128-0.02-0.191-0.033c-0.165-0.03-0.33-0.063-0.496-0.095
			c-0.036-0.008-0.074-0.016-0.114-0.023c-0.199-0.042-0.401-0.086-0.602-0.132c-0.053-0.013-0.105-0.024-0.16-0.039
			c-0.15-0.034-0.3-0.071-0.447-0.108c-0.063-0.017-0.128-0.034-0.192-0.05c-0.153-0.04-0.307-0.081-0.46-0.124
			c-0.047-0.011-0.094-0.025-0.14-0.037c-0.198-0.057-0.396-0.114-0.593-0.175c-0.038-0.01-0.076-0.022-0.114-0.036
			c-0.161-0.049-0.321-0.1-0.48-0.151c-0.058-0.02-0.116-0.04-0.172-0.059c-0.15-0.05-0.304-0.104-0.454-0.155
			c-0.045-0.017-0.091-0.031-0.138-0.048c-0.196-0.071-0.394-0.144-0.59-0.219c-0.01-0.003-0.021-0.008-0.032-0.011
			c-0.181-0.07-0.362-0.143-0.543-0.217c-0.049-0.02-0.098-0.04-0.147-0.06c-0.148-0.063-0.298-0.125-0.445-0.189
			c-0.047-0.021-0.094-0.041-0.142-0.061c-0.38-0.166-0.757-0.341-1.127-0.524c-0.051-0.022-0.099-0.047-0.146-0.071
			c-0.139-0.068-0.277-0.14-0.415-0.21c-0.056-0.028-0.109-0.056-0.163-0.084c-0.148-0.078-0.298-0.158-0.446-0.238
			c-0.032-0.018-0.067-0.037-0.1-0.055c-0.178-0.098-0.355-0.198-0.53-0.299c-0.047-0.027-0.095-0.056-0.142-0.084
			c-0.131-0.076-0.261-0.153-0.389-0.23c-0.059-0.035-0.119-0.073-0.177-0.108c-0.125-0.077-0.252-0.157-0.375-0.235
			c-0.05-0.033-0.099-0.064-0.146-0.096c-0.174-0.111-0.341-0.221-0.51-0.333c-0.037-0.025-0.07-0.051-0.107-0.075
			c-0.135-0.093-0.269-0.184-0.401-0.277c-0.054-0.041-0.109-0.079-0.163-0.117c-0.123-0.089-0.244-0.177-0.366-0.267
			c-0.048-0.036-0.095-0.07-0.14-0.104c-0.166-0.124-0.329-0.248-0.492-0.375c-0.017-0.012-0.031-0.026-0.047-0.038
			c-0.147-0.115-0.291-0.232-0.438-0.35c-0.047-0.038-0.093-0.077-0.14-0.113c-0.119-0.1-0.236-0.2-0.354-0.299
			c-0.045-0.037-0.091-0.077-0.137-0.115c-0.152-0.132-0.304-0.265-0.454-0.399c-0.003-0.004-0.009-0.009-0.011-0.013
			c-0.155-0.14-0.31-0.28-0.461-0.424c-0.042-0.04-0.082-0.078-0.124-0.117c-0.112-0.108-0.224-0.216-0.335-0.325
			c-0.045-0.045-0.09-0.088-0.136-0.132c-0.12-0.121-0.24-0.242-0.358-0.365c-0.026-0.028-0.055-0.055-0.081-0.081
			c-0.143-0.15-0.286-0.301-0.426-0.456c-0.036-0.037-0.07-0.077-0.106-0.114c-0.105-0.118-0.212-0.236-0.314-0.353
			c-0.046-0.05-0.092-0.1-0.135-0.151c-0.103-0.118-0.204-0.236-0.305-0.355c-0.034-0.043-0.07-0.083-0.104-0.127
			c-0.135-0.158-0.267-0.318-0.396-0.482c-0.024-0.032-0.051-0.063-0.075-0.094c-0.104-0.131-0.209-0.266-0.312-0.402
			c-0.041-0.054-0.08-0.106-0.122-0.159c-0.091-0.122-0.181-0.243-0.269-0.367c-0.037-0.048-0.075-0.1-0.112-0.15
			c-0.121-0.169-0.244-0.344-0.362-0.518c-0.141-0.204-0.277-0.411-0.412-0.618c-0.042-0.064-0.082-0.131-0.123-0.195
			c-0.093-0.146-0.186-0.291-0.275-0.438c-0.051-0.083-0.099-0.166-0.15-0.249c-0.077-0.131-0.156-0.264-0.233-0.398
			c-0.053-0.087-0.104-0.182-0.156-0.273c-0.071-0.128-0.144-0.256-0.212-0.382c-0.053-0.096-0.104-0.193-0.154-0.29
			c-0.067-0.125-0.132-0.253-0.198-0.381c-0.051-0.1-0.103-0.199-0.151-0.299c-0.063-0.128-0.127-0.259-0.186-0.387
			c-0.048-0.099-0.098-0.2-0.145-0.301c-0.062-0.134-0.121-0.271-0.181-0.404c-0.044-0.097-0.088-0.194-0.131-0.294
			c-0.063-0.149-0.126-0.299-0.188-0.45c-0.037-0.09-0.076-0.178-0.111-0.268c-0.021-0.051-0.039-0.101-0.059-0.15
			c-0.063-0.157-0.123-0.313-0.182-0.473c-0.024-0.065-0.046-0.128-0.071-0.194c-0.058-0.158-0.112-0.315-0.168-0.477
			c-0.021-0.052-0.037-0.105-0.056-0.157c-0.071-0.211-0.14-0.422-0.207-0.635c-0.011-0.036-0.021-0.072-0.033-0.108
			c-0.056-0.179-0.108-0.355-0.161-0.537c-0.019-0.067-0.038-0.132-0.056-0.198c-0.045-0.157-0.088-0.317-0.128-0.475
			c-0.018-0.065-0.036-0.131-0.053-0.197c-0.055-0.216-0.109-0.436-0.161-0.656c-0.056-0.243-0.108-0.485-0.157-0.729
			c-0.004-0.012-0.005-0.026-0.008-0.039c-0.047-0.226-0.09-0.453-0.131-0.678c-0.006-0.035-0.01-0.069-0.017-0.102
			c-0.037-0.22-0.076-0.44-0.108-0.659c-0.001-0.008-0.001-0.012-0.004-0.02c-0.033-0.222-0.063-0.443-0.092-0.664
			c-0.004-0.038-0.009-0.075-0.014-0.113c-0.026-0.211-0.051-0.422-0.07-0.635c-0.006-0.042-0.011-0.084-0.015-0.128
			c-0.02-0.211-0.038-0.423-0.055-0.635c-0.001-0.037-0.004-0.073-0.008-0.11c-0.008-0.139-0.017-0.277-0.024-0.417
			c-0.01-0.164-0.016-0.327-0.023-0.49c-0.005-0.104-0.007-0.207-0.011-0.31c-0.005-0.167-0.009-0.334-0.01-0.501
			c-0.002-0.098-0.004-0.195-0.002-0.292c-0.002-0.18,0.001-0.361,0.005-0.541c0-0.084,0.002-0.167,0.005-0.251
			c0.006-0.241,0.014-0.481,0.026-0.721c0.003-0.022,0.002-0.044,0.003-0.065c0.013-0.257,0.031-0.514,0.051-0.77
			c0.006-0.08,0.016-0.157,0.021-0.236c0.016-0.176,0.033-0.354,0.051-0.53c0.012-0.099,0.024-0.197,0.035-0.297
			c0.019-0.154,0.037-0.31,0.057-0.464c0.017-0.106,0.031-0.212,0.048-0.319c0.021-0.146,0.042-0.292,0.064-0.439
			c0.019-0.109,0.036-0.218,0.056-0.327c0.025-0.143,0.051-0.283,0.077-0.426c0.021-0.112,0.043-0.223,0.065-0.334
			c0.027-0.142,0.058-0.283,0.089-0.424c0.023-0.108,0.048-0.218,0.072-0.327c0.032-0.144,0.067-0.287,0.101-0.43
			c0.028-0.105,0.052-0.209,0.078-0.314c0.039-0.151,0.08-0.3,0.12-0.451c0.025-0.095,0.052-0.19,0.08-0.286
			c0.049-0.174,0.1-0.348,0.153-0.521c0.021-0.072,0.041-0.142,0.064-0.214c0.077-0.243,0.156-0.487,0.239-0.729
			c0.01-0.033,0.021-0.062,0.032-0.094c0.072-0.21,0.148-0.419,0.226-0.628c0.029-0.08,0.06-0.159,0.091-0.238
			c0.06-0.159,0.122-0.318,0.185-0.477c0.037-0.09,0.075-0.18,0.113-0.271c0.06-0.146,0.12-0.292,0.183-0.437
			c0.041-0.096,0.083-0.189,0.124-0.283c0.063-0.139,0.126-0.279,0.189-0.419c0.044-0.094,0.09-0.189,0.135-0.284
			c0.066-0.137,0.132-0.274,0.199-0.41c0.047-0.093,0.095-0.188,0.142-0.282c0.07-0.135,0.14-0.271,0.211-0.406
			c0.047-0.092,0.097-0.184,0.146-0.273c0.074-0.14,0.154-0.277,0.232-0.416c0.047-0.086,0.095-0.172,0.143-0.258
			c0.086-0.147,0.172-0.292,0.262-0.438c0.043-0.075,0.088-0.148,0.133-0.223c0.114-0.188,0.232-0.375,0.352-0.56
			c0.02-0.032,0.037-0.061,0.056-0.091c0.141-0.217,0.285-0.429,0.428-0.641c0.044-0.063,0.09-0.126,0.133-0.188
			c0.104-0.148,0.207-0.297,0.313-0.443c0.056-0.078,0.116-0.155,0.174-0.233c0.095-0.13,0.191-0.259,0.289-0.388
			c0.064-0.082,0.128-0.163,0.191-0.245c0.095-0.123,0.192-0.244,0.289-0.365c0.066-0.082,0.133-0.165,0.201-0.246
			c0.098-0.119,0.196-0.236,0.295-0.353c0.07-0.082,0.14-0.162,0.209-0.242c0.102-0.117,0.205-0.233,0.308-0.348
			c0.073-0.078,0.143-0.156,0.214-0.235c0.107-0.116,0.215-0.231,0.325-0.345c0.068-0.074,0.14-0.148,0.209-0.222
			c0.116-0.119,0.232-0.235,0.349-0.353c0.066-0.067,0.135-0.135,0.202-0.2c0.133-0.13,0.267-0.256,0.399-0.383
			c0.056-0.052,0.108-0.105,0.164-0.157c0.385-0.355,0.776-0.701,1.179-1.036c0.062-0.051,0.123-0.101,0.184-0.151
			c0.142-0.114,0.282-0.229,0.425-0.342c0.076-0.062,0.157-0.122,0.237-0.183c0.127-0.098,0.254-0.198,0.383-0.294
			c0.161-0.12,0.32-0.238,0.484-0.354c0.021-0.016,0.043-0.031,0.063-0.047c0.166-0.117,0.332-0.233,0.5-0.348
			c0.034-0.022,0.066-0.045,0.101-0.067c0.179-0.122,0.359-0.24,0.541-0.357c0.041-0.025,0.081-0.051,0.119-0.075
			c0.187-0.121,0.375-0.237,0.564-0.353c0.013-0.008,0.022-0.013,0.036-0.02c0.182-0.11,0.365-0.218,0.552-0.324
			c0.04-0.024,0.08-0.047,0.118-0.069c0.188-0.106,0.378-0.212,0.568-0.314c0.044-0.022,0.085-0.045,0.13-0.068
			c0.179-0.096,0.363-0.19,0.545-0.283c0.021-0.011,0.043-0.022,0.063-0.032c0.192-0.098,0.389-0.192,0.586-0.286
			c0.051-0.024,0.103-0.049,0.153-0.073c0.193-0.089,0.385-0.179,0.581-0.263c0.046-0.021,0.093-0.042,0.141-0.062
			c0.175-0.076,0.35-0.15,0.525-0.224c0.04-0.017,0.08-0.032,0.118-0.048c0.087-0.037,0.177-0.069,0.263-0.104
			c0.152-0.06,0.303-0.12,0.456-0.178c0.089-0.034,0.18-0.065,0.271-0.097c0.149-0.056,0.3-0.11,0.451-0.163
			c0.093-0.033,0.185-0.063,0.278-0.094c0.151-0.051,0.302-0.102,0.453-0.151c0.098-0.03,0.196-0.059,0.295-0.089
			c0.149-0.045,0.297-0.092,0.446-0.135c0.103-0.03,0.206-0.057,0.309-0.085c0.147-0.042,0.296-0.083,0.444-0.122
			c0.102-0.026,0.204-0.05,0.308-0.076c0.15-0.038,0.299-0.076,0.453-0.112c0.126-0.03,0.258-0.057,0.388-0.085
			c0.126-0.028,0.253-0.058,0.38-0.083c0.258-0.052,0.518-0.102,0.778-0.149c0.238-0.042,0.477-0.08,0.715-0.117
			c0.039-0.005,0.077-0.012,0.117-0.018c0.226-0.034,0.451-0.065,0.677-0.092c0.046-0.007,0.092-0.011,0.138-0.018
			c0.225-0.027,0.45-0.052,0.675-0.074c0.037-0.003,0.074-0.006,0.112-0.009c0.211-0.021,0.426-0.039,0.638-0.054
			c0.029-0.002,0.06-0.004,0.09-0.007c0.223-0.014,0.444-0.026,0.665-0.037c0.052-0.003,0.104-0.005,0.155-0.006
			c0.216-0.009,0.431-0.017,0.646-0.02c0.052-0.002,0.104-0.001,0.153-0.003c0.222-0.003,0.44-0.004,0.66-0.001
			c0.032,0,0.067,0.001,0.1,0c0.203,0.004,0.405,0.007,0.607,0.015c0.041,0,0.084,0.002,0.126,0.002
			c0.217,0.01,0.431,0.019,0.647,0.033c0.051,0.003,0.102,0.006,0.151,0.01c0.21,0.014,0.42,0.029,0.627,0.046
			c0.088,0.007,0.175,0.018,0.262,0.025c0.151,0.014,0.301,0.029,0.448,0.044c0.094,0.012,0.188,0.022,0.282,0.034
			c0.145,0.017,0.287,0.036,0.432,0.055c0.093,0.013,0.184,0.025,0.275,0.039c0.15,0.021,0.3,0.046,0.452,0.07
			c0.081,0.013,0.164,0.025,0.244,0.04c0.188,0.031,0.373,0.065,0.56,0.101c0.045,0.008,0.088,0.015,0.13,0.024
			c0.233,0.045,0.466,0.093,0.693,0.144c0.055,0.012,0.107,0.025,0.161,0.037c0.175,0.04,0.352,0.081,0.524,0.123
			c0.076,0.021,0.154,0.039,0.227,0.058c0.154,0.04,0.304,0.077,0.455,0.119c0.08,0.022,0.162,0.043,0.243,0.067
			c0.146,0.041,0.293,0.083,0.438,0.127c0.08,0.023,0.159,0.047,0.238,0.07c0.154,0.048,0.31,0.098,0.461,0.147
			c0.068,0.021,0.138,0.044,0.203,0.067c0.22,0.071,0.438,0.146,0.652,0.224c0.023,0.008,0.046,0.018,0.067,0.025
			c0.192,0.069,0.385,0.141,0.578,0.215c0.078,0.03,0.157,0.063,0.233,0.092c0.136,0.054,0.271,0.108,0.405,0.163
			c0.087,0.037,0.177,0.075,0.265,0.112c0.123,0.052,0.246,0.105,0.37,0.16c0.088,0.039,0.18,0.08,0.269,0.12
			c0.124,0.056,0.247,0.114,0.369,0.171c0.083,0.04,0.169,0.079,0.252,0.119c0.141,0.068,0.28,0.136,0.419,0.206
			c0.067,0.033,0.132,0.064,0.194,0.097c0.2,0.103,0.397,0.206,0.596,0.311c0.058,0.033,0.119,0.067,0.178,0.1
			c0.142,0.077,0.281,0.154,0.422,0.234c0.073,0.042,0.148,0.086,0.221,0.129c0.124,0.072,0.249,0.144,0.372,0.218
			c0.077,0.046,0.154,0.092,0.228,0.138c0.126,0.077,0.248,0.153,0.369,0.23c0.071,0.044,0.144,0.09,0.216,0.135
			c0.134,0.087,0.267,0.175,0.4,0.265c0.058,0.038,0.113,0.074,0.17,0.112c0.188,0.129,0.375,0.258,0.562,0.391
			c0.012,0.008,0.021,0.016,0.031,0.024c0.176,0.124,0.348,0.251,0.519,0.38c0.061,0.042,0.117,0.087,0.176,0.13
			c0.12,0.093,0.243,0.187,0.366,0.283c0.064,0.052,0.128,0.103,0.194,0.156c0.114,0.09,0.226,0.18,0.336,0.272
			c0.068,0.055,0.134,0.109,0.201,0.166c0.109,0.093,0.223,0.188,0.332,0.283c0.063,0.054,0.124,0.105,0.188,0.162
			c0.123,0.108,0.244,0.217,0.367,0.327c0.046,0.042,0.093,0.083,0.137,0.125c0.165,0.151,0.329,0.304,0.488,0.458
			c0.043,0.04,0.085,0.082,0.126,0.124c0.119,0.116,0.238,0.232,0.354,0.349c0.059,0.059,0.117,0.12,0.178,0.181
			c0.099,0.101,0.195,0.203,0.294,0.306c0.062,0.065,0.124,0.129,0.185,0.195c0.095,0.103,0.188,0.205,0.281,0.308
			c0.062,0.065,0.119,0.13,0.177,0.196c0.1,0.111,0.197,0.224,0.295,0.337c0.049,0.058,0.099,0.114,0.149,0.172
			c0.142,0.167,0.282,0.337,0.421,0.508c0.008,0.008,0.015,0.017,0.021,0.025c0.135,0.169,0.271,0.34,0.404,0.513
			c0.046,0.058,0.089,0.118,0.133,0.176c0.094,0.121,0.185,0.244,0.277,0.368c0.05,0.067,0.098,0.136,0.146,0.204
			c0.087,0.117,0.171,0.233,0.254,0.354c0.048,0.069,0.099,0.139,0.146,0.208c0.084,0.123,0.166,0.247,0.251,0.37
			c0.043,0.067,0.085,0.13,0.13,0.197c0.097,0.149,0.193,0.3,0.288,0.452c0.025,0.039,0.05,0.08,0.077,0.12
			c0.119,0.192,0.236,0.386,0.352,0.583c0.03,0.051,0.059,0.104,0.09,0.158c0.082,0.142,0.165,0.284,0.244,0.428
			c0.04,0.072,0.08,0.145,0.121,0.216c0.067,0.127,0.137,0.254,0.203,0.38c0.041,0.079,0.082,0.157,0.121,0.237
			c0.066,0.125,0.13,0.251,0.191,0.377c0.04,0.077,0.077,0.154,0.115,0.231c0.065,0.136,0.129,0.272,0.194,0.409
			c0.032,0.069,0.063,0.136,0.096,0.206c0.087,0.191,0.175,0.386,0.258,0.582c0.005,0.012,0.012,0.024,0.019,0.036
			c0.086,0.207,0.172,0.416,0.257,0.625c0.026,0.068,0.056,0.137,0.081,0.206c0.055,0.143,0.11,0.287,0.165,0.432
			c0.031,0.082,0.06,0.161,0.09,0.241c0.049,0.136,0.099,0.271,0.144,0.408c0.029,0.083,0.059,0.166,0.088,0.251
			c0.047,0.138,0.092,0.278,0.137,0.418c0.026,0.079,0.051,0.159,0.076,0.237c0.052,0.163,0.1,0.328,0.147,0.492
			c0.016,0.055,0.032,0.111,0.048,0.168c0.063,0.221,0.124,0.442,0.181,0.664c0.015,0.054,0.028,0.107,0.041,0.161
			c0.042,0.17,0.086,0.341,0.125,0.514c0.019,0.08,0.037,0.16,0.056,0.24c0.032,0.147,0.063,0.295,0.098,0.444
			c0.018,0.086,0.033,0.173,0.05,0.261c0.03,0.144,0.057,0.291,0.085,0.436c0.017,0.086,0.031,0.172,0.047,0.259
			c0.026,0.157,0.054,0.316,0.078,0.472c0.012,0.076,0.024,0.15,0.036,0.226c0.035,0.231,0.066,0.465,0.095,0.699
			c0.498,3.967,0.165,7.839-0.845,11.447C217.796,92.941,216.131,96.256,213.938,99.155z"/>
		
			<rect id="XMLID_45_" x="146.736" y="85.146" transform="matrix(0.175 0.9846 -0.9846 0.175 211.7017 -74.3369)" fill="#869198" width="6.943" height="8.013"/>
		<path id="XMLID_46_" fill="#62686C" d="M152.062,88.823L152.062,88.823c-0.574-3.232-3.687-5.407-6.922-4.833L85.684,94.557
			c-3.233,0.575-5.408,3.689-4.834,6.922l0,0c0.576,3.233,3.691,5.407,6.922,4.832l59.458-10.566
			C150.463,95.17,152.638,92.056,152.062,88.823z"/>
	</g>
</g>
<g id="XMLID_160_">
	<path id="XMLID_531_" fill="#8A1832" d="M219.269,327.229l-93.628,63.756c-5.618,3.826-13.344,2.359-17.17-3.26L9.213,241.96
		c-3.825-5.617-2.356-13.343,3.259-17.167l93.627-63.755c5.616-3.826,13.343-2.358,17.167,3.259l99.259,145.766
		C226.35,315.681,224.884,323.405,219.269,327.229z"/>
	
		<rect id="XMLID_532_" x="54.442" y="190.507" transform="matrix(0.8266 -0.5628 0.5628 0.8266 -135.2559 113.0879)" fill="#FFFFFF" width="122.855" height="171.008"/>
	<g id="XMLID_143_">
		<path id="XMLID_57_" fill="#4E5D6A" d="M114.519,184.622l-33.593,22.875l-0.553-0.813c-3.117-4.575-9.377-5.765-13.954-2.648
			c-4.578,3.119-5.765,9.378-2.648,13.955l0.554,0.813l-33.593,22.874L17.918,222.86l83.788-57.054L114.519,184.622z
			 M81.412,204.786l30.373-20.682l-10.597-15.564l-80.536,54.841l10.597,15.564l30.374-20.684
			c-3.055-5.377-1.512-12.311,3.69-15.853C70.513,198.87,77.528,199.973,81.412,204.786z"/>
		<g id="XMLID_613_">
			<path id="XMLID_612_" fill="#4E5D6A" d="M104.771,173.128l-81.163,55.263c-1.076,0.734-2.545,0.456-3.278-0.622l-2.327-3.413
				c-0.732-1.077-0.454-2.547,0.625-3.279l81.161-55.268c1.077-0.732,2.546-0.454,3.277,0.623l2.327,3.414
				C106.127,170.926,105.848,172.394,104.771,173.128z"/>
			<path id="XMLID_611_" fill="#B9C8D7" d="M100.83,169.266l-79.371,54.046c-1.566,1.066-3.719,0.659-4.785-0.907l0,0
				c-1.065-1.564-0.657-3.719,0.908-4.783l79.371-54.047c1.566-1.065,3.719-0.659,4.784,0.908l0,0
				C102.803,166.048,102.396,168.199,100.83,169.266z"/>
		</g>
	</g>
	<g id="XMLID_65_">
		
			<rect id="XMLID_56_" x="43.542" y="245.174" transform="matrix(0.8256 -0.5642 0.5642 0.8256 -137.7224 80.5507)" fill="#56919B" width="35.83" height="35.829"/>
		<g id="XMLID_59_">
			
				<rect id="XMLID_58_" x="63.878" y="215.625" transform="matrix(0.8256 -0.5643 0.5643 0.8256 -104.7355 93.8012)" fill="#3B4E4F" width="70.981" height="1.398"/>
			
				<rect id="XMLID_60_" x="68.601" y="222.536" transform="matrix(0.8256 -0.5642 0.5642 0.8256 -107.8059 97.6635)" fill="#3B4E4F" width="70.981" height="1.396"/>
			
				<rect id="XMLID_62_" x="78.045" y="236.35" transform="matrix(0.8256 -0.5643 0.5643 0.8256 -113.9563 105.4037)" fill="#3B4E4F" width="70.978" height="1.399"/>
			
				<rect id="XMLID_63_" x="73.322" y="229.442" transform="matrix(0.8256 -0.5643 0.5643 0.8256 -110.8841 101.5387)" fill="#3B4E4F" width="70.981" height="1.398"/>
			
				<rect id="XMLID_61_" x="82.766" y="243.261" transform="matrix(0.8256 -0.5643 0.5643 0.8256 -117.0325 109.2749)" fill="#3B4E4F" width="70.981" height="1.398"/>
		</g>
		<g id="XMLID_64_">
			
				<rect id="XMLID_79_" x="51.915" y="262.464" transform="matrix(0.8256 -0.5643 0.5643 0.8256 -129.7787 106.4353)" fill="#3B4E4F" width="110.756" height="1.397"/>
			
				<rect id="XMLID_78_" x="56.822" y="269.641" transform="matrix(0.8256 -0.5643 0.5643 0.8256 -132.976 110.4592)" fill="#3B4E4F" width="110.753" height="1.399"/>
			
				<rect id="XMLID_77_" x="66.633" y="284.001" transform="matrix(0.8256 -0.5642 0.5642 0.8256 -139.3627 118.4943)" fill="#3B4E4F" width="110.755" height="1.395"/>
			
				<rect id="XMLID_76_" x="61.727" y="276.819" transform="matrix(0.8256 -0.5643 0.5643 0.8256 -136.1706 114.4798)" fill="#3B4E4F" width="110.756" height="1.4"/>
			
				<rect id="XMLID_75_" x="71.539" y="291.175" transform="matrix(0.8256 -0.5643 0.5643 0.8256 -142.559 122.5184)" fill="#3B4E4F" width="110.753" height="1.398"/>
			
				<rect id="XMLID_149_" x="54.368" y="266.052" transform="matrix(0.8256 -0.5643 0.5643 0.8256 -131.3783 108.4488)" fill="#3B4E4F" width="110.755" height="1.398"/>
			
				<rect id="XMLID_148_" x="59.275" y="273.23" transform="matrix(0.8256 -0.5643 0.5643 0.8256 -134.572 112.4669)" fill="#3B4E4F" width="110.753" height="1.4"/>
			
				<rect id="XMLID_147_" x="69.087" y="287.587" transform="matrix(0.8256 -0.5643 0.5643 0.8256 -140.9604 120.5067)" fill="#3B4E4F" width="110.755" height="1.398"/>
			
				<rect id="XMLID_146_" x="64.18" y="280.409" transform="matrix(0.8256 -0.5643 0.5643 0.8256 -137.7664 116.487)" fill="#3B4E4F" width="110.754" height="1.397"/>
			
				<rect id="XMLID_144_" x="73.992" y="294.764" transform="matrix(0.8256 -0.5643 0.5643 0.8256 -144.1577 124.5298)" fill="#3B4E4F" width="110.753" height="1.4"/>
			
				<rect id="XMLID_159_" x="76.445" y="298.356" transform="matrix(0.8256 -0.5643 0.5643 0.8256 -145.7522 126.5352)" fill="#3B4E4F" width="110.756" height="1.396"/>
			
				<rect id="XMLID_158_" x="81.352" y="305.534" transform="matrix(0.8256 -0.5643 0.5643 0.8256 -148.9478 130.5572)" fill="#3B4E4F" width="110.753" height="1.396"/>
			
				<rect id="XMLID_157_" x="91.163" y="319.889" transform="matrix(0.8256 -0.5643 0.5643 0.8256 -155.3377 138.5981)" fill="#3B4E4F" width="110.754" height="1.398"/>
			
				<rect id="XMLID_156_" x="86.256" y="312.708" transform="matrix(0.8256 -0.5643 0.5643 0.8256 -152.1436 134.5792)" fill="#3B4E4F" width="110.755" height="1.401"/>
			
				<rect id="XMLID_155_" x="96.069" y="327.068" transform="matrix(0.8256 -0.5643 0.5643 0.8256 -158.5332 142.6194)" fill="#3B4E4F" width="110.753" height="1.396"/>
			
				<rect id="XMLID_154_" x="78.897" y="301.943" transform="matrix(0.8256 -0.5643 0.5643 0.8256 -147.3518 128.549)" fill="#3B4E4F" width="110.755" height="1.398"/>
			
				<rect id="XMLID_153_" x="83.805" y="309.121" transform="matrix(0.8256 -0.5643 0.5643 0.8256 -150.5472 132.5705)" fill="#3B4E4F" width="110.753" height="1.398"/>
			
				<rect id="XMLID_152_" x="93.616" y="323.477" transform="matrix(0.8256 -0.5643 0.5643 0.8256 -156.9337 140.6067)" fill="#3B4E4F" width="110.755" height="1.398"/>
			
				<rect id="XMLID_151_" x="88.71" y="316.3" transform="matrix(0.8256 -0.5643 0.5643 0.8256 -153.7399 136.5875)" fill="#3B4E4F" width="110.756" height="1.398"/>
			
				<rect id="XMLID_150_" x="98.522" y="330.655" transform="matrix(0.8256 -0.5643 0.5643 0.8256 -160.1329 144.634)" fill="#3B4E4F" width="110.755" height="1.398"/>
		</g>
	</g>
</g>
</svg>
