<?xml version="1.0" encoding="utf-8"?>
<!-- Generator: Adobe Illustrator 16.0.0, SVG Export Plug-In . SVG Version: 6.00 Build 0)  -->
<!DOCTYPE svg PUBLIC "-//W3C//DTD SVG 1.1//EN" "http://www.w3.org/Graphics/SVG/1.1/DTD/svg11.dtd">
<svg version="1.1" id="Capa_1" xmlns="http://www.w3.org/2000/svg" xmlns:xlink="http://www.w3.org/1999/xlink" x="0px" y="0px"
	 width="375.221px" height="388.496px" viewBox="0 0 375.221 388.496" enable-background="new 0 0 375.221 388.496"
	 xml:space="preserve">
<g id="XMLID_237_">
	<g id="XMLID_11597_">
		<path id="XMLID_11599_" fill="#3A3A39" d="M358.721,160.177l-234.815-59.265c-8.029-2.027-16.3,2.718-18.379,10.543
			L53.517,307.202c-2.08,7.826,2.789,15.888,10.818,17.914L299.15,384.38c8.029,2.029,16.301-2.718,18.38-10.542l52.009-195.748
			C371.617,170.266,366.75,162.204,358.721,160.177z M311.8,352.313L69.246,291.095l42.01-158.114l242.554,61.219L311.8,352.313z"/>
		<polygon id="XMLID_11598_" fill="#FBFDFD" points="69.246,291.095 311.8,352.313 355.825,186.612 113.271,125.395 		"/>
	</g>
	<g id="XMLID_51_">
		<g id="XMLID_73_">
			<polygon id="XMLID_226_" fill="#56919B" points="264.265,228.907 230.802,220.553 239.374,187.938 272.837,196.293 			"/>
			<g id="XMLID_220_">
				<polygon id="XMLID_225_" fill="#3B4E4F" points="342.794,215.117 276.501,198.563 276.835,197.293 343.128,213.846 				"/>
				<polygon id="XMLID_224_" fill="#3B4E4F" points="340.792,222.735 274.499,206.182 274.833,204.909 341.126,221.463 				"/>
				<polygon id="XMLID_223_" fill="#3B4E4F" points="336.787,237.969 270.494,221.416 270.829,220.145 337.121,236.698 				"/>
				<polygon id="XMLID_222_" fill="#3B4E4F" points="338.789,230.353 272.496,213.799 272.831,212.526 339.123,229.08 				"/>
				<polygon id="XMLID_221_" fill="#3B4E4F" points="334.784,245.586 268.492,229.032 268.826,227.762 335.118,244.315 				"/>
			</g>
			<g id="XMLID_198_">
				<polygon id="XMLID_219_" fill="#3B4E4F" points="332.471,254.387 229.033,228.559 229.368,227.286 332.806,253.114 				"/>
				<polygon id="XMLID_218_" fill="#3B4E4F" points="330.392,262.3 226.953,236.472 227.287,235.201 330.725,261.029 				"/>
				<polygon id="XMLID_216_" fill="#3B4E4F" points="326.229,278.131 222.792,252.303 223.126,251.03 326.564,276.858 				"/>
				<polygon id="XMLID_215_" fill="#3B4E4F" points="328.311,270.216 224.872,244.388 225.207,243.114 328.646,268.943 				"/>
				<polygon id="XMLID_214_" fill="#3B4E4F" points="324.15,286.045 220.712,260.216 221.046,258.943 324.483,284.772 				"/>
				<polygon id="XMLID_213_" fill="#3B4E4F" points="331.431,258.345 227.993,232.517 228.327,231.244 331.766,257.072 				"/>
				<polygon id="XMLID_212_" fill="#3B4E4F" points="329.351,266.259 225.913,240.431 226.247,239.158 329.685,264.986 				"/>
				<polygon id="XMLID_211_" fill="#3B4E4F" points="325.19,282.086 221.752,256.258 222.087,254.987 325.524,280.815 				"/>
				<polygon id="XMLID_210_" fill="#3B4E4F" points="327.271,274.173 223.833,248.344 224.167,247.071 327.605,272.899 				"/>
				<polygon id="XMLID_209_" fill="#3B4E4F" points="323.109,290.001 219.671,264.173 220.006,262.9 323.444,288.729 				"/>
				<polygon id="XMLID_208_" fill="#3B4E4F" points="322.069,293.958 218.632,268.13 218.966,266.857 322.404,292.686 				"/>
				<polygon id="XMLID_207_" fill="#3B4E4F" points="319.989,301.874 216.551,276.045 216.886,274.772 320.323,300.601 				"/>
				<polygon id="XMLID_206_" fill="#3B4E4F" points="315.828,317.701 212.391,291.872 212.726,290.6 316.163,316.429 				"/>
				<polygon id="XMLID_205_" fill="#3B4E4F" points="317.909,309.787 214.472,283.959 214.805,282.687 318.243,308.515 				"/>
				<polygon id="XMLID_204_" fill="#3B4E4F" points="313.748,325.616 210.311,299.788 210.645,298.516 314.082,324.344 				"/>
				<polygon id="XMLID_203_" fill="#3B4E4F" points="321.029,297.915 217.592,272.087 217.925,270.814 321.363,296.643 				"/>
				<polygon id="XMLID_202_" fill="#3B4E4F" points="318.949,305.83 215.511,280.002 215.846,278.729 319.283,304.558 				"/>
				<polygon id="XMLID_201_" fill="#3B4E4F" points="314.788,321.659 211.35,295.831 211.685,294.559 315.122,320.387 				"/>
				<polygon id="XMLID_200_" fill="#3B4E4F" points="316.868,313.744 213.431,287.916 213.765,286.644 317.203,312.472 				"/>
				<polygon id="XMLID_199_" fill="#3B4E4F" points="312.708,329.573 209.27,303.745 209.604,302.472 313.043,328.301 				"/>
			</g>
		</g>
		<g id="XMLID_171_">
			<polygon id="XMLID_161_" fill="#B34032" points="131.243,237.816 99.286,229.838 108.193,195.951 140.15,203.932 			"/>
			<polygon id="XMLID_168_" fill="#C64A36" points="140.15,203.932 135.697,220.874 131.243,237.816 182.293,284.212 
				195.047,235.694 207.8,187.176 			"/>
			<path id="XMLID_162_" fill="#DDA19F" d="M215.632,182.011l-2.309-0.577c-2.034-0.508-4.124,0.697-4.645,2.679l-27.126,103.196
				c-0.521,1.981,0.716,4.019,2.75,4.527l2.309,0.576c2.034,0.509,4.124-0.697,4.644-2.681l27.127-103.196
				C218.903,184.554,217.665,182.519,215.632,182.011z"/>
			<path id="XMLID_170_" fill="#DDA19F" d="M98.267,201.681l-4.858,18.482c-1.114,4.235,1.531,8.59,5.877,9.675l8.907-33.887
				C103.847,194.866,99.38,197.445,98.267,201.681z"/>
			<polygon id="XMLID_163_" fill="#4E5666" points="126.151,236.546 103.148,230.802 97.098,253.82 121.552,254.04 			"/>
			<polygon id="XMLID_169_" fill="#2F3B50" points="96.824,267.173 114.348,271.549 118.958,254.013 100.327,253.845 			"/>
			<path id="XMLID_164_" fill="#75A7D3" d="M114.591,271.608l-18.605-4.646c-1.21-0.302-2.452,0.416-2.762,1.595l-0.265,1.006
				c-0.31,1.179,0.426,2.391,1.636,2.692l18.605,4.646c1.209,0.302,2.452-0.416,2.762-1.595l0.264-1.006
				C116.536,273.121,115.8,271.911,114.591,271.608z"/>
			<path id="XMLID_174_" fill="#4E5666" d="M210.037,218.282l-10.436,39.704c5.706,1.425,12.668-6.31,15.55-17.272
				C218.034,229.75,215.744,219.707,210.037,218.282z"/>
		</g>
	</g>
	<path id="XMLID_52_" fill="#100F10" d="M196.42,342.448c1.478-5.62-2-11.343-7.766-12.783s-11.638,1.948-13.116,7.57
		c-1.477,5.618,2,11.342,7.766,12.782C189.071,351.456,194.943,348.067,196.42,342.448z"/>
	<path id="XMLID_236_" fill="#100F10" d="M263.241,152.842l-52.753-13.171c-1.645-0.411-2.646-2.06-2.225-3.664l0,0
		c0.422-1.603,2.112-2.578,3.758-2.168l52.753,13.174c1.645,0.41,2.646,2.059,2.225,3.661l0,0
		C266.577,152.277,264.886,153.253,263.241,152.842z"/>
</g>
<g id="XMLID_191_">
	<path id="XMLID_176_" fill="#FFFFFF" stroke="#C4BFBF" stroke-miterlimit="10" d="M265.026,23.623h-87.788
		c-5.667,0-10.302,4.635-10.302,10.302v40.688c0,2.506,0.909,4.809,2.412,6.6l-3.253,21.717l28.065-18.015h70.866
		c5.667,0,10.303-4.636,10.303-10.302V33.925C275.329,28.258,270.693,23.623,265.026,23.623z"/>
	<g id="XMLID_175_">
		
			<rect id="XMLID_172_" x="178.588" y="37.384" fill="#3B4E4F" stroke="#C4BFBF" stroke-miterlimit="10" width="85.61" height="1.01"/>
		
			<rect id="XMLID_177_" x="178.588" y="43.971" fill="#3B4E4F" stroke="#C4BFBF" stroke-miterlimit="10" width="85.61" height="1.01"/>
		
			<rect id="XMLID_180_" x="178.588" y="50.559" fill="#3B4E4F" stroke="#C4BFBF" stroke-miterlimit="10" width="85.61" height="1.01"/>
		
			<rect id="XMLID_179_" x="178.588" y="57.146" fill="#3B4E4F" stroke="#C4BFBF" stroke-miterlimit="10" width="85.61" height="1.009"/>
		
			<rect id="XMLID_182_" x="178.588" y="63.733" fill="#3B4E4F" stroke="#C4BFBF" stroke-miterlimit="10" width="85.61" height="1.009"/>
		
			<rect id="XMLID_181_" x="178.588" y="70.32" fill="#3B4E4F" stroke="#C4BFBF" stroke-miterlimit="10" width="85.61" height="1.01"/>
	</g>
</g>
<g id="XMLID_183_">
	<path id="XMLID_173_" fill="#DDA19F" d="M17.065,4.427h87.789c5.667,0,10.302,4.636,10.302,10.302v40.688
		c0,2.506-0.909,4.809-2.411,6.6l3.253,21.717L87.931,65.72H17.065c-5.666,0-10.302-4.636-10.302-10.302V14.729
		C6.763,9.063,11.399,4.427,17.065,4.427z"/>
	<g id="XMLID_184_">
		<rect id="XMLID_190_" x="18.575" y="18.188" fill="#3B4E4F" width="85.61" height="1.01"/>
		<rect id="XMLID_189_" x="18.575" y="24.775" fill="#3B4E4F" width="85.61" height="1.01"/>
		<rect id="XMLID_188_" x="18.575" y="31.363" fill="#3B4E4F" width="85.61" height="1.01"/>
		<rect id="XMLID_187_" x="18.575" y="37.951" fill="#3B4E4F" width="85.61" height="1.009"/>
		<rect id="XMLID_186_" x="18.575" y="44.538" fill="#3B4E4F" width="85.61" height="1.009"/>
		<rect id="XMLID_185_" x="18.575" y="51.125" fill="#3B4E4F" width="85.61" height="1.01"/>
	</g>
</g>
</svg>
