<?xml version="1.0" encoding="utf-8"?>
<!-- Generator: Adobe Illustrator 18.0.0, SVG Export Plug-In . SVG Version: 6.00 Build 0)  -->
<!DOCTYPE svg PUBLIC "-//W3C//DTD SVG 1.1//EN" "http://www.w3.org/Graphics/SVG/1.1/DTD/svg11.dtd">
<svg version="1.1" id="Capa_1" xmlns="http://www.w3.org/2000/svg" xmlns:xlink="http://www.w3.org/1999/xlink" x="0px" y="0px"
	 viewBox="0 0 329 137.7" enable-background="new 0 0 329 137.7" xml:space="preserve">
<g id="post_it_1_">
	<g opacity="0.3">
		
			<rect x="11.7" y="21.2" transform="matrix(-4.844752e-002 0.9988 -0.9988 -4.844752e-002 59.9522 11.1848)" fill="#29826B" width="25.9" height="25.9"/>
		<path fill="#29826B" d="M34.4,27.9l-17.9-1.1c-0.4,0-0.8-0.4-0.8-0.9l0,0c0-0.4,0.4-0.8,0.9-0.8l17.9,1.1c0.4,0,0.8,0.4,0.8,0.9
			l0,0C35.2,27.6,34.8,27.9,34.4,27.9z"/>
		<path fill="#29826B" d="M34.1,34.8l-17.9-1.1c-0.4,0-0.8-0.4-0.8-0.9l0,0c0-0.4,0.4-0.8,0.9-0.8l17.9,1.1c0.4,0,0.8,0.4,0.8,0.9
			l0,0C34.9,34.5,34.5,34.9,34.1,34.8z"/>
		<path fill="#29826B" d="M30.6,31.2l-11.2-0.7c-0.4,0-0.8-0.4-0.8-0.9v0c0-0.4,0.4-0.8,0.9-0.8l11.2,0.7c0.4,0,0.8,0.4,0.8,0.9l0,0
			C31.4,30.9,31,31.2,30.6,31.2z"/>
	</g>
	<g>
		<g>
			<g id="post_it_16_">
				
					<rect x="9.7" y="18.2" transform="matrix(-4.844752e-002 0.9988 -0.9988 -4.844752e-002 54.8588 10.0371)" fill="#ED859C" width="25.9" height="25.9"/>
			</g>
			<g id="text_11_">
				<path fill="#F1F1F2" d="M32.4,24.9l-17.9-1.1c-0.4,0-0.8-0.4-0.8-0.9l0,0c0-0.4,0.4-0.8,0.9-0.8l17.9,1.1c0.4,0,0.8,0.4,0.8,0.9
					l0,0C33.2,24.6,32.8,24.9,32.4,24.9z"/>
				<path fill="#F1F1F2" d="M32.1,31.8l-17.9-1.1c-0.4,0-0.8-0.4-0.8-0.9l0,0c0-0.4,0.4-0.8,0.9-0.8l17.9,1.1c0.4,0,0.8,0.4,0.8,0.9
					l0,0C32.9,31.5,32.5,31.9,32.1,31.8z"/>
				<path fill="#F1F1F2" d="M28.6,28.2l-11.2-0.7c-0.4,0-0.8-0.4-0.8-0.9v0c0-0.4,0.4-0.8,0.9-0.8l11.2,0.7c0.4,0,0.8,0.4,0.8,0.9
					l0,0C29.4,27.9,29,28.2,28.6,28.2z"/>
			</g>
		</g>
	</g>
</g>
<g id="post_it_2_">
	<g opacity="0.3">
		
			<rect x="32.8" y="14.9" transform="matrix(0.4698 0.8828 -0.8828 0.4698 48.826 -25.6126)" fill="#29826B" width="25.9" height="25.9"/>
		<path fill="#29826B" d="M50.9,17.5l-16,8.2c-0.4,0.2-0.9,0-1.1-0.3l0,0c-0.2-0.4,0-0.9,0.3-1.1l16-8.2c0.4-0.2,0.9,0,1.1,0.3l0,0
			C51.4,16.8,51.3,17.3,50.9,17.5z"/>
		<path fill="#29826B" d="M54.2,23.6l-16,8.2c-0.4,0.2-0.9,0-1.1-0.3l0,0c-0.2-0.4,0-0.9,0.3-1.1l16-8.2c0.4-0.2,0.9,0,1.1,0.3l0,0
			C54.7,22.9,54.6,23.4,54.2,23.6z"/>
		<path fill="#29826B" d="M49.3,22.2l-9.9,5.1c-0.4,0.2-0.9,0-1.1-0.3l0,0c-0.2-0.4,0-0.9,0.3-1.1l9.9-5.1c0.4-0.2,0.9,0,1.1,0.3
			l0,0C49.9,21.5,49.7,22,49.3,22.2z"/>
	</g>
	<g>
		<g>
			<g id="post_it_15_">
				
					<rect x="29.8" y="13.9" transform="matrix(0.4698 0.8828 -0.8828 0.4698 46.3526 -23.4945)" fill="#936278" width="25.9" height="25.9"/>
			</g>
			<g id="text_10_">
				<path fill="#F1F1F2" d="M47.9,16.5l-16,8.2c-0.4,0.2-0.9,0-1.1-0.3l0,0c-0.2-0.4,0-0.9,0.3-1.1l16-8.2c0.4-0.2,0.9,0,1.1,0.3
					l0,0C48.4,15.8,48.3,16.3,47.9,16.5z"/>
				<path fill="#F1F1F2" d="M51.2,22.6l-16,8.2c-0.4,0.2-0.9,0-1.1-0.3l0,0c-0.2-0.4,0-0.9,0.3-1.1l16-8.2c0.4-0.2,0.9,0,1.1,0.3
					l0,0C51.7,21.9,51.6,22.4,51.2,22.6z"/>
				<path fill="#F1F1F2" d="M46.3,21.2l-9.9,5.1c-0.4,0.2-0.9,0-1.1-0.3l0,0c-0.2-0.4,0-0.9,0.3-1.1l9.9-5.1c0.4-0.2,0.9,0,1.1,0.3
					l0,0C46.9,20.5,46.7,21,46.3,21.2z"/>
			</g>
		</g>
	</g>
</g>
<g id="mouse">
	<g opacity="0.3">
		<path fill="#29826B" d="M286.9,52.7c0-2.5,2.9-8,13.4-8c10.8,0,13.4,5.7,13.4,8c0,2.4,0,27.2,0,29.5c0,2.3-3.1,10.8-13.3,10.8
			c-10.8,0-13.7-7.8-13.7-10.5C286.7,79.8,286.9,55.2,286.9,52.7z"/>
		<path fill="#29826B" d="M301.7,55.1c-0.3-0.4-0.8-0.7-1.4-0.7c-0.6,0-1.1,0.3-1.4,0.7c-0.3,0.4-0.5,0.9-0.5,1.5v3.7
			c0,0.6,0.2,1.1,0.5,1.5c0.3,0.4,0.8,0.7,1.4,0.7c0.6,0,1.1-0.3,1.4-0.7c0.3-0.4,0.5-0.9,0.5-1.5v-3.7
			C302.2,56,302.1,55.5,301.7,55.1z M300.5,60.9c-0.1,0.1-0.2,0.1-0.2,0.1c0,0-0.1,0-0.2-0.1c-0.1-0.1-0.2-0.3-0.2-0.5v-3.7
			c0-0.2,0.1-0.4,0.2-0.5c0.1-0.1,0.2-0.1,0.2-0.1s0.1,0,0.2,0.1c0.1,0.1,0.2,0.3,0.2,0.5v3.7C300.7,60.6,300.6,60.7,300.5,60.9z"/>
		<path fill="#29826B" d="M300.7,92c-12.6,0-13.3-9.3-13.3-9.7l0-19.2c1.8,7.8,6.8,20.6,19.3,20.6c2,0,4.1-0.3,6.4-1
			C312.6,85.2,310.5,92,300.7,92z"/>
	</g>
	<g>
		<g>
			<g>
				<path fill="#FFFFFF" d="M283.9,50.7c0-2.5,2.9-8,13.4-8c10.8,0,13.4,5.7,13.4,8c0,2.4,0,27.2,0,29.5c0,2.3-3.1,10.8-13.3,10.8
					c-10.8,0-13.7-7.8-13.7-10.5C283.7,77.8,283.9,53.2,283.9,50.7z"/>
			</g>
			<g>
				<path fill="#989897" d="M298.7,53.1c-0.3-0.4-0.8-0.7-1.4-0.7c-0.6,0-1.1,0.3-1.4,0.7c-0.3,0.4-0.5,0.9-0.5,1.5v3.7
					c0,0.6,0.2,1.1,0.5,1.5c0.3,0.4,0.8,0.7,1.4,0.7c0.6,0,1.1-0.3,1.4-0.7c0.3-0.4,0.5-0.9,0.5-1.5v-3.7
					C299.2,54,299.1,53.5,298.7,53.1z M297.5,58.9c-0.1,0.1-0.2,0.1-0.2,0.1c0,0-0.1,0-0.2-0.1c-0.1-0.1-0.2-0.3-0.2-0.5v-3.7
					c0-0.2,0.1-0.4,0.2-0.5c0.1-0.1,0.2-0.1,0.2-0.1s0.1,0,0.2,0.1c0.1,0.1,0.2,0.3,0.2,0.5v3.7C297.7,58.6,297.6,58.7,297.5,58.9z"
					/>
			</g>
			<g>
				<path fill="#F3F2F2" d="M297.7,90c-12.6,0-13.3-9.3-13.3-9.7l0-19.2c1.8,7.8,6.8,20.6,19.3,20.6c2,0,4.1-0.3,6.4-1
					C309.6,83.2,307.5,90,297.7,90z"/>
			</g>
		</g>
	</g>
</g>
<g id="pen">
	<g opacity="0">
		
			<rect x="227" y="3.7" transform="matrix(0.275 0.9614 -0.9614 0.275 197.9151 -196.9178)" fill="#29826B" width="5.1" height="58.2"/>
		
			<rect x="257.4" y="22.5" transform="matrix(0.9615 -0.2749 0.2749 0.9615 3.2929 72.0745)" fill="#29826B" width="2.7" height="3.6"/>
		<polygon fill="#29826B" points="200.9,38.3 202.2,43.2 191.5,43.7 		"/>
		<polygon fill="#29826B" points="250.4,24.7 250.8,26.2 251.8,29.7 244.7,31.8 243.7,28.3 243.3,26.8 243,25.7 242.7,24.5 
			249.7,22.5 250,23.6 		"/>
		<polyline fill="#29826B" points="256.3,20.6 249.7,22.5 236.1,26.4 235.6,25 		"/>
	</g>
	<g>
		<g>
			<g>
				
					<rect x="222" y="2.7" transform="matrix(0.275 0.9614 -0.9614 0.275 193.3286 -192.8356)" fill="#98D3CD" width="5.1" height="58.2"/>
			</g>
			<g>
				
					<rect x="252.4" y="21.5" transform="matrix(0.9615 -0.2749 0.2749 0.9615 3.3751 70.6616)" fill="#666666" width="2.7" height="3.6"/>
				<polygon fill="#666666" points="195.9,37.3 197.2,42.2 186.5,42.7 				"/>
				<polygon fill="#666666" points="245.4,23.7 245.8,25.2 246.8,28.7 239.7,30.8 238.7,27.3 238.3,25.8 238,24.7 237.7,23.5 
					244.7,21.5 245,22.6 				"/>
				<polyline fill="#666666" points="251.3,19.6 244.7,21.5 231.1,25.4 230.6,24 				"/>
			</g>
		</g>
	</g>
</g>
<g>
	<path fill="#C4C4C8" d="M254.7,196.6l-212.5-67c-3.2-1-5-4.4-4-7.6l26.6-84.4l224.1,70.6l-26.6,84.4
		C261.3,195.8,257.9,197.6,254.7,196.6z"/>
	<path opacity="0.2" fill="#211915" d="M255.4,194.3l-212.5-67c-3.2-1-5-4.4-4-7.6l-0.7,2.2c-1,3.2,0.8,6.6,4,7.6l212.5,67
		c3.2,1,6.6-0.8,7.6-4l0.7-2.2C262,193.6,258.6,195.3,255.4,194.3z"/>
	<path fill="#ECEDEF" d="M286.5,95.5L74,28.6c-3.2-1-6.6,0.8-7.6,4l-1.6,5.1l224.1,70.6l1.6-5.1C291.5,100,289.7,96.5,286.5,95.5z"
		/>
	<path fill="#FFFFFF" d="M76.3,51.6l-9.5-3c-0.6-0.2-1-0.9-0.8-1.5l1-3.1c0.2-0.6,0.9-1,1.5-0.8l9.5,3c0.6,0.2,1,0.9,0.8,1.5l-1,3.1
		C77.6,51.4,76.9,51.7,76.3,51.6z"/>
	<path fill="#FFFFFF" d="M92,56.5l-9.5-3c-0.6-0.2-1-0.9-0.8-1.5l1-3.1c0.2-0.6,0.9-1,1.5-0.8l9.5,3c0.6,0.2,1,0.9,0.8,1.5l-1,3.1
		C93.3,56.4,92.6,56.7,92,56.5z"/>
	<path fill="#FFFFFF" d="M107.7,61.5l-9.5-3c-0.6-0.2-1-0.9-0.8-1.5l1-3.1c0.2-0.6,0.9-1,1.5-0.8l9.5,3c0.6,0.2,1,0.9,0.8,1.5
		l-1,3.1C109,61.3,108.3,61.7,107.7,61.5z"/>
	<path fill="#FFFFFF" d="M123.4,66.4l-9.5-3c-0.6-0.2-1-0.9-0.8-1.5l1-3.1c0.2-0.6,0.9-1,1.5-0.8l9.5,3c0.6,0.2,1,0.9,0.8,1.5
		l-1,3.1C124.7,66.3,124,66.6,123.4,66.4z"/>
	<path fill="#FFFFFF" d="M139.1,71.4l-9.5-3c-0.6-0.2-1-0.9-0.8-1.5l1-3.1c0.2-0.6,0.9-1,1.5-0.8l9.5,3c0.6,0.2,1,0.9,0.8,1.5
		l-1,3.1C140.4,71.2,139.8,71.6,139.1,71.4z"/>
	<path fill="#FFFFFF" d="M154.9,76.3l-9.5-3c-0.6-0.2-1-0.9-0.8-1.5l1-3.1c0.2-0.6,0.9-1,1.5-0.8l9.5,3c0.6,0.2,1,0.9,0.8,1.5
		l-1,3.1C156.1,76.2,155.5,76.5,154.9,76.3z"/>
	<path fill="#FFFFFF" d="M170.6,81.3l-9.5-3c-0.6-0.2-1-0.9-0.8-1.5l1-3.1c0.2-0.6,0.9-1,1.5-0.8l9.5,3c0.6,0.2,1,0.9,0.8,1.5
		l-1,3.1C171.8,81.1,171.2,81.5,170.6,81.3z"/>
	<path fill="#FFFFFF" d="M186.3,86.2l-9.5-3c-0.6-0.2-1-0.9-0.8-1.5l1-3.1c0.2-0.6,0.9-1,1.5-0.8l9.5,3c0.6,0.2,1,0.9,0.8,1.5
		l-1,3.1C187.6,86.1,186.9,86.4,186.3,86.2z"/>
	<path fill="#FFFFFF" d="M202,91.2l-9.5-3c-0.6-0.2-1-0.9-0.8-1.5l1-3.1c0.2-0.6,0.9-1,1.5-0.8l9.5,3c0.6,0.2,1,0.9,0.8,1.5l-1,3.1
		C203.3,91,202.6,91.4,202,91.2z"/>
	<path fill="#FFFFFF" d="M217.7,96.1l-9.5-3c-0.6-0.2-1-0.9-0.8-1.5l1-3.1c0.2-0.6,0.9-1,1.5-0.8l9.5,3c0.6,0.2,1,0.9,0.8,1.5
		l-1,3.1C219,96,218.3,96.3,217.7,96.1z"/>
	<path fill="#FFFFFF" d="M233.4,101.1l-9.5-3c-0.6-0.2-1-0.9-0.8-1.5l1-3.1c0.2-0.6,0.9-1,1.5-0.8l9.5,3c0.6,0.2,1,0.9,0.8,1.5
		l-1,3.1C234.7,100.9,234,101.3,233.4,101.1z"/>
	<path fill="#FFFFFF" d="M249.1,106l-9.5-3c-0.6-0.2-1-0.9-0.8-1.5l1-3.1c0.2-0.6,0.9-1,1.5-0.8l9.5,3c0.6,0.2,1,0.9,0.8,1.5l-1,3.1
		C250.4,105.9,249.8,106.2,249.1,106z"/>
	<path fill="#FFFFFF" d="M264.8,111l-9.5-3c-0.6-0.2-1-0.9-0.8-1.5l1-3.1c0.2-0.6,0.9-1,1.5-0.8l9.5,3c0.6,0.2,1,0.9,0.8,1.5l-1,3.1
		C266.1,110.8,265.5,111.2,264.8,111z"/>
	<path fill="#FFFFFF" d="M280.6,115.9l-9.5-3c-0.6-0.2-1-0.9-0.8-1.5l1-3.1c0.2-0.6,0.9-1,1.5-0.8l9.5,3c0.6,0.2,1,0.9,0.8,1.5
		l-1,3.1C281.8,115.8,281.2,116.1,280.6,115.9z"/>
	<path fill="#FFFFFF" d="M71.3,66l-8.7-2.7c-0.8-0.3-1.3-1.2-1-2l2.7-8.7c0.3-0.8,1.2-1.3,2-1l8.7,2.7c0.8,0.3,1.3,1.2,1,2L73.3,65
		C73,65.8,72.1,66.3,71.3,66z"/>
	<path fill="#FFFFFF" d="M76.3,83.7l-18-5.7c-1-0.3-1.5-1.4-1.2-2.3l2.6-8.2c0.3-1,1.4-1.5,2.3-1.2l18,5.7c1,0.3,1.5,1.4,1.2,2.3
		l-2.6,8.2C78.3,83.4,77.3,84,76.3,83.7z"/>
	<path fill="#FFFFFF" d="M77.5,100.1l-23.9-7.5c-1-0.3-1.5-1.4-1.2-2.4l2.6-8.1c0.3-1,1.4-1.5,2.4-1.2l23.9,7.5
		c1,0.3,1.5,1.4,1.2,2.4l-2.6,8.1C79.6,99.9,78.5,100.4,77.5,100.1z"/>
	<path fill="#FFFFFF" d="M76.9,115.9l-27.8-8.8c-1-0.3-1.6-1.4-1.3-2.4l2.5-8.1c0.3-1,1.4-1.6,2.4-1.3l27.8,8.8
		c1,0.3,1.6,1.4,1.3,2.4l-2.5,8.1C79,115.7,77.9,116.3,76.9,115.9z"/>
	<path fill="#FFFFFF" d="M52.6,124.3l-8.1-2.6c-1-0.3-1.6-1.4-1.2-2.4l2.6-8.1c0.3-1,1.4-1.6,2.4-1.2l8.1,2.6c1,0.3,1.6,1.4,1.2,2.4
		l-2.6,8.1C54.7,124.1,53.6,124.7,52.6,124.3z"/>
	<path fill="#FFFFFF" d="M87,71l-8.7-2.7c-0.8-0.3-1.3-1.2-1-2l2.7-8.7c0.3-0.8,1.2-1.3,2-1l8.7,2.7c0.8,0.3,1.3,1.2,1,2L89,69.9
		C88.7,70.8,87.8,71.2,87,71z"/>
	<path fill="#FFFFFF" d="M68.3,129.3l-8.1-2.6c-1-0.3-1.6-1.4-1.2-2.4l2.6-8.1c0.3-1,1.4-1.6,2.4-1.2l8.1,2.6c1,0.3,1.6,1.4,1.2,2.4
		l-2.6,8.1C70.4,129.1,69.3,129.6,68.3,129.3z"/>
	<path fill="#FFFFFF" d="M102.7,75.9L94,73.2c-0.8-0.3-1.3-1.2-1-2l2.7-8.7c0.3-0.8,1.2-1.3,2-1l8.7,2.7c0.8,0.3,1.3,1.2,1,2
		l-2.7,8.7C104.4,75.7,103.6,76.2,102.7,75.9z"/>
	<path fill="#FFFFFF" d="M92.2,88.7L83.6,86c-0.9-0.3-1.4-1.2-1.1-2.1l2.7-8.5c0.3-0.9,1.2-1.4,2.1-1.1l8.5,2.7
		c0.9,0.3,1.4,1.2,1.1,2.1l-2.7,8.5C94,88.5,93,88.9,92.2,88.7z"/>
	<path fill="#FFFFFF" d="M93.2,105.1l-8.1-2.6c-1-0.3-1.5-1.4-1.2-2.4l2.6-8.1c0.3-1,1.4-1.5,2.4-1.2l8.1,2.6c1,0.3,1.5,1.4,1.2,2.4
		l-2.6,8.1C95.3,104.8,94.2,105.4,93.2,105.1z"/>
	<path fill="#FFFFFF" d="M84,134.3l-8.1-2.6c-1-0.3-1.6-1.4-1.2-2.4l2.6-8.1c0.3-1,1.4-1.6,2.4-1.2l8.1,2.6c1,0.3,1.6,1.4,1.2,2.4
		l-2.6,8.1C86.1,134,85,134.6,84,134.3z"/>
	<path fill="#FFFFFF" d="M118.4,80.9l-8.7-2.7c-0.8-0.3-1.3-1.2-1-2l2.7-8.7c0.3-0.8,1.2-1.3,2-1l8.7,2.7c0.8,0.3,1.3,1.2,1,2
		l-2.7,8.7C120.2,80.7,119.3,81.2,118.4,80.9z"/>
	<path fill="#FFFFFF" d="M107.7,93.6L99.5,91c-1-0.3-1.5-1.4-1.2-2.3l2.6-8.2c0.3-1,1.4-1.5,2.3-1.2l8.2,2.6c1,0.3,1.5,1.4,1.2,2.3
		l-2.6,8.2C109.7,93.3,108.7,93.9,107.7,93.6z"/>
	<path fill="#FFFFFF" d="M108.9,110l-8.1-2.6c-1-0.3-1.5-1.4-1.2-2.4l2.6-8.1c0.3-1,1.4-1.5,2.4-1.2l8.1,2.6c1,0.3,1.5,1.4,1.2,2.4
		l-2.6,8.1C111,109.8,109.9,110.3,108.9,110z"/>
	<path fill="#FFFFFF" d="M96.7,122.2l-8.1-2.5c-1-0.3-1.6-1.4-1.3-2.4l2.5-8.1c0.3-1,1.4-1.6,2.4-1.3l8.1,2.5c1,0.3,1.6,1.4,1.3,2.4
		l-2.5,8.1C98.8,121.9,97.7,122.5,96.7,122.2z"/>
	<path fill="#FFFFFF" d="M134.1,85.8l-8.7-2.7c-0.8-0.3-1.3-1.2-1-2l2.7-8.7c0.3-0.8,1.2-1.3,2-1l8.7,2.7c0.8,0.3,1.3,1.2,1,2
		l-2.7,8.7C135.9,85.6,135,86.1,134.1,85.8z"/>
	<path fill="#FFFFFF" d="M123.4,98.5l-8.2-2.6c-1-0.3-1.5-1.4-1.2-2.3l2.6-8.2c0.3-1,1.4-1.5,2.3-1.2l8.2,2.6c1,0.3,1.5,1.4,1.2,2.3
		l-2.6,8.2C125.4,98.3,124.4,98.8,123.4,98.5z"/>
	<path fill="#FFFFFF" d="M124.7,115l-8.1-2.6c-1-0.3-1.5-1.4-1.2-2.4l2.6-8.1c0.3-1,1.4-1.5,2.4-1.2l8.1,2.6c1,0.3,1.5,1.4,1.2,2.4
		l-2.6,8.1C126.7,114.7,125.7,115.3,124.7,115z"/>
	<path fill="#FFFFFF" d="M112.4,127.1l-8.1-2.5c-1-0.3-1.6-1.4-1.3-2.4l2.5-8.1c0.3-1,1.4-1.6,2.4-1.3l8.1,2.5
		c1,0.3,1.6,1.4,1.3,2.4l-2.5,8.1C114.5,126.9,113.4,127.5,112.4,127.1z"/>
	<path fill="#FFFFFF" d="M149.9,90.8l-8.7-2.7c-0.8-0.3-1.3-1.2-1-2l2.7-8.7c0.3-0.8,1.2-1.3,2-1l8.7,2.7c0.8,0.3,1.3,1.2,1,2
		l-2.7,8.7C151.6,90.6,150.7,91.1,149.9,90.8z"/>
	<path fill="#FFFFFF" d="M139.1,103.5l-8.2-2.6c-1-0.3-1.5-1.4-1.2-2.3l2.6-8.2c0.3-1,1.4-1.5,2.3-1.2l8.2,2.6
		c1,0.3,1.5,1.4,1.2,2.3l-2.6,8.2C141.2,103.2,140.1,103.8,139.1,103.5z"/>
	<path fill="#FFFFFF" d="M140.4,119.9l-8.1-2.6c-1-0.3-1.5-1.4-1.2-2.4l2.6-8.1c0.3-1,1.4-1.5,2.4-1.2l8.1,2.6
		c1,0.3,1.5,1.4,1.2,2.4l-2.6,8.1C142.4,119.7,141.4,120.2,140.4,119.9z"/>
	<path fill="#FFFFFF" d="M128.1,132.1l-8.1-2.5c-1-0.3-1.6-1.4-1.3-2.4l2.5-8.1c0.3-1,1.4-1.6,2.4-1.3l8.1,2.5
		c1,0.3,1.6,1.4,1.3,2.4l-2.5,8.1C130.2,131.9,129.1,132.4,128.1,132.1z"/>
	<path fill="#FFFFFF" d="M165.6,95.7l-8.7-2.7c-0.8-0.3-1.3-1.2-1-2l2.7-8.7c0.3-0.8,1.2-1.3,2-1l8.7,2.7c0.8,0.3,1.3,1.2,1,2
		l-2.7,8.7C167.3,95.5,166.4,96,165.6,95.7z"/>
	<path fill="#FFFFFF" d="M154.8,108.4l-8.2-2.6c-1-0.3-1.5-1.4-1.2-2.3l2.6-8.2c0.3-1,1.4-1.5,2.3-1.2l8.2,2.6
		c1,0.3,1.5,1.4,1.2,2.3l-2.6,8.2C156.9,108.2,155.8,108.7,154.8,108.4z"/>
	<path fill="#FFFFFF" d="M156.1,124.9l-8.1-2.6c-1-0.3-1.5-1.4-1.2-2.4l2.6-8.1c0.3-1,1.4-1.5,2.4-1.2l8.1,2.6
		c1,0.3,1.5,1.4,1.2,2.4l-2.6,8.1C158.1,124.6,157.1,125.2,156.1,124.9z"/>
	<path fill="#FFFFFF" d="M143.8,137l-8.1-2.5c-1-0.3-1.6-1.4-1.3-2.4l2.5-8.1c0.3-1,1.4-1.6,2.4-1.3l8.1,2.5c1,0.3,1.6,1.4,1.3,2.4
		l-2.5,8.1C145.9,136.8,144.8,137.4,143.8,137z"/>
	<path fill="#FFFFFF" d="M181.3,100.7l-8.7-2.7c-0.8-0.3-1.3-1.2-1-2l2.7-8.7c0.3-0.8,1.2-1.3,2-1L185,89c0.8,0.3,1.3,1.2,1,2
		l-2.7,8.7C183,100.5,182.1,101,181.3,100.7z"/>
	<path fill="#FFFFFF" d="M170.5,113.4l-8.2-2.6c-1-0.3-1.5-1.4-1.2-2.3l2.6-8.2c0.3-1,1.4-1.5,2.3-1.2l8.2,2.6
		c1,0.3,1.5,1.4,1.2,2.3l-2.6,8.2C172.6,113.1,171.5,113.7,170.5,113.4z"/>
	<path fill="#FFFFFF" d="M171.8,129.8l-8.1-2.6c-1-0.3-1.5-1.4-1.2-2.4l2.6-8.1c0.3-1,1.4-1.5,2.4-1.2l8.1,2.6
		c1,0.3,1.5,1.4,1.2,2.4l-2.6,8.1C173.8,129.6,172.8,130.1,171.8,129.8z"/>
	<path fill="#FFFFFF" d="M159.5,142l-8.1-2.5c-1-0.3-1.6-1.4-1.3-2.4l2.5-8.1c0.3-1,1.4-1.6,2.4-1.3l8.1,2.5c1,0.3,1.6,1.4,1.3,2.4
		l-2.5,8.1C161.6,141.8,160.5,142.3,159.5,142z"/>
	<path fill="#FFFFFF" d="M197,105.7l-8.7-2.7c-0.8-0.3-1.3-1.2-1-2l2.7-8.7c0.3-0.8,1.2-1.3,2-1l8.7,2.7c0.8,0.3,1.3,1.2,1,2
		l-2.7,8.7C198.7,105.5,197.8,105.9,197,105.7z"/>
	<path fill="#FFFFFF" d="M186.3,118.3l-8.2-2.6c-1-0.3-1.5-1.4-1.2-2.3l2.6-8.2c0.3-1,1.4-1.5,2.3-1.2l8.2,2.6
		c1,0.3,1.5,1.4,1.2,2.3l-2.6,8.2C188.3,118.1,187.2,118.6,186.3,118.3z"/>
	<path fill="#FFFFFF" d="M187.5,134.8l-8.1-2.6c-1-0.3-1.5-1.4-1.2-2.4l2.6-8.1c0.3-1,1.4-1.5,2.4-1.2l8.1,2.6
		c1,0.3,1.5,1.4,1.2,2.4l-2.6,8.1C189.6,134.5,188.5,135.1,187.5,134.8z"/>
	<path fill="#FFFFFF" d="M175.2,147l-8.1-2.5c-1-0.3-1.6-1.4-1.3-2.4l2.5-8.1c0.3-1,1.4-1.6,2.4-1.3l8.1,2.5c1,0.3,1.6,1.4,1.3,2.4
		l-2.5,8.1C177.3,146.7,176.2,147.3,175.2,147z"/>
	<path fill="#FFFFFF" d="M178.3,164l-8.1-2.6c-1-0.3-1.6-1.4-1.2-2.4l2.6-8.1c0.3-1,1.4-1.6,2.4-1.2l8.1,2.6c1,0.3,1.6,1.4,1.2,2.4
		l-2.6,8.1C180.4,163.7,179.3,164.3,178.3,164z"/>
	<path fill="#FFFFFF" d="M212.7,110.6l-8.7-2.7c-0.8-0.3-1.3-1.2-1-2l2.7-8.7c0.3-0.8,1.2-1.3,2-1l8.7,2.7c0.8,0.3,1.3,1.2,1,2
		l-2.7,8.7C214.4,110.4,213.5,110.9,212.7,110.6z"/>
	<path fill="#FFFFFF" d="M202,123.3l-8.2-2.6c-1-0.3-1.5-1.4-1.2-2.3l2.6-8.2c0.3-1,1.4-1.5,2.3-1.2l8.2,2.6c1,0.3,1.5,1.4,1.2,2.3
		l-2.6,8.2C204,123,203,123.6,202,123.3z"/>
	<path fill="#FFFFFF" d="M203.2,139.7l-8.1-2.6c-1-0.3-1.5-1.4-1.2-2.4l2.6-8.1c0.3-1,1.4-1.5,2.4-1.2l8.1,2.6
		c1,0.3,1.5,1.4,1.2,2.4l-2.6,8.1C205.3,139.5,204.2,140,203.2,139.7z"/>
	<path fill="#FFFFFF" d="M190.9,151.9l-8.1-2.5c-1-0.3-1.6-1.4-1.3-2.4l2.5-8.1c0.3-1,1.4-1.6,2.4-1.3l8.1,2.5
		c1,0.3,1.6,1.4,1.3,2.4l-2.5,8.1C193,151.7,192,152.2,190.9,151.9z"/>
	<path fill="#FFFFFF" d="M194,168.9l-8.1-2.6c-1-0.3-1.6-1.4-1.2-2.4l2.6-8.1c0.3-1,1.4-1.6,2.4-1.2l8.1,2.6c1,0.3,1.6,1.4,1.2,2.4
		l-2.6,8.1C196.1,168.7,195,169.2,194,168.9z"/>
	<path fill="#FFFFFF" d="M228.4,115.6l-8.7-2.7c-0.8-0.3-1.3-1.2-1-2l2.7-8.7c0.3-0.8,1.2-1.3,2-1l8.7,2.7c0.8,0.3,1.3,1.2,1,2
		l-2.7,8.7C230.2,115.4,229.3,115.8,228.4,115.6z"/>
	<path fill="#FFFFFF" d="M217.7,128.2l-8.2-2.6c-1-0.3-1.5-1.4-1.2-2.3l2.6-8.2c0.3-1,1.4-1.5,2.3-1.2l8.2,2.6
		c1,0.3,1.5,1.4,1.2,2.3L220,127C219.7,128,218.7,128.5,217.7,128.2z"/>
	<path fill="#FFFFFF" d="M218.9,144.7l-8.1-2.6c-1-0.3-1.5-1.4-1.2-2.4l2.6-8.1c0.3-1,1.4-1.5,2.4-1.2l8.1,2.6
		c1,0.3,1.5,1.4,1.2,2.4l-2.6,8.1C221,144.4,219.9,145,218.9,144.7z"/>
	<path fill="#FFFFFF" d="M206.7,156.9l-8.1-2.5c-1-0.3-1.6-1.4-1.3-2.4l2.5-8.1c0.3-1,1.4-1.6,2.4-1.3l8.1,2.5
		c1,0.3,1.6,1.4,1.3,2.4l-2.5,8.1C208.7,156.6,207.7,157.2,206.7,156.9z"/>
	<path fill="#FFFFFF" d="M209.7,173.9l-8.1-2.6c-1-0.3-1.6-1.4-1.2-2.4l2.6-8.1c0.3-1,1.4-1.6,2.4-1.2l8.1,2.6
		c1,0.3,1.6,1.4,1.2,2.4l-2.6,8.1C211.8,173.6,210.7,174.2,209.7,173.9z"/>
	<path fill="#FFFFFF" d="M244.1,120.5l-8.7-2.7c-0.8-0.3-1.3-1.2-1-2l2.7-8.7c0.3-0.8,1.2-1.3,2-1l8.7,2.7c0.8,0.3,1.3,1.2,1,2
		l-2.7,8.7C245.9,120.3,245,120.8,244.1,120.5z"/>
	<path fill="#FFFFFF" d="M259.9,125.5l-8.7-2.7c-0.8-0.3-1.3-1.2-1-2l2.7-8.7c0.3-0.8,1.2-1.3,2-1l8.7,2.7c0.8,0.3,1.3,1.2,1,2
		l-2.7,8.7C261.6,125.3,260.7,125.7,259.9,125.5z"/>
	<path fill="#FFFFFF" d="M233.4,133.2l-8.2-2.6c-1-0.3-1.5-1.4-1.2-2.3l2.6-8.2c0.3-1,1.4-1.5,2.3-1.2l8.2,2.6
		c1,0.3,1.5,1.4,1.2,2.3l-2.6,8.2C235.4,132.9,234.4,133.5,233.4,133.2z"/>
	<path fill="#FFFFFF" d="M234.7,149.6l-8.1-2.6c-1-0.3-1.5-1.4-1.2-2.4l2.6-8.1c0.3-1,1.4-1.5,2.4-1.2l8.1,2.6
		c1,0.3,1.5,1.4,1.2,2.4l-2.6,8.1C236.7,149.4,235.6,149.9,234.7,149.6z"/>
	<path fill="#FFFFFF" d="M222.4,161.8l-8.1-2.5c-1-0.3-1.6-1.4-1.3-2.4l2.5-8.1c0.3-1,1.4-1.6,2.4-1.3l8.1,2.5
		c1,0.3,1.6,1.4,1.3,2.4l-2.5,8.1C224.5,161.6,223.4,162.1,222.4,161.8z"/>
	<path fill="#FFFFFF" d="M245.2,177.8l-9.9-3.1c-0.5-0.2-0.8-0.7-0.6-1.2l0.7-2.2c0.2-0.5,0.7-0.8,1.2-0.6l9.9,3.1
		c0.5,0.2,0.8,0.7,0.6,1.2l-0.7,2.2C246.2,177.7,245.7,177.9,245.2,177.8z"/>
	<path fill="#FFFFFF" d="M243.1,184.4l-9.9-3.1c-0.5-0.2-0.8-0.7-0.6-1.2l0.7-2.2c0.2-0.5,0.7-0.8,1.2-0.6l9.9,3.1
		c0.5,0.2,0.8,0.7,0.6,1.2l-0.7,2.2C244.1,184.3,243.6,184.6,243.1,184.4z"/>
	<path fill="#FFFFFF" d="M257.8,189l-9.9-3.1c-0.5-0.2-0.8-0.7-0.6-1.2l0.7-2.2c0.2-0.5,0.7-0.8,1.2-0.6l9.9,3.1
		c0.5,0.2,0.8,0.7,0.6,1.2l-0.7,2.2C258.8,188.9,258.3,189.2,257.8,189z"/>
	<path fill="#FFFFFF" d="M228.5,179.8l-9.9-3.1c-0.5-0.2-0.8-0.7-0.6-1.2l0.7-2.2c0.2-0.5,0.7-0.8,1.2-0.6l9.9,3.1
		c0.5,0.2,0.8,0.7,0.6,1.2l-0.7,2.2C229.5,179.7,229,179.9,228.5,179.8z"/>
	<path fill="#FFFFFF" d="M249.1,138.1l-8.2-2.6c-1-0.3-1.5-1.4-1.2-2.3l2.6-8.2c0.3-1,1.4-1.5,2.3-1.2l8.2,2.6
		c1,0.3,1.5,1.4,1.2,2.3l-2.6,8.2C251.1,137.9,250.1,138.4,249.1,138.1z"/>
	<path fill="#FFFFFF" d="M275.6,130.4l-8.7-2.7c-0.8-0.3-1.3-1.2-1-2l2.7-8.7c0.3-0.8,1.2-1.3,2-1l8.7,2.7c0.8,0.3,1.3,1.2,1,2
		l-2.7,8.7C277.3,130.2,276.4,130.7,275.6,130.4z"/>
	<path fill="#FFFFFF" d="M264.8,143.1l-8.2-2.6c-1-0.3-1.5-1.4-1.2-2.3l2.6-8.2c0.3-1,1.4-1.5,2.3-1.2l8.2,2.6
		c1,0.3,1.5,1.4,1.2,2.3l-2.6,8.2C266.9,142.8,265.8,143.4,264.8,143.1z"/>
	<path fill="#FFFFFF" d="M266.1,159.5l-23.9-7.5c-1-0.3-1.5-1.4-1.2-2.4l2.6-8.1c0.3-1,1.4-1.5,2.4-1.2l23.9,7.5
		c1,0.3,1.5,1.4,1.2,2.4l-2.6,8.1C268.1,159.3,267.1,159.8,266.1,159.5z"/>
	<path fill="#FFFFFF" d="M261.4,174.1l-27.8-8.8c-1-0.3-1.6-1.4-1.3-2.4l2.5-8.1c0.3-1,1.4-1.6,2.4-1.3l27.8,8.8
		c1,0.3,1.6,1.4,1.3,2.4l-2.5,8.1C263.5,173.9,262.5,174.4,261.4,174.1z"/>
	<path fill="#FFFFFF" d="M162.6,159l-71-22.4c-1-0.3-1.6-1.4-1.2-2.4l2.6-8.1c0.3-1,1.4-1.6,2.4-1.2l71,22.4c1,0.3,1.6,1.4,1.2,2.4
		l-2.6,8.1C164.6,158.8,163.6,159.3,162.6,159z"/>
	<path opacity="0.2" fill="#211915" d="M72,65.3l-9.6-3c-0.6-0.2-0.9-0.8-0.7-1.4l-0.3,0.8c-0.2,0.6,0.1,1.2,0.7,1.4l9.6,3
		c0.6,0.2,1.2-0.1,1.4-0.7l0.3-0.8C73.2,65.2,72.6,65.5,72,65.3z"/>
	<path opacity="0.2" fill="#211915" d="M77.2,83l-19.4-6.1c-0.6-0.2-0.9-0.8-0.7-1.4l-0.2,0.6c-0.2,0.7,0.2,1.4,0.9,1.7l19.1,6
		c0.7,0.2,1.4-0.2,1.7-0.9l0.2-0.6C78.5,82.9,77.8,83.2,77.2,83z"/>
	<path opacity="0.2" fill="#211915" d="M78.5,99.5l-25.3-8c-0.6-0.2-0.9-0.8-0.7-1.4l-0.2,0.6c-0.2,0.7,0.2,1.4,0.9,1.7l24.9,7.9
		c0.7,0.2,1.4-0.2,1.7-0.9l0.2-0.6C79.7,99.4,79.1,99.7,78.5,99.5z"/>
	<path opacity="0.2" fill="#211915" d="M77.9,115.3l-29.3-9.2c-0.6-0.2-0.9-0.8-0.7-1.4l-0.2,0.6c-0.2,0.7,0.2,1.4,0.9,1.7l28.9,9.1
		c0.7,0.2,1.4-0.2,1.7-0.9l0.2-0.6C79.1,115.2,78.5,115.5,77.9,115.3z"/>
	<path opacity="0.2" fill="#211915" d="M87.7,70.3l-9.6-3c-0.6-0.2-0.9-0.8-0.7-1.4l-0.3,0.8c-0.2,0.6,0.1,1.2,0.7,1.4l9.6,3
		c0.6,0.2,1.2-0.1,1.4-0.7l0.3-0.8C88.9,70.1,88.3,70.5,87.7,70.3z"/>
	<path opacity="0.2" fill="#211915" d="M93,88l-9.6-3c-0.6-0.2-0.9-0.8-0.7-1.4l-0.3,0.8c-0.2,0.6,0.1,1.3,0.8,1.5l9.5,3
		c0.6,0.2,1.3-0.1,1.5-0.8l0.3-0.8C94.2,87.9,93.6,88.2,93,88z"/>
	<path opacity="0.2" fill="#211915" d="M94.2,104.4l-9.6-3c-0.6-0.2-0.9-0.8-0.7-1.4l-0.2,0.7c-0.2,0.7,0.2,1.4,0.8,1.6l9.3,2.9
		c0.7,0.2,1.4-0.2,1.6-0.8l0.2-0.7C95.4,104.3,94.8,104.6,94.2,104.4z"/>
	<path opacity="0.2" fill="#211915" d="M109.9,109.4l-9.6-3c-0.6-0.2-0.9-0.8-0.7-1.4l-0.2,0.7c-0.2,0.7,0.2,1.4,0.8,1.6l9.3,2.9
		c0.7,0.2,1.4-0.2,1.6-0.8l0.2-0.7C111.2,109.3,110.5,109.6,109.9,109.4z"/>
	<path opacity="0.2" fill="#211915" d="M97.7,121.6l-9.6-3c-0.6-0.2-0.9-0.8-0.7-1.4l-0.2,0.6c-0.2,0.7,0.2,1.5,0.9,1.7l9.2,2.9
		c0.7,0.2,1.5-0.2,1.7-0.9l0.2-0.6C98.9,121.4,98.3,121.8,97.7,121.6z"/>
	<path opacity="0.2" fill="#211915" d="M85,133.7l-9.6-3c-0.6-0.2-0.9-0.8-0.7-1.4l-0.2,0.6c-0.2,0.7,0.2,1.5,0.9,1.7l9.2,2.9
		c0.7,0.2,1.5-0.2,1.7-0.9l0.2-0.6C86.2,133.5,85.6,133.8,85,133.7z"/>
	<path opacity="0.2" fill="#211915" d="M163.6,158.4l-72.5-22.8c-0.6-0.2-0.9-0.8-0.7-1.4l-0.2,0.6c-0.2,0.7,0.2,1.5,0.9,1.7
		l72,22.7c0.7,0.2,1.5-0.2,1.7-0.9l0.2-0.6C164.8,158.3,164.2,158.6,163.6,158.4z"/>
	<path opacity="0.2" fill="#211915" d="M69.3,128.7l-9.6-3c-0.6-0.2-0.9-0.8-0.7-1.4l-0.2,0.6c-0.2,0.7,0.2,1.5,0.9,1.7l9.2,2.9
		c0.7,0.2,1.5-0.2,1.7-0.9l0.2-0.6C70.5,128.6,69.9,128.9,69.3,128.7z"/>
	<path opacity="0.2" fill="#211915" d="M53.6,123.7l-9.6-3c-0.6-0.2-0.9-0.8-0.7-1.4l-0.2,0.6c-0.2,0.7,0.2,1.5,0.9,1.7l9.2,2.9
		c0.7,0.2,1.5-0.2,1.7-0.9L55,123C54.8,123.6,54.2,123.9,53.6,123.7z"/>
	<path opacity="0.2" fill="#211915" d="M113.4,126.5l-9.6-3c-0.6-0.2-0.9-0.8-0.7-1.4l-0.2,0.6c-0.2,0.7,0.2,1.5,0.9,1.7l9.2,2.9
		c0.7,0.2,1.5-0.2,1.7-0.9l0.2-0.6C114.6,126.4,114,126.7,113.4,126.5z"/>
	<path opacity="0.2" fill="#211915" d="M129.1,131.5l-9.6-3c-0.6-0.2-0.9-0.8-0.7-1.4l-0.2,0.6c-0.2,0.7,0.2,1.5,0.9,1.7l9.2,2.9
		c0.7,0.2,1.5-0.2,1.7-0.9l0.2-0.6C130.3,131.4,129.7,131.7,129.1,131.5z"/>
	<path opacity="0.2" fill="#211915" d="M144.8,136.4l-9.6-3c-0.6-0.2-0.9-0.8-0.7-1.4l-0.2,0.6c-0.2,0.7,0.2,1.5,0.9,1.7l9.2,2.9
		c0.7,0.2,1.5-0.2,1.7-0.9l0.2-0.6C146,136.3,145.4,136.6,144.8,136.4z"/>
	<path opacity="0.2" fill="#211915" d="M160.5,141.4l-9.6-3c-0.6-0.2-0.9-0.8-0.7-1.4l-0.2,0.6c-0.2,0.7,0.2,1.5,0.9,1.7l9.2,2.9
		c0.7,0.2,1.5-0.2,1.7-0.9l0.2-0.6C161.8,141.3,161.1,141.6,160.5,141.4z"/>
	<path opacity="0.2" fill="#211915" d="M176.3,146.4l-9.6-3c-0.6-0.2-0.9-0.8-0.7-1.4l-0.2,0.6c-0.2,0.7,0.2,1.5,0.9,1.7l9.2,2.9
		c0.7,0.2,1.5-0.2,1.7-0.9l0.2-0.6C177.5,146.2,176.8,146.5,176.3,146.4z"/>
	<path opacity="0.2" fill="#211915" d="M192,151.3l-9.6-3c-0.6-0.2-0.9-0.8-0.7-1.4l-0.2,0.6c-0.2,0.7,0.2,1.5,0.9,1.7l9.2,2.9
		c0.7,0.2,1.5-0.2,1.7-0.9l0.2-0.6C193.2,151.2,192.6,151.5,192,151.3z"/>
	<path opacity="0.2" fill="#211915" d="M179.3,163.4l-9.6-3c-0.6-0.2-0.9-0.8-0.7-1.4l-0.2,0.6c-0.2,0.7,0.2,1.5,0.9,1.7l9.2,2.9
		c0.7,0.2,1.5-0.2,1.7-0.9l0.2-0.6C180.5,163.2,179.9,163.6,179.3,163.4z"/>
	<path opacity="0.2" fill="#211915" d="M195,168.3l-9.6-3c-0.6-0.2-0.9-0.8-0.7-1.4l-0.2,0.6c-0.2,0.7,0.2,1.5,0.9,1.7l9.2,2.9
		c0.7,0.2,1.5-0.2,1.7-0.9l0.2-0.6C196.2,168.2,195.6,168.5,195,168.3z"/>
	<path opacity="0.2" fill="#211915" d="M210.7,173.3l-9.6-3c-0.6-0.2-0.9-0.8-0.7-1.4l-0.2,0.6c-0.2,0.7,0.2,1.5,0.9,1.7l9.2,2.9
		c0.7,0.2,1.5-0.2,1.7-0.9l0.2-0.6C211.9,173.1,211.3,173.5,210.7,173.3z"/>
	<path opacity="0.2" fill="#211915" d="M207.7,156.3l-9.6-3c-0.6-0.2-0.9-0.8-0.7-1.4l-0.2,0.6c-0.2,0.7,0.2,1.5,0.9,1.7l9.2,2.9
		c0.7,0.2,1.5-0.2,1.7-0.9l0.2-0.6C208.9,156.1,208.3,156.4,207.7,156.3z"/>
	<path opacity="0.2" fill="#211915" d="M223.4,161.2l-9.6-3c-0.6-0.2-0.9-0.8-0.7-1.4l-0.2,0.6c-0.2,0.7,0.2,1.5,0.9,1.7l9.2,2.9
		c0.7,0.2,1.5-0.2,1.7-0.9l0.2-0.6C224.6,161.1,224,161.4,223.4,161.2z"/>
	<path opacity="0.2" fill="#211915" d="M262.5,173.5l-29.3-9.2c-0.6-0.2-0.9-0.8-0.7-1.4l-0.2,0.6c-0.2,0.7,0.2,1.5,0.9,1.7
		l28.9,9.1c0.7,0.2,1.5-0.2,1.7-0.9l0.2-0.6C263.7,173.4,263.1,173.7,262.5,173.5z"/>
	<path opacity="0.2" fill="#211915" d="M125.7,114.4l-9.6-3c-0.6-0.2-0.9-0.8-0.7-1.4l-0.2,0.7c-0.2,0.7,0.2,1.4,0.8,1.6l9.3,2.9
		c0.7,0.2,1.4-0.2,1.6-0.8l0.2-0.7C126.9,114.2,126.2,114.5,125.7,114.4z"/>
	<path opacity="0.2" fill="#211915" d="M141.4,119.3l-9.6-3c-0.6-0.2-0.9-0.8-0.7-1.4l-0.2,0.7c-0.2,0.7,0.2,1.4,0.8,1.6l9.3,2.9
		c0.7,0.2,1.4-0.2,1.6-0.8l0.2-0.7C142.6,119.2,142,119.5,141.4,119.3z"/>
	<path opacity="0.2" fill="#211915" d="M157.1,124.3l-9.6-3c-0.6-0.2-0.9-0.8-0.7-1.4l-0.2,0.7c-0.2,0.7,0.2,1.4,0.8,1.6l9.3,2.9
		c0.7,0.2,1.4-0.2,1.6-0.8l0.2-0.7C158.3,124.1,157.7,124.4,157.1,124.3z"/>
	<path opacity="0.2" fill="#211915" d="M172.8,129.2l-9.6-3c-0.6-0.2-0.9-0.8-0.7-1.4l-0.2,0.7c-0.2,0.7,0.2,1.4,0.8,1.6l9.3,2.9
		c0.7,0.2,1.4-0.2,1.6-0.8l0.2-0.7C174,129.1,173.4,129.4,172.8,129.2z"/>
	<path opacity="0.2" fill="#211915" d="M188.5,134.2l-9.6-3c-0.6-0.2-0.9-0.8-0.7-1.4l-0.2,0.7c-0.2,0.7,0.2,1.4,0.8,1.6l9.3,2.9
		c0.7,0.2,1.4-0.2,1.6-0.8l0.2-0.7C189.7,134,189.1,134.3,188.5,134.2z"/>
	<path opacity="0.2" fill="#211915" d="M204.2,139.1l-9.6-3c-0.6-0.2-0.9-0.8-0.7-1.4l-0.2,0.7c-0.2,0.7,0.2,1.4,0.8,1.6l9.3,2.9
		c0.7,0.2,1.4-0.2,1.6-0.8l0.2-0.7C205.4,139,204.8,139.3,204.2,139.1z"/>
	<path opacity="0.2" fill="#211915" d="M219.9,144.1l-9.6-3c-0.6-0.2-0.9-0.8-0.7-1.4l-0.2,0.7c-0.2,0.7,0.2,1.4,0.8,1.6l9.3,2.9
		c0.7,0.2,1.4-0.2,1.6-0.8l0.2-0.7C221.2,143.9,220.5,144.3,219.9,144.1z"/>
	<path opacity="0.2" fill="#211915" d="M235.6,149l-9.6-3c-0.6-0.2-0.9-0.8-0.7-1.4l-0.2,0.7c-0.2,0.7,0.2,1.4,0.8,1.6l9.3,2.9
		c0.7,0.2,1.4-0.2,1.6-0.8l0.2-0.7C236.9,148.9,236.2,149.2,235.6,149z"/>
	<path opacity="0.2" fill="#211915" d="M267.1,158.9l-25.3-8c-0.6-0.2-0.9-0.8-0.7-1.4l-0.2,0.7c-0.2,0.7,0.2,1.4,0.8,1.6l25,7.9
		c0.7,0.2,1.4-0.2,1.6-0.8l0.2-0.7C268.3,158.8,267.7,159.1,267.1,158.9z"/>
	<path opacity="0.2" fill="#211915" d="M108.7,92.9l-9.6-3c-0.6-0.2-0.9-0.8-0.7-1.4l-0.3,0.8c-0.2,0.6,0.1,1.3,0.8,1.5l9.5,3
		c0.6,0.2,1.3-0.1,1.5-0.8l0.3-0.8C109.9,92.8,109.3,93.1,108.7,92.9z"/>
	<path opacity="0.2" fill="#211915" d="M124.4,97.9l-9.6-3c-0.6-0.2-0.9-0.8-0.7-1.4l-0.3,0.8c-0.2,0.6,0.1,1.3,0.8,1.5l9.5,3
		c0.6,0.2,1.3-0.1,1.5-0.8l0.3-0.8C125.6,97.8,125,98.1,124.4,97.9z"/>
	<path opacity="0.2" fill="#211915" d="M140.1,102.9l-9.6-3c-0.6-0.2-0.9-0.8-0.7-1.4l-0.3,0.8c-0.2,0.6,0.1,1.3,0.8,1.5l9.5,3
		c0.6,0.2,1.3-0.1,1.5-0.8l0.3-0.8C141.3,102.7,140.7,103,140.1,102.9z"/>
	<path opacity="0.2" fill="#211915" d="M155.8,107.8l-9.6-3c-0.6-0.2-0.9-0.8-0.7-1.4l-0.3,0.8c-0.2,0.6,0.1,1.3,0.8,1.5l9.5,3
		c0.6,0.2,1.3-0.1,1.5-0.8l0.3-0.8C157,107.7,156.4,108,155.8,107.8z"/>
	<path opacity="0.2" fill="#211915" d="M171.5,112.8l-9.6-3c-0.6-0.2-0.9-0.8-0.7-1.4l-0.3,0.8c-0.2,0.6,0.1,1.3,0.8,1.5l9.5,3
		c0.6,0.2,1.3-0.1,1.5-0.8l0.3-0.8C172.7,112.6,172.1,112.9,171.5,112.8z"/>
	<path opacity="0.2" fill="#211915" d="M187.2,117.7l-9.6-3c-0.6-0.2-0.9-0.8-0.7-1.4l-0.3,0.8c-0.2,0.6,0.1,1.3,0.8,1.5l9.5,3
		c0.6,0.2,1.3-0.1,1.5-0.8l0.3-0.8C188.5,117.6,187.8,117.9,187.2,117.7z"/>
	<path opacity="0.2" fill="#211915" d="M203,122.7l-9.6-3c-0.6-0.2-0.9-0.8-0.7-1.4l-0.3,0.8c-0.2,0.6,0.1,1.3,0.8,1.5l9.5,3
		c0.6,0.2,1.3-0.1,1.5-0.8l0.3-0.8C204.2,122.5,203.5,122.8,203,122.7z"/>
	<path opacity="0.2" fill="#211915" d="M218.7,127.6l-9.6-3c-0.6-0.2-0.9-0.8-0.7-1.4l-0.3,0.8c-0.2,0.6,0.1,1.3,0.8,1.5l9.5,3
		c0.6,0.2,1.3-0.1,1.5-0.8l0.3-0.8C219.9,127.5,219.3,127.8,218.7,127.6z"/>
	<path opacity="0.2" fill="#211915" d="M234.4,132.6l-9.6-3c-0.6-0.2-0.9-0.8-0.7-1.4l-0.3,0.8c-0.2,0.6,0.1,1.3,0.8,1.5l9.5,3
		c0.6,0.2,1.3-0.1,1.5-0.8l0.3-0.8C235.6,132.4,235,132.8,234.4,132.6z"/>
	<path opacity="0.2" fill="#211915" d="M250.1,137.5l-9.6-3c-0.6-0.2-0.9-0.8-0.7-1.4l-0.2,0.6c-0.2,0.7,0.2,1.4,0.9,1.7l9.2,2.9
		c0.7,0.2,1.4-0.2,1.7-0.9l0.2-0.6C251.3,137.4,250.7,137.7,250.1,137.5z"/>
	<path opacity="0.2" fill="#211915" d="M265.8,142.5l-9.6-3c-0.6-0.2-0.9-0.8-0.7-1.4l-0.2,0.6c-0.2,0.7,0.2,1.4,0.9,1.7l9.2,2.9
		c0.7,0.2,1.4-0.2,1.7-0.9l0.2-0.6C267,142.3,266.4,142.7,265.8,142.5z"/>
	<path opacity="0.2" fill="#211915" d="M103.4,75.2l-9.6-3c-0.6-0.2-0.9-0.8-0.7-1.4l-0.3,0.8c-0.2,0.6,0.1,1.2,0.7,1.4l9.6,3
		c0.6,0.2,1.2-0.1,1.4-0.7l0.3-0.8C104.6,75.1,104,75.4,103.4,75.2z"/>
	<path opacity="0.2" fill="#211915" d="M119.1,80.2l-9.6-3c-0.6-0.2-0.9-0.8-0.7-1.4l-0.3,0.8c-0.2,0.6,0.1,1.2,0.7,1.4l9.6,3
		c0.6,0.2,1.2-0.1,1.4-0.7l0.3-0.8C120.4,80.1,119.7,80.4,119.1,80.2z"/>
	<path opacity="0.2" fill="#211915" d="M134.9,85.1l-9.6-3c-0.6-0.2-0.9-0.8-0.7-1.4l-0.3,0.8c-0.2,0.6,0.1,1.2,0.7,1.4l9.6,3
		c0.6,0.2,1.2-0.1,1.4-0.7l0.3-0.8C136.1,85,135.4,85.3,134.9,85.1z"/>
	<path opacity="0.2" fill="#211915" d="M150.6,90.1l-9.6-3c-0.6-0.2-0.9-0.8-0.7-1.4l-0.3,0.8c-0.2,0.6,0.1,1.2,0.7,1.4l9.6,3
		c0.6,0.2,1.2-0.1,1.4-0.7l0.3-0.8C151.8,90,151.2,90.3,150.6,90.1z"/>
	<path opacity="0.2" fill="#211915" d="M166.3,95.1l-9.6-3c-0.6-0.2-0.9-0.8-0.7-1.4l-0.3,0.8c-0.2,0.6,0.1,1.2,0.7,1.4l9.6,3
		c0.6,0.2,1.2-0.1,1.4-0.7l0.3-0.8C167.5,94.9,166.9,95.2,166.3,95.1z"/>
	<path opacity="0.2" fill="#211915" d="M182,100l-9.6-3c-0.6-0.2-0.9-0.8-0.7-1.4l-0.3,0.8c-0.2,0.6,0.1,1.2,0.7,1.4l9.6,3
		c0.6,0.2,1.2-0.1,1.4-0.7l0.3-0.8C183.2,99.9,182.6,100.2,182,100z"/>
	<path opacity="0.2" fill="#211915" d="M197.7,105l-9.6-3c-0.6-0.2-0.9-0.8-0.7-1.4l-0.3,0.8c-0.2,0.6,0.1,1.2,0.7,1.4l9.6,3
		c0.6,0.2,1.2-0.1,1.4-0.7l0.3-0.8C198.9,104.8,198.3,105.1,197.7,105z"/>
	<path opacity="0.2" fill="#211915" d="M213.4,109.9l-9.6-3c-0.6-0.2-0.9-0.8-0.7-1.4l-0.3,0.8c-0.2,0.6,0.1,1.2,0.7,1.4l9.6,3
		c0.6,0.2,1.2-0.1,1.4-0.7l0.3-0.8C214.6,109.8,214,110.1,213.4,109.9z"/>
	<path opacity="0.2" fill="#211915" d="M229.1,114.9l-9.6-3c-0.6-0.2-0.9-0.8-0.7-1.4l-0.3,0.8c-0.2,0.6,0.1,1.2,0.7,1.4l9.6,3
		c0.6,0.2,1.2-0.1,1.4-0.7l0.3-0.8C230.4,114.7,229.7,115,229.1,114.9z"/>
	<path opacity="0.2" fill="#211915" d="M244.9,119.8l-9.6-3c-0.6-0.2-0.9-0.8-0.7-1.4l-0.3,0.8c-0.2,0.6,0.1,1.2,0.7,1.4l9.6,3
		c0.6,0.2,1.2-0.1,1.4-0.7l0.3-0.8C246.1,119.7,245.4,120,244.9,119.8z"/>
	<path opacity="0.2" fill="#211915" d="M260.6,124.8l-9.6-3c-0.6-0.2-0.9-0.8-0.7-1.4l-0.3,0.8c-0.2,0.6,0.1,1.2,0.7,1.4l9.6,3
		c0.6,0.2,1.2-0.1,1.4-0.7l0.3-0.8C261.8,124.6,261.2,125,260.6,124.8z"/>
	<path opacity="0.2" fill="#211915" d="M276.3,129.7l-9.6-3c-0.6-0.2-0.9-0.8-0.7-1.4l-0.3,0.8c-0.2,0.6,0.1,1.2,0.7,1.4l9.6,3
		c0.6,0.2,1.2-0.1,1.4-0.7l0.3-0.8C277.5,129.6,276.9,129.9,276.3,129.7z"/>
	<path opacity="0.2" fill="#211915" d="M76.6,50.7l-9.6-3c-0.6-0.2-0.9-0.8-0.7-1.4l-0.4,1.1c-0.1,0.4,0.1,0.9,0.5,1l10.1,3.2
		c0.4,0.1,0.9-0.1,1-0.5L78,50C77.8,50.6,77.2,50.9,76.6,50.7z"/>
	<path opacity="0.2" fill="#211915" d="M92.3,55.7l-9.6-3c-0.6-0.2-0.9-0.8-0.7-1.4l-0.4,1.1c-0.1,0.4,0.1,0.9,0.5,1l10.1,3.2
		c0.4,0.1,0.9-0.1,1-0.5l0.4-1.1C93.5,55.5,92.9,55.9,92.3,55.7z"/>
	<path opacity="0.2" fill="#211915" d="M108,60.6l-9.6-3c-0.6-0.2-0.9-0.8-0.7-1.4l-0.4,1.1c-0.1,0.4,0.1,0.9,0.5,1l10.1,3.2
		c0.4,0.1,0.9-0.1,1-0.5l0.4-1.1C109.3,60.5,108.6,60.8,108,60.6z"/>
	<path opacity="0.2" fill="#211915" d="M123.7,65.6l-9.6-3c-0.6-0.2-0.9-0.8-0.7-1.4l-0.4,1.1c-0.1,0.4,0.1,0.9,0.5,1l10.1,3.2
		c0.4,0.1,0.9-0.1,1-0.5l0.4-1.1C125,65.4,124.3,65.8,123.7,65.6z"/>
	<path opacity="0.2" fill="#211915" d="M139.5,70.5l-9.6-3c-0.6-0.2-0.9-0.8-0.7-1.4l-0.4,1.1c-0.1,0.4,0.1,0.9,0.5,1l10.1,3.2
		c0.4,0.1,0.9-0.1,1-0.5l0.4-1.1C140.7,70.4,140,70.7,139.5,70.5z"/>
	<path opacity="0.2" fill="#211915" d="M155.2,75.5l-9.6-3c-0.6-0.2-0.9-0.8-0.7-1.4l-0.4,1.1c-0.1,0.4,0.1,0.9,0.5,1l10.1,3.2
		c0.4,0.1,0.9-0.1,1-0.5l0.4-1.1C156.4,75.4,155.8,75.7,155.2,75.5z"/>
	<path opacity="0.2" fill="#211915" d="M170.9,80.4l-9.6-3c-0.6-0.2-0.9-0.8-0.7-1.4l-0.4,1.1c-0.1,0.4,0.1,0.9,0.5,1l10.1,3.2
		c0.4,0.1,0.9-0.1,1-0.5l0.4-1.1C172.1,80.3,171.5,80.6,170.9,80.4z"/>
	<path opacity="0.2" fill="#211915" d="M186.6,85.4l-9.6-3c-0.6-0.2-0.9-0.8-0.7-1.4l-0.4,1.1c-0.1,0.4,0.1,0.9,0.5,1l10.1,3.2
		c0.4,0.1,0.9-0.1,1-0.5l0.4-1.1C187.8,85.3,187.2,85.6,186.6,85.4z"/>
	<path opacity="0.2" fill="#211915" d="M202.3,90.4l-9.6-3c-0.6-0.2-0.9-0.8-0.7-1.4l-0.4,1.1c-0.1,0.4,0.1,0.9,0.5,1l10.1,3.2
		c0.4,0.1,0.9-0.1,1-0.5l0.4-1.1C203.5,90.2,202.9,90.5,202.3,90.4z"/>
	<path opacity="0.2" fill="#211915" d="M218,95.3l-9.6-3c-0.6-0.2-0.9-0.8-0.7-1.4l-0.4,1.1c-0.1,0.4,0.1,0.9,0.5,1l10.1,3.2
		c0.4,0.1,0.9-0.1,1-0.5l0.4-1.1C219.2,95.2,218.6,95.5,218,95.3z"/>
	<path opacity="0.2" fill="#211915" d="M233.7,100.3l-9.6-3c-0.6-0.2-0.9-0.8-0.7-1.4l-0.4,1.1c-0.1,0.4,0.1,0.9,0.5,1l10.1,3.2
		c0.4,0.1,0.9-0.1,1-0.5l0.4-1.1C235,100.1,234.3,100.4,233.7,100.3z"/>
	<path opacity="0.2" fill="#211915" d="M249.5,105.2l-9.6-3c-0.6-0.2-0.9-0.8-0.7-1.4l-0.4,1.1c-0.1,0.4,0.1,0.9,0.5,1l10.1,3.2
		c0.4,0.1,0.9-0.1,1-0.5l0.4-1.1C250.7,105.1,250,105.4,249.5,105.2z"/>
	<path opacity="0.2" fill="#211915" d="M265.2,110.2l-9.6-3c-0.6-0.2-0.9-0.8-0.7-1.4l-0.4,1.1c-0.1,0.4,0.1,0.9,0.5,1l10.1,3.2
		c0.4,0.1,0.9-0.1,1-0.5l0.4-1.1C266.4,110,265.8,110.4,265.2,110.2z"/>
	<path opacity="0.2" fill="#211915" d="M245.3,176.9l-9.6-3c-0.6-0.2-0.9-0.8-0.7-1.4l-0.4,1.3c-0.1,0.3,0.1,0.7,0.4,0.8l10.5,3.3
		c0.3,0.1,0.7-0.1,0.8-0.4l0.4-1.3C246.5,176.7,245.9,177.1,245.3,176.9z"/>
	<path opacity="0.2" fill="#211915" d="M243.2,183.5l-9.6-3c-0.6-0.2-0.9-0.8-0.7-1.4l-0.4,1.3c-0.1,0.3,0.1,0.7,0.4,0.8l10.5,3.3
		c0.3,0.1,0.7-0.1,0.8-0.4l0.4-1.3C244.4,183.4,243.8,183.7,243.2,183.5z"/>
	<path opacity="0.2" fill="#211915" d="M257.9,188.1l-9.6-3c-0.6-0.2-0.9-0.8-0.7-1.4l-0.4,1.3c-0.1,0.3,0.1,0.7,0.4,0.8l10.5,3.3
		c0.3,0.1,0.7-0.1,0.8-0.4l0.4-1.3C259.1,188,258.5,188.3,257.9,188.1z"/>
	<path opacity="0.2" fill="#211915" d="M228.6,178.9l-9.6-3c-0.6-0.2-0.9-0.8-0.7-1.4l-0.4,1.3c-0.1,0.3,0.1,0.7,0.4,0.8l10.5,3.3
		c0.3,0.1,0.7-0.1,0.8-0.4l0.4-1.3C229.8,178.8,229.2,179.1,228.6,178.9z"/>
	<path opacity="0.2" fill="#211915" d="M280.9,115.1l-9.6-3c-0.6-0.2-0.9-0.8-0.7-1.4l-0.4,1.1c-0.1,0.4,0.1,0.9,0.5,1l10.1,3.2
		c0.4,0.1,0.9-0.1,1-0.5l0.4-1.1C282.1,115,281.5,115.3,280.9,115.1z"/>
</g>
</svg>
