<?xml version="1.0" encoding="utf-8"?>
<!-- Generator: Adobe Illustrator 18.0.0, SVG Export Plug-In . SVG Version: 6.00 Build 0)  -->
<!DOCTYPE svg PUBLIC "-//W3C//DTD SVG 1.1//EN" "http://www.w3.org/Graphics/SVG/1.1/DTD/svg11.dtd">
<svg version="1.1" id="Layer_1" xmlns="http://www.w3.org/2000/svg" xmlns:xlink="http://www.w3.org/1999/xlink" x="0px" y="0px"
	 viewBox="0 0 400 400" enable-background="new 0 0 400 400" xml:space="preserve">
<g>
	<path fill="#FEFEFE" d="M294.2,302.2l-0.6-43.1c0.4-9.1,5.5-13.6,15.6-14h6.3c6.9,0,10.5-3.9,10.5-7.7c0-3.6-3-7.2-10-7.4
		l-56.9,0.2l0-1.4l56.9-0.2c7.9,0.1,11.4,4.6,11.4,8.8c0,4.5-4.2,9.1-11.9,9.1h-6.3c-9.4,0.3-13.9,4.4-14.3,12.6l0.6,43L294.2,302.2
		z"/>
</g>
<g>
	<path fill="#FEFEFE" d="M396.7,136.7c-5.4,0-9.8-4.4-9.8-9.8c0-5.4,4.4-9.8,9.8-9.8c5.4,0,9.8,4.4,9.8,9.8
		C406.6,132.3,402.2,136.7,396.7,136.7z M396.7,118.4c-4.7,0-8.4,3.8-8.4,8.4c0,4.7,3.8,8.4,8.4,8.4c4.7,0,8.4-3.8,8.4-8.4
		C405.2,122.2,401.4,118.4,396.7,118.4z"/>
</g>
<g>
	<path fill="#FEFEFE" d="M362.2,197.8c-2.8,0-5.1-2.3-5.1-5.1s2.3-5.1,5.1-5.1s5.1,2.3,5.1,5.1S365.1,197.8,362.2,197.8z
		 M362.2,188.9c-2.1,0-3.7,1.7-3.7,3.7c0,2.1,1.7,3.7,3.7,3.7c2.1,0,3.7-1.7,3.7-3.7C366,190.6,364.3,188.9,362.2,188.9z"/>
</g>
<g>
	<path fill="#211C1C" d="M94,285.4l-1.4-0.2c2.2-14.7,5.2-14.5,14.2-17.4l0.2,0l28.7,0.1c0,0,0,0,0,0c5.7,0,6.8-4.2,7-6
		c0.5-3.9-1.6-8.7-5.5-9.6c-9.9-2.3-88.3-0.8-89-0.8c-11.7-1.8-15.4-10.9-15.1-18.1c0.3-7.2,4.7-15.2,12.2-15.7
		c10.5-0.8,38.5-0.8,47.6-0.8c2.6,0,4.4,0,4.9,0l0,1.4c-0.6,0-2.4,0-5,0c-9.1,0-37,0-47.5,0.8c-6.7,0.5-10.7,7.8-10.9,14.4
		c-0.3,7,3.2,15.1,13.8,16.7c2.7-0.1,79.1-1.5,89.2,0.8c4.6,1,7.1,6.6,6.6,11.1c-0.5,4.5-3.6,7.2-8.3,7.2c0,0,0,0,0,0l-28.5-0.1
		C99.6,271.6,95.3,276.9,94,285.4z"/>
</g>
<g>
	<path fill="#FEFEFE" d="M140.7,285.4c-2.7,0-4.9-2.2-4.9-4.9c0-2.7,2.2-4.8,4.9-4.8c2.7,0,4.9,2.2,4.9,4.8
		C145.6,283.3,143.4,285.4,140.7,285.4z M140.7,277.1c-1.9,0-3.5,1.6-3.5,3.5c0,1.9,1.6,3.5,3.5,3.5c1.9,0,3.5-1.6,3.5-3.5
		C144.2,278.7,142.6,277.1,140.7,277.1z"/>
</g>
<g>
	<rect x="76" y="285" fill-rule="evenodd" clip-rule="evenodd" fill="#BDBFC1" width="186.6" height="69.2"/>
</g>
<g>
	<rect x="79.2" y="287.9" fill-rule="evenodd" clip-rule="evenodd" fill="#FEFEFE" width="13.9" height="13.9"/>
</g>
<g>
	<rect x="95.9" y="287.9" fill-rule="evenodd" clip-rule="evenodd" fill="#FEFEFE" width="13.9" height="13.9"/>
</g>
<g>
	<rect x="112.5" y="287.9" fill-rule="evenodd" clip-rule="evenodd" fill="#FEFEFE" width="13.9" height="13.9"/>
</g>
<g>
	<rect x="129.1" y="287.9" fill-rule="evenodd" clip-rule="evenodd" fill="#FEFEFE" width="13.9" height="13.9"/>
</g>
<g>
	<rect x="145.7" y="287.9" fill-rule="evenodd" clip-rule="evenodd" fill="#FEFEFE" width="13.9" height="13.9"/>
</g>
<g>
	<rect x="162.4" y="287.9" fill-rule="evenodd" clip-rule="evenodd" fill="#FEFEFE" width="13.9" height="13.9"/>
</g>
<g>
	<rect x="179" y="287.9" fill-rule="evenodd" clip-rule="evenodd" fill="#FEFEFE" width="13.9" height="13.9"/>
</g>
<g>
	<rect x="195.6" y="287.9" fill-rule="evenodd" clip-rule="evenodd" fill="#FEFEFE" width="13.9" height="13.9"/>
</g>
<g>
	<rect x="212.3" y="287.9" fill-rule="evenodd" clip-rule="evenodd" fill="#FEFEFE" width="13.9" height="13.9"/>
</g>
<g>
	<rect x="228.9" y="287.9" fill-rule="evenodd" clip-rule="evenodd" fill="#FEFEFE" width="13.9" height="13.9"/>
</g>
<g>
	<rect x="245.5" y="287.9" fill-rule="evenodd" clip-rule="evenodd" fill="#FEFEFE" width="13.9" height="13.9"/>
</g>
<g>
	<rect x="79.2" y="304.4" fill-rule="evenodd" clip-rule="evenodd" fill="#FEFEFE" width="13.9" height="13.9"/>
</g>
<g>
	<rect x="95.9" y="304.4" fill-rule="evenodd" clip-rule="evenodd" fill="#FEFEFE" width="13.9" height="13.9"/>
</g>
<g>
	<rect x="112.5" y="304.4" fill-rule="evenodd" clip-rule="evenodd" fill="#FEFEFE" width="13.9" height="13.9"/>
</g>
<g>
	<rect x="129.1" y="304.4" fill-rule="evenodd" clip-rule="evenodd" fill="#FEFEFE" width="13.9" height="13.9"/>
</g>
<g>
	<rect x="145.7" y="304.4" fill-rule="evenodd" clip-rule="evenodd" fill="#FEFEFE" width="13.9" height="13.9"/>
</g>
<g>
	<rect x="162.4" y="304.4" fill-rule="evenodd" clip-rule="evenodd" fill="#FEFEFE" width="13.9" height="13.9"/>
</g>
<g>
	<rect x="179" y="304.4" fill-rule="evenodd" clip-rule="evenodd" fill="#FEFEFE" width="13.9" height="13.9"/>
</g>
<g>
	<rect x="195.6" y="304.4" fill-rule="evenodd" clip-rule="evenodd" fill="#FEFEFE" width="13.9" height="13.9"/>
</g>
<g>
	<rect x="212.3" y="304.4" fill-rule="evenodd" clip-rule="evenodd" fill="#FEFEFE" width="13.9" height="13.9"/>
</g>
<g>
	<rect x="228.9" y="304.4" fill-rule="evenodd" clip-rule="evenodd" fill="#FEFEFE" width="13.9" height="13.9"/>
</g>
<g>
	<rect x="245.5" y="304.4" fill-rule="evenodd" clip-rule="evenodd" fill="#FEFEFE" width="13.9" height="13.9"/>
</g>
<g>
	<rect x="79.2" y="320.9" fill-rule="evenodd" clip-rule="evenodd" fill="#FEFEFE" width="13.9" height="13.9"/>
</g>
<g>
	<rect x="95.9" y="320.9" fill-rule="evenodd" clip-rule="evenodd" fill="#FEFEFE" width="13.9" height="13.9"/>
</g>
<g>
	<rect x="112.5" y="320.9" fill-rule="evenodd" clip-rule="evenodd" fill="#FEFEFE" width="13.9" height="13.9"/>
</g>
<g>
	<rect x="129.1" y="320.9" fill-rule="evenodd" clip-rule="evenodd" fill="#FEFEFE" width="13.9" height="13.9"/>
</g>
<g>
	<rect x="145.7" y="320.9" fill-rule="evenodd" clip-rule="evenodd" fill="#FEFEFE" width="13.9" height="13.9"/>
</g>
<g>
	<rect x="162.4" y="320.9" fill-rule="evenodd" clip-rule="evenodd" fill="#FEFEFE" width="13.9" height="13.9"/>
</g>
<g>
	<rect x="179" y="320.9" fill-rule="evenodd" clip-rule="evenodd" fill="#FEFEFE" width="13.9" height="13.9"/>
</g>
<g>
	<rect x="195.6" y="320.9" fill-rule="evenodd" clip-rule="evenodd" fill="#FEFEFE" width="13.9" height="13.9"/>
</g>
<g>
	<rect x="212.3" y="320.9" fill-rule="evenodd" clip-rule="evenodd" fill="#FEFEFE" width="13.9" height="13.9"/>
</g>
<g>
	<rect x="228.9" y="320.9" fill-rule="evenodd" clip-rule="evenodd" fill="#FEFEFE" width="13.9" height="13.9"/>
</g>
<g>
	<rect x="245.5" y="320.9" fill-rule="evenodd" clip-rule="evenodd" fill="#FEFEFE" width="13.9" height="13.9"/>
</g>
<g>
	<rect x="79.2" y="337.3" fill-rule="evenodd" clip-rule="evenodd" fill="#FEFEFE" width="13.9" height="13.9"/>
</g>
<g>
	<rect x="95.9" y="337.3" fill-rule="evenodd" clip-rule="evenodd" fill="#FEFEFE" width="13.9" height="13.9"/>
</g>
<g>
	<rect x="112.5" y="337.3" fill-rule="evenodd" clip-rule="evenodd" fill="#FEFEFE" width="13.9" height="13.9"/>
</g>
<g>
	<rect x="130.2" y="337.3" fill-rule="evenodd" clip-rule="evenodd" fill="#FEFEFE" width="78.2" height="13.9"/>
</g>
<g>
	<rect x="212.3" y="337.3" fill-rule="evenodd" clip-rule="evenodd" fill="#FEFEFE" width="13.9" height="13.9"/>
</g>
<g>
	<rect x="228.9" y="337.3" fill-rule="evenodd" clip-rule="evenodd" fill="#FEFEFE" width="13.9" height="13.9"/>
</g>
<g>
	<rect x="245.5" y="337.3" fill-rule="evenodd" clip-rule="evenodd" fill="#FEFEFE" width="13.9" height="13.9"/>
</g>
<g>
	<rect x="100.7" y="229.2" fill-rule="evenodd" clip-rule="evenodd" fill="#4B4B4D" width="248.9" height="15.9"/>
</g>
<g>
	<rect x="108" y="96.7" fill-rule="evenodd" clip-rule="evenodd" fill="#FEFEFE" width="234.3" height="132.6"/>
</g>
<g>
	<rect x="96.2" y="98.9" fill-rule="evenodd" clip-rule="evenodd" fill="#A9ABAE" width="234.4" height="145"/>
</g>
<g>
	<rect x="187.1" y="155.4" fill-rule="evenodd" clip-rule="evenodd" fill="#5CC6D0" width="134" height="76.5"/>
</g>
<g>
	<rect x="320.4" y="154.3" fill="#FEFEFE" width="1.4" height="78.7"/>
</g>
<g>
	<rect x="275.7" y="154.3" fill="#FEFEFE" width="1.4" height="77.6"/>
</g>
<g>
	<rect x="231.1" y="154.3" fill="#FEFEFE" width="1.4" height="77.6"/>
</g>
<g>
	<polygon fill="#FEFEFE" points="322.2,232.6 186.4,232.6 186.4,154.3 187.8,154.3 187.8,231.2 322.2,231.2 	"/>
</g>
<g>
	<rect x="187.1" y="193" fill="#FEFEFE" width="134" height="1.4"/>
</g>
<g>
	<rect x="186" y="154.7" fill="#FEFEFE" width="136.3" height="1.4"/>
</g>
<g>
	<rect x="104.3" y="136.7" fill-rule="evenodd" clip-rule="evenodd" fill="#FEFEFE" width="72.9" height="133"/>
</g>
<g>
	<rect x="112.2" y="151.2" fill-rule="evenodd" clip-rule="evenodd" fill="#5CC6D0" width="57" height="110.1"/>
</g>
<g>
	<rect x="108" y="204.9" fill-rule="evenodd" clip-rule="evenodd" fill="#E6E7E8" width="65.3" height="11"/>
</g>
<g>
	<rect x="151.3" y="208.6" fill-rule="evenodd" clip-rule="evenodd" fill="#BDBFC1" width="18.6" height="2"/>
</g>
<g>
	<polygon fill-rule="evenodd" clip-rule="evenodd" fill="#DF3438" points="362,152.9 63.1,152.9 85.4,107.8 339.7,107.8 	"/>
</g>
<g>
	<path fill-rule="evenodd" clip-rule="evenodd" fill="#E6E7E8" d="M93.5,128.6c3.1-7.3,6.1-14.2,8.9-20.8c5.7,0,11.3,0,17,0
		c-2.4,6.6-4.9,13.5-7.5,20.8c-2.8,7.7-5.7,15.8-8.8,24.4c-6.6,0-13.3,0-19.9,0C86.7,144.3,90.2,136.2,93.5,128.6L93.5,128.6z
		 M136.3,107.8c5.7,0,11.3,0,17,0c-1.5,6.6-3.1,13.5-4.8,20.8c-1.8,7.7-3.6,15.8-5.6,24.4c-6.6,0-13.3,0-19.9,0
		c2.5-8.6,5-16.7,7.2-24.4C132.3,121.3,134.4,114.4,136.3,107.8L136.3,107.8z M170.3,107.8c5.6,0,11.3,0,16.9,0
		c-0.7,6.6-1.3,13.5-2.1,20.8c-0.8,7.7-1.6,15.8-2.4,24.4c-6.6,0-13.3,0-19.9,0c1.4-8.6,2.7-16.7,4-24.4
		C168,121.3,169.2,114.4,170.3,107.8L170.3,107.8z M204.1,107.8c5.7,0,11.3,0,17,0c0.2,6.6,0.4,13.5,0.7,20.8
		c0.3,7.7,0.5,15.8,0.8,24.4c-6.6,0-13.3,0-19.9,0c0.3-8.6,0.5-16.7,0.8-24.4C203.7,121.3,203.9,114.4,204.1,107.8L204.1,107.8z
		 M258.4,128.6c1.3,7.7,2.6,15.8,4,24.4c-6.6,0-13.3,0-19.9,0c-0.8-8.6-1.7-16.7-2.4-24.4c-0.7-7.3-1.4-14.2-2-20.8
		c5.7,0,11.3,0,17,0C256.1,114.4,257.2,121.3,258.4,128.6L258.4,128.6z M295.1,128.6c2.3,7.7,4.7,15.8,7.2,24.4
		c-6.6,0-13.3,0-19.9,0c-2-8.6-3.9-16.7-5.6-24.4c-1.7-7.3-3.3-14.2-4.8-20.8c5.6,0,11.3,0,16.9,0
		C290.8,114.4,292.9,121.3,295.1,128.6L295.1,128.6z M331.7,128.6c3.3,7.7,6.8,15.8,10.4,24.4c-6.6,0-13.3,0-19.9,0
		c-3.1-8.6-6.1-16.7-8.8-24.4c-2.6-7.3-5.1-14.2-7.5-20.8c5.7,0,11.3,0,17,0C325.7,114.4,328.6,121.3,331.7,128.6z"/>
</g>
<g>
	<path fill-rule="evenodd" clip-rule="evenodd" fill="#FEFEFE" d="M103,152.9v10.3c0,5.5-4.5,9.9-10,9.9c-5.5,0-10-4.5-10-9.9v-10.3
		H103L103,152.9z M142.8,163.2c0,5.5-4.5,9.9-10,9.9c-5.5,0-10-4.5-10-9.9v-10.3h19.9V163.2L142.8,163.2z M182.7,163.2
		c0,5.5-4.5,9.9-10,9.9c-5.5,0-10-4.5-10-9.9v-10.3h19.9V163.2L182.7,163.2z M222.5,163.2c0,5.5-4.5,9.9-10,9.9
		c-5.5,0-10-4.5-10-9.9v-10.3h19.9V163.2L222.5,163.2z M262.4,163.2c0,5.5-4.5,9.9-10,9.9c-5.5,0-10-4.5-10-9.9v-10.3h19.9V163.2
		L262.4,163.2z M302.3,163.2c0,5.5-4.5,9.9-10,9.9c-5.5,0-10-4.5-10-9.9v-10.3h19.9V163.2L302.3,163.2z M342.1,163.2
		c0,5.5-4.5,9.9-10,9.9c-5.5,0-10-4.5-10-9.9v-10.3h19.9V163.2z"/>
</g>
<g>
	<path fill-rule="evenodd" clip-rule="evenodd" fill="#ED3237" d="M83,152.9v10.3c0,5.5-4.5,9.9-10,9.9c-5.5,0-10-4.5-10-9.9v-10.3
		H83L83,152.9z M122.9,163.2c0,5.5-4.5,9.9-10,9.9c-5.5,0-10-4.5-10-9.9v-10.3h19.9V163.2L122.9,163.2z M162.7,163.2
		c0,5.5-4.5,9.9-10,9.9c-5.5,0-10-4.5-10-9.9v-10.3h19.9V163.2L162.7,163.2z M202.6,163.2c0,5.5-4.5,9.9-10,9.9
		c-5.5,0-10-4.5-10-9.9v-10.3h19.9V163.2L202.6,163.2z M242.5,163.2c0,5.5-4.5,9.9-10,9.9c-5.5,0-10-4.5-10-9.9v-10.3h19.9V163.2
		L242.5,163.2z M282.3,163.2c0,5.5-4.5,9.9-10,9.9c-5.5,0-10-4.5-10-9.9v-10.3h19.9V163.2L282.3,163.2z M322.2,163.2
		c0,5.5-4.5,9.9-10,9.9c-5.5,0-10-4.5-10-9.9v-10.3h19.9V163.2L322.2,163.2z M362,163.2c0,5.5-4.5,9.9-10,9.9c-5.5,0-10-4.5-10-9.9
		v-10.3H362V163.2z"/>
</g>
<g>
	<g>
		<path fill="#FEFEFE" d="M330.5,234.3c-3.5,0-6.4-2.9-6.4-6.4c0-3.5,2.9-6.4,6.4-6.4s6.4,2.9,6.4,6.4
			C336.8,231.5,334,234.3,330.5,234.3z M330.5,222.5c-3,0-5.5,2.5-5.5,5.5s2.5,5.5,5.5,5.5c3,0,5.5-2.5,5.5-5.5
			S333.5,222.5,330.5,222.5z"/>
	</g>
	<g>
		<path fill="#FEFEFE" d="M330.5,231.3c-1.8,0-3.3-1.5-3.3-3.3c0-1.8,1.5-3.3,3.3-3.3c1.8,0,3.3,1.5,3.3,3.3
			C333.8,229.8,332.3,231.3,330.5,231.3z M330.5,225.5c-1.3,0-2.4,1.1-2.4,2.4c0,1.3,1.1,2.4,2.4,2.4c1.3,0,2.4-1.1,2.4-2.4
			C332.9,226.6,331.8,225.5,330.5,225.5z"/>
	</g>
	<g>
		<path fill-rule="evenodd" clip-rule="evenodd" fill="#EF5036" d="M336.8,283c17.6,0,32-14.4,32-32c0-17.6-14.4-32-32-32
			c-17.6,0-32,14.4-32,32C304.9,268.6,319.2,283,336.8,283z"/>
	</g>
	<g>
		<path fill="#FEFEFE" d="M328.4,263.1l15.7-25.1l1.2,0.7l-15.6,25.1L328.4,263.1L328.4,263.1z M327.8,248.7c0.9,1.1,2,1.7,3.3,1.7
			c1.3,0,2.4-0.6,3.3-1.7c0.9-1.1,1.4-2.6,1.4-4.5c0-1.9-0.4-3.3-1.3-4.4c-0.9-1.1-2-1.6-3.4-1.6c-1.4,0-2.5,0.5-3.4,1.6
			c-0.9,1.1-1.3,2.5-1.3,4.4C326.4,246,326.8,247.5,327.8,248.7L327.8,248.7z M328.8,240.6c-0.6,0.9-1,2.1-1,3.6
			c0,1.5,0.3,2.7,1,3.6c0.6,0.9,1.4,1.3,2.4,1.3c0.9,0,1.7-0.4,2.3-1.3c0.6-0.9,0.9-2.1,0.9-3.6c0-1.5-0.3-2.7-0.9-3.6
			c-0.6-0.9-1.4-1.3-2.3-1.3C330.2,239.3,329.4,239.7,328.8,240.6L328.8,240.6z M339.2,261.8c0.9,1.1,2,1.7,3.3,1.7
			c1.3,0,2.4-0.6,3.3-1.7c0.9-1.1,1.4-2.6,1.4-4.5c0-1.9-0.4-3.3-1.3-4.4c-0.9-1.1-2-1.6-3.4-1.6c-1.4,0-2.5,0.5-3.4,1.6
			c-0.9,1.1-1.3,2.5-1.3,4.4C337.9,259.1,338.3,260.6,339.2,261.8L339.2,261.8z M340.2,253.7c-0.6,0.9-1,2.1-1,3.6
			c0,1.5,0.3,2.7,1,3.6c0.6,0.9,1.4,1.3,2.4,1.3c0.9,0,1.7-0.4,2.3-1.3c0.6-0.9,0.9-2.1,0.9-3.6c0-1.5-0.3-2.7-0.9-3.6
			c-0.6-0.9-1.4-1.3-2.3-1.3C341.7,252.4,340.9,252.8,340.2,253.7z"/>
	</g>
</g>
<g>
	<path fill-rule="evenodd" clip-rule="evenodd" fill="#BDBFC1" d="M295,300.6L295,300.6c7.1,0,13,5.8,13,13v16.3c0,7.1-5.8,13-13,13
		l0,0c-7.1,0-13-5.8-13-13v-16.3C282,306.4,287.8,300.6,295,300.6z"/>
</g>
<g>
	<path fill-rule="evenodd" clip-rule="evenodd" fill="#C1C3C5" d="M295,300.6L295,300.6c7.1,0,13,5.8,13,13v1.1H282v-1.1
		C282,306.4,287.8,300.6,295,300.6z"/>
</g>
<g>
	<path fill="#FEFEFE" d="M293.8,309.5c0-0.9,0.6-1.7,1.3-1.7c0.7,0,1.3,0.7,1.3,1.7v5c0,0.9-0.6,1.7-1.3,1.7c-0.7,0-1.3-0.7-1.3-1.7
		V309.5z"/>
</g>
<g>
	<rect x="68" y="78.9" fill-rule="evenodd" clip-rule="evenodd" fill="#E6E7E8" width="289.6" height="18.5"/>
</g>
<g>
	<rect x="154.6" y="51.7" fill-rule="evenodd" clip-rule="evenodd" fill="#ED3237" width="117.8" height="27.3"/>
</g>
<g>
	<rect x="159.4" y="56.9" fill-rule="evenodd" clip-rule="evenodd" fill="#FEFEFE" width="108.1" height="22"/>
</g>
<g>
	<path fill="#FEFEFE" d="M218.8,296.9c-2.7,0-4.8-2.2-4.8-4.9c0-2.7,2.2-4.9,4.8-4.9c2.7,0,4.9,2.2,4.9,4.9
		C223.7,294.7,221.5,296.9,218.8,296.9z M218.8,288.6c-1.9,0-3.5,1.6-3.5,3.5c0,1.9,1.6,3.5,3.5,3.5c1.9,0,3.5-1.6,3.5-3.5
		C222.3,290.1,220.7,288.6,218.8,288.6z"/>
</g>
<text transform="matrix(1 0 0 1 181.8418 72.7521)" font-family="'MyriadPro-Regular'" font-size="14">T I E N D A</text>
</svg>
